%TF.GenerationSoftware,KiCad,Pcbnew,(6.0.1)*%
%TF.CreationDate,2023-01-04T22:15:02+03:00*%
%TF.ProjectId,EspDevBoard,45737044-6576-4426-9f61-72642e6b6963,rev?*%
%TF.SameCoordinates,Original*%
%TF.FileFunction,Paste,Top*%
%TF.FilePolarity,Positive*%
%FSLAX46Y46*%
G04 Gerber Fmt 4.6, Leading zero omitted, Abs format (unit mm)*
G04 Created by KiCad (PCBNEW (6.0.1)) date 2023-01-04 22:15:02*
%MOMM*%
%LPD*%
G01*
G04 APERTURE LIST*
G04 Aperture macros list*
%AMRoundRect*
0 Rectangle with rounded corners*
0 $1 Rounding radius*
0 $2 $3 $4 $5 $6 $7 $8 $9 X,Y pos of 4 corners*
0 Add a 4 corners polygon primitive as box body*
4,1,4,$2,$3,$4,$5,$6,$7,$8,$9,$2,$3,0*
0 Add four circle primitives for the rounded corners*
1,1,$1+$1,$2,$3*
1,1,$1+$1,$4,$5*
1,1,$1+$1,$6,$7*
1,1,$1+$1,$8,$9*
0 Add four rect primitives between the rounded corners*
20,1,$1+$1,$2,$3,$4,$5,0*
20,1,$1+$1,$4,$5,$6,$7,0*
20,1,$1+$1,$6,$7,$8,$9,0*
20,1,$1+$1,$8,$9,$2,$3,0*%
G04 Aperture macros list end*
%ADD10RoundRect,0.140000X0.140000X0.170000X-0.140000X0.170000X-0.140000X-0.170000X0.140000X-0.170000X0*%
%ADD11RoundRect,0.140000X-0.140000X-0.170000X0.140000X-0.170000X0.140000X0.170000X-0.140000X0.170000X0*%
%ADD12R,0.250000X0.360000*%
%ADD13RoundRect,0.135000X0.135000X0.185000X-0.135000X0.185000X-0.135000X-0.185000X0.135000X-0.185000X0*%
%ADD14RoundRect,0.140000X0.170000X-0.140000X0.170000X0.140000X-0.170000X0.140000X-0.170000X-0.140000X0*%
%ADD15RoundRect,0.135000X-0.135000X-0.185000X0.135000X-0.185000X0.135000X0.185000X-0.135000X0.185000X0*%
%ADD16RoundRect,0.135000X-0.185000X0.135000X-0.185000X-0.135000X0.185000X-0.135000X0.185000X0.135000X0*%
%ADD17RoundRect,0.243750X-0.243750X-0.456250X0.243750X-0.456250X0.243750X0.456250X-0.243750X0.456250X0*%
%ADD18R,1.380000X0.450000*%
%ADD19R,1.550000X1.425000*%
%ADD20R,1.300000X1.650000*%
%ADD21R,1.900000X1.000000*%
%ADD22R,1.900000X1.800000*%
%ADD23RoundRect,0.150000X-0.150000X0.587500X-0.150000X-0.587500X0.150000X-0.587500X0.150000X0.587500X0*%
%ADD24R,1.550000X1.300000*%
%ADD25RoundRect,0.250000X-0.250000X-0.475000X0.250000X-0.475000X0.250000X0.475000X-0.250000X0.475000X0*%
%ADD26R,0.900000X2.000000*%
%ADD27R,2.000000X0.900000*%
%ADD28R,5.000000X5.000000*%
%ADD29RoundRect,0.135000X0.185000X-0.135000X0.185000X0.135000X-0.185000X0.135000X-0.185000X-0.135000X0*%
%ADD30RoundRect,0.225000X0.225000X0.225000X-0.225000X0.225000X-0.225000X-0.225000X0.225000X-0.225000X0*%
%ADD31RoundRect,0.062500X0.337500X0.062500X-0.337500X0.062500X-0.337500X-0.062500X0.337500X-0.062500X0*%
%ADD32RoundRect,0.062500X0.062500X0.337500X-0.062500X0.337500X-0.062500X-0.337500X0.062500X-0.337500X0*%
%ADD33RoundRect,0.140000X-0.170000X0.140000X-0.170000X-0.140000X0.170000X-0.140000X0.170000X0.140000X0*%
%ADD34R,1.500000X2.000000*%
%ADD35R,3.800000X2.000000*%
G04 APERTURE END LIST*
D10*
%TO.C,C3*%
X183380000Y-65300000D03*
X182420000Y-65300000D03*
%TD*%
D11*
%TO.C,C10*%
X180620000Y-78900000D03*
X181580000Y-78900000D03*
%TD*%
D12*
%TO.C,D4*%
X185600000Y-73120000D03*
X185600000Y-72280000D03*
%TD*%
D13*
%TO.C,R13*%
X208910000Y-75600000D03*
X207890000Y-75600000D03*
%TD*%
D11*
%TO.C,C2*%
X206520000Y-69200000D03*
X207480000Y-69200000D03*
%TD*%
D12*
%TO.C,D3*%
X185200000Y-67180000D03*
X185200000Y-68020000D03*
%TD*%
D14*
%TO.C,C9*%
X221600000Y-71280000D03*
X221600000Y-70320000D03*
%TD*%
D15*
%TO.C,R12*%
X193590000Y-79300000D03*
X194610000Y-79300000D03*
%TD*%
D16*
%TO.C,R7*%
X215000000Y-77980000D03*
X215000000Y-79000000D03*
%TD*%
%TO.C,R8*%
X213900000Y-77990000D03*
X213900000Y-79010000D03*
%TD*%
D11*
%TO.C,C12*%
X207920000Y-77200000D03*
X208880000Y-77200000D03*
%TD*%
D17*
%TO.C,D2*%
X216262500Y-66800000D03*
X218137500Y-66800000D03*
%TD*%
D18*
%TO.C,J3*%
X183460000Y-70800000D03*
X183460000Y-71450000D03*
X183460000Y-72100000D03*
X183460000Y-72750000D03*
X183460000Y-73400000D03*
D19*
X183375000Y-69612500D03*
D20*
X180800000Y-68725000D03*
X180800000Y-75475000D03*
D21*
X180800000Y-73650000D03*
D22*
X180800000Y-70950000D03*
D19*
X183375000Y-74587500D03*
%TD*%
D15*
%TO.C,R11*%
X191090000Y-79300000D03*
X192110000Y-79300000D03*
%TD*%
D23*
%TO.C,Q4*%
X200450000Y-76562500D03*
X198550000Y-76562500D03*
X199500000Y-78437500D03*
%TD*%
D24*
%TO.C,SW1*%
X196475000Y-73050000D03*
X188525000Y-73050000D03*
X188525000Y-77550000D03*
X196475000Y-77550000D03*
%TD*%
D16*
%TO.C,R2*%
X218500000Y-68380000D03*
X218500000Y-69400000D03*
%TD*%
D25*
%TO.C,C8*%
X218450000Y-74300000D03*
X220350000Y-74300000D03*
%TD*%
D10*
%TO.C,C13*%
X185160000Y-78900000D03*
X184200000Y-78900000D03*
%TD*%
D15*
%TO.C,R4*%
X202790000Y-66400000D03*
X203810000Y-66400000D03*
%TD*%
D14*
%TO.C,C7*%
X186500000Y-67580000D03*
X186500000Y-66620000D03*
%TD*%
D17*
%TO.C,D1*%
X217462500Y-77600000D03*
X219337500Y-77600000D03*
%TD*%
D26*
%TO.C,U3*%
X241955000Y-63700000D03*
X240685000Y-63700000D03*
X239415000Y-63700000D03*
X238145000Y-63700000D03*
X236875000Y-63700000D03*
X235605000Y-63700000D03*
X234335000Y-63700000D03*
X233065000Y-63700000D03*
X231795000Y-63700000D03*
X230525000Y-63700000D03*
X229255000Y-63700000D03*
X227985000Y-63700000D03*
X226715000Y-63700000D03*
X225445000Y-63700000D03*
D27*
X224445000Y-66485000D03*
X224445000Y-67755000D03*
X224445000Y-69025000D03*
X224445000Y-70295000D03*
X224445000Y-71565000D03*
X224445000Y-72835000D03*
X224445000Y-74105000D03*
X224445000Y-75375000D03*
X224445000Y-76645000D03*
X224445000Y-77915000D03*
D26*
X225445000Y-80700000D03*
X226715000Y-80700000D03*
X227985000Y-80700000D03*
X229255000Y-80700000D03*
X230525000Y-80700000D03*
X231795000Y-80700000D03*
X233065000Y-80700000D03*
X234335000Y-80700000D03*
X235605000Y-80700000D03*
X236875000Y-80700000D03*
X238145000Y-80700000D03*
X239415000Y-80700000D03*
X240685000Y-80700000D03*
X241955000Y-80700000D03*
D28*
X234455000Y-71200000D03*
%TD*%
D15*
%TO.C,R14*%
X205190000Y-74800000D03*
X206210000Y-74800000D03*
%TD*%
D29*
%TO.C,R1*%
X216900000Y-74920000D03*
X216900000Y-73900000D03*
%TD*%
%TO.C,R5*%
X205200000Y-67110000D03*
X205200000Y-66090000D03*
%TD*%
D14*
%TO.C,C5*%
X216500000Y-70680000D03*
X216500000Y-69720000D03*
%TD*%
D24*
%TO.C,SW2*%
X196475000Y-71050000D03*
X188525000Y-71050000D03*
X188525000Y-66550000D03*
X196475000Y-66550000D03*
%TD*%
D15*
%TO.C,R3*%
X200790000Y-66400000D03*
X201810000Y-66400000D03*
%TD*%
D30*
%TO.C,U2*%
X202720000Y-73120000D03*
X201600000Y-72000000D03*
X202720000Y-70880000D03*
X201600000Y-73120000D03*
X200480000Y-72000000D03*
X201600000Y-70880000D03*
X202720000Y-72000000D03*
X200480000Y-73120000D03*
X200480000Y-70880000D03*
D31*
X204050000Y-73500000D03*
X204050000Y-73000000D03*
X204050000Y-72500000D03*
X204050000Y-72000000D03*
X204050000Y-71500000D03*
X204050000Y-71000000D03*
X204050000Y-70500000D03*
D32*
X203100000Y-69550000D03*
X202600000Y-69550000D03*
X202100000Y-69550000D03*
X201600000Y-69550000D03*
X201100000Y-69550000D03*
X200600000Y-69550000D03*
X200100000Y-69550000D03*
D31*
X199150000Y-70500000D03*
X199150000Y-71000000D03*
X199150000Y-71500000D03*
X199150000Y-72000000D03*
X199150000Y-72500000D03*
X199150000Y-73000000D03*
X199150000Y-73500000D03*
D32*
X200100000Y-74450000D03*
X200600000Y-74450000D03*
X201100000Y-74450000D03*
X201600000Y-74450000D03*
X202100000Y-74450000D03*
X202600000Y-74450000D03*
X203100000Y-74450000D03*
%TD*%
D13*
%TO.C,R6*%
X199810000Y-66400000D03*
X198790000Y-66400000D03*
%TD*%
D33*
%TO.C,C1*%
X207200000Y-70320000D03*
X207200000Y-71280000D03*
%TD*%
D16*
%TO.C,R15*%
X202900000Y-77090000D03*
X202900000Y-78110000D03*
%TD*%
D11*
%TO.C,C4*%
X210020000Y-67900000D03*
X210980000Y-67900000D03*
%TD*%
D33*
%TO.C,C6*%
X221400000Y-66120000D03*
X221400000Y-67080000D03*
%TD*%
D23*
%TO.C,Q3*%
X206650000Y-76362500D03*
X204750000Y-76362500D03*
X205700000Y-78237500D03*
%TD*%
D12*
%TO.C,D5*%
X185600000Y-70380000D03*
X185600000Y-71220000D03*
%TD*%
D34*
%TO.C,U1*%
X214800000Y-69750000D03*
D35*
X212500000Y-76050000D03*
D34*
X212500000Y-69750000D03*
X210200000Y-69750000D03*
%TD*%
M02*
