%TF.GenerationSoftware,KiCad,Pcbnew,(6.0.1)*%
%TF.CreationDate,2023-01-04T22:15:02+03:00*%
%TF.ProjectId,EspDevBoard,45737044-6576-4426-9f61-72642e6b6963,rev?*%
%TF.SameCoordinates,Original*%
%TF.FileFunction,Copper,L3,Inr*%
%TF.FilePolarity,Positive*%
%FSLAX46Y46*%
G04 Gerber Fmt 4.6, Leading zero omitted, Abs format (unit mm)*
G04 Created by KiCad (PCBNEW (6.0.1)) date 2023-01-04 22:15:02*
%MOMM*%
%LPD*%
G01*
G04 APERTURE LIST*
G04 Aperture macros list*
%AMRoundRect*
0 Rectangle with rounded corners*
0 $1 Rounding radius*
0 $2 $3 $4 $5 $6 $7 $8 $9 X,Y pos of 4 corners*
0 Add a 4 corners polygon primitive as box body*
4,1,4,$2,$3,$4,$5,$6,$7,$8,$9,$2,$3,0*
0 Add four circle primitives for the rounded corners*
1,1,$1+$1,$2,$3*
1,1,$1+$1,$4,$5*
1,1,$1+$1,$6,$7*
1,1,$1+$1,$8,$9*
0 Add four rect primitives between the rounded corners*
20,1,$1+$1,$2,$3,$4,$5,0*
20,1,$1+$1,$4,$5,$6,$7,0*
20,1,$1+$1,$6,$7,$8,$9,0*
20,1,$1+$1,$8,$9,$2,$3,0*%
G04 Aperture macros list end*
%TA.AperFunction,ComponentPad*%
%ADD10RoundRect,0.250000X-0.620000X-0.620000X0.620000X-0.620000X0.620000X0.620000X-0.620000X0.620000X0*%
%TD*%
%TA.AperFunction,ComponentPad*%
%ADD11C,1.740000*%
%TD*%
%TA.AperFunction,ComponentPad*%
%ADD12RoundRect,0.200000X0.200000X0.450000X-0.200000X0.450000X-0.200000X-0.450000X0.200000X-0.450000X0*%
%TD*%
%TA.AperFunction,ComponentPad*%
%ADD13O,0.800000X1.300000*%
%TD*%
%TA.AperFunction,ComponentPad*%
%ADD14RoundRect,0.200000X-0.200000X-0.450000X0.200000X-0.450000X0.200000X0.450000X-0.200000X0.450000X0*%
%TD*%
%TA.AperFunction,ViaPad*%
%ADD15C,0.800000*%
%TD*%
G04 APERTURE END LIST*
D10*
%TO.N,GND*%
%TO.C,J2*%
X180900000Y-63300000D03*
D11*
%TO.N,+3V3*%
X183440000Y-63300000D03*
%TO.N,/EN*%
X185980000Y-63300000D03*
%TO.N,/I36*%
X188520000Y-63300000D03*
%TO.N,/I39*%
X191060000Y-63300000D03*
%TO.N,/I34*%
X193600000Y-63300000D03*
%TO.N,/I35*%
X196140000Y-63300000D03*
%TO.N,/IO32*%
X198680000Y-63300000D03*
%TO.N,/IO33*%
X201220000Y-63300000D03*
%TO.N,/IO25*%
X203760000Y-63300000D03*
%TO.N,/IO26*%
X206300000Y-63300000D03*
%TO.N,/IO27*%
X208840000Y-63300000D03*
%TO.N,/IO14*%
X211380000Y-63300000D03*
%TO.N,/IO12*%
X213920000Y-63300000D03*
%TO.N,GND*%
X216460000Y-63300000D03*
%TO.N,/IO13*%
X219000000Y-63300000D03*
%TO.N,VCC*%
X221540000Y-63300000D03*
%TD*%
D12*
%TO.N,Net-(C11-Pad1)*%
%TO.C,J4*%
X185325000Y-77200000D03*
D13*
%TO.N,+3V3*%
X184075000Y-77200000D03*
%TD*%
D14*
%TO.N,VBUS*%
%TO.C,J1*%
X208950000Y-66300000D03*
D13*
%TO.N,+5V*%
X210200000Y-66300000D03*
%TO.N,VCC*%
X211450000Y-66300000D03*
%TD*%
D10*
%TO.N,+3V3*%
%TO.C,J5*%
X180900000Y-81000000D03*
D11*
%TO.N,GND*%
X183440000Y-81000000D03*
%TO.N,/IO23*%
X185980000Y-81000000D03*
%TO.N,/IO22*%
X188520000Y-81000000D03*
%TO.N,/TXD0*%
X191060000Y-81000000D03*
%TO.N,/RXD0*%
X193600000Y-81000000D03*
%TO.N,/IO21*%
X196140000Y-81000000D03*
%TO.N,GND*%
X198680000Y-81000000D03*
%TO.N,/IO19*%
X201220000Y-81000000D03*
%TO.N,/IO18*%
X203760000Y-81000000D03*
%TO.N,/IO5*%
X206300000Y-81000000D03*
%TO.N,/IO17*%
X208840000Y-81000000D03*
%TO.N,/IO16*%
X211380000Y-81000000D03*
%TO.N,/IO4*%
X213920000Y-81000000D03*
%TO.N,/IO0_CON*%
X216460000Y-81000000D03*
%TO.N,/IO2*%
X219000000Y-81000000D03*
%TO.N,/IO15*%
X221540000Y-81000000D03*
%TD*%
D15*
%TO.N,+3V3*%
X240685000Y-65385000D03*
X207400000Y-73800000D03*
X207400000Y-66700000D03*
X216000000Y-71700000D03*
X200790000Y-67290000D03*
X217900000Y-72700000D03*
X218600000Y-70600000D03*
X219400000Y-72700000D03*
X222600000Y-71900000D03*
X240685000Y-66785000D03*
%TO.N,GND*%
X195100000Y-70600000D03*
X221800000Y-72700000D03*
X236400000Y-70500000D03*
X200500000Y-70600000D03*
X236400000Y-72500000D03*
X186500000Y-65400000D03*
X181400000Y-72500000D03*
X235500000Y-69500000D03*
X214600000Y-65200000D03*
X205875386Y-73800000D03*
X206500000Y-72300000D03*
X183300000Y-78900000D03*
X183375000Y-68325000D03*
X219600000Y-70600000D03*
X233700000Y-73300000D03*
X201700000Y-70600000D03*
X180050000Y-72500000D03*
X208200000Y-70200000D03*
X241955000Y-65355000D03*
X181500000Y-66000000D03*
X202900000Y-70600000D03*
X185200000Y-66200000D03*
X198790000Y-67290000D03*
X182300000Y-79600000D03*
X220600000Y-70600000D03*
X212500000Y-66700000D03*
X233700000Y-71600000D03*
X241955000Y-79155000D03*
X201700000Y-72700000D03*
X233700000Y-69500000D03*
X234600000Y-70500000D03*
X185600000Y-69400000D03*
X217600000Y-70600000D03*
X235500000Y-71700000D03*
X209800000Y-75300000D03*
X200500000Y-72700000D03*
X180800000Y-67100000D03*
X182800000Y-76400000D03*
X202900000Y-72700000D03*
X180800000Y-77300000D03*
X189800000Y-75200000D03*
X190100000Y-68800000D03*
X185600000Y-74100000D03*
X190300000Y-70400000D03*
X185600000Y-75500000D03*
X186750000Y-73350000D03*
X223900000Y-64350000D03*
X214700000Y-71500000D03*
X206200000Y-65400000D03*
X220700000Y-72700000D03*
X194950000Y-73050000D03*
X234600000Y-72400000D03*
X235500000Y-73300000D03*
X232700000Y-72500000D03*
X232700000Y-70500000D03*
%TO.N,Net-(C11-Pad1)*%
X187800000Y-68200000D03*
X191800000Y-70300000D03*
X193600000Y-72800000D03*
%TO.N,/EN*%
X200600000Y-78100000D03*
X204000000Y-69700000D03*
X239415000Y-65315000D03*
X198000000Y-78400000D03*
X212750489Y-72449511D03*
%TO.N,/IO18*%
X215298079Y-76801921D03*
X231795000Y-79205000D03*
%TO.N,/USB_DP*%
X205400000Y-72300000D03*
X186480000Y-72280000D03*
%TO.N,/USB_DN*%
X205400000Y-71300000D03*
X186480000Y-71220000D03*
%TO.N,/I36*%
X238145000Y-65345000D03*
%TO.N,/I39*%
X236875000Y-65375000D03*
%TO.N,/I34*%
X235605000Y-65395000D03*
%TO.N,/I35*%
X234335000Y-65365000D03*
%TO.N,/IO32*%
X233065000Y-65365000D03*
%TO.N,/IO33*%
X231795000Y-65395000D03*
%TO.N,/IO25*%
X230525000Y-65375000D03*
%TO.N,/IO26*%
X229255000Y-65345000D03*
%TO.N,/IO27*%
X227985000Y-65385000D03*
%TO.N,/IO14*%
X226715000Y-65385000D03*
%TO.N,/IO12*%
X225445000Y-65355000D03*
%TO.N,/IO13*%
X222900000Y-64300000D03*
%TO.N,/IO23*%
X240685000Y-79185000D03*
%TO.N,/IO22*%
X239415000Y-79115000D03*
%TO.N,/TXD0*%
X238145000Y-79145000D03*
%TO.N,/RXD0*%
X236875000Y-79175000D03*
%TO.N,/IO21*%
X235605000Y-79205000D03*
%TO.N,/IO19*%
X233065000Y-79235000D03*
%TO.N,/IO5*%
X230525000Y-79275000D03*
%TO.N,/IO17*%
X229255000Y-79245000D03*
%TO.N,/IO16*%
X227985000Y-79215000D03*
%TO.N,/IO4*%
X226715000Y-79215000D03*
%TO.N,/IO2*%
X223200000Y-80300000D03*
%TO.N,/DTR*%
X203850000Y-75450000D03*
X199300000Y-75400000D03*
%TO.N,/IO0*%
X217800000Y-79900000D03*
X225445000Y-79245000D03*
%TO.N,/RXD*%
X192110000Y-77010000D03*
X201900000Y-76400000D03*
%TO.N,/TXD*%
X193900000Y-77000000D03*
X202800000Y-75800000D03*
%TD*%
%TA.AperFunction,Conductor*%
%TO.N,GND*%
G36*
X242334121Y-62578002D02*
G01*
X242380614Y-62631658D01*
X242392000Y-62684000D01*
X242392000Y-81716000D01*
X242371998Y-81784121D01*
X242318342Y-81830614D01*
X242266000Y-81842000D01*
X222864430Y-81842000D01*
X222796309Y-81821998D01*
X222749816Y-81768342D01*
X222739712Y-81698068D01*
X222751473Y-81660173D01*
X222823795Y-81513840D01*
X222826089Y-81509199D01*
X222891985Y-81292310D01*
X222892195Y-81290716D01*
X222925648Y-81229271D01*
X222987919Y-81195169D01*
X223041051Y-81195011D01*
X223098049Y-81207127D01*
X223098058Y-81207128D01*
X223104513Y-81208500D01*
X223295487Y-81208500D01*
X223301939Y-81207128D01*
X223301944Y-81207128D01*
X223388887Y-81188647D01*
X223482288Y-81168794D01*
X223491230Y-81164813D01*
X223650722Y-81093803D01*
X223650724Y-81093802D01*
X223656752Y-81091118D01*
X223811253Y-80978866D01*
X223939040Y-80836944D01*
X224034527Y-80671556D01*
X224093542Y-80489928D01*
X224096413Y-80462618D01*
X224112814Y-80306565D01*
X224113504Y-80300000D01*
X224109396Y-80260915D01*
X224094232Y-80116635D01*
X224094232Y-80116633D01*
X224093542Y-80110072D01*
X224034527Y-79928444D01*
X224026111Y-79913866D01*
X223986815Y-79845804D01*
X223939040Y-79763056D01*
X223919031Y-79740833D01*
X223815675Y-79626045D01*
X223815674Y-79626044D01*
X223811253Y-79621134D01*
X223656752Y-79508882D01*
X223650724Y-79506198D01*
X223650722Y-79506197D01*
X223488319Y-79433891D01*
X223488318Y-79433891D01*
X223482288Y-79431206D01*
X223388887Y-79411353D01*
X223301944Y-79392872D01*
X223301939Y-79392872D01*
X223295487Y-79391500D01*
X223104513Y-79391500D01*
X223098061Y-79392872D01*
X223098056Y-79392872D01*
X223011112Y-79411353D01*
X222917712Y-79431206D01*
X222911682Y-79433891D01*
X222911681Y-79433891D01*
X222749278Y-79506197D01*
X222749276Y-79506198D01*
X222743248Y-79508882D01*
X222588747Y-79621134D01*
X222584326Y-79626044D01*
X222584325Y-79626045D01*
X222480970Y-79740833D01*
X222460960Y-79763056D01*
X222457659Y-79768774D01*
X222457656Y-79768778D01*
X222448041Y-79785431D01*
X222396658Y-79834424D01*
X222326944Y-79847859D01*
X222278031Y-79832739D01*
X222107015Y-79738334D01*
X222102146Y-79736610D01*
X222102142Y-79736608D01*
X221898214Y-79664393D01*
X221898210Y-79664392D01*
X221893339Y-79662667D01*
X221888246Y-79661760D01*
X221888243Y-79661759D01*
X221815832Y-79648861D01*
X221670173Y-79622915D01*
X221581227Y-79621828D01*
X221448681Y-79620208D01*
X221448679Y-79620208D01*
X221443511Y-79620145D01*
X221219441Y-79654433D01*
X221003979Y-79724857D01*
X220999391Y-79727245D01*
X220999387Y-79727247D01*
X220835633Y-79812492D01*
X220802913Y-79829525D01*
X220798780Y-79832628D01*
X220798777Y-79832630D01*
X220637306Y-79953866D01*
X220621641Y-79965628D01*
X220567648Y-80022128D01*
X220480051Y-80113794D01*
X220465033Y-80129509D01*
X220462124Y-80133774D01*
X220462118Y-80133782D01*
X220373645Y-80263479D01*
X220318734Y-80308482D01*
X220248209Y-80316653D01*
X220184462Y-80285399D01*
X220163767Y-80260918D01*
X220095914Y-80156033D01*
X219943356Y-79988374D01*
X219939305Y-79985175D01*
X219939301Y-79985171D01*
X219769519Y-79851085D01*
X219769515Y-79851083D01*
X219765464Y-79847883D01*
X219754016Y-79841563D01*
X219701353Y-79812492D01*
X219567015Y-79738334D01*
X219562146Y-79736610D01*
X219562142Y-79736608D01*
X219358214Y-79664393D01*
X219358210Y-79664392D01*
X219353339Y-79662667D01*
X219348246Y-79661760D01*
X219348243Y-79661759D01*
X219275832Y-79648861D01*
X219130173Y-79622915D01*
X219041227Y-79621828D01*
X218908681Y-79620208D01*
X218908679Y-79620208D01*
X218903511Y-79620145D01*
X218781465Y-79638821D01*
X218711103Y-79629353D01*
X218657029Y-79583348D01*
X218642573Y-79553207D01*
X218636569Y-79534729D01*
X218636568Y-79534726D01*
X218634527Y-79528444D01*
X218539040Y-79363056D01*
X218432742Y-79245000D01*
X224531496Y-79245000D01*
X224532186Y-79251565D01*
X224546894Y-79391500D01*
X224551458Y-79434928D01*
X224610473Y-79616556D01*
X224705960Y-79781944D01*
X224710378Y-79786851D01*
X224710379Y-79786852D01*
X224789269Y-79874468D01*
X224833747Y-79923866D01*
X224918119Y-79985166D01*
X224969143Y-80022237D01*
X224988248Y-80036118D01*
X224994276Y-80038802D01*
X224994278Y-80038803D01*
X225143333Y-80105166D01*
X225162712Y-80113794D01*
X225236645Y-80129509D01*
X225343056Y-80152128D01*
X225343061Y-80152128D01*
X225349513Y-80153500D01*
X225540487Y-80153500D01*
X225546939Y-80152128D01*
X225546944Y-80152128D01*
X225653355Y-80129509D01*
X225727288Y-80113794D01*
X225746667Y-80105166D01*
X225895722Y-80038803D01*
X225895724Y-80038802D01*
X225901752Y-80036118D01*
X225920858Y-80022237D01*
X226014962Y-79953866D01*
X226026585Y-79945421D01*
X226093452Y-79921563D01*
X226162604Y-79937643D01*
X226174691Y-79945410D01*
X226258248Y-80006118D01*
X226264276Y-80008802D01*
X226264278Y-80008803D01*
X226413333Y-80075166D01*
X226432712Y-80083794D01*
X226526112Y-80103647D01*
X226613056Y-80122128D01*
X226613061Y-80122128D01*
X226619513Y-80123500D01*
X226810487Y-80123500D01*
X226816939Y-80122128D01*
X226816944Y-80122128D01*
X226903887Y-80103647D01*
X226997288Y-80083794D01*
X227016667Y-80075166D01*
X227165722Y-80008803D01*
X227165724Y-80008802D01*
X227171752Y-80006118D01*
X227190854Y-79992240D01*
X227218385Y-79972237D01*
X227275940Y-79930421D01*
X227342806Y-79906563D01*
X227411958Y-79922643D01*
X227424056Y-79930418D01*
X227481615Y-79972237D01*
X227509147Y-79992240D01*
X227528248Y-80006118D01*
X227534276Y-80008802D01*
X227534278Y-80008803D01*
X227683333Y-80075166D01*
X227702712Y-80083794D01*
X227796112Y-80103647D01*
X227883056Y-80122128D01*
X227883061Y-80122128D01*
X227889513Y-80123500D01*
X228080487Y-80123500D01*
X228086939Y-80122128D01*
X228086944Y-80122128D01*
X228173887Y-80103647D01*
X228267288Y-80083794D01*
X228286667Y-80075166D01*
X228435722Y-80008803D01*
X228435724Y-80008802D01*
X228441752Y-80006118D01*
X228525296Y-79945420D01*
X228592160Y-79921563D01*
X228661312Y-79937643D01*
X228673413Y-79945420D01*
X228685038Y-79953866D01*
X228779143Y-80022237D01*
X228798248Y-80036118D01*
X228804276Y-80038802D01*
X228804278Y-80038803D01*
X228953333Y-80105166D01*
X228972712Y-80113794D01*
X229046645Y-80129509D01*
X229153056Y-80152128D01*
X229153061Y-80152128D01*
X229159513Y-80153500D01*
X229350487Y-80153500D01*
X229356939Y-80152128D01*
X229356944Y-80152128D01*
X229463355Y-80129509D01*
X229537288Y-80113794D01*
X229556667Y-80105166D01*
X229705722Y-80038803D01*
X229705724Y-80038802D01*
X229711752Y-80036118D01*
X229795296Y-79975420D01*
X229862160Y-79951563D01*
X229931312Y-79967643D01*
X229943413Y-79975420D01*
X229961243Y-79988374D01*
X230051286Y-80053794D01*
X230068248Y-80066118D01*
X230074276Y-80068802D01*
X230074278Y-80068803D01*
X230236681Y-80141109D01*
X230242712Y-80143794D01*
X230320710Y-80160373D01*
X230423056Y-80182128D01*
X230423061Y-80182128D01*
X230429513Y-80183500D01*
X230620487Y-80183500D01*
X230626939Y-80182128D01*
X230626944Y-80182128D01*
X230729290Y-80160373D01*
X230807288Y-80143794D01*
X230813319Y-80141109D01*
X230975722Y-80068803D01*
X230975724Y-80068802D01*
X230981752Y-80066118D01*
X230998715Y-80053794D01*
X231051881Y-80015166D01*
X231134113Y-79955420D01*
X231200979Y-79931563D01*
X231270131Y-79947643D01*
X231282234Y-79955421D01*
X231332846Y-79992193D01*
X231338248Y-79996118D01*
X231344276Y-79998802D01*
X231344278Y-79998803D01*
X231495471Y-80066118D01*
X231512712Y-80073794D01*
X231598966Y-80092128D01*
X231693056Y-80112128D01*
X231693061Y-80112128D01*
X231699513Y-80113500D01*
X231890487Y-80113500D01*
X231896939Y-80112128D01*
X231896944Y-80112128D01*
X231991034Y-80092128D01*
X232077288Y-80073794D01*
X232094529Y-80066118D01*
X232245722Y-79998803D01*
X232245724Y-79998802D01*
X232251752Y-79996118D01*
X232335296Y-79935420D01*
X232402160Y-79911563D01*
X232471312Y-79927643D01*
X232483415Y-79935421D01*
X232591286Y-80013794D01*
X232608248Y-80026118D01*
X232614276Y-80028802D01*
X232614278Y-80028803D01*
X232759591Y-80093500D01*
X232782712Y-80103794D01*
X232868966Y-80122128D01*
X232963056Y-80142128D01*
X232963061Y-80142128D01*
X232969513Y-80143500D01*
X233160487Y-80143500D01*
X233166939Y-80142128D01*
X233166944Y-80142128D01*
X233261034Y-80122128D01*
X233347288Y-80103794D01*
X233370409Y-80093500D01*
X233515722Y-80028803D01*
X233515724Y-80028802D01*
X233521752Y-80026118D01*
X233538715Y-80013794D01*
X233591530Y-79975421D01*
X233676253Y-79913866D01*
X233711727Y-79874468D01*
X233799621Y-79776852D01*
X233799622Y-79776851D01*
X233804040Y-79771944D01*
X233871885Y-79654433D01*
X233896223Y-79612279D01*
X233896224Y-79612278D01*
X233899527Y-79606556D01*
X233958542Y-79424928D01*
X233962056Y-79391500D01*
X233977814Y-79241565D01*
X233978504Y-79235000D01*
X233975351Y-79205000D01*
X234691496Y-79205000D01*
X234711458Y-79394928D01*
X234770473Y-79576556D01*
X234773776Y-79582278D01*
X234773777Y-79582279D01*
X234800955Y-79629353D01*
X234865960Y-79741944D01*
X234870378Y-79746851D01*
X234870379Y-79746852D01*
X234974186Y-79862141D01*
X234993747Y-79883866D01*
X235069361Y-79938803D01*
X235142846Y-79992193D01*
X235148248Y-79996118D01*
X235154276Y-79998802D01*
X235154278Y-79998803D01*
X235305471Y-80066118D01*
X235322712Y-80073794D01*
X235408966Y-80092128D01*
X235503056Y-80112128D01*
X235503061Y-80112128D01*
X235509513Y-80113500D01*
X235700487Y-80113500D01*
X235706939Y-80112128D01*
X235706944Y-80112128D01*
X235801034Y-80092128D01*
X235887288Y-80073794D01*
X235904529Y-80066118D01*
X236055722Y-79998803D01*
X236055724Y-79998802D01*
X236061752Y-79996118D01*
X236067155Y-79992193D01*
X236177695Y-79911880D01*
X236186585Y-79905421D01*
X236253452Y-79881563D01*
X236322604Y-79897643D01*
X236334691Y-79905410D01*
X236418248Y-79966118D01*
X236424276Y-79968802D01*
X236424278Y-79968803D01*
X236559041Y-80028803D01*
X236592712Y-80043794D01*
X236679479Y-80062237D01*
X236773056Y-80082128D01*
X236773061Y-80082128D01*
X236779513Y-80083500D01*
X236970487Y-80083500D01*
X236976939Y-80082128D01*
X236976944Y-80082128D01*
X237070521Y-80062237D01*
X237157288Y-80043794D01*
X237190959Y-80028803D01*
X237325722Y-79968803D01*
X237325724Y-79968802D01*
X237331752Y-79966118D01*
X237348616Y-79953866D01*
X237446853Y-79882492D01*
X237456585Y-79875421D01*
X237523452Y-79851563D01*
X237592604Y-79867643D01*
X237604691Y-79875410D01*
X237688248Y-79936118D01*
X237694276Y-79938802D01*
X237694278Y-79938803D01*
X237829041Y-79998803D01*
X237862712Y-80013794D01*
X237949479Y-80032237D01*
X238043056Y-80052128D01*
X238043061Y-80052128D01*
X238049513Y-80053500D01*
X238240487Y-80053500D01*
X238246939Y-80052128D01*
X238246944Y-80052128D01*
X238340521Y-80032237D01*
X238427288Y-80013794D01*
X238460959Y-79998803D01*
X238595722Y-79938803D01*
X238595724Y-79938802D01*
X238601752Y-79936118D01*
X238608022Y-79931563D01*
X238714962Y-79853866D01*
X238726585Y-79845421D01*
X238793452Y-79821563D01*
X238862604Y-79837643D01*
X238874691Y-79845410D01*
X238958248Y-79906118D01*
X238964276Y-79908802D01*
X238964278Y-79908803D01*
X239115471Y-79976118D01*
X239132712Y-79983794D01*
X239219479Y-80002237D01*
X239313056Y-80022128D01*
X239313061Y-80022128D01*
X239319513Y-80023500D01*
X239510487Y-80023500D01*
X239516939Y-80022128D01*
X239516944Y-80022128D01*
X239610521Y-80002237D01*
X239697288Y-79983794D01*
X239714529Y-79976118D01*
X239865722Y-79908803D01*
X239865724Y-79908802D01*
X239871752Y-79906118D01*
X239879514Y-79900479D01*
X239905549Y-79881563D01*
X239927767Y-79865421D01*
X239994633Y-79841563D01*
X240063785Y-79857643D01*
X240075882Y-79865417D01*
X240149570Y-79918955D01*
X240218955Y-79969366D01*
X240228248Y-79976118D01*
X240234276Y-79978802D01*
X240234278Y-79978803D01*
X240383333Y-80045166D01*
X240402712Y-80053794D01*
X240496112Y-80073647D01*
X240583056Y-80092128D01*
X240583061Y-80092128D01*
X240589513Y-80093500D01*
X240780487Y-80093500D01*
X240786939Y-80092128D01*
X240786944Y-80092128D01*
X240873888Y-80073647D01*
X240967288Y-80053794D01*
X240986667Y-80045166D01*
X241135722Y-79978803D01*
X241135724Y-79978802D01*
X241141752Y-79976118D01*
X241151046Y-79969366D01*
X241229325Y-79912492D01*
X241296253Y-79863866D01*
X241312861Y-79845421D01*
X241419621Y-79726852D01*
X241419622Y-79726851D01*
X241424040Y-79721944D01*
X241504676Y-79582279D01*
X241516223Y-79562279D01*
X241516224Y-79562278D01*
X241519527Y-79556556D01*
X241578542Y-79374928D01*
X241598504Y-79185000D01*
X241579984Y-79008794D01*
X241579232Y-79001635D01*
X241579232Y-79001633D01*
X241578542Y-78995072D01*
X241519527Y-78813444D01*
X241424040Y-78648056D01*
X241387531Y-78607508D01*
X241300675Y-78511045D01*
X241300674Y-78511044D01*
X241296253Y-78506134D01*
X241159209Y-78406565D01*
X241147094Y-78397763D01*
X241147093Y-78397762D01*
X241141752Y-78393882D01*
X241135724Y-78391198D01*
X241135722Y-78391197D01*
X240973319Y-78318891D01*
X240973318Y-78318891D01*
X240967288Y-78316206D01*
X240873196Y-78296206D01*
X240786944Y-78277872D01*
X240786939Y-78277872D01*
X240780487Y-78276500D01*
X240589513Y-78276500D01*
X240583061Y-78277872D01*
X240583056Y-78277872D01*
X240496804Y-78296206D01*
X240402712Y-78316206D01*
X240396682Y-78318891D01*
X240396681Y-78318891D01*
X240234278Y-78391197D01*
X240234276Y-78391198D01*
X240228248Y-78393882D01*
X240222907Y-78397762D01*
X240222906Y-78397763D01*
X240172234Y-78434579D01*
X240105367Y-78458437D01*
X240036215Y-78442357D01*
X240024118Y-78434583D01*
X239889119Y-78336500D01*
X239877094Y-78327763D01*
X239877093Y-78327762D01*
X239871752Y-78323882D01*
X239865724Y-78321198D01*
X239865722Y-78321197D01*
X239703319Y-78248891D01*
X239703318Y-78248891D01*
X239697288Y-78246206D01*
X239591665Y-78223755D01*
X239516944Y-78207872D01*
X239516939Y-78207872D01*
X239510487Y-78206500D01*
X239319513Y-78206500D01*
X239313061Y-78207872D01*
X239313056Y-78207872D01*
X239238335Y-78223755D01*
X239132712Y-78246206D01*
X239126682Y-78248891D01*
X239126681Y-78248891D01*
X238964278Y-78321197D01*
X238964276Y-78321198D01*
X238958248Y-78323882D01*
X238952907Y-78327762D01*
X238952906Y-78327763D01*
X238833415Y-78414579D01*
X238766548Y-78438437D01*
X238697396Y-78422357D01*
X238685309Y-78414590D01*
X238601752Y-78353882D01*
X238595724Y-78351198D01*
X238595722Y-78351197D01*
X238433319Y-78278891D01*
X238433318Y-78278891D01*
X238427288Y-78276206D01*
X238333887Y-78256353D01*
X238246944Y-78237872D01*
X238246939Y-78237872D01*
X238240487Y-78236500D01*
X238049513Y-78236500D01*
X238043061Y-78237872D01*
X238043056Y-78237872D01*
X237956113Y-78256353D01*
X237862712Y-78276206D01*
X237856682Y-78278891D01*
X237856681Y-78278891D01*
X237694278Y-78351197D01*
X237694276Y-78351198D01*
X237688248Y-78353882D01*
X237682907Y-78357762D01*
X237682906Y-78357763D01*
X237633808Y-78393435D01*
X237571869Y-78438437D01*
X237563415Y-78444579D01*
X237496548Y-78468437D01*
X237427396Y-78452357D01*
X237415309Y-78444590D01*
X237331752Y-78383882D01*
X237325724Y-78381198D01*
X237325722Y-78381197D01*
X237163319Y-78308891D01*
X237163318Y-78308891D01*
X237157288Y-78306206D01*
X237063887Y-78286353D01*
X236976944Y-78267872D01*
X236976939Y-78267872D01*
X236970487Y-78266500D01*
X236779513Y-78266500D01*
X236773061Y-78267872D01*
X236773056Y-78267872D01*
X236686113Y-78286353D01*
X236592712Y-78306206D01*
X236586682Y-78308891D01*
X236586681Y-78308891D01*
X236424278Y-78381197D01*
X236424276Y-78381198D01*
X236418248Y-78383882D01*
X236412907Y-78387762D01*
X236412906Y-78387763D01*
X236365292Y-78422357D01*
X236301869Y-78468437D01*
X236293415Y-78474579D01*
X236226548Y-78498437D01*
X236157396Y-78482357D01*
X236145309Y-78474590D01*
X236061752Y-78413882D01*
X236055724Y-78411198D01*
X236055722Y-78411197D01*
X235893319Y-78338891D01*
X235893318Y-78338891D01*
X235887288Y-78336206D01*
X235786741Y-78314834D01*
X235706944Y-78297872D01*
X235706939Y-78297872D01*
X235700487Y-78296500D01*
X235509513Y-78296500D01*
X235503061Y-78297872D01*
X235503056Y-78297872D01*
X235423259Y-78314834D01*
X235322712Y-78336206D01*
X235316682Y-78338891D01*
X235316681Y-78338891D01*
X235154278Y-78411197D01*
X235154276Y-78411198D01*
X235148248Y-78413882D01*
X235142907Y-78417762D01*
X235142906Y-78417763D01*
X235095292Y-78452357D01*
X234993747Y-78526134D01*
X234989326Y-78531044D01*
X234989325Y-78531045D01*
X234878820Y-78653774D01*
X234865960Y-78668056D01*
X234770473Y-78833444D01*
X234711458Y-79015072D01*
X234691496Y-79205000D01*
X233975351Y-79205000D01*
X233965249Y-79108882D01*
X233959232Y-79051635D01*
X233959232Y-79051633D01*
X233958542Y-79045072D01*
X233899527Y-78863444D01*
X233882207Y-78833444D01*
X233850696Y-78778866D01*
X233804040Y-78698056D01*
X233782177Y-78673774D01*
X233680675Y-78561045D01*
X233680674Y-78561044D01*
X233676253Y-78556134D01*
X233574708Y-78482357D01*
X233527094Y-78447763D01*
X233527093Y-78447762D01*
X233521752Y-78443882D01*
X233515724Y-78441198D01*
X233515722Y-78441197D01*
X233353319Y-78368891D01*
X233353318Y-78368891D01*
X233347288Y-78366206D01*
X233246741Y-78344834D01*
X233166944Y-78327872D01*
X233166939Y-78327872D01*
X233160487Y-78326500D01*
X232969513Y-78326500D01*
X232963061Y-78327872D01*
X232963056Y-78327872D01*
X232883259Y-78344834D01*
X232782712Y-78366206D01*
X232776682Y-78368891D01*
X232776681Y-78368891D01*
X232614278Y-78441197D01*
X232614276Y-78441198D01*
X232608248Y-78443882D01*
X232524704Y-78504580D01*
X232457840Y-78528437D01*
X232388688Y-78512357D01*
X232376585Y-78504579D01*
X232368132Y-78498437D01*
X232322483Y-78465271D01*
X232257094Y-78417763D01*
X232257093Y-78417762D01*
X232251752Y-78413882D01*
X232245724Y-78411198D01*
X232245722Y-78411197D01*
X232083319Y-78338891D01*
X232083318Y-78338891D01*
X232077288Y-78336206D01*
X231976741Y-78314834D01*
X231896944Y-78297872D01*
X231896939Y-78297872D01*
X231890487Y-78296500D01*
X231699513Y-78296500D01*
X231693061Y-78297872D01*
X231693056Y-78297872D01*
X231613259Y-78314834D01*
X231512712Y-78336206D01*
X231506682Y-78338891D01*
X231506681Y-78338891D01*
X231344278Y-78411197D01*
X231344276Y-78411198D01*
X231338248Y-78413882D01*
X231332907Y-78417762D01*
X231332906Y-78417763D01*
X231309761Y-78434579D01*
X231185887Y-78524580D01*
X231119021Y-78548437D01*
X231049869Y-78532357D01*
X231037766Y-78524579D01*
X231036195Y-78523437D01*
X230981752Y-78483882D01*
X230975724Y-78481198D01*
X230975722Y-78481197D01*
X230813319Y-78408891D01*
X230813318Y-78408891D01*
X230807288Y-78406206D01*
X230713887Y-78386353D01*
X230626944Y-78367872D01*
X230626939Y-78367872D01*
X230620487Y-78366500D01*
X230429513Y-78366500D01*
X230423061Y-78367872D01*
X230423056Y-78367872D01*
X230336113Y-78386353D01*
X230242712Y-78406206D01*
X230236682Y-78408891D01*
X230236681Y-78408891D01*
X230074278Y-78481197D01*
X230074276Y-78481198D01*
X230068248Y-78483882D01*
X229984704Y-78544580D01*
X229917840Y-78568437D01*
X229848688Y-78552357D01*
X229836585Y-78544579D01*
X229828132Y-78538437D01*
X229774279Y-78499311D01*
X229717094Y-78457763D01*
X229717093Y-78457762D01*
X229711752Y-78453882D01*
X229705724Y-78451198D01*
X229705722Y-78451197D01*
X229543319Y-78378891D01*
X229543318Y-78378891D01*
X229537288Y-78376206D01*
X229443887Y-78356353D01*
X229356944Y-78337872D01*
X229356939Y-78337872D01*
X229350487Y-78336500D01*
X229159513Y-78336500D01*
X229153061Y-78337872D01*
X229153056Y-78337872D01*
X229066113Y-78356353D01*
X228972712Y-78376206D01*
X228966682Y-78378891D01*
X228966681Y-78378891D01*
X228804278Y-78451197D01*
X228804276Y-78451198D01*
X228798248Y-78453882D01*
X228714704Y-78514580D01*
X228647840Y-78538437D01*
X228578688Y-78522357D01*
X228566585Y-78514579D01*
X228545940Y-78499579D01*
X228507369Y-78471556D01*
X228447094Y-78427763D01*
X228447093Y-78427762D01*
X228441752Y-78423882D01*
X228435724Y-78421198D01*
X228435722Y-78421197D01*
X228273319Y-78348891D01*
X228273318Y-78348891D01*
X228267288Y-78346206D01*
X228173888Y-78326353D01*
X228086944Y-78307872D01*
X228086939Y-78307872D01*
X228080487Y-78306500D01*
X227889513Y-78306500D01*
X227883061Y-78307872D01*
X227883056Y-78307872D01*
X227796112Y-78326353D01*
X227702712Y-78346206D01*
X227696682Y-78348891D01*
X227696681Y-78348891D01*
X227534278Y-78421197D01*
X227534276Y-78421198D01*
X227528248Y-78423882D01*
X227522907Y-78427762D01*
X227522906Y-78427763D01*
X227508215Y-78438437D01*
X227424060Y-78499579D01*
X227357194Y-78523437D01*
X227288042Y-78507357D01*
X227275944Y-78499582D01*
X227191785Y-78438437D01*
X227177094Y-78427763D01*
X227177093Y-78427762D01*
X227171752Y-78423882D01*
X227165724Y-78421198D01*
X227165722Y-78421197D01*
X227003319Y-78348891D01*
X227003318Y-78348891D01*
X226997288Y-78346206D01*
X226903888Y-78326353D01*
X226816944Y-78307872D01*
X226816939Y-78307872D01*
X226810487Y-78306500D01*
X226619513Y-78306500D01*
X226613061Y-78307872D01*
X226613056Y-78307872D01*
X226526112Y-78326353D01*
X226432712Y-78346206D01*
X226426682Y-78348891D01*
X226426681Y-78348891D01*
X226264278Y-78421197D01*
X226264276Y-78421198D01*
X226258248Y-78423882D01*
X226252907Y-78427762D01*
X226252906Y-78427763D01*
X226192631Y-78471556D01*
X226154061Y-78499579D01*
X226133415Y-78514579D01*
X226066548Y-78538437D01*
X225997396Y-78522357D01*
X225985309Y-78514590D01*
X225901752Y-78453882D01*
X225895724Y-78451198D01*
X225895722Y-78451197D01*
X225733319Y-78378891D01*
X225733318Y-78378891D01*
X225727288Y-78376206D01*
X225633887Y-78356353D01*
X225546944Y-78337872D01*
X225546939Y-78337872D01*
X225540487Y-78336500D01*
X225349513Y-78336500D01*
X225343061Y-78337872D01*
X225343056Y-78337872D01*
X225256113Y-78356353D01*
X225162712Y-78376206D01*
X225156682Y-78378891D01*
X225156681Y-78378891D01*
X224994278Y-78451197D01*
X224994276Y-78451198D01*
X224988248Y-78453882D01*
X224982907Y-78457762D01*
X224982906Y-78457763D01*
X224968215Y-78468437D01*
X224833747Y-78566134D01*
X224829326Y-78571044D01*
X224829325Y-78571045D01*
X224736828Y-78673774D01*
X224705960Y-78708056D01*
X224702659Y-78713774D01*
X224616247Y-78863444D01*
X224610473Y-78873444D01*
X224551458Y-79055072D01*
X224550768Y-79061633D01*
X224550768Y-79061635D01*
X224534004Y-79221134D01*
X224531496Y-79245000D01*
X218432742Y-79245000D01*
X218411253Y-79221134D01*
X218256752Y-79108882D01*
X218250724Y-79106198D01*
X218250722Y-79106197D01*
X218088319Y-79033891D01*
X218088318Y-79033891D01*
X218082288Y-79031206D01*
X217988888Y-79011353D01*
X217901944Y-78992872D01*
X217901939Y-78992872D01*
X217895487Y-78991500D01*
X217704513Y-78991500D01*
X217698061Y-78992872D01*
X217698056Y-78992872D01*
X217611112Y-79011353D01*
X217517712Y-79031206D01*
X217511682Y-79033891D01*
X217511681Y-79033891D01*
X217349278Y-79106197D01*
X217349276Y-79106198D01*
X217343248Y-79108882D01*
X217188747Y-79221134D01*
X217060960Y-79363056D01*
X216965473Y-79528444D01*
X216963432Y-79534726D01*
X216949830Y-79576588D01*
X216909756Y-79635193D01*
X216844359Y-79662830D01*
X216807901Y-79661698D01*
X216699746Y-79642433D01*
X216590173Y-79622915D01*
X216501227Y-79621828D01*
X216368681Y-79620208D01*
X216368679Y-79620208D01*
X216363511Y-79620145D01*
X216139441Y-79654433D01*
X215923979Y-79724857D01*
X215919391Y-79727245D01*
X215919387Y-79727247D01*
X215755633Y-79812492D01*
X215722913Y-79829525D01*
X215718780Y-79832628D01*
X215718777Y-79832630D01*
X215557306Y-79953866D01*
X215541641Y-79965628D01*
X215487648Y-80022128D01*
X215400051Y-80113794D01*
X215385033Y-80129509D01*
X215382124Y-80133774D01*
X215382118Y-80133782D01*
X215293645Y-80263479D01*
X215238734Y-80308482D01*
X215168209Y-80316653D01*
X215104462Y-80285399D01*
X215083767Y-80260918D01*
X215015914Y-80156033D01*
X214863356Y-79988374D01*
X214859305Y-79985175D01*
X214859301Y-79985171D01*
X214689519Y-79851085D01*
X214689515Y-79851083D01*
X214685464Y-79847883D01*
X214674016Y-79841563D01*
X214621353Y-79812492D01*
X214487015Y-79738334D01*
X214482146Y-79736610D01*
X214482142Y-79736608D01*
X214278214Y-79664393D01*
X214278210Y-79664392D01*
X214273339Y-79662667D01*
X214268246Y-79661760D01*
X214268243Y-79661759D01*
X214195832Y-79648861D01*
X214050173Y-79622915D01*
X213961227Y-79621828D01*
X213828681Y-79620208D01*
X213828679Y-79620208D01*
X213823511Y-79620145D01*
X213599441Y-79654433D01*
X213383979Y-79724857D01*
X213379391Y-79727245D01*
X213379387Y-79727247D01*
X213215633Y-79812492D01*
X213182913Y-79829525D01*
X213178780Y-79832628D01*
X213178777Y-79832630D01*
X213017306Y-79953866D01*
X213001641Y-79965628D01*
X212947648Y-80022128D01*
X212860051Y-80113794D01*
X212845033Y-80129509D01*
X212842124Y-80133774D01*
X212842118Y-80133782D01*
X212753645Y-80263479D01*
X212698734Y-80308482D01*
X212628209Y-80316653D01*
X212564462Y-80285399D01*
X212543767Y-80260918D01*
X212475914Y-80156033D01*
X212323356Y-79988374D01*
X212319305Y-79985175D01*
X212319301Y-79985171D01*
X212149519Y-79851085D01*
X212149515Y-79851083D01*
X212145464Y-79847883D01*
X212134016Y-79841563D01*
X212081353Y-79812492D01*
X211947015Y-79738334D01*
X211942146Y-79736610D01*
X211942142Y-79736608D01*
X211738214Y-79664393D01*
X211738210Y-79664392D01*
X211733339Y-79662667D01*
X211728246Y-79661760D01*
X211728243Y-79661759D01*
X211655832Y-79648861D01*
X211510173Y-79622915D01*
X211421227Y-79621828D01*
X211288681Y-79620208D01*
X211288679Y-79620208D01*
X211283511Y-79620145D01*
X211059441Y-79654433D01*
X210843979Y-79724857D01*
X210839391Y-79727245D01*
X210839387Y-79727247D01*
X210675633Y-79812492D01*
X210642913Y-79829525D01*
X210638780Y-79832628D01*
X210638777Y-79832630D01*
X210477306Y-79953866D01*
X210461641Y-79965628D01*
X210407648Y-80022128D01*
X210320051Y-80113794D01*
X210305033Y-80129509D01*
X210302124Y-80133774D01*
X210302118Y-80133782D01*
X210213645Y-80263479D01*
X210158734Y-80308482D01*
X210088209Y-80316653D01*
X210024462Y-80285399D01*
X210003767Y-80260918D01*
X209935914Y-80156033D01*
X209783356Y-79988374D01*
X209779305Y-79985175D01*
X209779301Y-79985171D01*
X209609519Y-79851085D01*
X209609515Y-79851083D01*
X209605464Y-79847883D01*
X209594016Y-79841563D01*
X209541353Y-79812492D01*
X209407015Y-79738334D01*
X209402146Y-79736610D01*
X209402142Y-79736608D01*
X209198214Y-79664393D01*
X209198210Y-79664392D01*
X209193339Y-79662667D01*
X209188246Y-79661760D01*
X209188243Y-79661759D01*
X209115832Y-79648861D01*
X208970173Y-79622915D01*
X208881227Y-79621828D01*
X208748681Y-79620208D01*
X208748679Y-79620208D01*
X208743511Y-79620145D01*
X208519441Y-79654433D01*
X208303979Y-79724857D01*
X208299391Y-79727245D01*
X208299387Y-79727247D01*
X208135633Y-79812492D01*
X208102913Y-79829525D01*
X208098780Y-79832628D01*
X208098777Y-79832630D01*
X207937306Y-79953866D01*
X207921641Y-79965628D01*
X207867648Y-80022128D01*
X207780051Y-80113794D01*
X207765033Y-80129509D01*
X207762124Y-80133774D01*
X207762118Y-80133782D01*
X207673645Y-80263479D01*
X207618734Y-80308482D01*
X207548209Y-80316653D01*
X207484462Y-80285399D01*
X207463767Y-80260918D01*
X207395914Y-80156033D01*
X207243356Y-79988374D01*
X207239305Y-79985175D01*
X207239301Y-79985171D01*
X207069519Y-79851085D01*
X207069515Y-79851083D01*
X207065464Y-79847883D01*
X207054016Y-79841563D01*
X207001353Y-79812492D01*
X206867015Y-79738334D01*
X206862146Y-79736610D01*
X206862142Y-79736608D01*
X206658214Y-79664393D01*
X206658210Y-79664392D01*
X206653339Y-79662667D01*
X206648246Y-79661760D01*
X206648243Y-79661759D01*
X206575832Y-79648861D01*
X206430173Y-79622915D01*
X206341227Y-79621828D01*
X206208681Y-79620208D01*
X206208679Y-79620208D01*
X206203511Y-79620145D01*
X205979441Y-79654433D01*
X205763979Y-79724857D01*
X205759391Y-79727245D01*
X205759387Y-79727247D01*
X205595633Y-79812492D01*
X205562913Y-79829525D01*
X205558780Y-79832628D01*
X205558777Y-79832630D01*
X205397306Y-79953866D01*
X205381641Y-79965628D01*
X205327648Y-80022128D01*
X205240051Y-80113794D01*
X205225033Y-80129509D01*
X205222124Y-80133774D01*
X205222118Y-80133782D01*
X205133645Y-80263479D01*
X205078734Y-80308482D01*
X205008209Y-80316653D01*
X204944462Y-80285399D01*
X204923767Y-80260918D01*
X204855914Y-80156033D01*
X204703356Y-79988374D01*
X204699305Y-79985175D01*
X204699301Y-79985171D01*
X204529519Y-79851085D01*
X204529515Y-79851083D01*
X204525464Y-79847883D01*
X204514016Y-79841563D01*
X204461353Y-79812492D01*
X204327015Y-79738334D01*
X204322146Y-79736610D01*
X204322142Y-79736608D01*
X204118214Y-79664393D01*
X204118210Y-79664392D01*
X204113339Y-79662667D01*
X204108246Y-79661760D01*
X204108243Y-79661759D01*
X204035832Y-79648861D01*
X203890173Y-79622915D01*
X203801227Y-79621828D01*
X203668681Y-79620208D01*
X203668679Y-79620208D01*
X203663511Y-79620145D01*
X203439441Y-79654433D01*
X203223979Y-79724857D01*
X203219391Y-79727245D01*
X203219387Y-79727247D01*
X203055633Y-79812492D01*
X203022913Y-79829525D01*
X203018780Y-79832628D01*
X203018777Y-79832630D01*
X202857306Y-79953866D01*
X202841641Y-79965628D01*
X202787648Y-80022128D01*
X202700051Y-80113794D01*
X202685033Y-80129509D01*
X202682124Y-80133774D01*
X202682118Y-80133782D01*
X202593645Y-80263479D01*
X202538734Y-80308482D01*
X202468209Y-80316653D01*
X202404462Y-80285399D01*
X202383767Y-80260918D01*
X202315914Y-80156033D01*
X202163356Y-79988374D01*
X202159305Y-79985175D01*
X202159301Y-79985171D01*
X201989519Y-79851085D01*
X201989515Y-79851083D01*
X201985464Y-79847883D01*
X201974016Y-79841563D01*
X201921353Y-79812492D01*
X201787015Y-79738334D01*
X201782146Y-79736610D01*
X201782142Y-79736608D01*
X201578214Y-79664393D01*
X201578210Y-79664392D01*
X201573339Y-79662667D01*
X201568246Y-79661760D01*
X201568243Y-79661759D01*
X201495832Y-79648861D01*
X201350173Y-79622915D01*
X201261227Y-79621828D01*
X201128681Y-79620208D01*
X201128679Y-79620208D01*
X201123511Y-79620145D01*
X200899441Y-79654433D01*
X200683979Y-79724857D01*
X200679391Y-79727245D01*
X200679387Y-79727247D01*
X200515633Y-79812492D01*
X200482913Y-79829525D01*
X200478780Y-79832628D01*
X200478777Y-79832630D01*
X200317306Y-79953866D01*
X200301641Y-79965628D01*
X200247648Y-80022128D01*
X200160051Y-80113794D01*
X200145033Y-80129509D01*
X200053338Y-80263929D01*
X199998431Y-80308929D01*
X199927906Y-80317100D01*
X199864159Y-80285846D01*
X199843461Y-80261362D01*
X199827528Y-80236734D01*
X199816843Y-80227531D01*
X199807276Y-80231935D01*
X198769095Y-81270115D01*
X198706783Y-81304141D01*
X198635967Y-81299076D01*
X198590905Y-81270115D01*
X197555455Y-80234666D01*
X197543918Y-80228366D01*
X197531636Y-80237989D01*
X197513940Y-80263931D01*
X197459029Y-80308935D01*
X197388504Y-80317107D01*
X197324757Y-80285853D01*
X197304059Y-80261368D01*
X197238722Y-80160373D01*
X197238720Y-80160370D01*
X197235914Y-80156033D01*
X197083356Y-79988374D01*
X197079305Y-79985175D01*
X197079301Y-79985171D01*
X196923518Y-79862141D01*
X197906936Y-79862141D01*
X197913679Y-79874468D01*
X198667189Y-80627979D01*
X198681132Y-80635592D01*
X198682966Y-80635461D01*
X198689580Y-80631210D01*
X199447633Y-79873156D01*
X199454650Y-79860305D01*
X199447295Y-79850210D01*
X199440664Y-79845804D01*
X199251334Y-79741288D01*
X199241937Y-79737065D01*
X199038086Y-79664877D01*
X199028115Y-79662243D01*
X198815216Y-79624321D01*
X198804962Y-79623351D01*
X198588716Y-79620708D01*
X198578431Y-79621428D01*
X198364666Y-79654138D01*
X198354647Y-79656525D01*
X198149086Y-79723713D01*
X198139584Y-79727708D01*
X197947768Y-79827560D01*
X197939048Y-79833052D01*
X197915390Y-79850815D01*
X197906936Y-79862141D01*
X196923518Y-79862141D01*
X196909519Y-79851085D01*
X196909515Y-79851083D01*
X196905464Y-79847883D01*
X196894016Y-79841563D01*
X196841353Y-79812492D01*
X196707015Y-79738334D01*
X196702146Y-79736610D01*
X196702142Y-79736608D01*
X196498214Y-79664393D01*
X196498210Y-79664392D01*
X196493339Y-79662667D01*
X196488246Y-79661760D01*
X196488243Y-79661759D01*
X196415832Y-79648861D01*
X196270173Y-79622915D01*
X196181227Y-79621828D01*
X196048681Y-79620208D01*
X196048679Y-79620208D01*
X196043511Y-79620145D01*
X195819441Y-79654433D01*
X195603979Y-79724857D01*
X195599391Y-79727245D01*
X195599387Y-79727247D01*
X195435633Y-79812492D01*
X195402913Y-79829525D01*
X195398780Y-79832628D01*
X195398777Y-79832630D01*
X195237306Y-79953866D01*
X195221641Y-79965628D01*
X195167648Y-80022128D01*
X195080051Y-80113794D01*
X195065033Y-80129509D01*
X195062124Y-80133774D01*
X195062118Y-80133782D01*
X194973645Y-80263479D01*
X194918734Y-80308482D01*
X194848209Y-80316653D01*
X194784462Y-80285399D01*
X194763767Y-80260918D01*
X194695914Y-80156033D01*
X194543356Y-79988374D01*
X194539305Y-79985175D01*
X194539301Y-79985171D01*
X194369519Y-79851085D01*
X194369515Y-79851083D01*
X194365464Y-79847883D01*
X194354016Y-79841563D01*
X194301353Y-79812492D01*
X194167015Y-79738334D01*
X194162146Y-79736610D01*
X194162142Y-79736608D01*
X193958214Y-79664393D01*
X193958210Y-79664392D01*
X193953339Y-79662667D01*
X193948246Y-79661760D01*
X193948243Y-79661759D01*
X193875832Y-79648861D01*
X193730173Y-79622915D01*
X193641227Y-79621828D01*
X193508681Y-79620208D01*
X193508679Y-79620208D01*
X193503511Y-79620145D01*
X193279441Y-79654433D01*
X193063979Y-79724857D01*
X193059391Y-79727245D01*
X193059387Y-79727247D01*
X192895633Y-79812492D01*
X192862913Y-79829525D01*
X192858780Y-79832628D01*
X192858777Y-79832630D01*
X192697306Y-79953866D01*
X192681641Y-79965628D01*
X192627648Y-80022128D01*
X192540051Y-80113794D01*
X192525033Y-80129509D01*
X192522124Y-80133774D01*
X192522118Y-80133782D01*
X192433645Y-80263479D01*
X192378734Y-80308482D01*
X192308209Y-80316653D01*
X192244462Y-80285399D01*
X192223767Y-80260918D01*
X192155914Y-80156033D01*
X192003356Y-79988374D01*
X191999305Y-79985175D01*
X191999301Y-79985171D01*
X191829519Y-79851085D01*
X191829515Y-79851083D01*
X191825464Y-79847883D01*
X191814016Y-79841563D01*
X191761353Y-79812492D01*
X191627015Y-79738334D01*
X191622146Y-79736610D01*
X191622142Y-79736608D01*
X191418214Y-79664393D01*
X191418210Y-79664392D01*
X191413339Y-79662667D01*
X191408246Y-79661760D01*
X191408243Y-79661759D01*
X191335832Y-79648861D01*
X191190173Y-79622915D01*
X191101227Y-79621828D01*
X190968681Y-79620208D01*
X190968679Y-79620208D01*
X190963511Y-79620145D01*
X190739441Y-79654433D01*
X190523979Y-79724857D01*
X190519391Y-79727245D01*
X190519387Y-79727247D01*
X190355633Y-79812492D01*
X190322913Y-79829525D01*
X190318780Y-79832628D01*
X190318777Y-79832630D01*
X190157306Y-79953866D01*
X190141641Y-79965628D01*
X190087648Y-80022128D01*
X190000051Y-80113794D01*
X189985033Y-80129509D01*
X189982124Y-80133774D01*
X189982118Y-80133782D01*
X189893645Y-80263479D01*
X189838734Y-80308482D01*
X189768209Y-80316653D01*
X189704462Y-80285399D01*
X189683767Y-80260918D01*
X189615914Y-80156033D01*
X189463356Y-79988374D01*
X189459305Y-79985175D01*
X189459301Y-79985171D01*
X189289519Y-79851085D01*
X189289515Y-79851083D01*
X189285464Y-79847883D01*
X189274016Y-79841563D01*
X189221353Y-79812492D01*
X189087015Y-79738334D01*
X189082146Y-79736610D01*
X189082142Y-79736608D01*
X188878214Y-79664393D01*
X188878210Y-79664392D01*
X188873339Y-79662667D01*
X188868246Y-79661760D01*
X188868243Y-79661759D01*
X188795832Y-79648861D01*
X188650173Y-79622915D01*
X188561227Y-79621828D01*
X188428681Y-79620208D01*
X188428679Y-79620208D01*
X188423511Y-79620145D01*
X188199441Y-79654433D01*
X187983979Y-79724857D01*
X187979391Y-79727245D01*
X187979387Y-79727247D01*
X187815633Y-79812492D01*
X187782913Y-79829525D01*
X187778780Y-79832628D01*
X187778777Y-79832630D01*
X187617306Y-79953866D01*
X187601641Y-79965628D01*
X187547648Y-80022128D01*
X187460051Y-80113794D01*
X187445033Y-80129509D01*
X187442124Y-80133774D01*
X187442118Y-80133782D01*
X187353645Y-80263479D01*
X187298734Y-80308482D01*
X187228209Y-80316653D01*
X187164462Y-80285399D01*
X187143767Y-80260918D01*
X187075914Y-80156033D01*
X186923356Y-79988374D01*
X186919305Y-79985175D01*
X186919301Y-79985171D01*
X186749519Y-79851085D01*
X186749515Y-79851083D01*
X186745464Y-79847883D01*
X186734016Y-79841563D01*
X186681353Y-79812492D01*
X186547015Y-79738334D01*
X186542146Y-79736610D01*
X186542142Y-79736608D01*
X186338214Y-79664393D01*
X186338210Y-79664392D01*
X186333339Y-79662667D01*
X186328246Y-79661760D01*
X186328243Y-79661759D01*
X186255832Y-79648861D01*
X186110173Y-79622915D01*
X186021227Y-79621828D01*
X185888681Y-79620208D01*
X185888679Y-79620208D01*
X185883511Y-79620145D01*
X185659441Y-79654433D01*
X185443979Y-79724857D01*
X185439391Y-79727245D01*
X185439387Y-79727247D01*
X185275633Y-79812492D01*
X185242913Y-79829525D01*
X185238780Y-79832628D01*
X185238777Y-79832630D01*
X185077306Y-79953866D01*
X185061641Y-79965628D01*
X185007648Y-80022128D01*
X184920051Y-80113794D01*
X184905033Y-80129509D01*
X184813338Y-80263929D01*
X184758431Y-80308929D01*
X184687906Y-80317100D01*
X184624159Y-80285846D01*
X184603461Y-80261362D01*
X184587528Y-80236734D01*
X184576843Y-80227531D01*
X184567276Y-80231935D01*
X183529095Y-81270115D01*
X183466783Y-81304141D01*
X183395967Y-81299076D01*
X183350905Y-81270115D01*
X182315455Y-80234666D01*
X182304734Y-80228812D01*
X182254532Y-80178610D01*
X182245595Y-80158100D01*
X182244906Y-80156033D01*
X182211550Y-80056054D01*
X182118478Y-79905652D01*
X182074891Y-79862141D01*
X182666936Y-79862141D01*
X182673679Y-79874468D01*
X183427189Y-80627979D01*
X183441132Y-80635592D01*
X183442966Y-80635461D01*
X183449580Y-80631210D01*
X184207633Y-79873156D01*
X184214650Y-79860305D01*
X184207295Y-79850210D01*
X184200664Y-79845804D01*
X184011334Y-79741288D01*
X184001937Y-79737065D01*
X183798086Y-79664877D01*
X183788115Y-79662243D01*
X183575216Y-79624321D01*
X183564962Y-79623351D01*
X183348716Y-79620708D01*
X183338431Y-79621428D01*
X183124666Y-79654138D01*
X183114647Y-79656525D01*
X182909086Y-79723713D01*
X182899584Y-79727708D01*
X182707768Y-79827560D01*
X182699048Y-79833052D01*
X182675390Y-79850815D01*
X182666936Y-79862141D01*
X182074891Y-79862141D01*
X181993303Y-79780695D01*
X181986053Y-79776226D01*
X181848968Y-79691725D01*
X181848966Y-79691724D01*
X181842738Y-79687885D01*
X181741883Y-79654433D01*
X181681389Y-79634368D01*
X181681387Y-79634368D01*
X181674861Y-79632203D01*
X181668025Y-79631503D01*
X181668022Y-79631502D01*
X181624969Y-79627091D01*
X181570400Y-79621500D01*
X180229600Y-79621500D01*
X180226354Y-79621837D01*
X180226350Y-79621837D01*
X180130692Y-79631762D01*
X180130688Y-79631763D01*
X180123834Y-79632474D01*
X180117300Y-79634654D01*
X180117295Y-79634655D01*
X180073876Y-79649141D01*
X180002926Y-79651725D01*
X179941842Y-79615541D01*
X179910018Y-79552077D01*
X179908000Y-79529617D01*
X179908000Y-78400000D01*
X197086496Y-78400000D01*
X197087186Y-78406565D01*
X197105153Y-78577508D01*
X197106458Y-78589928D01*
X197165473Y-78771556D01*
X197260960Y-78936944D01*
X197265378Y-78941851D01*
X197265379Y-78941852D01*
X197319208Y-79001635D01*
X197388747Y-79078866D01*
X197543248Y-79191118D01*
X197549276Y-79193802D01*
X197549278Y-79193803D01*
X197711681Y-79266109D01*
X197717712Y-79268794D01*
X197811112Y-79288647D01*
X197898056Y-79307128D01*
X197898061Y-79307128D01*
X197904513Y-79308500D01*
X198095487Y-79308500D01*
X198101939Y-79307128D01*
X198101944Y-79307128D01*
X198188887Y-79288647D01*
X198282288Y-79268794D01*
X198288319Y-79266109D01*
X198450722Y-79193803D01*
X198450724Y-79193802D01*
X198456752Y-79191118D01*
X198611253Y-79078866D01*
X198680792Y-79001635D01*
X198734621Y-78941852D01*
X198734622Y-78941851D01*
X198739040Y-78936944D01*
X198834527Y-78771556D01*
X198893542Y-78589928D01*
X198894848Y-78577508D01*
X198912814Y-78406565D01*
X198913504Y-78400000D01*
X198909142Y-78358499D01*
X198894232Y-78216635D01*
X198894232Y-78216633D01*
X198893542Y-78210072D01*
X198857777Y-78100000D01*
X199686496Y-78100000D01*
X199687186Y-78106565D01*
X199705047Y-78276500D01*
X199706458Y-78289928D01*
X199765473Y-78471556D01*
X199768776Y-78477278D01*
X199768777Y-78477279D01*
X199790312Y-78514579D01*
X199860960Y-78636944D01*
X199988747Y-78778866D01*
X200143248Y-78891118D01*
X200149276Y-78893802D01*
X200149278Y-78893803D01*
X200233332Y-78931226D01*
X200317712Y-78968794D01*
X200411113Y-78988647D01*
X200498056Y-79007128D01*
X200498061Y-79007128D01*
X200504513Y-79008500D01*
X200695487Y-79008500D01*
X200701939Y-79007128D01*
X200701944Y-79007128D01*
X200788888Y-78988647D01*
X200882288Y-78968794D01*
X200966668Y-78931226D01*
X201050722Y-78893803D01*
X201050724Y-78893802D01*
X201056752Y-78891118D01*
X201211253Y-78778866D01*
X201339040Y-78636944D01*
X201409688Y-78514579D01*
X201431223Y-78477279D01*
X201431224Y-78477278D01*
X201434527Y-78471556D01*
X201493542Y-78289928D01*
X201494954Y-78276500D01*
X201512814Y-78106565D01*
X201513504Y-78100000D01*
X201502137Y-77991852D01*
X201494232Y-77916635D01*
X201494232Y-77916633D01*
X201493542Y-77910072D01*
X201434527Y-77728444D01*
X201424122Y-77710421D01*
X201365498Y-77608882D01*
X201339040Y-77563056D01*
X201211253Y-77421134D01*
X201056752Y-77308882D01*
X201050724Y-77306198D01*
X201050722Y-77306197D01*
X200888319Y-77233891D01*
X200888318Y-77233891D01*
X200882288Y-77231206D01*
X200788888Y-77211353D01*
X200701944Y-77192872D01*
X200701939Y-77192872D01*
X200695487Y-77191500D01*
X200504513Y-77191500D01*
X200498061Y-77192872D01*
X200498056Y-77192872D01*
X200411113Y-77211353D01*
X200317712Y-77231206D01*
X200311682Y-77233891D01*
X200311681Y-77233891D01*
X200149278Y-77306197D01*
X200149276Y-77306198D01*
X200143248Y-77308882D01*
X199988747Y-77421134D01*
X199860960Y-77563056D01*
X199834502Y-77608882D01*
X199775879Y-77710421D01*
X199765473Y-77728444D01*
X199706458Y-77910072D01*
X199705768Y-77916633D01*
X199705768Y-77916635D01*
X199697863Y-77991852D01*
X199686496Y-78100000D01*
X198857777Y-78100000D01*
X198834527Y-78028444D01*
X198739040Y-77863056D01*
X198685689Y-77803803D01*
X198615675Y-77726045D01*
X198615674Y-77726044D01*
X198611253Y-77721134D01*
X198456752Y-77608882D01*
X198450724Y-77606198D01*
X198450722Y-77606197D01*
X198288319Y-77533891D01*
X198288318Y-77533891D01*
X198282288Y-77531206D01*
X198188887Y-77511353D01*
X198101944Y-77492872D01*
X198101939Y-77492872D01*
X198095487Y-77491500D01*
X197904513Y-77491500D01*
X197898061Y-77492872D01*
X197898056Y-77492872D01*
X197811113Y-77511353D01*
X197717712Y-77531206D01*
X197711682Y-77533891D01*
X197711681Y-77533891D01*
X197549278Y-77606197D01*
X197549276Y-77606198D01*
X197543248Y-77608882D01*
X197388747Y-77721134D01*
X197384326Y-77726044D01*
X197384325Y-77726045D01*
X197314312Y-77803803D01*
X197260960Y-77863056D01*
X197165473Y-78028444D01*
X197106458Y-78210072D01*
X197105768Y-78216633D01*
X197105768Y-78216635D01*
X197090858Y-78358499D01*
X197086496Y-78400000D01*
X179908000Y-78400000D01*
X179908000Y-77497610D01*
X183166500Y-77497610D01*
X183181458Y-77639928D01*
X183240473Y-77821556D01*
X183335960Y-77986944D01*
X183340378Y-77991851D01*
X183340379Y-77991852D01*
X183437756Y-78100000D01*
X183463747Y-78128866D01*
X183512635Y-78164385D01*
X183583093Y-78215576D01*
X183618248Y-78241118D01*
X183624276Y-78243802D01*
X183624278Y-78243803D01*
X183786681Y-78316109D01*
X183792712Y-78318794D01*
X183886113Y-78338647D01*
X183973056Y-78357128D01*
X183973061Y-78357128D01*
X183979513Y-78358500D01*
X184170487Y-78358500D01*
X184176939Y-78357128D01*
X184176944Y-78357128D01*
X184263888Y-78338647D01*
X184357288Y-78318794D01*
X184363319Y-78316109D01*
X184525722Y-78243803D01*
X184525724Y-78243802D01*
X184531752Y-78241118D01*
X184555650Y-78223755D01*
X184622518Y-78199897D01*
X184694982Y-78217915D01*
X184831301Y-78300472D01*
X184838548Y-78302743D01*
X184838550Y-78302744D01*
X184877130Y-78314834D01*
X184994938Y-78351753D01*
X185068365Y-78358500D01*
X185071263Y-78358500D01*
X185325665Y-78358499D01*
X185581634Y-78358499D01*
X185584492Y-78358236D01*
X185584501Y-78358236D01*
X185620004Y-78354974D01*
X185655062Y-78351753D01*
X185664195Y-78348891D01*
X185811450Y-78302744D01*
X185811452Y-78302743D01*
X185818699Y-78300472D01*
X185965381Y-78211639D01*
X186086639Y-78090381D01*
X186175472Y-77943699D01*
X186183954Y-77916635D01*
X186220154Y-77801118D01*
X186226753Y-77780062D01*
X186233500Y-77706635D01*
X186233499Y-77010000D01*
X191196496Y-77010000D01*
X191216458Y-77199928D01*
X191275473Y-77381556D01*
X191278776Y-77387278D01*
X191278777Y-77387279D01*
X191298323Y-77421134D01*
X191370960Y-77546944D01*
X191375378Y-77551851D01*
X191375379Y-77551852D01*
X191448774Y-77633365D01*
X191498747Y-77688866D01*
X191553221Y-77728444D01*
X191634143Y-77787237D01*
X191653248Y-77801118D01*
X191659276Y-77803802D01*
X191659278Y-77803803D01*
X191808333Y-77870166D01*
X191827712Y-77878794D01*
X191921113Y-77898647D01*
X192008056Y-77917128D01*
X192008061Y-77917128D01*
X192014513Y-77918500D01*
X192205487Y-77918500D01*
X192211939Y-77917128D01*
X192211944Y-77917128D01*
X192298888Y-77898647D01*
X192392288Y-77878794D01*
X192411667Y-77870166D01*
X192560722Y-77803803D01*
X192560724Y-77803802D01*
X192566752Y-77801118D01*
X192585858Y-77787237D01*
X192666779Y-77728444D01*
X192721253Y-77688866D01*
X192771226Y-77633365D01*
X192844621Y-77551852D01*
X192844622Y-77551851D01*
X192849040Y-77546944D01*
X192898768Y-77460813D01*
X192950151Y-77411820D01*
X193019864Y-77398384D01*
X193085775Y-77424770D01*
X193117005Y-77460812D01*
X193160960Y-77536944D01*
X193165378Y-77541851D01*
X193165379Y-77541852D01*
X193225733Y-77608882D01*
X193288747Y-77678866D01*
X193322979Y-77703737D01*
X193436818Y-77786446D01*
X193443248Y-77791118D01*
X193449276Y-77793802D01*
X193449278Y-77793803D01*
X193604824Y-77863056D01*
X193617712Y-77868794D01*
X193711113Y-77888647D01*
X193798056Y-77907128D01*
X193798061Y-77907128D01*
X193804513Y-77908500D01*
X193995487Y-77908500D01*
X194001939Y-77907128D01*
X194001944Y-77907128D01*
X194088887Y-77888647D01*
X194182288Y-77868794D01*
X194195176Y-77863056D01*
X194350722Y-77793803D01*
X194350724Y-77793802D01*
X194356752Y-77791118D01*
X194363183Y-77786446D01*
X194477021Y-77703737D01*
X194511253Y-77678866D01*
X194574267Y-77608882D01*
X194634621Y-77541852D01*
X194634622Y-77541851D01*
X194639040Y-77536944D01*
X194725449Y-77387279D01*
X194731223Y-77377279D01*
X194731224Y-77377278D01*
X194734527Y-77371556D01*
X194793542Y-77189928D01*
X194794475Y-77181056D01*
X194812814Y-77006565D01*
X194813504Y-77000000D01*
X194811958Y-76985286D01*
X194794232Y-76816635D01*
X194794232Y-76816633D01*
X194793542Y-76810072D01*
X194734527Y-76628444D01*
X194721405Y-76605715D01*
X194645335Y-76473959D01*
X194639040Y-76463056D01*
X194599169Y-76418774D01*
X194582265Y-76400000D01*
X200986496Y-76400000D01*
X200987186Y-76406565D01*
X200993659Y-76468148D01*
X201006458Y-76589928D01*
X201065473Y-76771556D01*
X201160960Y-76936944D01*
X201165378Y-76941851D01*
X201165379Y-76941852D01*
X201211825Y-76993435D01*
X201288747Y-77078866D01*
X201443248Y-77191118D01*
X201449276Y-77193802D01*
X201449278Y-77193803D01*
X201539318Y-77233891D01*
X201617712Y-77268794D01*
X201711112Y-77288647D01*
X201798056Y-77307128D01*
X201798061Y-77307128D01*
X201804513Y-77308500D01*
X201995487Y-77308500D01*
X202001939Y-77307128D01*
X202001944Y-77307128D01*
X202088887Y-77288647D01*
X202182288Y-77268794D01*
X202260682Y-77233891D01*
X202350722Y-77193803D01*
X202350724Y-77193802D01*
X202356752Y-77191118D01*
X202511253Y-77078866D01*
X202588175Y-76993435D01*
X202634621Y-76941852D01*
X202634622Y-76941851D01*
X202639040Y-76936944D01*
X202716996Y-76801921D01*
X214384575Y-76801921D01*
X214385265Y-76808486D01*
X214395135Y-76902390D01*
X214404537Y-76991849D01*
X214463552Y-77173477D01*
X214466855Y-77179199D01*
X214466856Y-77179200D01*
X214482448Y-77206206D01*
X214559039Y-77338865D01*
X214686826Y-77480787D01*
X214841327Y-77593039D01*
X214847355Y-77595723D01*
X214847357Y-77595724D01*
X215009760Y-77668030D01*
X215015791Y-77670715D01*
X215101184Y-77688866D01*
X215196135Y-77709049D01*
X215196140Y-77709049D01*
X215202592Y-77710421D01*
X215393566Y-77710421D01*
X215400018Y-77709049D01*
X215400023Y-77709049D01*
X215494974Y-77688866D01*
X215580367Y-77670715D01*
X215586398Y-77668030D01*
X215748801Y-77595724D01*
X215748803Y-77595723D01*
X215754831Y-77593039D01*
X215909332Y-77480787D01*
X216037119Y-77338865D01*
X216113710Y-77206206D01*
X216129302Y-77179200D01*
X216129303Y-77179199D01*
X216132606Y-77173477D01*
X216191621Y-76991849D01*
X216201024Y-76902390D01*
X216210893Y-76808486D01*
X216211583Y-76801921D01*
X216193350Y-76628444D01*
X216192311Y-76618556D01*
X216192311Y-76618554D01*
X216191621Y-76611993D01*
X216132606Y-76430365D01*
X216037119Y-76264977D01*
X216010682Y-76235615D01*
X215913754Y-76127966D01*
X215913753Y-76127965D01*
X215909332Y-76123055D01*
X215754831Y-76010803D01*
X215748803Y-76008119D01*
X215748801Y-76008118D01*
X215586398Y-75935812D01*
X215586397Y-75935812D01*
X215580367Y-75933127D01*
X215486966Y-75913274D01*
X215400023Y-75894793D01*
X215400018Y-75894793D01*
X215393566Y-75893421D01*
X215202592Y-75893421D01*
X215196140Y-75894793D01*
X215196135Y-75894793D01*
X215109191Y-75913274D01*
X215015791Y-75933127D01*
X215009761Y-75935812D01*
X215009760Y-75935812D01*
X214847357Y-76008118D01*
X214847355Y-76008119D01*
X214841327Y-76010803D01*
X214686826Y-76123055D01*
X214682405Y-76127965D01*
X214682404Y-76127966D01*
X214585477Y-76235615D01*
X214559039Y-76264977D01*
X214463552Y-76430365D01*
X214404537Y-76611993D01*
X214403847Y-76618554D01*
X214403847Y-76618556D01*
X214402808Y-76628444D01*
X214384575Y-76801921D01*
X202716996Y-76801921D01*
X202734527Y-76771556D01*
X202737176Y-76773085D01*
X202774650Y-76729086D01*
X202843671Y-76708500D01*
X202895487Y-76708500D01*
X202901939Y-76707128D01*
X202901944Y-76707128D01*
X202988887Y-76688647D01*
X203082288Y-76668794D01*
X203088319Y-76666109D01*
X203250722Y-76593803D01*
X203250724Y-76593802D01*
X203256752Y-76591118D01*
X203411253Y-76478866D01*
X203508687Y-76370654D01*
X203569132Y-76333416D01*
X203628519Y-76331719D01*
X203748056Y-76357128D01*
X203748061Y-76357128D01*
X203754513Y-76358500D01*
X203945487Y-76358500D01*
X203951939Y-76357128D01*
X203951944Y-76357128D01*
X204063497Y-76333416D01*
X204132288Y-76318794D01*
X204146762Y-76312350D01*
X204300722Y-76243803D01*
X204300724Y-76243802D01*
X204306752Y-76241118D01*
X204332016Y-76222763D01*
X204379365Y-76188361D01*
X204461253Y-76128866D01*
X204484658Y-76102872D01*
X204584621Y-75991852D01*
X204584622Y-75991851D01*
X204589040Y-75986944D01*
X204684527Y-75821556D01*
X204743542Y-75639928D01*
X204763504Y-75450000D01*
X204743542Y-75260072D01*
X204684527Y-75078444D01*
X204589040Y-74913056D01*
X204549169Y-74868774D01*
X204465675Y-74776045D01*
X204465671Y-74776041D01*
X204461253Y-74771134D01*
X204306752Y-74658882D01*
X204300724Y-74656198D01*
X204300722Y-74656197D01*
X204138319Y-74583891D01*
X204138318Y-74583891D01*
X204132288Y-74581206D01*
X204038888Y-74561353D01*
X203951944Y-74542872D01*
X203951939Y-74542872D01*
X203945487Y-74541500D01*
X203754513Y-74541500D01*
X203748061Y-74542872D01*
X203748056Y-74542872D01*
X203661113Y-74561353D01*
X203567712Y-74581206D01*
X203561682Y-74583891D01*
X203561681Y-74583891D01*
X203399278Y-74656197D01*
X203399276Y-74656198D01*
X203393248Y-74658882D01*
X203238747Y-74771134D01*
X203141313Y-74879346D01*
X203080868Y-74916584D01*
X203021481Y-74918281D01*
X202901944Y-74892872D01*
X202901939Y-74892872D01*
X202895487Y-74891500D01*
X202704513Y-74891500D01*
X202698061Y-74892872D01*
X202698056Y-74892872D01*
X202611112Y-74911353D01*
X202517712Y-74931206D01*
X202511682Y-74933891D01*
X202511681Y-74933891D01*
X202349278Y-75006197D01*
X202349276Y-75006198D01*
X202343248Y-75008882D01*
X202188747Y-75121134D01*
X202184326Y-75126044D01*
X202184325Y-75126045D01*
X202069300Y-75253794D01*
X202060960Y-75263056D01*
X201965473Y-75428444D01*
X201962824Y-75426915D01*
X201925350Y-75470914D01*
X201856329Y-75491500D01*
X201804513Y-75491500D01*
X201798061Y-75492872D01*
X201798056Y-75492872D01*
X201711112Y-75511353D01*
X201617712Y-75531206D01*
X201611682Y-75533891D01*
X201611681Y-75533891D01*
X201449278Y-75606197D01*
X201449276Y-75606198D01*
X201443248Y-75608882D01*
X201288747Y-75721134D01*
X201160960Y-75863056D01*
X201065473Y-76028444D01*
X201006458Y-76210072D01*
X201005768Y-76216633D01*
X201005768Y-76216635D01*
X200993494Y-76333416D01*
X200986496Y-76400000D01*
X194582265Y-76400000D01*
X194515675Y-76326045D01*
X194515674Y-76326044D01*
X194511253Y-76321134D01*
X194393547Y-76235615D01*
X194362094Y-76212763D01*
X194362093Y-76212762D01*
X194356752Y-76208882D01*
X194350724Y-76206198D01*
X194350722Y-76206197D01*
X194188319Y-76133891D01*
X194188318Y-76133891D01*
X194182288Y-76131206D01*
X194088888Y-76111353D01*
X194001944Y-76092872D01*
X194001939Y-76092872D01*
X193995487Y-76091500D01*
X193804513Y-76091500D01*
X193798061Y-76092872D01*
X193798056Y-76092872D01*
X193711112Y-76111353D01*
X193617712Y-76131206D01*
X193611682Y-76133891D01*
X193611681Y-76133891D01*
X193449278Y-76206197D01*
X193449276Y-76206198D01*
X193443248Y-76208882D01*
X193437907Y-76212762D01*
X193437906Y-76212763D01*
X193406453Y-76235615D01*
X193288747Y-76321134D01*
X193284326Y-76326044D01*
X193284325Y-76326045D01*
X193200832Y-76418774D01*
X193160960Y-76463056D01*
X193154665Y-76473959D01*
X193111232Y-76549187D01*
X193059849Y-76598180D01*
X192990136Y-76611616D01*
X192924225Y-76585230D01*
X192892994Y-76549187D01*
X192852341Y-76478774D01*
X192849040Y-76473056D01*
X192745894Y-76358500D01*
X192725675Y-76336045D01*
X192725674Y-76336044D01*
X192721253Y-76331134D01*
X192597357Y-76241118D01*
X192572094Y-76222763D01*
X192572093Y-76222762D01*
X192566752Y-76218882D01*
X192560724Y-76216198D01*
X192560722Y-76216197D01*
X192398319Y-76143891D01*
X192398318Y-76143891D01*
X192392288Y-76141206D01*
X192288627Y-76119172D01*
X192211944Y-76102872D01*
X192211939Y-76102872D01*
X192205487Y-76101500D01*
X192014513Y-76101500D01*
X192008061Y-76102872D01*
X192008056Y-76102872D01*
X191931373Y-76119172D01*
X191827712Y-76141206D01*
X191821682Y-76143891D01*
X191821681Y-76143891D01*
X191659278Y-76216197D01*
X191659276Y-76216198D01*
X191653248Y-76218882D01*
X191647907Y-76222762D01*
X191647906Y-76222763D01*
X191622643Y-76241118D01*
X191498747Y-76331134D01*
X191494326Y-76336044D01*
X191494325Y-76336045D01*
X191474107Y-76358500D01*
X191370960Y-76473056D01*
X191367659Y-76478774D01*
X191281247Y-76628444D01*
X191275473Y-76638444D01*
X191216458Y-76820072D01*
X191215768Y-76826633D01*
X191215768Y-76826635D01*
X191198404Y-76991849D01*
X191196496Y-77010000D01*
X186233499Y-77010000D01*
X186233499Y-76693366D01*
X186226753Y-76619938D01*
X186222296Y-76605715D01*
X186177744Y-76463550D01*
X186177743Y-76463548D01*
X186175472Y-76456301D01*
X186086639Y-76309619D01*
X185965381Y-76188361D01*
X185818699Y-76099528D01*
X185811452Y-76097257D01*
X185811450Y-76097256D01*
X185737096Y-76073955D01*
X185655062Y-76048247D01*
X185581635Y-76041500D01*
X185578737Y-76041500D01*
X185324335Y-76041501D01*
X185068366Y-76041501D01*
X185065508Y-76041764D01*
X185065499Y-76041764D01*
X185029996Y-76045026D01*
X184994938Y-76048247D01*
X184988560Y-76050246D01*
X184988559Y-76050246D01*
X184838550Y-76097256D01*
X184838548Y-76097257D01*
X184831301Y-76099528D01*
X184737729Y-76156197D01*
X184694982Y-76182085D01*
X184626352Y-76200264D01*
X184555650Y-76176245D01*
X184537094Y-76162763D01*
X184537092Y-76162762D01*
X184531752Y-76158882D01*
X184525724Y-76156198D01*
X184525722Y-76156197D01*
X184363319Y-76083891D01*
X184363318Y-76083891D01*
X184357288Y-76081206D01*
X184263887Y-76061353D01*
X184176944Y-76042872D01*
X184176939Y-76042872D01*
X184170487Y-76041500D01*
X183979513Y-76041500D01*
X183973061Y-76042872D01*
X183973056Y-76042872D01*
X183886113Y-76061353D01*
X183792712Y-76081206D01*
X183786682Y-76083891D01*
X183786681Y-76083891D01*
X183624278Y-76156197D01*
X183624276Y-76156198D01*
X183618248Y-76158882D01*
X183612907Y-76162762D01*
X183612906Y-76162763D01*
X183579221Y-76187237D01*
X183463747Y-76271134D01*
X183459326Y-76276044D01*
X183459325Y-76276045D01*
X183341805Y-76406565D01*
X183335960Y-76413056D01*
X183306807Y-76463550D01*
X183257365Y-76549187D01*
X183240473Y-76578444D01*
X183181458Y-76760072D01*
X183180768Y-76766633D01*
X183180768Y-76766635D01*
X183176863Y-76803794D01*
X183166500Y-76902390D01*
X183166500Y-77497610D01*
X179908000Y-77497610D01*
X179908000Y-75400000D01*
X198386496Y-75400000D01*
X198406458Y-75589928D01*
X198465473Y-75771556D01*
X198560960Y-75936944D01*
X198565378Y-75941851D01*
X198565379Y-75941852D01*
X198662977Y-76050246D01*
X198688747Y-76078866D01*
X198756327Y-76127966D01*
X198834035Y-76184424D01*
X198843248Y-76191118D01*
X198849276Y-76193802D01*
X198849278Y-76193803D01*
X199011681Y-76266109D01*
X199017712Y-76268794D01*
X199111113Y-76288647D01*
X199198056Y-76307128D01*
X199198061Y-76307128D01*
X199204513Y-76308500D01*
X199395487Y-76308500D01*
X199401939Y-76307128D01*
X199401944Y-76307128D01*
X199488887Y-76288647D01*
X199582288Y-76268794D01*
X199588319Y-76266109D01*
X199750722Y-76193803D01*
X199750724Y-76193802D01*
X199756752Y-76191118D01*
X199765966Y-76184424D01*
X199843673Y-76127966D01*
X199911253Y-76078866D01*
X199937023Y-76050246D01*
X200034621Y-75941852D01*
X200034622Y-75941851D01*
X200039040Y-75936944D01*
X200134527Y-75771556D01*
X200193542Y-75589928D01*
X200213504Y-75400000D01*
X200193542Y-75210072D01*
X200134527Y-75028444D01*
X200039040Y-74863056D01*
X199960692Y-74776041D01*
X199915675Y-74726045D01*
X199915674Y-74726044D01*
X199911253Y-74721134D01*
X199756752Y-74608882D01*
X199750724Y-74606198D01*
X199750722Y-74606197D01*
X199588319Y-74533891D01*
X199588318Y-74533891D01*
X199582288Y-74531206D01*
X199488887Y-74511353D01*
X199401944Y-74492872D01*
X199401939Y-74492872D01*
X199395487Y-74491500D01*
X199204513Y-74491500D01*
X199198061Y-74492872D01*
X199198056Y-74492872D01*
X199111112Y-74511353D01*
X199017712Y-74531206D01*
X199011682Y-74533891D01*
X199011681Y-74533891D01*
X198849278Y-74606197D01*
X198849276Y-74606198D01*
X198843248Y-74608882D01*
X198688747Y-74721134D01*
X198684326Y-74726044D01*
X198684325Y-74726045D01*
X198639309Y-74776041D01*
X198560960Y-74863056D01*
X198465473Y-75028444D01*
X198406458Y-75210072D01*
X198386496Y-75400000D01*
X179908000Y-75400000D01*
X179908000Y-73800000D01*
X206486496Y-73800000D01*
X206506458Y-73989928D01*
X206565473Y-74171556D01*
X206660960Y-74336944D01*
X206788747Y-74478866D01*
X206943248Y-74591118D01*
X206949276Y-74593802D01*
X206949278Y-74593803D01*
X207095449Y-74658882D01*
X207117712Y-74668794D01*
X207211112Y-74688647D01*
X207298056Y-74707128D01*
X207298061Y-74707128D01*
X207304513Y-74708500D01*
X207495487Y-74708500D01*
X207501939Y-74707128D01*
X207501944Y-74707128D01*
X207588887Y-74688647D01*
X207682288Y-74668794D01*
X207704551Y-74658882D01*
X207850722Y-74593803D01*
X207850724Y-74593802D01*
X207856752Y-74591118D01*
X208011253Y-74478866D01*
X208139040Y-74336944D01*
X208234527Y-74171556D01*
X208293542Y-73989928D01*
X208313504Y-73800000D01*
X208293542Y-73610072D01*
X208234527Y-73428444D01*
X208139040Y-73263056D01*
X208011253Y-73121134D01*
X207856752Y-73008882D01*
X207850724Y-73006198D01*
X207850722Y-73006197D01*
X207688319Y-72933891D01*
X207688318Y-72933891D01*
X207682288Y-72931206D01*
X207588888Y-72911353D01*
X207501944Y-72892872D01*
X207501939Y-72892872D01*
X207495487Y-72891500D01*
X207304513Y-72891500D01*
X207298061Y-72892872D01*
X207298056Y-72892872D01*
X207211112Y-72911353D01*
X207117712Y-72931206D01*
X207111682Y-72933891D01*
X207111681Y-72933891D01*
X206949278Y-73006197D01*
X206949276Y-73006198D01*
X206943248Y-73008882D01*
X206788747Y-73121134D01*
X206660960Y-73263056D01*
X206565473Y-73428444D01*
X206506458Y-73610072D01*
X206486496Y-73800000D01*
X179908000Y-73800000D01*
X179908000Y-72280000D01*
X185566496Y-72280000D01*
X185586458Y-72469928D01*
X185645473Y-72651556D01*
X185648776Y-72657278D01*
X185648777Y-72657279D01*
X185682686Y-72716010D01*
X185740960Y-72816944D01*
X185745378Y-72821851D01*
X185745379Y-72821852D01*
X185758968Y-72836944D01*
X185868747Y-72958866D01*
X186023248Y-73071118D01*
X186029276Y-73073802D01*
X186029278Y-73073803D01*
X186191681Y-73146109D01*
X186197712Y-73148794D01*
X186291112Y-73168647D01*
X186378056Y-73187128D01*
X186378061Y-73187128D01*
X186384513Y-73188500D01*
X186575487Y-73188500D01*
X186581939Y-73187128D01*
X186581944Y-73187128D01*
X186668888Y-73168647D01*
X186762288Y-73148794D01*
X186768319Y-73146109D01*
X186930722Y-73073803D01*
X186930724Y-73073802D01*
X186936752Y-73071118D01*
X187091253Y-72958866D01*
X187201032Y-72836944D01*
X187214621Y-72821852D01*
X187214622Y-72821851D01*
X187219040Y-72816944D01*
X187228823Y-72800000D01*
X192686496Y-72800000D01*
X192687186Y-72806565D01*
X192696608Y-72896206D01*
X192706458Y-72989928D01*
X192765473Y-73171556D01*
X192768776Y-73177278D01*
X192768777Y-73177279D01*
X192786803Y-73208500D01*
X192860960Y-73336944D01*
X192988747Y-73478866D01*
X193143248Y-73591118D01*
X193149276Y-73593802D01*
X193149278Y-73593803D01*
X193200560Y-73616635D01*
X193317712Y-73668794D01*
X193411112Y-73688647D01*
X193498056Y-73707128D01*
X193498061Y-73707128D01*
X193504513Y-73708500D01*
X193695487Y-73708500D01*
X193701939Y-73707128D01*
X193701944Y-73707128D01*
X193788888Y-73688647D01*
X193882288Y-73668794D01*
X193999440Y-73616635D01*
X194050722Y-73593803D01*
X194050724Y-73593802D01*
X194056752Y-73591118D01*
X194211253Y-73478866D01*
X194339040Y-73336944D01*
X194413197Y-73208500D01*
X194431223Y-73177279D01*
X194431224Y-73177278D01*
X194434527Y-73171556D01*
X194493542Y-72989928D01*
X194503393Y-72896206D01*
X194512814Y-72806565D01*
X194513504Y-72800000D01*
X194497902Y-72651556D01*
X194494232Y-72616635D01*
X194494232Y-72616633D01*
X194493542Y-72610072D01*
X194434527Y-72428444D01*
X194360370Y-72300000D01*
X204486496Y-72300000D01*
X204506458Y-72489928D01*
X204565473Y-72671556D01*
X204660960Y-72836944D01*
X204665378Y-72841851D01*
X204665379Y-72841852D01*
X204708667Y-72889928D01*
X204788747Y-72978866D01*
X204943248Y-73091118D01*
X204949276Y-73093802D01*
X204949278Y-73093803D01*
X205109799Y-73165271D01*
X205117712Y-73168794D01*
X205203966Y-73187128D01*
X205298056Y-73207128D01*
X205298061Y-73207128D01*
X205304513Y-73208500D01*
X205495487Y-73208500D01*
X205501939Y-73207128D01*
X205501944Y-73207128D01*
X205596034Y-73187128D01*
X205682288Y-73168794D01*
X205690201Y-73165271D01*
X205850722Y-73093803D01*
X205850724Y-73093802D01*
X205856752Y-73091118D01*
X206011253Y-72978866D01*
X206091333Y-72889928D01*
X206134621Y-72841852D01*
X206134622Y-72841851D01*
X206139040Y-72836944D01*
X206234527Y-72671556D01*
X206293542Y-72489928D01*
X206297790Y-72449511D01*
X211836985Y-72449511D01*
X211837675Y-72456076D01*
X211853201Y-72603794D01*
X211856947Y-72639439D01*
X211915962Y-72821067D01*
X211919265Y-72826789D01*
X211919266Y-72826790D01*
X211927962Y-72841852D01*
X212011449Y-72986455D01*
X212139236Y-73128377D01*
X212293737Y-73240629D01*
X212299765Y-73243313D01*
X212299767Y-73243314D01*
X212411088Y-73292877D01*
X212468201Y-73318305D01*
X212555890Y-73336944D01*
X212648545Y-73356639D01*
X212648550Y-73356639D01*
X212655002Y-73358011D01*
X212845976Y-73358011D01*
X212852428Y-73356639D01*
X212852433Y-73356639D01*
X212945088Y-73336944D01*
X213032777Y-73318305D01*
X213089890Y-73292877D01*
X213201211Y-73243314D01*
X213201213Y-73243313D01*
X213207241Y-73240629D01*
X213361742Y-73128377D01*
X213489529Y-72986455D01*
X213573016Y-72841852D01*
X213581712Y-72826790D01*
X213581713Y-72826789D01*
X213585016Y-72821067D01*
X213624353Y-72700000D01*
X216986496Y-72700000D01*
X216987186Y-72706565D01*
X216999221Y-72821067D01*
X217006458Y-72889928D01*
X217065473Y-73071556D01*
X217160960Y-73236944D01*
X217165378Y-73241851D01*
X217165379Y-73241852D01*
X217180052Y-73258148D01*
X217288747Y-73378866D01*
X217349108Y-73422721D01*
X217426385Y-73478866D01*
X217443248Y-73491118D01*
X217449276Y-73493802D01*
X217449278Y-73493803D01*
X217611681Y-73566109D01*
X217617712Y-73568794D01*
X217704479Y-73587237D01*
X217798056Y-73607128D01*
X217798061Y-73607128D01*
X217804513Y-73608500D01*
X217995487Y-73608500D01*
X218001939Y-73607128D01*
X218001944Y-73607128D01*
X218095521Y-73587237D01*
X218182288Y-73568794D01*
X218188319Y-73566109D01*
X218350722Y-73493803D01*
X218350724Y-73493802D01*
X218356752Y-73491118D01*
X218373616Y-73478866D01*
X218450892Y-73422721D01*
X218511253Y-73378866D01*
X218556364Y-73328765D01*
X218616810Y-73291525D01*
X218687793Y-73292877D01*
X218743636Y-73328765D01*
X218788747Y-73378866D01*
X218849108Y-73422721D01*
X218926385Y-73478866D01*
X218943248Y-73491118D01*
X218949276Y-73493802D01*
X218949278Y-73493803D01*
X219111681Y-73566109D01*
X219117712Y-73568794D01*
X219204479Y-73587237D01*
X219298056Y-73607128D01*
X219298061Y-73607128D01*
X219304513Y-73608500D01*
X219495487Y-73608500D01*
X219501939Y-73607128D01*
X219501944Y-73607128D01*
X219595521Y-73587237D01*
X219682288Y-73568794D01*
X219688319Y-73566109D01*
X219850722Y-73493803D01*
X219850724Y-73493802D01*
X219856752Y-73491118D01*
X219873616Y-73478866D01*
X219950892Y-73422721D01*
X220011253Y-73378866D01*
X220119948Y-73258148D01*
X220134621Y-73241852D01*
X220134622Y-73241851D01*
X220139040Y-73236944D01*
X220234527Y-73071556D01*
X220293542Y-72889928D01*
X220300780Y-72821067D01*
X220312814Y-72706565D01*
X220313504Y-72700000D01*
X220303743Y-72607128D01*
X220294232Y-72516635D01*
X220294232Y-72516633D01*
X220293542Y-72510072D01*
X220234527Y-72328444D01*
X220202768Y-72273435D01*
X220194770Y-72259583D01*
X220139040Y-72163056D01*
X220097243Y-72116635D01*
X220015675Y-72026045D01*
X220015674Y-72026044D01*
X220011253Y-72021134D01*
X219856752Y-71908882D01*
X219850724Y-71906198D01*
X219850722Y-71906197D01*
X219836803Y-71900000D01*
X221686496Y-71900000D01*
X221687186Y-71906565D01*
X221705200Y-72077955D01*
X221706458Y-72089928D01*
X221765473Y-72271556D01*
X221860960Y-72436944D01*
X221865378Y-72441851D01*
X221865379Y-72441852D01*
X221979678Y-72568794D01*
X221988747Y-72578866D01*
X222143248Y-72691118D01*
X222149276Y-72693802D01*
X222149278Y-72693803D01*
X222311681Y-72766109D01*
X222317712Y-72768794D01*
X222411112Y-72788647D01*
X222498056Y-72807128D01*
X222498061Y-72807128D01*
X222504513Y-72808500D01*
X222695487Y-72808500D01*
X222701939Y-72807128D01*
X222701944Y-72807128D01*
X222788887Y-72788647D01*
X222882288Y-72768794D01*
X222888319Y-72766109D01*
X223050722Y-72693803D01*
X223050724Y-72693802D01*
X223056752Y-72691118D01*
X223211253Y-72578866D01*
X223220322Y-72568794D01*
X223334621Y-72441852D01*
X223334622Y-72441851D01*
X223339040Y-72436944D01*
X223434527Y-72271556D01*
X223493542Y-72089928D01*
X223494801Y-72077955D01*
X223512814Y-71906565D01*
X223513504Y-71900000D01*
X223500425Y-71775556D01*
X223494232Y-71716635D01*
X223494232Y-71716633D01*
X223493542Y-71710072D01*
X223434527Y-71528444D01*
X223339040Y-71363056D01*
X223211253Y-71221134D01*
X223056752Y-71108882D01*
X223050724Y-71106198D01*
X223050722Y-71106197D01*
X222888319Y-71033891D01*
X222888318Y-71033891D01*
X222882288Y-71031206D01*
X222788888Y-71011353D01*
X222701944Y-70992872D01*
X222701939Y-70992872D01*
X222695487Y-70991500D01*
X222504513Y-70991500D01*
X222498061Y-70992872D01*
X222498056Y-70992872D01*
X222411112Y-71011353D01*
X222317712Y-71031206D01*
X222311682Y-71033891D01*
X222311681Y-71033891D01*
X222149278Y-71106197D01*
X222149276Y-71106198D01*
X222143248Y-71108882D01*
X221988747Y-71221134D01*
X221860960Y-71363056D01*
X221765473Y-71528444D01*
X221706458Y-71710072D01*
X221705768Y-71716633D01*
X221705768Y-71716635D01*
X221699575Y-71775556D01*
X221686496Y-71900000D01*
X219836803Y-71900000D01*
X219688319Y-71833891D01*
X219688318Y-71833891D01*
X219682288Y-71831206D01*
X219588887Y-71811353D01*
X219501944Y-71792872D01*
X219501939Y-71792872D01*
X219495487Y-71791500D01*
X219304513Y-71791500D01*
X219298061Y-71792872D01*
X219298056Y-71792872D01*
X219211113Y-71811353D01*
X219117712Y-71831206D01*
X219111682Y-71833891D01*
X219111681Y-71833891D01*
X218949278Y-71906197D01*
X218949276Y-71906198D01*
X218943248Y-71908882D01*
X218788747Y-72021134D01*
X218784326Y-72026044D01*
X218784325Y-72026045D01*
X218743636Y-72071235D01*
X218683190Y-72108475D01*
X218612207Y-72107123D01*
X218556364Y-72071235D01*
X218515675Y-72026045D01*
X218515674Y-72026044D01*
X218511253Y-72021134D01*
X218356752Y-71908882D01*
X218350724Y-71906198D01*
X218350722Y-71906197D01*
X218188319Y-71833891D01*
X218188318Y-71833891D01*
X218182288Y-71831206D01*
X218088887Y-71811353D01*
X218001944Y-71792872D01*
X218001939Y-71792872D01*
X217995487Y-71791500D01*
X217804513Y-71791500D01*
X217798061Y-71792872D01*
X217798056Y-71792872D01*
X217711113Y-71811353D01*
X217617712Y-71831206D01*
X217611682Y-71833891D01*
X217611681Y-71833891D01*
X217449278Y-71906197D01*
X217449276Y-71906198D01*
X217443248Y-71908882D01*
X217288747Y-72021134D01*
X217284326Y-72026044D01*
X217284325Y-72026045D01*
X217202758Y-72116635D01*
X217160960Y-72163056D01*
X217105230Y-72259583D01*
X217097233Y-72273435D01*
X217065473Y-72328444D01*
X217006458Y-72510072D01*
X217005768Y-72516633D01*
X217005768Y-72516635D01*
X216996257Y-72607128D01*
X216986496Y-72700000D01*
X213624353Y-72700000D01*
X213644031Y-72639439D01*
X213647778Y-72603794D01*
X213663303Y-72456076D01*
X213663993Y-72449511D01*
X213651929Y-72334729D01*
X213644721Y-72266146D01*
X213644721Y-72266144D01*
X213644031Y-72259583D01*
X213585016Y-72077955D01*
X213489529Y-71912567D01*
X213483794Y-71906197D01*
X213366164Y-71775556D01*
X213366163Y-71775555D01*
X213361742Y-71770645D01*
X213264508Y-71700000D01*
X215086496Y-71700000D01*
X215106458Y-71889928D01*
X215165473Y-72071556D01*
X215168776Y-72077278D01*
X215168777Y-72077279D01*
X215172796Y-72084240D01*
X215260960Y-72236944D01*
X215265378Y-72241851D01*
X215265379Y-72241852D01*
X215297278Y-72277279D01*
X215388747Y-72378866D01*
X215476945Y-72442946D01*
X215514083Y-72469928D01*
X215543248Y-72491118D01*
X215549276Y-72493802D01*
X215549278Y-72493803D01*
X215600560Y-72516635D01*
X215717712Y-72568794D01*
X215783365Y-72582749D01*
X215898056Y-72607128D01*
X215898061Y-72607128D01*
X215904513Y-72608500D01*
X216095487Y-72608500D01*
X216101939Y-72607128D01*
X216101944Y-72607128D01*
X216216635Y-72582749D01*
X216282288Y-72568794D01*
X216399440Y-72516635D01*
X216450722Y-72493803D01*
X216450724Y-72493802D01*
X216456752Y-72491118D01*
X216485918Y-72469928D01*
X216523055Y-72442946D01*
X216611253Y-72378866D01*
X216702722Y-72277279D01*
X216734621Y-72241852D01*
X216734622Y-72241851D01*
X216739040Y-72236944D01*
X216827204Y-72084240D01*
X216831223Y-72077279D01*
X216831224Y-72077278D01*
X216834527Y-72071556D01*
X216893542Y-71889928D01*
X216913504Y-71700000D01*
X216895473Y-71528444D01*
X216894232Y-71516635D01*
X216894232Y-71516633D01*
X216893542Y-71510072D01*
X216834527Y-71328444D01*
X216739040Y-71163056D01*
X216697243Y-71116635D01*
X216615675Y-71026045D01*
X216615674Y-71026044D01*
X216611253Y-71021134D01*
X216456752Y-70908882D01*
X216450724Y-70906198D01*
X216450722Y-70906197D01*
X216288319Y-70833891D01*
X216288318Y-70833891D01*
X216282288Y-70831206D01*
X216188888Y-70811353D01*
X216101944Y-70792872D01*
X216101939Y-70792872D01*
X216095487Y-70791500D01*
X215904513Y-70791500D01*
X215898061Y-70792872D01*
X215898056Y-70792872D01*
X215811113Y-70811353D01*
X215717712Y-70831206D01*
X215711682Y-70833891D01*
X215711681Y-70833891D01*
X215549278Y-70906197D01*
X215549276Y-70906198D01*
X215543248Y-70908882D01*
X215388747Y-71021134D01*
X215384326Y-71026044D01*
X215384325Y-71026045D01*
X215302758Y-71116635D01*
X215260960Y-71163056D01*
X215165473Y-71328444D01*
X215106458Y-71510072D01*
X215105768Y-71516633D01*
X215105768Y-71516635D01*
X215104527Y-71528444D01*
X215086496Y-71700000D01*
X213264508Y-71700000D01*
X213207241Y-71658393D01*
X213201213Y-71655709D01*
X213201211Y-71655708D01*
X213038808Y-71583402D01*
X213038807Y-71583402D01*
X213032777Y-71580717D01*
X212939377Y-71560864D01*
X212852433Y-71542383D01*
X212852428Y-71542383D01*
X212845976Y-71541011D01*
X212655002Y-71541011D01*
X212648550Y-71542383D01*
X212648545Y-71542383D01*
X212561601Y-71560864D01*
X212468201Y-71580717D01*
X212462171Y-71583402D01*
X212462170Y-71583402D01*
X212299767Y-71655708D01*
X212299765Y-71655709D01*
X212293737Y-71658393D01*
X212139236Y-71770645D01*
X212134815Y-71775555D01*
X212134814Y-71775556D01*
X212017185Y-71906197D01*
X212011449Y-71912567D01*
X211915962Y-72077955D01*
X211856947Y-72259583D01*
X211856257Y-72266144D01*
X211856257Y-72266146D01*
X211849049Y-72334729D01*
X211836985Y-72449511D01*
X206297790Y-72449511D01*
X206313504Y-72300000D01*
X206308596Y-72253305D01*
X206294232Y-72116635D01*
X206294232Y-72116633D01*
X206293542Y-72110072D01*
X206234527Y-71928444D01*
X206225361Y-71912567D01*
X206196743Y-71863000D01*
X206180005Y-71794005D01*
X206196743Y-71737000D01*
X206231223Y-71677279D01*
X206231224Y-71677278D01*
X206234527Y-71671556D01*
X206293542Y-71489928D01*
X206296046Y-71466109D01*
X206312814Y-71306565D01*
X206313504Y-71300000D01*
X206296882Y-71141852D01*
X206294232Y-71116635D01*
X206294232Y-71116633D01*
X206293542Y-71110072D01*
X206234527Y-70928444D01*
X206139040Y-70763056D01*
X206011253Y-70621134D01*
X205982165Y-70600000D01*
X217686496Y-70600000D01*
X217687186Y-70606565D01*
X217704235Y-70768774D01*
X217706458Y-70789928D01*
X217765473Y-70971556D01*
X217860960Y-71136944D01*
X217988747Y-71278866D01*
X218143248Y-71391118D01*
X218149276Y-71393802D01*
X218149278Y-71393803D01*
X218311681Y-71466109D01*
X218317712Y-71468794D01*
X218386263Y-71483365D01*
X218498056Y-71507128D01*
X218498061Y-71507128D01*
X218504513Y-71508500D01*
X218695487Y-71508500D01*
X218701939Y-71507128D01*
X218701944Y-71507128D01*
X218813737Y-71483365D01*
X218882288Y-71468794D01*
X218888319Y-71466109D01*
X219050722Y-71393803D01*
X219050724Y-71393802D01*
X219056752Y-71391118D01*
X219211253Y-71278866D01*
X219339040Y-71136944D01*
X219434527Y-70971556D01*
X219493542Y-70789928D01*
X219495766Y-70768774D01*
X219512814Y-70606565D01*
X219513504Y-70600000D01*
X219501245Y-70483365D01*
X219494232Y-70416635D01*
X219494232Y-70416633D01*
X219493542Y-70410072D01*
X219434527Y-70228444D01*
X219339040Y-70063056D01*
X219211253Y-69921134D01*
X219056752Y-69808882D01*
X219050724Y-69806198D01*
X219050722Y-69806197D01*
X218888319Y-69733891D01*
X218888318Y-69733891D01*
X218882288Y-69731206D01*
X218766362Y-69706565D01*
X218701944Y-69692872D01*
X218701939Y-69692872D01*
X218695487Y-69691500D01*
X218504513Y-69691500D01*
X218498061Y-69692872D01*
X218498056Y-69692872D01*
X218433638Y-69706565D01*
X218317712Y-69731206D01*
X218311682Y-69733891D01*
X218311681Y-69733891D01*
X218149278Y-69806197D01*
X218149276Y-69806198D01*
X218143248Y-69808882D01*
X217988747Y-69921134D01*
X217860960Y-70063056D01*
X217765473Y-70228444D01*
X217706458Y-70410072D01*
X217705768Y-70416633D01*
X217705768Y-70416635D01*
X217698755Y-70483365D01*
X217686496Y-70600000D01*
X205982165Y-70600000D01*
X205901143Y-70541134D01*
X205862094Y-70512763D01*
X205862093Y-70512762D01*
X205856752Y-70508882D01*
X205850724Y-70506198D01*
X205850722Y-70506197D01*
X205688319Y-70433891D01*
X205688318Y-70433891D01*
X205682288Y-70431206D01*
X205582861Y-70410072D01*
X205501944Y-70392872D01*
X205501939Y-70392872D01*
X205495487Y-70391500D01*
X205304513Y-70391500D01*
X205298061Y-70392872D01*
X205298056Y-70392872D01*
X205217139Y-70410072D01*
X205117712Y-70431206D01*
X205111682Y-70433891D01*
X205111681Y-70433891D01*
X204949278Y-70506197D01*
X204949276Y-70506198D01*
X204943248Y-70508882D01*
X204937907Y-70512762D01*
X204937906Y-70512763D01*
X204898857Y-70541134D01*
X204788747Y-70621134D01*
X204660960Y-70763056D01*
X204565473Y-70928444D01*
X204506458Y-71110072D01*
X204505768Y-71116633D01*
X204505768Y-71116635D01*
X204503118Y-71141852D01*
X204486496Y-71300000D01*
X204487186Y-71306565D01*
X204503955Y-71466109D01*
X204506458Y-71489928D01*
X204565473Y-71671556D01*
X204568776Y-71677278D01*
X204568777Y-71677279D01*
X204603257Y-71737000D01*
X204619995Y-71805995D01*
X204603257Y-71863000D01*
X204574640Y-71912567D01*
X204565473Y-71928444D01*
X204506458Y-72110072D01*
X204505768Y-72116633D01*
X204505768Y-72116635D01*
X204491404Y-72253305D01*
X204486496Y-72300000D01*
X194360370Y-72300000D01*
X194339040Y-72263056D01*
X194211253Y-72121134D01*
X194080375Y-72026045D01*
X194062094Y-72012763D01*
X194062093Y-72012762D01*
X194056752Y-72008882D01*
X194050724Y-72006198D01*
X194050722Y-72006197D01*
X193888319Y-71933891D01*
X193888318Y-71933891D01*
X193882288Y-71931206D01*
X193788887Y-71911353D01*
X193701944Y-71892872D01*
X193701939Y-71892872D01*
X193695487Y-71891500D01*
X193504513Y-71891500D01*
X193498061Y-71892872D01*
X193498056Y-71892872D01*
X193411113Y-71911353D01*
X193317712Y-71931206D01*
X193311682Y-71933891D01*
X193311681Y-71933891D01*
X193149278Y-72006197D01*
X193149276Y-72006198D01*
X193143248Y-72008882D01*
X193137907Y-72012762D01*
X193137906Y-72012763D01*
X193119625Y-72026045D01*
X192988747Y-72121134D01*
X192860960Y-72263056D01*
X192765473Y-72428444D01*
X192706458Y-72610072D01*
X192705768Y-72616633D01*
X192705768Y-72616635D01*
X192702098Y-72651556D01*
X192686496Y-72800000D01*
X187228823Y-72800000D01*
X187277314Y-72716010D01*
X187311223Y-72657279D01*
X187311224Y-72657278D01*
X187314527Y-72651556D01*
X187373542Y-72469928D01*
X187393504Y-72280000D01*
X187373542Y-72090072D01*
X187314527Y-71908444D01*
X187307462Y-71896206D01*
X187259422Y-71813000D01*
X187242684Y-71744005D01*
X187259422Y-71687000D01*
X187265035Y-71677279D01*
X187314527Y-71591556D01*
X187373542Y-71409928D01*
X187377868Y-71368774D01*
X187392814Y-71226565D01*
X187393504Y-71220000D01*
X187381543Y-71106197D01*
X187374232Y-71036635D01*
X187374232Y-71036633D01*
X187373542Y-71030072D01*
X187314527Y-70848444D01*
X187307888Y-70836944D01*
X187222341Y-70688774D01*
X187219040Y-70683056D01*
X187213839Y-70677279D01*
X187095675Y-70546045D01*
X187095674Y-70546044D01*
X187091253Y-70541134D01*
X186992157Y-70469136D01*
X186942094Y-70432763D01*
X186942093Y-70432762D01*
X186936752Y-70428882D01*
X186930724Y-70426198D01*
X186930722Y-70426197D01*
X186768319Y-70353891D01*
X186768318Y-70353891D01*
X186762288Y-70351206D01*
X186668887Y-70331353D01*
X186581944Y-70312872D01*
X186581939Y-70312872D01*
X186575487Y-70311500D01*
X186384513Y-70311500D01*
X186378061Y-70312872D01*
X186378056Y-70312872D01*
X186291113Y-70331353D01*
X186197712Y-70351206D01*
X186191682Y-70353891D01*
X186191681Y-70353891D01*
X186029278Y-70426197D01*
X186029276Y-70426198D01*
X186023248Y-70428882D01*
X186017907Y-70432762D01*
X186017906Y-70432763D01*
X185967843Y-70469136D01*
X185868747Y-70541134D01*
X185864326Y-70546044D01*
X185864325Y-70546045D01*
X185746162Y-70677279D01*
X185740960Y-70683056D01*
X185737659Y-70688774D01*
X185652113Y-70836944D01*
X185645473Y-70848444D01*
X185586458Y-71030072D01*
X185585768Y-71036633D01*
X185585768Y-71036635D01*
X185578457Y-71106197D01*
X185566496Y-71220000D01*
X185567186Y-71226565D01*
X185582133Y-71368774D01*
X185586458Y-71409928D01*
X185645473Y-71591556D01*
X185694966Y-71677279D01*
X185700578Y-71687000D01*
X185717316Y-71755995D01*
X185700578Y-71813000D01*
X185652539Y-71896206D01*
X185645473Y-71908444D01*
X185586458Y-72090072D01*
X185566496Y-72280000D01*
X179908000Y-72280000D01*
X179908000Y-70300000D01*
X190886496Y-70300000D01*
X190906458Y-70489928D01*
X190965473Y-70671556D01*
X190968776Y-70677278D01*
X190968777Y-70677279D01*
X190975414Y-70688774D01*
X191060960Y-70836944D01*
X191065378Y-70841851D01*
X191065379Y-70841852D01*
X191125733Y-70908882D01*
X191188747Y-70978866D01*
X191343248Y-71091118D01*
X191349276Y-71093802D01*
X191349278Y-71093803D01*
X191504824Y-71163056D01*
X191517712Y-71168794D01*
X191611112Y-71188647D01*
X191698056Y-71207128D01*
X191698061Y-71207128D01*
X191704513Y-71208500D01*
X191895487Y-71208500D01*
X191901939Y-71207128D01*
X191901944Y-71207128D01*
X191988888Y-71188647D01*
X192082288Y-71168794D01*
X192095176Y-71163056D01*
X192250722Y-71093803D01*
X192250724Y-71093802D01*
X192256752Y-71091118D01*
X192411253Y-70978866D01*
X192474267Y-70908882D01*
X192534621Y-70841852D01*
X192534622Y-70841851D01*
X192539040Y-70836944D01*
X192624586Y-70688774D01*
X192631223Y-70677279D01*
X192631224Y-70677278D01*
X192634527Y-70671556D01*
X192693542Y-70489928D01*
X192713504Y-70300000D01*
X192712814Y-70293435D01*
X192694232Y-70116635D01*
X192694232Y-70116633D01*
X192693542Y-70110072D01*
X192634527Y-69928444D01*
X192539040Y-69763056D01*
X192482264Y-69700000D01*
X203086496Y-69700000D01*
X203087186Y-69706565D01*
X203092608Y-69758148D01*
X203106458Y-69889928D01*
X203165473Y-70071556D01*
X203260960Y-70236944D01*
X203388747Y-70378866D01*
X203543248Y-70491118D01*
X203549276Y-70493802D01*
X203549278Y-70493803D01*
X203711681Y-70566109D01*
X203717712Y-70568794D01*
X203811112Y-70588647D01*
X203898056Y-70607128D01*
X203898061Y-70607128D01*
X203904513Y-70608500D01*
X204095487Y-70608500D01*
X204101939Y-70607128D01*
X204101944Y-70607128D01*
X204188888Y-70588647D01*
X204282288Y-70568794D01*
X204288319Y-70566109D01*
X204450722Y-70493803D01*
X204450724Y-70493802D01*
X204456752Y-70491118D01*
X204611253Y-70378866D01*
X204739040Y-70236944D01*
X204834527Y-70071556D01*
X204893542Y-69889928D01*
X204907393Y-69758148D01*
X204912814Y-69706565D01*
X204913504Y-69700000D01*
X204893542Y-69510072D01*
X204834527Y-69328444D01*
X204739040Y-69163056D01*
X204611253Y-69021134D01*
X204456752Y-68908882D01*
X204450724Y-68906198D01*
X204450722Y-68906197D01*
X204288319Y-68833891D01*
X204288318Y-68833891D01*
X204282288Y-68831206D01*
X204188888Y-68811353D01*
X204101944Y-68792872D01*
X204101939Y-68792872D01*
X204095487Y-68791500D01*
X203904513Y-68791500D01*
X203898061Y-68792872D01*
X203898056Y-68792872D01*
X203811112Y-68811353D01*
X203717712Y-68831206D01*
X203711682Y-68833891D01*
X203711681Y-68833891D01*
X203549278Y-68906197D01*
X203549276Y-68906198D01*
X203543248Y-68908882D01*
X203388747Y-69021134D01*
X203260960Y-69163056D01*
X203165473Y-69328444D01*
X203106458Y-69510072D01*
X203086496Y-69700000D01*
X192482264Y-69700000D01*
X192411253Y-69621134D01*
X192256752Y-69508882D01*
X192250724Y-69506198D01*
X192250722Y-69506197D01*
X192088319Y-69433891D01*
X192088318Y-69433891D01*
X192082288Y-69431206D01*
X191988887Y-69411353D01*
X191901944Y-69392872D01*
X191901939Y-69392872D01*
X191895487Y-69391500D01*
X191704513Y-69391500D01*
X191698061Y-69392872D01*
X191698056Y-69392872D01*
X191611113Y-69411353D01*
X191517712Y-69431206D01*
X191511682Y-69433891D01*
X191511681Y-69433891D01*
X191349278Y-69506197D01*
X191349276Y-69506198D01*
X191343248Y-69508882D01*
X191188747Y-69621134D01*
X191060960Y-69763056D01*
X190965473Y-69928444D01*
X190906458Y-70110072D01*
X190905768Y-70116633D01*
X190905768Y-70116635D01*
X190887186Y-70293435D01*
X190886496Y-70300000D01*
X179908000Y-70300000D01*
X179908000Y-68200000D01*
X186886496Y-68200000D01*
X186906458Y-68389928D01*
X186965473Y-68571556D01*
X187060960Y-68736944D01*
X187188747Y-68878866D01*
X187343248Y-68991118D01*
X187349276Y-68993802D01*
X187349278Y-68993803D01*
X187511681Y-69066109D01*
X187517712Y-69068794D01*
X187611113Y-69088647D01*
X187698056Y-69107128D01*
X187698061Y-69107128D01*
X187704513Y-69108500D01*
X187895487Y-69108500D01*
X187901939Y-69107128D01*
X187901944Y-69107128D01*
X187988887Y-69088647D01*
X188082288Y-69068794D01*
X188088319Y-69066109D01*
X188250722Y-68993803D01*
X188250724Y-68993802D01*
X188256752Y-68991118D01*
X188411253Y-68878866D01*
X188539040Y-68736944D01*
X188634527Y-68571556D01*
X188693542Y-68389928D01*
X188713504Y-68200000D01*
X188693542Y-68010072D01*
X188634527Y-67828444D01*
X188539040Y-67663056D01*
X188532031Y-67655271D01*
X188415675Y-67526045D01*
X188415674Y-67526044D01*
X188411253Y-67521134D01*
X188256752Y-67408882D01*
X188250724Y-67406198D01*
X188250722Y-67406197D01*
X188088319Y-67333891D01*
X188088318Y-67333891D01*
X188082288Y-67331206D01*
X187988887Y-67311353D01*
X187901944Y-67292872D01*
X187901939Y-67292872D01*
X187895487Y-67291500D01*
X187704513Y-67291500D01*
X187698061Y-67292872D01*
X187698056Y-67292872D01*
X187611113Y-67311353D01*
X187517712Y-67331206D01*
X187511682Y-67333891D01*
X187511681Y-67333891D01*
X187349278Y-67406197D01*
X187349276Y-67406198D01*
X187343248Y-67408882D01*
X187188747Y-67521134D01*
X187184326Y-67526044D01*
X187184325Y-67526045D01*
X187067970Y-67655271D01*
X187060960Y-67663056D01*
X186965473Y-67828444D01*
X186906458Y-68010072D01*
X186886496Y-68200000D01*
X179908000Y-68200000D01*
X179908000Y-67290000D01*
X199876496Y-67290000D01*
X199877186Y-67296565D01*
X199894254Y-67458955D01*
X199896458Y-67479928D01*
X199955473Y-67661556D01*
X200050960Y-67826944D01*
X200055378Y-67831851D01*
X200055379Y-67831852D01*
X200174325Y-67963955D01*
X200178747Y-67968866D01*
X200333248Y-68081118D01*
X200339276Y-68083802D01*
X200339278Y-68083803D01*
X200501681Y-68156109D01*
X200507712Y-68158794D01*
X200601113Y-68178647D01*
X200688056Y-68197128D01*
X200688061Y-68197128D01*
X200694513Y-68198500D01*
X200885487Y-68198500D01*
X200891939Y-68197128D01*
X200891944Y-68197128D01*
X200978887Y-68178647D01*
X201072288Y-68158794D01*
X201078319Y-68156109D01*
X201240722Y-68083803D01*
X201240724Y-68083802D01*
X201246752Y-68081118D01*
X201401253Y-67968866D01*
X201405675Y-67963955D01*
X201524621Y-67831852D01*
X201524622Y-67831851D01*
X201529040Y-67826944D01*
X201624527Y-67661556D01*
X201683542Y-67479928D01*
X201685747Y-67458955D01*
X201702814Y-67296565D01*
X201703504Y-67290000D01*
X201700812Y-67264385D01*
X201684232Y-67106635D01*
X201684232Y-67106633D01*
X201683542Y-67100072D01*
X201624527Y-66918444D01*
X201529040Y-66753056D01*
X201487180Y-66706565D01*
X201481269Y-66700000D01*
X206486496Y-66700000D01*
X206506458Y-66889928D01*
X206565473Y-67071556D01*
X206660960Y-67236944D01*
X206665378Y-67241851D01*
X206665379Y-67241852D01*
X206757176Y-67343803D01*
X206788747Y-67378866D01*
X206943248Y-67491118D01*
X206949276Y-67493802D01*
X206949278Y-67493803D01*
X207111681Y-67566109D01*
X207117712Y-67568794D01*
X207211112Y-67588647D01*
X207298056Y-67607128D01*
X207298061Y-67607128D01*
X207304513Y-67608500D01*
X207495487Y-67608500D01*
X207501939Y-67607128D01*
X207501944Y-67607128D01*
X207588888Y-67588647D01*
X207682288Y-67568794D01*
X207688319Y-67566109D01*
X207850722Y-67493803D01*
X207850724Y-67493802D01*
X207856752Y-67491118D01*
X208011253Y-67378866D01*
X208095626Y-67285161D01*
X208156071Y-67247921D01*
X208227054Y-67249273D01*
X208278356Y-67280376D01*
X208309619Y-67311639D01*
X208456301Y-67400472D01*
X208463548Y-67402743D01*
X208463550Y-67402744D01*
X208474569Y-67406197D01*
X208619938Y-67451753D01*
X208693365Y-67458500D01*
X208696263Y-67458500D01*
X208950665Y-67458499D01*
X209206634Y-67458499D01*
X209209492Y-67458236D01*
X209209501Y-67458236D01*
X209245004Y-67454974D01*
X209280062Y-67451753D01*
X209404479Y-67412763D01*
X209436450Y-67402744D01*
X209436452Y-67402743D01*
X209443699Y-67400472D01*
X209580018Y-67317915D01*
X209648648Y-67299736D01*
X209719350Y-67323755D01*
X209743248Y-67341118D01*
X209749276Y-67343802D01*
X209749278Y-67343803D01*
X209895449Y-67408882D01*
X209917712Y-67418794D01*
X210011113Y-67438647D01*
X210098056Y-67457128D01*
X210098061Y-67457128D01*
X210104513Y-67458500D01*
X210295487Y-67458500D01*
X210301939Y-67457128D01*
X210301944Y-67457128D01*
X210388887Y-67438647D01*
X210482288Y-67418794D01*
X210504551Y-67408882D01*
X210650722Y-67343803D01*
X210650724Y-67343802D01*
X210656752Y-67341118D01*
X210676388Y-67326852D01*
X210750939Y-67272687D01*
X210817807Y-67248828D01*
X210886958Y-67264909D01*
X210899061Y-67272687D01*
X210973613Y-67326852D01*
X210993248Y-67341118D01*
X210999276Y-67343802D01*
X210999278Y-67343803D01*
X211145449Y-67408882D01*
X211167712Y-67418794D01*
X211261113Y-67438647D01*
X211348056Y-67457128D01*
X211348061Y-67457128D01*
X211354513Y-67458500D01*
X211545487Y-67458500D01*
X211551939Y-67457128D01*
X211551944Y-67457128D01*
X211638887Y-67438647D01*
X211732288Y-67418794D01*
X211754551Y-67408882D01*
X211900722Y-67343803D01*
X211900724Y-67343802D01*
X211906752Y-67341118D01*
X211926388Y-67326852D01*
X211983770Y-67285161D01*
X212061253Y-67228866D01*
X212189040Y-67086944D01*
X212284527Y-66921556D01*
X212343542Y-66739928D01*
X212358500Y-66597610D01*
X212358500Y-66002390D01*
X212348584Y-65908040D01*
X212344232Y-65866635D01*
X212344232Y-65866633D01*
X212343542Y-65860072D01*
X212284527Y-65678444D01*
X212189040Y-65513056D01*
X212091065Y-65404243D01*
X212065675Y-65376045D01*
X212065674Y-65376044D01*
X212061253Y-65371134D01*
X212039047Y-65355000D01*
X224531496Y-65355000D01*
X224551458Y-65544928D01*
X224610473Y-65726556D01*
X224613776Y-65732278D01*
X224613777Y-65732279D01*
X224631098Y-65762279D01*
X224705960Y-65891944D01*
X224710378Y-65896851D01*
X224710379Y-65896852D01*
X224803874Y-66000689D01*
X224833747Y-66033866D01*
X224914646Y-66092643D01*
X224969147Y-66132240D01*
X224988248Y-66146118D01*
X224994276Y-66148802D01*
X224994278Y-66148803D01*
X225143333Y-66215166D01*
X225162712Y-66223794D01*
X225253765Y-66243148D01*
X225343056Y-66262128D01*
X225343061Y-66262128D01*
X225349513Y-66263500D01*
X225540487Y-66263500D01*
X225546939Y-66262128D01*
X225546944Y-66262128D01*
X225636235Y-66243148D01*
X225727288Y-66223794D01*
X225746667Y-66215166D01*
X225895722Y-66148803D01*
X225895724Y-66148802D01*
X225901752Y-66146118D01*
X225985296Y-66085420D01*
X226052160Y-66061563D01*
X226121312Y-66077643D01*
X226133413Y-66085420D01*
X226156564Y-66102240D01*
X226248878Y-66169310D01*
X226258248Y-66176118D01*
X226264276Y-66178802D01*
X226264278Y-66178803D01*
X226426681Y-66251109D01*
X226432712Y-66253794D01*
X226518966Y-66272128D01*
X226613056Y-66292128D01*
X226613061Y-66292128D01*
X226619513Y-66293500D01*
X226810487Y-66293500D01*
X226816939Y-66292128D01*
X226816944Y-66292128D01*
X226911034Y-66272128D01*
X226997288Y-66253794D01*
X227003319Y-66251109D01*
X227165722Y-66178803D01*
X227165724Y-66178802D01*
X227171752Y-66176118D01*
X227181123Y-66169310D01*
X227226807Y-66136118D01*
X227275940Y-66100421D01*
X227342806Y-66076563D01*
X227411958Y-66092643D01*
X227424056Y-66100418D01*
X227473193Y-66136118D01*
X227518878Y-66169310D01*
X227528248Y-66176118D01*
X227534276Y-66178802D01*
X227534278Y-66178803D01*
X227696681Y-66251109D01*
X227702712Y-66253794D01*
X227788966Y-66272128D01*
X227883056Y-66292128D01*
X227883061Y-66292128D01*
X227889513Y-66293500D01*
X228080487Y-66293500D01*
X228086939Y-66292128D01*
X228086944Y-66292128D01*
X228181034Y-66272128D01*
X228267288Y-66253794D01*
X228273319Y-66251109D01*
X228435722Y-66178803D01*
X228435724Y-66178802D01*
X228441752Y-66176118D01*
X228451123Y-66169310D01*
X228573467Y-66080421D01*
X228640335Y-66056563D01*
X228709486Y-66072643D01*
X228721572Y-66080410D01*
X228798248Y-66136118D01*
X228804276Y-66138802D01*
X228804278Y-66138803D01*
X228908412Y-66185166D01*
X228972712Y-66213794D01*
X229066112Y-66233647D01*
X229153056Y-66252128D01*
X229153061Y-66252128D01*
X229159513Y-66253500D01*
X229350487Y-66253500D01*
X229356939Y-66252128D01*
X229356944Y-66252128D01*
X229443888Y-66233647D01*
X229537288Y-66213794D01*
X229601588Y-66185166D01*
X229705722Y-66138803D01*
X229705724Y-66138802D01*
X229711752Y-66136118D01*
X229795296Y-66075420D01*
X229862160Y-66051563D01*
X229931312Y-66067643D01*
X229943415Y-66075421D01*
X230049147Y-66152240D01*
X230068248Y-66166118D01*
X230074276Y-66168802D01*
X230074278Y-66168803D01*
X230223333Y-66235166D01*
X230242712Y-66243794D01*
X230328966Y-66262128D01*
X230423056Y-66282128D01*
X230423061Y-66282128D01*
X230429513Y-66283500D01*
X230620487Y-66283500D01*
X230626939Y-66282128D01*
X230626944Y-66282128D01*
X230721034Y-66262128D01*
X230807288Y-66243794D01*
X230826667Y-66235166D01*
X230975722Y-66168803D01*
X230975724Y-66168802D01*
X230981752Y-66166118D01*
X231072178Y-66100420D01*
X231139042Y-66076563D01*
X231208194Y-66092643D01*
X231220294Y-66100419D01*
X231264092Y-66132240D01*
X231331354Y-66181109D01*
X231338248Y-66186118D01*
X231344276Y-66188802D01*
X231344278Y-66188803D01*
X231493333Y-66255166D01*
X231512712Y-66263794D01*
X231598966Y-66282128D01*
X231693056Y-66302128D01*
X231693061Y-66302128D01*
X231699513Y-66303500D01*
X231890487Y-66303500D01*
X231896939Y-66302128D01*
X231896944Y-66302128D01*
X231991034Y-66282128D01*
X232077288Y-66263794D01*
X232096667Y-66255166D01*
X232245722Y-66188803D01*
X232245724Y-66188802D01*
X232251752Y-66186118D01*
X232258647Y-66181109D01*
X232326083Y-66132113D01*
X232376585Y-66095421D01*
X232443452Y-66071563D01*
X232512604Y-66087643D01*
X232524691Y-66095410D01*
X232608248Y-66156118D01*
X232614276Y-66158802D01*
X232614278Y-66158803D01*
X232763333Y-66225166D01*
X232782712Y-66233794D01*
X232868966Y-66252128D01*
X232963056Y-66272128D01*
X232963061Y-66272128D01*
X232969513Y-66273500D01*
X233160487Y-66273500D01*
X233166939Y-66272128D01*
X233166944Y-66272128D01*
X233261034Y-66252128D01*
X233347288Y-66233794D01*
X233366667Y-66225166D01*
X233515722Y-66158803D01*
X233515724Y-66158802D01*
X233521752Y-66156118D01*
X233540854Y-66142240D01*
X233590571Y-66106118D01*
X233625940Y-66080421D01*
X233692806Y-66056563D01*
X233761958Y-66072643D01*
X233774056Y-66080418D01*
X233809429Y-66106118D01*
X233859147Y-66142240D01*
X233878248Y-66156118D01*
X233884276Y-66158802D01*
X233884278Y-66158803D01*
X234033333Y-66225166D01*
X234052712Y-66233794D01*
X234138966Y-66252128D01*
X234233056Y-66272128D01*
X234233061Y-66272128D01*
X234239513Y-66273500D01*
X234430487Y-66273500D01*
X234436939Y-66272128D01*
X234436944Y-66272128D01*
X234531034Y-66252128D01*
X234617288Y-66233794D01*
X234636667Y-66225166D01*
X234785722Y-66158803D01*
X234785724Y-66158802D01*
X234791752Y-66156118D01*
X234875296Y-66095420D01*
X234942160Y-66071563D01*
X235011312Y-66087643D01*
X235023413Y-66095420D01*
X235073917Y-66132113D01*
X235141354Y-66181109D01*
X235148248Y-66186118D01*
X235154276Y-66188802D01*
X235154278Y-66188803D01*
X235303333Y-66255166D01*
X235322712Y-66263794D01*
X235408966Y-66282128D01*
X235503056Y-66302128D01*
X235503061Y-66302128D01*
X235509513Y-66303500D01*
X235700487Y-66303500D01*
X235706939Y-66302128D01*
X235706944Y-66302128D01*
X235801034Y-66282128D01*
X235887288Y-66263794D01*
X235906667Y-66255166D01*
X236055722Y-66188803D01*
X236055724Y-66188802D01*
X236061752Y-66186118D01*
X236068647Y-66181109D01*
X236135908Y-66132240D01*
X236179704Y-66100421D01*
X236246570Y-66076563D01*
X236315722Y-66092643D01*
X236327810Y-66100411D01*
X236418248Y-66166118D01*
X236424276Y-66168802D01*
X236424278Y-66168803D01*
X236573333Y-66235166D01*
X236592712Y-66243794D01*
X236678966Y-66262128D01*
X236773056Y-66282128D01*
X236773061Y-66282128D01*
X236779513Y-66283500D01*
X236970487Y-66283500D01*
X236976939Y-66282128D01*
X236976944Y-66282128D01*
X237071034Y-66262128D01*
X237157288Y-66243794D01*
X237176667Y-66235166D01*
X237325722Y-66168803D01*
X237325724Y-66168802D01*
X237331752Y-66166118D01*
X237350854Y-66152240D01*
X237456585Y-66075421D01*
X237523452Y-66051563D01*
X237592604Y-66067643D01*
X237604691Y-66075410D01*
X237688248Y-66136118D01*
X237694276Y-66138802D01*
X237694278Y-66138803D01*
X237798412Y-66185166D01*
X237862712Y-66213794D01*
X237956112Y-66233647D01*
X238043056Y-66252128D01*
X238043061Y-66252128D01*
X238049513Y-66253500D01*
X238240487Y-66253500D01*
X238246939Y-66252128D01*
X238246944Y-66252128D01*
X238333888Y-66233647D01*
X238427288Y-66213794D01*
X238491588Y-66185166D01*
X238595722Y-66138803D01*
X238595724Y-66138802D01*
X238601752Y-66136118D01*
X238726585Y-66045421D01*
X238793452Y-66021563D01*
X238862604Y-66037643D01*
X238874691Y-66045410D01*
X238958248Y-66106118D01*
X238964276Y-66108802D01*
X238964278Y-66108803D01*
X239098976Y-66168774D01*
X239132712Y-66183794D01*
X239226112Y-66203647D01*
X239313056Y-66222128D01*
X239313061Y-66222128D01*
X239319513Y-66223500D01*
X239510487Y-66223500D01*
X239516939Y-66222128D01*
X239516944Y-66222128D01*
X239603888Y-66203647D01*
X239697288Y-66183794D01*
X239703315Y-66181111D01*
X239703323Y-66181108D01*
X239727673Y-66170266D01*
X239798040Y-66160831D01*
X239862338Y-66190937D01*
X239900151Y-66251025D01*
X239899476Y-66322019D01*
X239888042Y-66348372D01*
X239850473Y-66413444D01*
X239791458Y-66595072D01*
X239790768Y-66601633D01*
X239790768Y-66601635D01*
X239781120Y-66693435D01*
X239771496Y-66785000D01*
X239791458Y-66974928D01*
X239850473Y-67156556D01*
X239945960Y-67321944D01*
X239950378Y-67326851D01*
X239950379Y-67326852D01*
X240068915Y-67458500D01*
X240073747Y-67463866D01*
X240228248Y-67576118D01*
X240234276Y-67578802D01*
X240234278Y-67578803D01*
X240396681Y-67651109D01*
X240402712Y-67653794D01*
X240496113Y-67673647D01*
X240583056Y-67692128D01*
X240583061Y-67692128D01*
X240589513Y-67693500D01*
X240780487Y-67693500D01*
X240786939Y-67692128D01*
X240786944Y-67692128D01*
X240873887Y-67673647D01*
X240967288Y-67653794D01*
X240973319Y-67651109D01*
X241135722Y-67578803D01*
X241135724Y-67578802D01*
X241141752Y-67576118D01*
X241296253Y-67463866D01*
X241301085Y-67458500D01*
X241419621Y-67326852D01*
X241419622Y-67326851D01*
X241424040Y-67321944D01*
X241519527Y-67156556D01*
X241578542Y-66974928D01*
X241598504Y-66785000D01*
X241588880Y-66693435D01*
X241579232Y-66601635D01*
X241579232Y-66601633D01*
X241578542Y-66595072D01*
X241519527Y-66413444D01*
X241424040Y-66248056D01*
X241411199Y-66233794D01*
X241353137Y-66169310D01*
X241322419Y-66105303D01*
X241331184Y-66034849D01*
X241353137Y-66000690D01*
X241419621Y-65926852D01*
X241419622Y-65926851D01*
X241424040Y-65921944D01*
X241519527Y-65756556D01*
X241578542Y-65574928D01*
X241598504Y-65385000D01*
X241594661Y-65348435D01*
X241579232Y-65201635D01*
X241579232Y-65201633D01*
X241578542Y-65195072D01*
X241519527Y-65013444D01*
X241502207Y-64983444D01*
X241427341Y-64853774D01*
X241424040Y-64848056D01*
X241402177Y-64823774D01*
X241300675Y-64711045D01*
X241300674Y-64711044D01*
X241296253Y-64706134D01*
X241189883Y-64628851D01*
X241147094Y-64597763D01*
X241147093Y-64597762D01*
X241141752Y-64593882D01*
X241135724Y-64591198D01*
X241135722Y-64591197D01*
X240973319Y-64518891D01*
X240973318Y-64518891D01*
X240967288Y-64516206D01*
X240843882Y-64489975D01*
X240786944Y-64477872D01*
X240786939Y-64477872D01*
X240780487Y-64476500D01*
X240589513Y-64476500D01*
X240583061Y-64477872D01*
X240583056Y-64477872D01*
X240526118Y-64489975D01*
X240402712Y-64516206D01*
X240396682Y-64518891D01*
X240396681Y-64518891D01*
X240234278Y-64591197D01*
X240234276Y-64591198D01*
X240228248Y-64593882D01*
X240180118Y-64628851D01*
X240172234Y-64634579D01*
X240105367Y-64658437D01*
X240036215Y-64642357D01*
X240024118Y-64634583D01*
X239899965Y-64544380D01*
X239877094Y-64527763D01*
X239877093Y-64527762D01*
X239871752Y-64523882D01*
X239865724Y-64521198D01*
X239865722Y-64521197D01*
X239703319Y-64448891D01*
X239703318Y-64448891D01*
X239697288Y-64446206D01*
X239593820Y-64424213D01*
X239516944Y-64407872D01*
X239516939Y-64407872D01*
X239510487Y-64406500D01*
X239319513Y-64406500D01*
X239313061Y-64407872D01*
X239313056Y-64407872D01*
X239236180Y-64424213D01*
X239132712Y-64446206D01*
X239126682Y-64448891D01*
X239126681Y-64448891D01*
X238964278Y-64521197D01*
X238964276Y-64521198D01*
X238958248Y-64523882D01*
X238952907Y-64527762D01*
X238952906Y-64527763D01*
X238903193Y-64563882D01*
X238843518Y-64607239D01*
X238833415Y-64614579D01*
X238766548Y-64638437D01*
X238697396Y-64622357D01*
X238685309Y-64614590D01*
X238601752Y-64553882D01*
X238595724Y-64551198D01*
X238595722Y-64551197D01*
X238433319Y-64478891D01*
X238433318Y-64478891D01*
X238427288Y-64476206D01*
X238333888Y-64456353D01*
X238246944Y-64437872D01*
X238246939Y-64437872D01*
X238240487Y-64436500D01*
X238049513Y-64436500D01*
X238043061Y-64437872D01*
X238043056Y-64437872D01*
X237956113Y-64456353D01*
X237862712Y-64476206D01*
X237856682Y-64478891D01*
X237856681Y-64478891D01*
X237694278Y-64551197D01*
X237694276Y-64551198D01*
X237688248Y-64553882D01*
X237682907Y-64557762D01*
X237682906Y-64557763D01*
X237633193Y-64593882D01*
X237571869Y-64638437D01*
X237563415Y-64644579D01*
X237496548Y-64668437D01*
X237427396Y-64652357D01*
X237415309Y-64644590D01*
X237331752Y-64583882D01*
X237325724Y-64581198D01*
X237325722Y-64581197D01*
X237163319Y-64508891D01*
X237163318Y-64508891D01*
X237157288Y-64506206D01*
X237063196Y-64486206D01*
X236976944Y-64467872D01*
X236976939Y-64467872D01*
X236970487Y-64466500D01*
X236779513Y-64466500D01*
X236773061Y-64467872D01*
X236773056Y-64467872D01*
X236686804Y-64486206D01*
X236592712Y-64506206D01*
X236586682Y-64508891D01*
X236586681Y-64508891D01*
X236424278Y-64581197D01*
X236424276Y-64581198D01*
X236418248Y-64583882D01*
X236412907Y-64587762D01*
X236412906Y-64587763D01*
X236394416Y-64601197D01*
X236301869Y-64668437D01*
X236300297Y-64669579D01*
X236233430Y-64693437D01*
X236164278Y-64677357D01*
X236152190Y-64669589D01*
X236061752Y-64603882D01*
X236055724Y-64601198D01*
X236055722Y-64601197D01*
X235893319Y-64528891D01*
X235893318Y-64528891D01*
X235887288Y-64526206D01*
X235786741Y-64504834D01*
X235706944Y-64487872D01*
X235706939Y-64487872D01*
X235700487Y-64486500D01*
X235509513Y-64486500D01*
X235503061Y-64487872D01*
X235503056Y-64487872D01*
X235423259Y-64504834D01*
X235322712Y-64526206D01*
X235316682Y-64528891D01*
X235316681Y-64528891D01*
X235154278Y-64601197D01*
X235154276Y-64601198D01*
X235148248Y-64603882D01*
X235064704Y-64664580D01*
X234997840Y-64688437D01*
X234928688Y-64672357D01*
X234916585Y-64664579D01*
X234908132Y-64658437D01*
X234810990Y-64587859D01*
X234797094Y-64577763D01*
X234797093Y-64577762D01*
X234791752Y-64573882D01*
X234785724Y-64571198D01*
X234785722Y-64571197D01*
X234623319Y-64498891D01*
X234623318Y-64498891D01*
X234617288Y-64496206D01*
X234516741Y-64474834D01*
X234436944Y-64457872D01*
X234436939Y-64457872D01*
X234430487Y-64456500D01*
X234239513Y-64456500D01*
X234233061Y-64457872D01*
X234233056Y-64457872D01*
X234153259Y-64474834D01*
X234052712Y-64496206D01*
X234046682Y-64498891D01*
X234046681Y-64498891D01*
X233884278Y-64571197D01*
X233884276Y-64571198D01*
X233878248Y-64573882D01*
X233872907Y-64577762D01*
X233872906Y-64577763D01*
X233859010Y-64587859D01*
X233774060Y-64649579D01*
X233707194Y-64673437D01*
X233638042Y-64657357D01*
X233625944Y-64649582D01*
X233540990Y-64587859D01*
X233527094Y-64577763D01*
X233527093Y-64577762D01*
X233521752Y-64573882D01*
X233515724Y-64571198D01*
X233515722Y-64571197D01*
X233353319Y-64498891D01*
X233353318Y-64498891D01*
X233347288Y-64496206D01*
X233246741Y-64474834D01*
X233166944Y-64457872D01*
X233166939Y-64457872D01*
X233160487Y-64456500D01*
X232969513Y-64456500D01*
X232963061Y-64457872D01*
X232963056Y-64457872D01*
X232883259Y-64474834D01*
X232782712Y-64496206D01*
X232776682Y-64498891D01*
X232776681Y-64498891D01*
X232614278Y-64571197D01*
X232614276Y-64571198D01*
X232608248Y-64573882D01*
X232602907Y-64577762D01*
X232602906Y-64577763D01*
X232589010Y-64587859D01*
X232491869Y-64658437D01*
X232483415Y-64664579D01*
X232416548Y-64688437D01*
X232347396Y-64672357D01*
X232335309Y-64664590D01*
X232251752Y-64603882D01*
X232245724Y-64601198D01*
X232245722Y-64601197D01*
X232083319Y-64528891D01*
X232083318Y-64528891D01*
X232077288Y-64526206D01*
X231976741Y-64504834D01*
X231896944Y-64487872D01*
X231896939Y-64487872D01*
X231890487Y-64486500D01*
X231699513Y-64486500D01*
X231693061Y-64487872D01*
X231693056Y-64487872D01*
X231613259Y-64504834D01*
X231512712Y-64526206D01*
X231506682Y-64528891D01*
X231506681Y-64528891D01*
X231344278Y-64601197D01*
X231344276Y-64601198D01*
X231338248Y-64603882D01*
X231247822Y-64669580D01*
X231180958Y-64693437D01*
X231111806Y-64677357D01*
X231099703Y-64669579D01*
X231098132Y-64668437D01*
X231005584Y-64601197D01*
X230987094Y-64587763D01*
X230987093Y-64587762D01*
X230981752Y-64583882D01*
X230975724Y-64581198D01*
X230975722Y-64581197D01*
X230813319Y-64508891D01*
X230813318Y-64508891D01*
X230807288Y-64506206D01*
X230713196Y-64486206D01*
X230626944Y-64467872D01*
X230626939Y-64467872D01*
X230620487Y-64466500D01*
X230429513Y-64466500D01*
X230423061Y-64467872D01*
X230423056Y-64467872D01*
X230336804Y-64486206D01*
X230242712Y-64506206D01*
X230236682Y-64508891D01*
X230236681Y-64508891D01*
X230074278Y-64581197D01*
X230074276Y-64581198D01*
X230068248Y-64583882D01*
X229984704Y-64644580D01*
X229917840Y-64668437D01*
X229848688Y-64652357D01*
X229836585Y-64644579D01*
X229828132Y-64638437D01*
X229766807Y-64593882D01*
X229717094Y-64557763D01*
X229717093Y-64557762D01*
X229711752Y-64553882D01*
X229705724Y-64551198D01*
X229705722Y-64551197D01*
X229543319Y-64478891D01*
X229543318Y-64478891D01*
X229537288Y-64476206D01*
X229443888Y-64456353D01*
X229356944Y-64437872D01*
X229356939Y-64437872D01*
X229350487Y-64436500D01*
X229159513Y-64436500D01*
X229153061Y-64437872D01*
X229153056Y-64437872D01*
X229066112Y-64456353D01*
X228972712Y-64476206D01*
X228966682Y-64478891D01*
X228966681Y-64478891D01*
X228804278Y-64551197D01*
X228804276Y-64551198D01*
X228798248Y-64553882D01*
X228792907Y-64557762D01*
X228792906Y-64557763D01*
X228743193Y-64593882D01*
X228681869Y-64638437D01*
X228666533Y-64649579D01*
X228599665Y-64673437D01*
X228530514Y-64657357D01*
X228518428Y-64649590D01*
X228441752Y-64593882D01*
X228435724Y-64591198D01*
X228435722Y-64591197D01*
X228273319Y-64518891D01*
X228273318Y-64518891D01*
X228267288Y-64516206D01*
X228143882Y-64489975D01*
X228086944Y-64477872D01*
X228086939Y-64477872D01*
X228080487Y-64476500D01*
X227889513Y-64476500D01*
X227883061Y-64477872D01*
X227883056Y-64477872D01*
X227826118Y-64489975D01*
X227702712Y-64516206D01*
X227696682Y-64518891D01*
X227696681Y-64518891D01*
X227534278Y-64591197D01*
X227534276Y-64591198D01*
X227528248Y-64593882D01*
X227522907Y-64597762D01*
X227522906Y-64597763D01*
X227501367Y-64613412D01*
X227424060Y-64669579D01*
X227357194Y-64693437D01*
X227288042Y-64677357D01*
X227275944Y-64669582D01*
X227198633Y-64613412D01*
X227177094Y-64597763D01*
X227177093Y-64597762D01*
X227171752Y-64593882D01*
X227165724Y-64591198D01*
X227165722Y-64591197D01*
X227003319Y-64518891D01*
X227003318Y-64518891D01*
X226997288Y-64516206D01*
X226873882Y-64489975D01*
X226816944Y-64477872D01*
X226816939Y-64477872D01*
X226810487Y-64476500D01*
X226619513Y-64476500D01*
X226613061Y-64477872D01*
X226613056Y-64477872D01*
X226556118Y-64489975D01*
X226432712Y-64516206D01*
X226426682Y-64518891D01*
X226426681Y-64518891D01*
X226264278Y-64591197D01*
X226264276Y-64591198D01*
X226258248Y-64593882D01*
X226174704Y-64654580D01*
X226107840Y-64678437D01*
X226038688Y-64662357D01*
X226026585Y-64654579D01*
X226024638Y-64653164D01*
X225956807Y-64603882D01*
X225907094Y-64567763D01*
X225907093Y-64567762D01*
X225901752Y-64563882D01*
X225895724Y-64561198D01*
X225895722Y-64561197D01*
X225733319Y-64488891D01*
X225733318Y-64488891D01*
X225727288Y-64486206D01*
X225633888Y-64466353D01*
X225546944Y-64447872D01*
X225546939Y-64447872D01*
X225540487Y-64446500D01*
X225349513Y-64446500D01*
X225343061Y-64447872D01*
X225343056Y-64447872D01*
X225256112Y-64466353D01*
X225162712Y-64486206D01*
X225156682Y-64488891D01*
X225156681Y-64488891D01*
X224994278Y-64561197D01*
X224994276Y-64561198D01*
X224988248Y-64563882D01*
X224982907Y-64567762D01*
X224982906Y-64567763D01*
X224933193Y-64603882D01*
X224833747Y-64676134D01*
X224705960Y-64818056D01*
X224610473Y-64983444D01*
X224551458Y-65165072D01*
X224550768Y-65171633D01*
X224550768Y-65171635D01*
X224541880Y-65256197D01*
X224531496Y-65355000D01*
X212039047Y-65355000D01*
X211947326Y-65288361D01*
X211912094Y-65262763D01*
X211912093Y-65262762D01*
X211906752Y-65258882D01*
X211900724Y-65256198D01*
X211900722Y-65256197D01*
X211738319Y-65183891D01*
X211738318Y-65183891D01*
X211732288Y-65181206D01*
X211638887Y-65161353D01*
X211551944Y-65142872D01*
X211551939Y-65142872D01*
X211545487Y-65141500D01*
X211354513Y-65141500D01*
X211348061Y-65142872D01*
X211348056Y-65142872D01*
X211261113Y-65161353D01*
X211167712Y-65181206D01*
X211161682Y-65183891D01*
X211161681Y-65183891D01*
X210999278Y-65256197D01*
X210999276Y-65256198D01*
X210993248Y-65258882D01*
X210987907Y-65262762D01*
X210987906Y-65262763D01*
X210899061Y-65327313D01*
X210832193Y-65351172D01*
X210763042Y-65335091D01*
X210750939Y-65327313D01*
X210662094Y-65262763D01*
X210662093Y-65262762D01*
X210656752Y-65258882D01*
X210650724Y-65256198D01*
X210650722Y-65256197D01*
X210488319Y-65183891D01*
X210488318Y-65183891D01*
X210482288Y-65181206D01*
X210388887Y-65161353D01*
X210301944Y-65142872D01*
X210301939Y-65142872D01*
X210295487Y-65141500D01*
X210104513Y-65141500D01*
X210098061Y-65142872D01*
X210098056Y-65142872D01*
X210011113Y-65161353D01*
X209917712Y-65181206D01*
X209911682Y-65183891D01*
X209911681Y-65183891D01*
X209749278Y-65256197D01*
X209749276Y-65256198D01*
X209743248Y-65258882D01*
X209737908Y-65262762D01*
X209737906Y-65262763D01*
X209719350Y-65276245D01*
X209652482Y-65300103D01*
X209580018Y-65282085D01*
X209537271Y-65256197D01*
X209443699Y-65199528D01*
X209436452Y-65197257D01*
X209436450Y-65197256D01*
X209313717Y-65158794D01*
X209280062Y-65148247D01*
X209206635Y-65141500D01*
X209203737Y-65141500D01*
X208949335Y-65141501D01*
X208693366Y-65141501D01*
X208690508Y-65141764D01*
X208690499Y-65141764D01*
X208654996Y-65145026D01*
X208619938Y-65148247D01*
X208613560Y-65150246D01*
X208613559Y-65150246D01*
X208463550Y-65197256D01*
X208463548Y-65197257D01*
X208456301Y-65199528D01*
X208309619Y-65288361D01*
X208188361Y-65409619D01*
X208099528Y-65556301D01*
X208097257Y-65563548D01*
X208097256Y-65563550D01*
X208091723Y-65581206D01*
X208048247Y-65719938D01*
X208041500Y-65793365D01*
X208041500Y-65798105D01*
X208041400Y-65798446D01*
X208041368Y-65799140D01*
X208041198Y-65799132D01*
X208021498Y-65866226D01*
X207967842Y-65912719D01*
X207897568Y-65922823D01*
X207856824Y-65908720D01*
X207856752Y-65908882D01*
X207850724Y-65906198D01*
X207850722Y-65906197D01*
X207688319Y-65833891D01*
X207688318Y-65833891D01*
X207682288Y-65831206D01*
X207588887Y-65811353D01*
X207501944Y-65792872D01*
X207501939Y-65792872D01*
X207495487Y-65791500D01*
X207304513Y-65791500D01*
X207298061Y-65792872D01*
X207298056Y-65792872D01*
X207211113Y-65811353D01*
X207117712Y-65831206D01*
X207111682Y-65833891D01*
X207111681Y-65833891D01*
X206949278Y-65906197D01*
X206949276Y-65906198D01*
X206943248Y-65908882D01*
X206937907Y-65912762D01*
X206937906Y-65912763D01*
X206887843Y-65949136D01*
X206788747Y-66021134D01*
X206784326Y-66026044D01*
X206784325Y-66026045D01*
X206688710Y-66132237D01*
X206660960Y-66163056D01*
X206609534Y-66252128D01*
X206580667Y-66302128D01*
X206565473Y-66328444D01*
X206506458Y-66510072D01*
X206486496Y-66700000D01*
X201481269Y-66700000D01*
X201405675Y-66616045D01*
X201405674Y-66616044D01*
X201401253Y-66611134D01*
X201246752Y-66498882D01*
X201240724Y-66496198D01*
X201240722Y-66496197D01*
X201078319Y-66423891D01*
X201078318Y-66423891D01*
X201072288Y-66421206D01*
X200978888Y-66401353D01*
X200891944Y-66382872D01*
X200891939Y-66382872D01*
X200885487Y-66381500D01*
X200694513Y-66381500D01*
X200688061Y-66382872D01*
X200688056Y-66382872D01*
X200601112Y-66401353D01*
X200507712Y-66421206D01*
X200501682Y-66423891D01*
X200501681Y-66423891D01*
X200339278Y-66496197D01*
X200339276Y-66496198D01*
X200333248Y-66498882D01*
X200178747Y-66611134D01*
X200174326Y-66616044D01*
X200174325Y-66616045D01*
X200092821Y-66706565D01*
X200050960Y-66753056D01*
X199955473Y-66918444D01*
X199896458Y-67100072D01*
X199895768Y-67106633D01*
X199895768Y-67106635D01*
X199879188Y-67264385D01*
X199876496Y-67290000D01*
X179908000Y-67290000D01*
X179908000Y-64769791D01*
X179928002Y-64701670D01*
X179981658Y-64655177D01*
X180051932Y-64645073D01*
X180073667Y-64650198D01*
X180118707Y-64665137D01*
X180132086Y-64668005D01*
X180226438Y-64677672D01*
X180232854Y-64678000D01*
X180627885Y-64678000D01*
X180643124Y-64673525D01*
X180644329Y-64672135D01*
X180646000Y-64664452D01*
X180646000Y-63172000D01*
X180666002Y-63103879D01*
X180719658Y-63057386D01*
X180772000Y-63046000D01*
X181028000Y-63046000D01*
X181096121Y-63066002D01*
X181142614Y-63119658D01*
X181154000Y-63172000D01*
X181154000Y-64659884D01*
X181158475Y-64675123D01*
X181159865Y-64676328D01*
X181167548Y-64677999D01*
X181567095Y-64677999D01*
X181573614Y-64677662D01*
X181669206Y-64667743D01*
X181682600Y-64664851D01*
X181836784Y-64613412D01*
X181849962Y-64607239D01*
X181987807Y-64521937D01*
X181999208Y-64512901D01*
X182113739Y-64398171D01*
X182122751Y-64386760D01*
X182211658Y-64242525D01*
X182213653Y-64243755D01*
X182253121Y-64198930D01*
X182321399Y-64179469D01*
X182389359Y-64200011D01*
X182415636Y-64222967D01*
X182468823Y-64284368D01*
X182468828Y-64284373D01*
X182472209Y-64288276D01*
X182476184Y-64291576D01*
X182476187Y-64291579D01*
X182494238Y-64306565D01*
X182646615Y-64433071D01*
X182723283Y-64477872D01*
X182837867Y-64544829D01*
X182837870Y-64544831D01*
X182842329Y-64547436D01*
X182847154Y-64549278D01*
X182847155Y-64549279D01*
X182878365Y-64561197D01*
X183054093Y-64628301D01*
X183059161Y-64629332D01*
X183059164Y-64629333D01*
X183134101Y-64644579D01*
X183276221Y-64673494D01*
X183281394Y-64673684D01*
X183281397Y-64673684D01*
X183497583Y-64681611D01*
X183497587Y-64681611D01*
X183502747Y-64681800D01*
X183507867Y-64681144D01*
X183507869Y-64681144D01*
X183598146Y-64669579D01*
X183727588Y-64652997D01*
X183732537Y-64651512D01*
X183732543Y-64651511D01*
X183933580Y-64591197D01*
X183944706Y-64587859D01*
X184148270Y-64488134D01*
X184152475Y-64485134D01*
X184152481Y-64485131D01*
X184328609Y-64359500D01*
X184328611Y-64359498D01*
X184332813Y-64356501D01*
X184493378Y-64196495D01*
X184505613Y-64179469D01*
X184589169Y-64063187D01*
X184608945Y-64035666D01*
X184664940Y-63992018D01*
X184735643Y-63985572D01*
X184798608Y-64018375D01*
X184818700Y-64043357D01*
X184861090Y-64112530D01*
X184861093Y-64112535D01*
X184863793Y-64116940D01*
X184867174Y-64120843D01*
X185008824Y-64284369D01*
X185008828Y-64284373D01*
X185012209Y-64288276D01*
X185016184Y-64291576D01*
X185016187Y-64291579D01*
X185034238Y-64306565D01*
X185186615Y-64433071D01*
X185263283Y-64477872D01*
X185377867Y-64544829D01*
X185377870Y-64544831D01*
X185382329Y-64547436D01*
X185387154Y-64549278D01*
X185387155Y-64549279D01*
X185418365Y-64561197D01*
X185594093Y-64628301D01*
X185599161Y-64629332D01*
X185599164Y-64629333D01*
X185674101Y-64644579D01*
X185816221Y-64673494D01*
X185821394Y-64673684D01*
X185821397Y-64673684D01*
X186037583Y-64681611D01*
X186037587Y-64681611D01*
X186042747Y-64681800D01*
X186047867Y-64681144D01*
X186047869Y-64681144D01*
X186138146Y-64669579D01*
X186267588Y-64652997D01*
X186272537Y-64651512D01*
X186272543Y-64651511D01*
X186473580Y-64591197D01*
X186484706Y-64587859D01*
X186688270Y-64488134D01*
X186692475Y-64485134D01*
X186692481Y-64485131D01*
X186868609Y-64359500D01*
X186868611Y-64359498D01*
X186872813Y-64356501D01*
X187033378Y-64196495D01*
X187045613Y-64179469D01*
X187129169Y-64063187D01*
X187148945Y-64035666D01*
X187204940Y-63992018D01*
X187275643Y-63985572D01*
X187338608Y-64018375D01*
X187358700Y-64043357D01*
X187401090Y-64112530D01*
X187401093Y-64112535D01*
X187403793Y-64116940D01*
X187407174Y-64120843D01*
X187548824Y-64284369D01*
X187548828Y-64284373D01*
X187552209Y-64288276D01*
X187556184Y-64291576D01*
X187556187Y-64291579D01*
X187574238Y-64306565D01*
X187726615Y-64433071D01*
X187803283Y-64477872D01*
X187917867Y-64544829D01*
X187917870Y-64544831D01*
X187922329Y-64547436D01*
X187927154Y-64549278D01*
X187927155Y-64549279D01*
X187958365Y-64561197D01*
X188134093Y-64628301D01*
X188139161Y-64629332D01*
X188139164Y-64629333D01*
X188214101Y-64644579D01*
X188356221Y-64673494D01*
X188361394Y-64673684D01*
X188361397Y-64673684D01*
X188577583Y-64681611D01*
X188577587Y-64681611D01*
X188582747Y-64681800D01*
X188587867Y-64681144D01*
X188587869Y-64681144D01*
X188678146Y-64669579D01*
X188807588Y-64652997D01*
X188812537Y-64651512D01*
X188812543Y-64651511D01*
X189013580Y-64591197D01*
X189024706Y-64587859D01*
X189228270Y-64488134D01*
X189232475Y-64485134D01*
X189232481Y-64485131D01*
X189408609Y-64359500D01*
X189408611Y-64359498D01*
X189412813Y-64356501D01*
X189573378Y-64196495D01*
X189585613Y-64179469D01*
X189669169Y-64063187D01*
X189688945Y-64035666D01*
X189744940Y-63992018D01*
X189815643Y-63985572D01*
X189878608Y-64018375D01*
X189898700Y-64043357D01*
X189941090Y-64112530D01*
X189941093Y-64112535D01*
X189943793Y-64116940D01*
X189947174Y-64120843D01*
X190088824Y-64284369D01*
X190088828Y-64284373D01*
X190092209Y-64288276D01*
X190096184Y-64291576D01*
X190096187Y-64291579D01*
X190114238Y-64306565D01*
X190266615Y-64433071D01*
X190343283Y-64477872D01*
X190457867Y-64544829D01*
X190457870Y-64544831D01*
X190462329Y-64547436D01*
X190467154Y-64549278D01*
X190467155Y-64549279D01*
X190498365Y-64561197D01*
X190674093Y-64628301D01*
X190679161Y-64629332D01*
X190679164Y-64629333D01*
X190754101Y-64644579D01*
X190896221Y-64673494D01*
X190901394Y-64673684D01*
X190901397Y-64673684D01*
X191117583Y-64681611D01*
X191117587Y-64681611D01*
X191122747Y-64681800D01*
X191127867Y-64681144D01*
X191127869Y-64681144D01*
X191218146Y-64669579D01*
X191347588Y-64652997D01*
X191352537Y-64651512D01*
X191352543Y-64651511D01*
X191553580Y-64591197D01*
X191564706Y-64587859D01*
X191768270Y-64488134D01*
X191772475Y-64485134D01*
X191772481Y-64485131D01*
X191948609Y-64359500D01*
X191948611Y-64359498D01*
X191952813Y-64356501D01*
X192113378Y-64196495D01*
X192125613Y-64179469D01*
X192209169Y-64063187D01*
X192228945Y-64035666D01*
X192284940Y-63992018D01*
X192355643Y-63985572D01*
X192418608Y-64018375D01*
X192438700Y-64043357D01*
X192481090Y-64112530D01*
X192481093Y-64112535D01*
X192483793Y-64116940D01*
X192487174Y-64120843D01*
X192628824Y-64284369D01*
X192628828Y-64284373D01*
X192632209Y-64288276D01*
X192636184Y-64291576D01*
X192636187Y-64291579D01*
X192654238Y-64306565D01*
X192806615Y-64433071D01*
X192883283Y-64477872D01*
X192997867Y-64544829D01*
X192997870Y-64544831D01*
X193002329Y-64547436D01*
X193007154Y-64549278D01*
X193007155Y-64549279D01*
X193038365Y-64561197D01*
X193214093Y-64628301D01*
X193219161Y-64629332D01*
X193219164Y-64629333D01*
X193294101Y-64644579D01*
X193436221Y-64673494D01*
X193441394Y-64673684D01*
X193441397Y-64673684D01*
X193657583Y-64681611D01*
X193657587Y-64681611D01*
X193662747Y-64681800D01*
X193667867Y-64681144D01*
X193667869Y-64681144D01*
X193758146Y-64669579D01*
X193887588Y-64652997D01*
X193892537Y-64651512D01*
X193892543Y-64651511D01*
X194093580Y-64591197D01*
X194104706Y-64587859D01*
X194308270Y-64488134D01*
X194312475Y-64485134D01*
X194312481Y-64485131D01*
X194488609Y-64359500D01*
X194488611Y-64359498D01*
X194492813Y-64356501D01*
X194653378Y-64196495D01*
X194665613Y-64179469D01*
X194749169Y-64063187D01*
X194768945Y-64035666D01*
X194824940Y-63992018D01*
X194895643Y-63985572D01*
X194958608Y-64018375D01*
X194978700Y-64043357D01*
X195021090Y-64112530D01*
X195021093Y-64112535D01*
X195023793Y-64116940D01*
X195027174Y-64120843D01*
X195168824Y-64284369D01*
X195168828Y-64284373D01*
X195172209Y-64288276D01*
X195176184Y-64291576D01*
X195176187Y-64291579D01*
X195194238Y-64306565D01*
X195346615Y-64433071D01*
X195423283Y-64477872D01*
X195537867Y-64544829D01*
X195537870Y-64544831D01*
X195542329Y-64547436D01*
X195547154Y-64549278D01*
X195547155Y-64549279D01*
X195578365Y-64561197D01*
X195754093Y-64628301D01*
X195759161Y-64629332D01*
X195759164Y-64629333D01*
X195834101Y-64644579D01*
X195976221Y-64673494D01*
X195981394Y-64673684D01*
X195981397Y-64673684D01*
X196197583Y-64681611D01*
X196197587Y-64681611D01*
X196202747Y-64681800D01*
X196207867Y-64681144D01*
X196207869Y-64681144D01*
X196298146Y-64669579D01*
X196427588Y-64652997D01*
X196432537Y-64651512D01*
X196432543Y-64651511D01*
X196633580Y-64591197D01*
X196644706Y-64587859D01*
X196848270Y-64488134D01*
X196852475Y-64485134D01*
X196852481Y-64485131D01*
X197028609Y-64359500D01*
X197028611Y-64359498D01*
X197032813Y-64356501D01*
X197193378Y-64196495D01*
X197205613Y-64179469D01*
X197289169Y-64063187D01*
X197308945Y-64035666D01*
X197364940Y-63992018D01*
X197435643Y-63985572D01*
X197498608Y-64018375D01*
X197518700Y-64043357D01*
X197561090Y-64112530D01*
X197561093Y-64112535D01*
X197563793Y-64116940D01*
X197567174Y-64120843D01*
X197708824Y-64284369D01*
X197708828Y-64284373D01*
X197712209Y-64288276D01*
X197716184Y-64291576D01*
X197716187Y-64291579D01*
X197734238Y-64306565D01*
X197886615Y-64433071D01*
X197963283Y-64477872D01*
X198077867Y-64544829D01*
X198077870Y-64544831D01*
X198082329Y-64547436D01*
X198087154Y-64549278D01*
X198087155Y-64549279D01*
X198118365Y-64561197D01*
X198294093Y-64628301D01*
X198299161Y-64629332D01*
X198299164Y-64629333D01*
X198374101Y-64644579D01*
X198516221Y-64673494D01*
X198521394Y-64673684D01*
X198521397Y-64673684D01*
X198737583Y-64681611D01*
X198737587Y-64681611D01*
X198742747Y-64681800D01*
X198747867Y-64681144D01*
X198747869Y-64681144D01*
X198838146Y-64669579D01*
X198967588Y-64652997D01*
X198972537Y-64651512D01*
X198972543Y-64651511D01*
X199173580Y-64591197D01*
X199184706Y-64587859D01*
X199388270Y-64488134D01*
X199392475Y-64485134D01*
X199392481Y-64485131D01*
X199568609Y-64359500D01*
X199568611Y-64359498D01*
X199572813Y-64356501D01*
X199733378Y-64196495D01*
X199745613Y-64179469D01*
X199829169Y-64063187D01*
X199848945Y-64035666D01*
X199904940Y-63992018D01*
X199975643Y-63985572D01*
X200038608Y-64018375D01*
X200058700Y-64043357D01*
X200101090Y-64112530D01*
X200101093Y-64112535D01*
X200103793Y-64116940D01*
X200107174Y-64120843D01*
X200248824Y-64284369D01*
X200248828Y-64284373D01*
X200252209Y-64288276D01*
X200256184Y-64291576D01*
X200256187Y-64291579D01*
X200274238Y-64306565D01*
X200426615Y-64433071D01*
X200503283Y-64477872D01*
X200617867Y-64544829D01*
X200617870Y-64544831D01*
X200622329Y-64547436D01*
X200627154Y-64549278D01*
X200627155Y-64549279D01*
X200658365Y-64561197D01*
X200834093Y-64628301D01*
X200839161Y-64629332D01*
X200839164Y-64629333D01*
X200914101Y-64644579D01*
X201056221Y-64673494D01*
X201061394Y-64673684D01*
X201061397Y-64673684D01*
X201277583Y-64681611D01*
X201277587Y-64681611D01*
X201282747Y-64681800D01*
X201287867Y-64681144D01*
X201287869Y-64681144D01*
X201378146Y-64669579D01*
X201507588Y-64652997D01*
X201512537Y-64651512D01*
X201512543Y-64651511D01*
X201713580Y-64591197D01*
X201724706Y-64587859D01*
X201928270Y-64488134D01*
X201932475Y-64485134D01*
X201932481Y-64485131D01*
X202108609Y-64359500D01*
X202108611Y-64359498D01*
X202112813Y-64356501D01*
X202273378Y-64196495D01*
X202285613Y-64179469D01*
X202369169Y-64063187D01*
X202388945Y-64035666D01*
X202444940Y-63992018D01*
X202515643Y-63985572D01*
X202578608Y-64018375D01*
X202598700Y-64043357D01*
X202641090Y-64112530D01*
X202641093Y-64112535D01*
X202643793Y-64116940D01*
X202647174Y-64120843D01*
X202788824Y-64284369D01*
X202788828Y-64284373D01*
X202792209Y-64288276D01*
X202796184Y-64291576D01*
X202796187Y-64291579D01*
X202814238Y-64306565D01*
X202966615Y-64433071D01*
X203043283Y-64477872D01*
X203157867Y-64544829D01*
X203157870Y-64544831D01*
X203162329Y-64547436D01*
X203167154Y-64549278D01*
X203167155Y-64549279D01*
X203198365Y-64561197D01*
X203374093Y-64628301D01*
X203379161Y-64629332D01*
X203379164Y-64629333D01*
X203454101Y-64644579D01*
X203596221Y-64673494D01*
X203601394Y-64673684D01*
X203601397Y-64673684D01*
X203817583Y-64681611D01*
X203817587Y-64681611D01*
X203822747Y-64681800D01*
X203827867Y-64681144D01*
X203827869Y-64681144D01*
X203918146Y-64669579D01*
X204047588Y-64652997D01*
X204052537Y-64651512D01*
X204052543Y-64651511D01*
X204253580Y-64591197D01*
X204264706Y-64587859D01*
X204468270Y-64488134D01*
X204472475Y-64485134D01*
X204472481Y-64485131D01*
X204648609Y-64359500D01*
X204648611Y-64359498D01*
X204652813Y-64356501D01*
X204813378Y-64196495D01*
X204825613Y-64179469D01*
X204909169Y-64063187D01*
X204928945Y-64035666D01*
X204984940Y-63992018D01*
X205055643Y-63985572D01*
X205118608Y-64018375D01*
X205138700Y-64043357D01*
X205181090Y-64112530D01*
X205181093Y-64112535D01*
X205183793Y-64116940D01*
X205187174Y-64120843D01*
X205328824Y-64284369D01*
X205328828Y-64284373D01*
X205332209Y-64288276D01*
X205336184Y-64291576D01*
X205336187Y-64291579D01*
X205354238Y-64306565D01*
X205506615Y-64433071D01*
X205583283Y-64477872D01*
X205697867Y-64544829D01*
X205697870Y-64544831D01*
X205702329Y-64547436D01*
X205707154Y-64549278D01*
X205707155Y-64549279D01*
X205738365Y-64561197D01*
X205914093Y-64628301D01*
X205919161Y-64629332D01*
X205919164Y-64629333D01*
X205994101Y-64644579D01*
X206136221Y-64673494D01*
X206141394Y-64673684D01*
X206141397Y-64673684D01*
X206357583Y-64681611D01*
X206357587Y-64681611D01*
X206362747Y-64681800D01*
X206367867Y-64681144D01*
X206367869Y-64681144D01*
X206458146Y-64669579D01*
X206587588Y-64652997D01*
X206592537Y-64651512D01*
X206592543Y-64651511D01*
X206793580Y-64591197D01*
X206804706Y-64587859D01*
X207008270Y-64488134D01*
X207012475Y-64485134D01*
X207012481Y-64485131D01*
X207188609Y-64359500D01*
X207188611Y-64359498D01*
X207192813Y-64356501D01*
X207353378Y-64196495D01*
X207365613Y-64179469D01*
X207449169Y-64063187D01*
X207468945Y-64035666D01*
X207524940Y-63992018D01*
X207595643Y-63985572D01*
X207658608Y-64018375D01*
X207678700Y-64043357D01*
X207721090Y-64112530D01*
X207721093Y-64112535D01*
X207723793Y-64116940D01*
X207727174Y-64120843D01*
X207868824Y-64284369D01*
X207868828Y-64284373D01*
X207872209Y-64288276D01*
X207876184Y-64291576D01*
X207876187Y-64291579D01*
X207894238Y-64306565D01*
X208046615Y-64433071D01*
X208123283Y-64477872D01*
X208237867Y-64544829D01*
X208237870Y-64544831D01*
X208242329Y-64547436D01*
X208247154Y-64549278D01*
X208247155Y-64549279D01*
X208278365Y-64561197D01*
X208454093Y-64628301D01*
X208459161Y-64629332D01*
X208459164Y-64629333D01*
X208534101Y-64644579D01*
X208676221Y-64673494D01*
X208681394Y-64673684D01*
X208681397Y-64673684D01*
X208897583Y-64681611D01*
X208897587Y-64681611D01*
X208902747Y-64681800D01*
X208907867Y-64681144D01*
X208907869Y-64681144D01*
X208998146Y-64669579D01*
X209127588Y-64652997D01*
X209132537Y-64651512D01*
X209132543Y-64651511D01*
X209333580Y-64591197D01*
X209344706Y-64587859D01*
X209548270Y-64488134D01*
X209552475Y-64485134D01*
X209552481Y-64485131D01*
X209728609Y-64359500D01*
X209728611Y-64359498D01*
X209732813Y-64356501D01*
X209893378Y-64196495D01*
X209905613Y-64179469D01*
X209989169Y-64063187D01*
X210008945Y-64035666D01*
X210064940Y-63992018D01*
X210135643Y-63985572D01*
X210198608Y-64018375D01*
X210218700Y-64043357D01*
X210261090Y-64112530D01*
X210261093Y-64112535D01*
X210263793Y-64116940D01*
X210267174Y-64120843D01*
X210408824Y-64284369D01*
X210408828Y-64284373D01*
X210412209Y-64288276D01*
X210416184Y-64291576D01*
X210416187Y-64291579D01*
X210434238Y-64306565D01*
X210586615Y-64433071D01*
X210663283Y-64477872D01*
X210777867Y-64544829D01*
X210777870Y-64544831D01*
X210782329Y-64547436D01*
X210787154Y-64549278D01*
X210787155Y-64549279D01*
X210818365Y-64561197D01*
X210994093Y-64628301D01*
X210999161Y-64629332D01*
X210999164Y-64629333D01*
X211074101Y-64644579D01*
X211216221Y-64673494D01*
X211221394Y-64673684D01*
X211221397Y-64673684D01*
X211437583Y-64681611D01*
X211437587Y-64681611D01*
X211442747Y-64681800D01*
X211447867Y-64681144D01*
X211447869Y-64681144D01*
X211538146Y-64669579D01*
X211667588Y-64652997D01*
X211672537Y-64651512D01*
X211672543Y-64651511D01*
X211873580Y-64591197D01*
X211884706Y-64587859D01*
X212088270Y-64488134D01*
X212092475Y-64485134D01*
X212092481Y-64485131D01*
X212268609Y-64359500D01*
X212268611Y-64359498D01*
X212272813Y-64356501D01*
X212433378Y-64196495D01*
X212445613Y-64179469D01*
X212529169Y-64063187D01*
X212548945Y-64035666D01*
X212604940Y-63992018D01*
X212675643Y-63985572D01*
X212738608Y-64018375D01*
X212758700Y-64043357D01*
X212801090Y-64112530D01*
X212801093Y-64112535D01*
X212803793Y-64116940D01*
X212807174Y-64120843D01*
X212948824Y-64284369D01*
X212948828Y-64284373D01*
X212952209Y-64288276D01*
X212956184Y-64291576D01*
X212956187Y-64291579D01*
X212974238Y-64306565D01*
X213126615Y-64433071D01*
X213203283Y-64477872D01*
X213317867Y-64544829D01*
X213317870Y-64544831D01*
X213322329Y-64547436D01*
X213327154Y-64549278D01*
X213327155Y-64549279D01*
X213358365Y-64561197D01*
X213534093Y-64628301D01*
X213539161Y-64629332D01*
X213539164Y-64629333D01*
X213614101Y-64644579D01*
X213756221Y-64673494D01*
X213761394Y-64673684D01*
X213761397Y-64673684D01*
X213977583Y-64681611D01*
X213977587Y-64681611D01*
X213982747Y-64681800D01*
X213987867Y-64681144D01*
X213987869Y-64681144D01*
X214078146Y-64669579D01*
X214207588Y-64652997D01*
X214212537Y-64651512D01*
X214212543Y-64651511D01*
X214413580Y-64591197D01*
X214424706Y-64587859D01*
X214628270Y-64488134D01*
X214632475Y-64485134D01*
X214632481Y-64485131D01*
X214696490Y-64439474D01*
X215685355Y-64439474D01*
X215690636Y-64446529D01*
X215858087Y-64544380D01*
X215867370Y-64548827D01*
X216069402Y-64625975D01*
X216079300Y-64628851D01*
X216291219Y-64671966D01*
X216301447Y-64673185D01*
X216517560Y-64681111D01*
X216527846Y-64680644D01*
X216742353Y-64653164D01*
X216752439Y-64651021D01*
X216959581Y-64588875D01*
X216969158Y-64585122D01*
X217163378Y-64489975D01*
X217172216Y-64484706D01*
X217223587Y-64448064D01*
X217231988Y-64437364D01*
X217225002Y-64424213D01*
X216472811Y-63672021D01*
X216458868Y-63664408D01*
X216457034Y-63664539D01*
X216450420Y-63668790D01*
X215692112Y-64427099D01*
X215685355Y-64439474D01*
X214696490Y-64439474D01*
X214808609Y-64359500D01*
X214808611Y-64359498D01*
X214812813Y-64356501D01*
X214973378Y-64196495D01*
X214985613Y-64179469D01*
X215062726Y-64072154D01*
X215089262Y-64035226D01*
X215145256Y-63991578D01*
X215215959Y-63985132D01*
X215278924Y-64017935D01*
X215299016Y-64042916D01*
X215311914Y-64063962D01*
X215322372Y-64073424D01*
X215331148Y-64069641D01*
X216370905Y-63029885D01*
X216433217Y-62995859D01*
X216504033Y-63000924D01*
X216549095Y-63029885D01*
X217584806Y-64065595D01*
X217596817Y-64072154D01*
X217608554Y-64063187D01*
X217628663Y-64035203D01*
X217684658Y-63991556D01*
X217755361Y-63985110D01*
X217818326Y-64017913D01*
X217838418Y-64042895D01*
X217881096Y-64112539D01*
X217883793Y-64116940D01*
X217887174Y-64120843D01*
X218028824Y-64284369D01*
X218028828Y-64284373D01*
X218032209Y-64288276D01*
X218036184Y-64291576D01*
X218036187Y-64291579D01*
X218054238Y-64306565D01*
X218206615Y-64433071D01*
X218283283Y-64477872D01*
X218397867Y-64544829D01*
X218397870Y-64544831D01*
X218402329Y-64547436D01*
X218407154Y-64549278D01*
X218407155Y-64549279D01*
X218438365Y-64561197D01*
X218614093Y-64628301D01*
X218619161Y-64629332D01*
X218619164Y-64629333D01*
X218694101Y-64644579D01*
X218836221Y-64673494D01*
X218841394Y-64673684D01*
X218841397Y-64673684D01*
X219057583Y-64681611D01*
X219057587Y-64681611D01*
X219062747Y-64681800D01*
X219067867Y-64681144D01*
X219067869Y-64681144D01*
X219158146Y-64669579D01*
X219287588Y-64652997D01*
X219292537Y-64651512D01*
X219292543Y-64651511D01*
X219493580Y-64591197D01*
X219504706Y-64587859D01*
X219708270Y-64488134D01*
X219712475Y-64485134D01*
X219712481Y-64485131D01*
X219888609Y-64359500D01*
X219888611Y-64359498D01*
X219892813Y-64356501D01*
X220053378Y-64196495D01*
X220065613Y-64179469D01*
X220149169Y-64063187D01*
X220168945Y-64035666D01*
X220224940Y-63992018D01*
X220295643Y-63985572D01*
X220358608Y-64018375D01*
X220378700Y-64043357D01*
X220421090Y-64112530D01*
X220421093Y-64112535D01*
X220423793Y-64116940D01*
X220427174Y-64120843D01*
X220568824Y-64284369D01*
X220568828Y-64284373D01*
X220572209Y-64288276D01*
X220576184Y-64291576D01*
X220576187Y-64291579D01*
X220594238Y-64306565D01*
X220746615Y-64433071D01*
X220823283Y-64477872D01*
X220937867Y-64544829D01*
X220937870Y-64544831D01*
X220942329Y-64547436D01*
X220947154Y-64549278D01*
X220947155Y-64549279D01*
X220978365Y-64561197D01*
X221154093Y-64628301D01*
X221159161Y-64629332D01*
X221159164Y-64629333D01*
X221234101Y-64644579D01*
X221376221Y-64673494D01*
X221381394Y-64673684D01*
X221381397Y-64673684D01*
X221597583Y-64681611D01*
X221597587Y-64681611D01*
X221602747Y-64681800D01*
X221607867Y-64681144D01*
X221607869Y-64681144D01*
X221698146Y-64669579D01*
X221827588Y-64652997D01*
X221925737Y-64623551D01*
X221996731Y-64623135D01*
X222056681Y-64661167D01*
X222071062Y-64681237D01*
X222091210Y-64716134D01*
X222160960Y-64836944D01*
X222288747Y-64978866D01*
X222443248Y-65091118D01*
X222449276Y-65093802D01*
X222449278Y-65093803D01*
X222609352Y-65165072D01*
X222617712Y-65168794D01*
X222711112Y-65188647D01*
X222798056Y-65207128D01*
X222798061Y-65207128D01*
X222804513Y-65208500D01*
X222995487Y-65208500D01*
X223001939Y-65207128D01*
X223001944Y-65207128D01*
X223088888Y-65188647D01*
X223182288Y-65168794D01*
X223190648Y-65165072D01*
X223350722Y-65093803D01*
X223350724Y-65093802D01*
X223356752Y-65091118D01*
X223511253Y-64978866D01*
X223639040Y-64836944D01*
X223724781Y-64688437D01*
X223731223Y-64677279D01*
X223731224Y-64677278D01*
X223734527Y-64671556D01*
X223793542Y-64489928D01*
X223794954Y-64476500D01*
X223812814Y-64306565D01*
X223813504Y-64300000D01*
X223811861Y-64284368D01*
X223794232Y-64116635D01*
X223794232Y-64116633D01*
X223793542Y-64110072D01*
X223734527Y-63928444D01*
X223639040Y-63763056D01*
X223511253Y-63621134D01*
X223356752Y-63508882D01*
X223350724Y-63506198D01*
X223350722Y-63506197D01*
X223188319Y-63433891D01*
X223188318Y-63433891D01*
X223182288Y-63431206D01*
X223075903Y-63408593D01*
X223021293Y-63396985D01*
X222958819Y-63363256D01*
X222924498Y-63301107D01*
X222921914Y-63284063D01*
X222908397Y-63119658D01*
X222904650Y-63074084D01*
X222849428Y-62854234D01*
X222835576Y-62822375D01*
X222797254Y-62734242D01*
X222788434Y-62663796D01*
X222819101Y-62599764D01*
X222879517Y-62562476D01*
X222912804Y-62558000D01*
X242266000Y-62558000D01*
X242334121Y-62578002D01*
G37*
%TD.AperFunction*%
%TD*%
M02*
