%TF.GenerationSoftware,KiCad,Pcbnew,(6.0.1)*%
%TF.CreationDate,2023-01-04T22:15:02+03:00*%
%TF.ProjectId,EspDevBoard,45737044-6576-4426-9f61-72642e6b6963,rev?*%
%TF.SameCoordinates,Original*%
%TF.FileFunction,Legend,Top*%
%TF.FilePolarity,Positive*%
%FSLAX46Y46*%
G04 Gerber Fmt 4.6, Leading zero omitted, Abs format (unit mm)*
G04 Created by KiCad (PCBNEW (6.0.1)) date 2023-01-04 22:15:02*
%MOMM*%
%LPD*%
G01*
G04 APERTURE LIST*
%ADD10C,0.150000*%
%ADD11C,0.120000*%
G04 APERTURE END LIST*
D10*
X206738095Y-64452380D02*
X206738095Y-65261904D01*
X206785714Y-65357142D01*
X206833333Y-65404761D01*
X206928571Y-65452380D01*
X207119047Y-65452380D01*
X207214285Y-65404761D01*
X207261904Y-65357142D01*
X207309523Y-65261904D01*
X207309523Y-64452380D01*
X207738095Y-65404761D02*
X207880952Y-65452380D01*
X208119047Y-65452380D01*
X208214285Y-65404761D01*
X208261904Y-65357142D01*
X208309523Y-65261904D01*
X208309523Y-65166666D01*
X208261904Y-65071428D01*
X208214285Y-65023809D01*
X208119047Y-64976190D01*
X207928571Y-64928571D01*
X207833333Y-64880952D01*
X207785714Y-64833333D01*
X207738095Y-64738095D01*
X207738095Y-64642857D01*
X207785714Y-64547619D01*
X207833333Y-64500000D01*
X207928571Y-64452380D01*
X208166666Y-64452380D01*
X208309523Y-64500000D01*
X209071428Y-64928571D02*
X209214285Y-64976190D01*
X209261904Y-65023809D01*
X209309523Y-65119047D01*
X209309523Y-65261904D01*
X209261904Y-65357142D01*
X209214285Y-65404761D01*
X209119047Y-65452380D01*
X208738095Y-65452380D01*
X208738095Y-64452380D01*
X209071428Y-64452380D01*
X209166666Y-64500000D01*
X209214285Y-64547619D01*
X209261904Y-64642857D01*
X209261904Y-64738095D01*
X209214285Y-64833333D01*
X209166666Y-64880952D01*
X209071428Y-64928571D01*
X208738095Y-64928571D01*
X179957142Y-77252380D02*
X179957142Y-78061904D01*
X180004761Y-78157142D01*
X180052380Y-78204761D01*
X180147619Y-78252380D01*
X180338095Y-78252380D01*
X180433333Y-78204761D01*
X180480952Y-78157142D01*
X180528571Y-78061904D01*
X180528571Y-77252380D01*
X181576190Y-78252380D02*
X181242857Y-77776190D01*
X181004761Y-78252380D02*
X181004761Y-77252380D01*
X181385714Y-77252380D01*
X181480952Y-77300000D01*
X181528571Y-77347619D01*
X181576190Y-77442857D01*
X181576190Y-77585714D01*
X181528571Y-77680952D01*
X181480952Y-77728571D01*
X181385714Y-77776190D01*
X181004761Y-77776190D01*
X181957142Y-78204761D02*
X182100000Y-78252380D01*
X182338095Y-78252380D01*
X182433333Y-78204761D01*
X182480952Y-78157142D01*
X182528571Y-78061904D01*
X182528571Y-77966666D01*
X182480952Y-77871428D01*
X182433333Y-77823809D01*
X182338095Y-77776190D01*
X182147619Y-77728571D01*
X182052380Y-77680952D01*
X182004761Y-77633333D01*
X181957142Y-77538095D01*
X181957142Y-77442857D01*
X182004761Y-77347619D01*
X182052380Y-77300000D01*
X182147619Y-77252380D01*
X182385714Y-77252380D01*
X182528571Y-77300000D01*
X182814285Y-77252380D02*
X183385714Y-77252380D01*
X183100000Y-78252380D02*
X183100000Y-77252380D01*
X185866666Y-78752380D02*
X185866666Y-79466666D01*
X185819047Y-79609523D01*
X185723809Y-79704761D01*
X185580952Y-79752380D01*
X185485714Y-79752380D01*
X186295238Y-78847619D02*
X186342857Y-78800000D01*
X186438095Y-78752380D01*
X186676190Y-78752380D01*
X186771428Y-78800000D01*
X186819047Y-78847619D01*
X186866666Y-78942857D01*
X186866666Y-79038095D01*
X186819047Y-79180952D01*
X186247619Y-79752380D01*
X186866666Y-79752380D01*
X211328571Y-64828571D02*
X211661904Y-64828571D01*
X211804761Y-65352380D02*
X211328571Y-65352380D01*
X211328571Y-64352380D01*
X211804761Y-64352380D01*
X212138095Y-64352380D02*
X212804761Y-65352380D01*
X212804761Y-64352380D02*
X212138095Y-65352380D01*
X213042857Y-64352380D02*
X213614285Y-64352380D01*
X213328571Y-65352380D02*
X213328571Y-64352380D01*
X185466666Y-64752380D02*
X185466666Y-65466666D01*
X185419047Y-65609523D01*
X185323809Y-65704761D01*
X185180952Y-65752380D01*
X185085714Y-65752380D01*
X186466666Y-65752380D02*
X185895238Y-65752380D01*
X186180952Y-65752380D02*
X186180952Y-64752380D01*
X186085714Y-64895238D01*
X185990476Y-64990476D01*
X185895238Y-65038095D01*
X188152380Y-79752380D02*
X187819047Y-79276190D01*
X187580952Y-79752380D02*
X187580952Y-78752380D01*
X187961904Y-78752380D01*
X188057142Y-78800000D01*
X188104761Y-78847619D01*
X188152380Y-78942857D01*
X188152380Y-79085714D01*
X188104761Y-79180952D01*
X188057142Y-79228571D01*
X187961904Y-79276190D01*
X187580952Y-79276190D01*
X188533333Y-79704761D02*
X188676190Y-79752380D01*
X188914285Y-79752380D01*
X189009523Y-79704761D01*
X189057142Y-79657142D01*
X189104761Y-79561904D01*
X189104761Y-79466666D01*
X189057142Y-79371428D01*
X189009523Y-79323809D01*
X188914285Y-79276190D01*
X188723809Y-79228571D01*
X188628571Y-79180952D01*
X188580952Y-79133333D01*
X188533333Y-79038095D01*
X188533333Y-78942857D01*
X188580952Y-78847619D01*
X188628571Y-78800000D01*
X188723809Y-78752380D01*
X188961904Y-78752380D01*
X189104761Y-78800000D01*
X189390476Y-78752380D02*
X189961904Y-78752380D01*
X189676190Y-79752380D02*
X189676190Y-78752380D01*
X179747619Y-79985714D02*
X179747619Y-79414285D01*
X179747619Y-79700000D02*
X180747619Y-79700000D01*
X180604761Y-79604761D01*
X180509523Y-79509523D01*
X180461904Y-79414285D01*
X217985714Y-78652380D02*
X217985714Y-79461904D01*
X218033333Y-79557142D01*
X218080952Y-79604761D01*
X218176190Y-79652380D01*
X218366666Y-79652380D01*
X218461904Y-79604761D01*
X218509523Y-79557142D01*
X218557142Y-79461904D01*
X218557142Y-78652380D01*
X218985714Y-79604761D02*
X219128571Y-79652380D01*
X219366666Y-79652380D01*
X219461904Y-79604761D01*
X219509523Y-79557142D01*
X219557142Y-79461904D01*
X219557142Y-79366666D01*
X219509523Y-79271428D01*
X219461904Y-79223809D01*
X219366666Y-79176190D01*
X219176190Y-79128571D01*
X219080952Y-79080952D01*
X219033333Y-79033333D01*
X218985714Y-78938095D01*
X218985714Y-78842857D01*
X219033333Y-78747619D01*
X219080952Y-78700000D01*
X219176190Y-78652380D01*
X219414285Y-78652380D01*
X219557142Y-78700000D01*
X219985714Y-79128571D02*
X220319047Y-79128571D01*
X220461904Y-79652380D02*
X219985714Y-79652380D01*
X219985714Y-78652380D01*
X220461904Y-78652380D01*
X221461904Y-79652380D02*
X221128571Y-79176190D01*
X220890476Y-79652380D02*
X220890476Y-78652380D01*
X221271428Y-78652380D01*
X221366666Y-78700000D01*
X221414285Y-78747619D01*
X221461904Y-78842857D01*
X221461904Y-78985714D01*
X221414285Y-79080952D01*
X221366666Y-79128571D01*
X221271428Y-79176190D01*
X220890476Y-79176190D01*
X179947619Y-65585714D02*
X179947619Y-65014285D01*
X179947619Y-65300000D02*
X180947619Y-65300000D01*
X180804761Y-65204761D01*
X180709523Y-65109523D01*
X180661904Y-65014285D01*
X189866666Y-65128571D02*
X190009523Y-65176190D01*
X190057142Y-65223809D01*
X190104761Y-65319047D01*
X190104761Y-65461904D01*
X190057142Y-65557142D01*
X190009523Y-65604761D01*
X189914285Y-65652380D01*
X189533333Y-65652380D01*
X189533333Y-64652380D01*
X189866666Y-64652380D01*
X189961904Y-64700000D01*
X190009523Y-64747619D01*
X190057142Y-64842857D01*
X190057142Y-64938095D01*
X190009523Y-65033333D01*
X189961904Y-65080952D01*
X189866666Y-65128571D01*
X189533333Y-65128571D01*
X190390476Y-64652380D02*
X190961904Y-64652380D01*
X190676190Y-65652380D02*
X190676190Y-64652380D01*
X192009523Y-64604761D02*
X191152380Y-65890476D01*
X192342857Y-64652380D02*
X192342857Y-65461904D01*
X192390476Y-65557142D01*
X192438095Y-65604761D01*
X192533333Y-65652380D01*
X192723809Y-65652380D01*
X192819047Y-65604761D01*
X192866666Y-65557142D01*
X192914285Y-65461904D01*
X192914285Y-64652380D01*
X193342857Y-65604761D02*
X193485714Y-65652380D01*
X193723809Y-65652380D01*
X193819047Y-65604761D01*
X193866666Y-65557142D01*
X193914285Y-65461904D01*
X193914285Y-65366666D01*
X193866666Y-65271428D01*
X193819047Y-65223809D01*
X193723809Y-65176190D01*
X193533333Y-65128571D01*
X193438095Y-65080952D01*
X193390476Y-65033333D01*
X193342857Y-64938095D01*
X193342857Y-64842857D01*
X193390476Y-64747619D01*
X193438095Y-64700000D01*
X193533333Y-64652380D01*
X193771428Y-64652380D01*
X193914285Y-64700000D01*
X194914285Y-65652380D02*
X194580952Y-65176190D01*
X194342857Y-65652380D02*
X194342857Y-64652380D01*
X194723809Y-64652380D01*
X194819047Y-64700000D01*
X194866666Y-64747619D01*
X194914285Y-64842857D01*
X194914285Y-64985714D01*
X194866666Y-65080952D01*
X194819047Y-65128571D01*
X194723809Y-65176190D01*
X194342857Y-65176190D01*
X215666666Y-65552380D02*
X215666666Y-64552380D01*
X216047619Y-64552380D01*
X216142857Y-64600000D01*
X216190476Y-64647619D01*
X216238095Y-64742857D01*
X216238095Y-64885714D01*
X216190476Y-64980952D01*
X216142857Y-65028571D01*
X216047619Y-65076190D01*
X215666666Y-65076190D01*
X216571428Y-64552380D02*
X216809523Y-65552380D01*
X217000000Y-64838095D01*
X217190476Y-65552380D01*
X217428571Y-64552380D01*
X218380952Y-65552380D02*
X218047619Y-65076190D01*
X217809523Y-65552380D02*
X217809523Y-64552380D01*
X218190476Y-64552380D01*
X218285714Y-64600000D01*
X218333333Y-64647619D01*
X218380952Y-64742857D01*
X218380952Y-64885714D01*
X218333333Y-64980952D01*
X218285714Y-65028571D01*
X218190476Y-65076190D01*
X217809523Y-65076190D01*
D11*
%TO.C,C3*%
X183007836Y-65660000D02*
X182792164Y-65660000D01*
X183007836Y-64940000D02*
X182792164Y-64940000D01*
%TO.C,C10*%
X180992164Y-79260000D02*
X181207836Y-79260000D01*
X180992164Y-78540000D02*
X181207836Y-78540000D01*
%TO.C,J2*%
X178290000Y-63170000D02*
X178420000Y-63170000D01*
X224150000Y-64980000D02*
X224020000Y-64980000D01*
X178420000Y-63170000D02*
X178420000Y-64980000D01*
X177990000Y-62750000D02*
X177990000Y-60340000D01*
X224150000Y-65960000D02*
X224150000Y-64980000D01*
X224150000Y-60640000D02*
X178290000Y-60640000D01*
X178290000Y-65960000D02*
X197300000Y-65960000D01*
X205140000Y-67460000D02*
X205140000Y-65960000D01*
X224020000Y-63170000D02*
X224150000Y-63170000D01*
X205140000Y-65960000D02*
X224150000Y-65960000D01*
X224150000Y-63170000D02*
X224150000Y-60640000D01*
X178290000Y-64980000D02*
X178290000Y-65960000D01*
X177990000Y-60340000D02*
X180400000Y-60340000D01*
X178420000Y-64980000D02*
X178290000Y-64980000D01*
X197300000Y-65960000D02*
X197300000Y-67460000D01*
X197300000Y-67460000D02*
X205140000Y-67460000D01*
X178290000Y-60640000D02*
X178290000Y-63170000D01*
X224020000Y-64980000D02*
X224020000Y-63170000D01*
%TO.C,D4*%
X186000000Y-72200000D02*
X186000000Y-73500000D01*
X185200000Y-73500000D02*
X186000000Y-73500000D01*
X185200000Y-72200000D02*
X185200000Y-73500000D01*
%TO.C,R13*%
X208553641Y-75980000D02*
X208246359Y-75980000D01*
X208553641Y-75220000D02*
X208246359Y-75220000D01*
%TO.C,J4*%
X183535000Y-78360000D02*
X182465000Y-78360000D01*
X185865000Y-78060000D02*
X185865000Y-78360000D01*
X182465000Y-78360000D02*
X182465000Y-72640000D01*
X186935000Y-72640000D02*
X184700000Y-72640000D01*
X184700000Y-78060000D02*
X183535000Y-78060000D01*
X183535000Y-78060000D02*
X183535000Y-78360000D01*
X185575000Y-78650000D02*
X186075000Y-78650000D01*
X184700000Y-78060000D02*
X185865000Y-78060000D01*
X186935000Y-78360000D02*
X186935000Y-72640000D01*
X185865000Y-78360000D02*
X186935000Y-78360000D01*
X185575000Y-78350000D02*
X185575000Y-78650000D01*
X182465000Y-72640000D02*
X184700000Y-72640000D01*
%TO.C,C2*%
X206892164Y-69560000D02*
X207107836Y-69560000D01*
X206892164Y-68840000D02*
X207107836Y-68840000D01*
%TO.C,D3*%
X184800000Y-68100000D02*
X184800000Y-66800000D01*
X185600000Y-68100000D02*
X185600000Y-66800000D01*
X185600000Y-66800000D02*
X184800000Y-66800000D01*
%TO.C,C9*%
X221240000Y-70907836D02*
X221240000Y-70692164D01*
X221960000Y-70907836D02*
X221960000Y-70692164D01*
%TO.C,R12*%
X193946359Y-78920000D02*
X194253641Y-78920000D01*
X193946359Y-79680000D02*
X194253641Y-79680000D01*
%TO.C,R7*%
X214620000Y-78336359D02*
X214620000Y-78643641D01*
X215380000Y-78336359D02*
X215380000Y-78643641D01*
%TO.C,R8*%
X214280000Y-78346359D02*
X214280000Y-78653641D01*
X213520000Y-78346359D02*
X213520000Y-78653641D01*
%TO.C,C12*%
X208292164Y-77560000D02*
X208507836Y-77560000D01*
X208292164Y-76840000D02*
X208507836Y-76840000D01*
%TO.C,D2*%
X215515000Y-65840000D02*
X215515000Y-67760000D01*
X215515000Y-67760000D02*
X218200000Y-67760000D01*
X218200000Y-65840000D02*
X215515000Y-65840000D01*
%TO.C,J3*%
X181940000Y-68290000D02*
X183710000Y-68290000D01*
X183710000Y-75910000D02*
X181940000Y-75910000D01*
X183710000Y-75910000D02*
X183710000Y-75530000D01*
X183710000Y-68290000D02*
X183710000Y-68670000D01*
X179400000Y-68290000D02*
X179660000Y-68290000D01*
X179660000Y-75910000D02*
X179400000Y-75910000D01*
%TO.C,R11*%
X191446359Y-78920000D02*
X191753641Y-78920000D01*
X191446359Y-79680000D02*
X191753641Y-79680000D01*
%TO.C,Q4*%
X197940000Y-77500000D02*
X197940000Y-78150000D01*
X197940000Y-77500000D02*
X197940000Y-76850000D01*
X201060000Y-77500000D02*
X201060000Y-75825000D01*
X201060000Y-77500000D02*
X201060000Y-78150000D01*
%TO.C,SW1*%
X189270000Y-74000000D02*
X189270000Y-76600000D01*
X195730000Y-72070000D02*
X195730000Y-72100000D01*
X189270000Y-78530000D02*
X189270000Y-78500000D01*
X195730000Y-78530000D02*
X195730000Y-78500000D01*
X189270000Y-72100000D02*
X189270000Y-72070000D01*
X189270000Y-78530000D02*
X195730000Y-78530000D01*
X189270000Y-72070000D02*
X195730000Y-72070000D01*
X195730000Y-74000000D02*
X195730000Y-76600000D01*
%TO.C,R2*%
X218880000Y-68736359D02*
X218880000Y-69043641D01*
X218120000Y-68736359D02*
X218120000Y-69043641D01*
%TO.C,C8*%
X219138748Y-75035000D02*
X219661252Y-75035000D01*
X219138748Y-73565000D02*
X219661252Y-73565000D01*
%TO.C,J1*%
X207340000Y-70860000D02*
X210200000Y-70860000D01*
X208700000Y-64850000D02*
X208200000Y-64850000D01*
X207340000Y-65140000D02*
X207340000Y-70860000D01*
X208410000Y-65140000D02*
X207340000Y-65140000D01*
X208410000Y-65440000D02*
X208410000Y-65140000D01*
X213060000Y-70860000D02*
X210200000Y-70860000D01*
X210200000Y-65440000D02*
X211990000Y-65440000D01*
X211990000Y-65440000D02*
X211990000Y-65140000D01*
X213060000Y-65140000D02*
X213060000Y-70860000D01*
X208700000Y-65150000D02*
X208700000Y-64850000D01*
X210200000Y-65440000D02*
X208410000Y-65440000D01*
X211990000Y-65140000D02*
X213060000Y-65140000D01*
%TO.C,C13*%
X184787836Y-79260000D02*
X184572164Y-79260000D01*
X184787836Y-78540000D02*
X184572164Y-78540000D01*
%TO.C,R4*%
X203146359Y-66780000D02*
X203453641Y-66780000D01*
X203146359Y-66020000D02*
X203453641Y-66020000D01*
%TO.C,J5*%
X177990000Y-80450000D02*
X177990000Y-78040000D01*
X178290000Y-80870000D02*
X178420000Y-80870000D01*
X197300000Y-85160000D02*
X205140000Y-85160000D01*
X178420000Y-82680000D02*
X178290000Y-82680000D01*
X178290000Y-78340000D02*
X178290000Y-80870000D01*
X205140000Y-83660000D02*
X224150000Y-83660000D01*
X178420000Y-80870000D02*
X178420000Y-82680000D01*
X224150000Y-80870000D02*
X224150000Y-78340000D01*
X224020000Y-82680000D02*
X224020000Y-80870000D01*
X178290000Y-82680000D02*
X178290000Y-83660000D01*
X177990000Y-78040000D02*
X180400000Y-78040000D01*
X224150000Y-83660000D02*
X224150000Y-82680000D01*
X224150000Y-82680000D02*
X224020000Y-82680000D01*
X205140000Y-85160000D02*
X205140000Y-83660000D01*
X197300000Y-83660000D02*
X197300000Y-85160000D01*
X224150000Y-78340000D02*
X178290000Y-78340000D01*
X178290000Y-83660000D02*
X197300000Y-83660000D01*
X224020000Y-80870000D02*
X224150000Y-80870000D01*
%TO.C,C7*%
X186140000Y-67207836D02*
X186140000Y-66992164D01*
X186860000Y-67207836D02*
X186860000Y-66992164D01*
%TO.C,D1*%
X216715000Y-78560000D02*
X219400000Y-78560000D01*
X219400000Y-76640000D02*
X216715000Y-76640000D01*
X216715000Y-76640000D02*
X216715000Y-78560000D01*
%TO.C,U3*%
X249565000Y-81320000D02*
X243145000Y-81320000D01*
X243145000Y-63080000D02*
X243145000Y-62700000D01*
X223820000Y-81320000D02*
X223820000Y-80320000D01*
X224600000Y-63080000D02*
X223820000Y-63080000D01*
X249565000Y-63080000D02*
X249565000Y-81320000D01*
X249565000Y-63080000D02*
X243145000Y-63080000D01*
X224600000Y-81320000D02*
X223820000Y-81320000D01*
X223820000Y-63080000D02*
X223820000Y-64080000D01*
%TO.C,R14*%
X205546359Y-75180000D02*
X205853641Y-75180000D01*
X205546359Y-74420000D02*
X205853641Y-74420000D01*
%TO.C,R1*%
X217280000Y-74563641D02*
X217280000Y-74256359D01*
X216520000Y-74563641D02*
X216520000Y-74256359D01*
%TO.C,R5*%
X204820000Y-66753641D02*
X204820000Y-66446359D01*
X205580000Y-66753641D02*
X205580000Y-66446359D01*
%TO.C,C5*%
X216860000Y-70307836D02*
X216860000Y-70092164D01*
X216140000Y-70307836D02*
X216140000Y-70092164D01*
%TO.C,SW2*%
X195730000Y-72030000D02*
X189270000Y-72030000D01*
X195730000Y-65570000D02*
X195730000Y-65600000D01*
X189270000Y-70100000D02*
X189270000Y-67500000D01*
X195730000Y-65570000D02*
X189270000Y-65570000D01*
X195730000Y-72000000D02*
X195730000Y-72030000D01*
X195730000Y-70100000D02*
X195730000Y-67500000D01*
X189270000Y-72030000D02*
X189270000Y-72000000D01*
X189270000Y-65570000D02*
X189270000Y-65600000D01*
%TO.C,R3*%
X201146359Y-66020000D02*
X201453641Y-66020000D01*
X201146359Y-66780000D02*
X201453641Y-66780000D01*
%TO.C,U2*%
X198990000Y-74610000D02*
X198990000Y-73885000D01*
X203485000Y-69390000D02*
X204210000Y-69390000D01*
X199715000Y-74610000D02*
X198990000Y-74610000D01*
X198990000Y-69390000D02*
X198990000Y-70115000D01*
X203485000Y-74610000D02*
X204210000Y-74610000D01*
X199715000Y-69390000D02*
X198990000Y-69390000D01*
X204210000Y-69390000D02*
X204210000Y-70115000D01*
%TO.C,R6*%
X199453641Y-66780000D02*
X199146359Y-66780000D01*
X199453641Y-66020000D02*
X199146359Y-66020000D01*
%TO.C,C1*%
X206840000Y-70692164D02*
X206840000Y-70907836D01*
X207560000Y-70692164D02*
X207560000Y-70907836D01*
%TO.C,R15*%
X202520000Y-77446359D02*
X202520000Y-77753641D01*
X203280000Y-77446359D02*
X203280000Y-77753641D01*
%TO.C,C4*%
X210392164Y-67540000D02*
X210607836Y-67540000D01*
X210392164Y-68260000D02*
X210607836Y-68260000D01*
%TO.C,C6*%
X221760000Y-66492164D02*
X221760000Y-66707836D01*
X221040000Y-66492164D02*
X221040000Y-66707836D01*
%TO.C,Q3*%
X204140000Y-77300000D02*
X204140000Y-77950000D01*
X204140000Y-77300000D02*
X204140000Y-76650000D01*
X207260000Y-77300000D02*
X207260000Y-77950000D01*
X207260000Y-77300000D02*
X207260000Y-75625000D01*
%TO.C,D5*%
X186000000Y-70000000D02*
X185200000Y-70000000D01*
X185200000Y-71300000D02*
X185200000Y-70000000D01*
X186000000Y-71300000D02*
X186000000Y-70000000D01*
%TO.C,U1*%
X215910000Y-68800000D02*
X215910000Y-74810000D01*
X215910000Y-74810000D02*
X214650000Y-74810000D01*
X209090000Y-71050000D02*
X209090000Y-74810000D01*
X209090000Y-74810000D02*
X210350000Y-74810000D01*
%TD*%
M02*
