%TF.GenerationSoftware,KiCad,Pcbnew,(6.0.1)*%
%TF.CreationDate,2023-01-04T22:15:02+03:00*%
%TF.ProjectId,EspDevBoard,45737044-6576-4426-9f61-72642e6b6963,rev?*%
%TF.SameCoordinates,Original*%
%TF.FileFunction,Copper,L2,Inr*%
%TF.FilePolarity,Positive*%
%FSLAX46Y46*%
G04 Gerber Fmt 4.6, Leading zero omitted, Abs format (unit mm)*
G04 Created by KiCad (PCBNEW (6.0.1)) date 2023-01-04 22:15:02*
%MOMM*%
%LPD*%
G01*
G04 APERTURE LIST*
G04 Aperture macros list*
%AMRoundRect*
0 Rectangle with rounded corners*
0 $1 Rounding radius*
0 $2 $3 $4 $5 $6 $7 $8 $9 X,Y pos of 4 corners*
0 Add a 4 corners polygon primitive as box body*
4,1,4,$2,$3,$4,$5,$6,$7,$8,$9,$2,$3,0*
0 Add four circle primitives for the rounded corners*
1,1,$1+$1,$2,$3*
1,1,$1+$1,$4,$5*
1,1,$1+$1,$6,$7*
1,1,$1+$1,$8,$9*
0 Add four rect primitives between the rounded corners*
20,1,$1+$1,$2,$3,$4,$5,0*
20,1,$1+$1,$4,$5,$6,$7,0*
20,1,$1+$1,$6,$7,$8,$9,0*
20,1,$1+$1,$8,$9,$2,$3,0*%
G04 Aperture macros list end*
%TA.AperFunction,ComponentPad*%
%ADD10RoundRect,0.250000X-0.620000X-0.620000X0.620000X-0.620000X0.620000X0.620000X-0.620000X0.620000X0*%
%TD*%
%TA.AperFunction,ComponentPad*%
%ADD11C,1.740000*%
%TD*%
%TA.AperFunction,ComponentPad*%
%ADD12RoundRect,0.200000X0.200000X0.450000X-0.200000X0.450000X-0.200000X-0.450000X0.200000X-0.450000X0*%
%TD*%
%TA.AperFunction,ComponentPad*%
%ADD13O,0.800000X1.300000*%
%TD*%
%TA.AperFunction,ComponentPad*%
%ADD14RoundRect,0.200000X-0.200000X-0.450000X0.200000X-0.450000X0.200000X0.450000X-0.200000X0.450000X0*%
%TD*%
%TA.AperFunction,ViaPad*%
%ADD15C,0.800000*%
%TD*%
G04 APERTURE END LIST*
D10*
%TO.N,GND*%
%TO.C,J2*%
X180900000Y-63300000D03*
D11*
%TO.N,+3V3*%
X183440000Y-63300000D03*
%TO.N,/EN*%
X185980000Y-63300000D03*
%TO.N,/I36*%
X188520000Y-63300000D03*
%TO.N,/I39*%
X191060000Y-63300000D03*
%TO.N,/I34*%
X193600000Y-63300000D03*
%TO.N,/I35*%
X196140000Y-63300000D03*
%TO.N,/IO32*%
X198680000Y-63300000D03*
%TO.N,/IO33*%
X201220000Y-63300000D03*
%TO.N,/IO25*%
X203760000Y-63300000D03*
%TO.N,/IO26*%
X206300000Y-63300000D03*
%TO.N,/IO27*%
X208840000Y-63300000D03*
%TO.N,/IO14*%
X211380000Y-63300000D03*
%TO.N,/IO12*%
X213920000Y-63300000D03*
%TO.N,GND*%
X216460000Y-63300000D03*
%TO.N,/IO13*%
X219000000Y-63300000D03*
%TO.N,VCC*%
X221540000Y-63300000D03*
%TD*%
D12*
%TO.N,Net-(C11-Pad1)*%
%TO.C,J4*%
X185325000Y-77200000D03*
D13*
%TO.N,+3V3*%
X184075000Y-77200000D03*
%TD*%
D14*
%TO.N,VBUS*%
%TO.C,J1*%
X208950000Y-66300000D03*
D13*
%TO.N,+5V*%
X210200000Y-66300000D03*
%TO.N,VCC*%
X211450000Y-66300000D03*
%TD*%
D10*
%TO.N,+3V3*%
%TO.C,J5*%
X180900000Y-81000000D03*
D11*
%TO.N,GND*%
X183440000Y-81000000D03*
%TO.N,/IO23*%
X185980000Y-81000000D03*
%TO.N,/IO22*%
X188520000Y-81000000D03*
%TO.N,/TXD0*%
X191060000Y-81000000D03*
%TO.N,/RXD0*%
X193600000Y-81000000D03*
%TO.N,/IO21*%
X196140000Y-81000000D03*
%TO.N,GND*%
X198680000Y-81000000D03*
%TO.N,/IO19*%
X201220000Y-81000000D03*
%TO.N,/IO18*%
X203760000Y-81000000D03*
%TO.N,/IO5*%
X206300000Y-81000000D03*
%TO.N,/IO17*%
X208840000Y-81000000D03*
%TO.N,/IO16*%
X211380000Y-81000000D03*
%TO.N,/IO4*%
X213920000Y-81000000D03*
%TO.N,/IO0_CON*%
X216460000Y-81000000D03*
%TO.N,/IO2*%
X219000000Y-81000000D03*
%TO.N,/IO15*%
X221540000Y-81000000D03*
%TD*%
D15*
%TO.N,+3V3*%
X240685000Y-65385000D03*
X207400000Y-73800000D03*
X207400000Y-66700000D03*
X216000000Y-71700000D03*
X200790000Y-67290000D03*
X217900000Y-72700000D03*
X218600000Y-70600000D03*
X219400000Y-72700000D03*
X222600000Y-71900000D03*
X240685000Y-66785000D03*
%TO.N,GND*%
X195100000Y-70600000D03*
X221800000Y-72700000D03*
X236400000Y-70500000D03*
X200500000Y-70600000D03*
X236400000Y-72500000D03*
X186500000Y-65400000D03*
X181400000Y-72500000D03*
X235500000Y-69500000D03*
X214600000Y-65200000D03*
X205875386Y-73800000D03*
X206500000Y-72300000D03*
X183300000Y-78900000D03*
X183375000Y-68325000D03*
X219600000Y-70600000D03*
X233700000Y-73300000D03*
X201700000Y-70600000D03*
X180050000Y-72500000D03*
X208200000Y-70200000D03*
X241955000Y-65355000D03*
X181500000Y-66000000D03*
X202900000Y-70600000D03*
X185200000Y-66200000D03*
X198790000Y-67290000D03*
X182300000Y-79600000D03*
X220600000Y-70600000D03*
X212500000Y-66700000D03*
X233700000Y-71600000D03*
X241955000Y-79155000D03*
X201700000Y-72700000D03*
X233700000Y-69500000D03*
X234600000Y-70500000D03*
X185600000Y-69400000D03*
X217600000Y-70600000D03*
X235500000Y-71700000D03*
X209800000Y-75300000D03*
X200500000Y-72700000D03*
X180800000Y-67100000D03*
X182800000Y-76400000D03*
X202900000Y-72700000D03*
X180800000Y-77300000D03*
X189800000Y-75200000D03*
X190100000Y-68800000D03*
X185600000Y-74100000D03*
X190300000Y-70400000D03*
X185600000Y-75500000D03*
X186750000Y-73350000D03*
X223900000Y-64350000D03*
X214700000Y-71500000D03*
X206200000Y-65400000D03*
X220700000Y-72700000D03*
X194950000Y-73050000D03*
X234600000Y-72400000D03*
X235500000Y-73300000D03*
X232700000Y-72500000D03*
X232700000Y-70500000D03*
%TO.N,Net-(C11-Pad1)*%
X187800000Y-68200000D03*
X191800000Y-70300000D03*
X193600000Y-72800000D03*
%TO.N,/EN*%
X200600000Y-78100000D03*
X204000000Y-69700000D03*
X239415000Y-65315000D03*
X198000000Y-78400000D03*
X212750489Y-72449511D03*
%TO.N,/IO18*%
X215298079Y-76801921D03*
X231795000Y-79205000D03*
%TO.N,/USB_DP*%
X205400000Y-72300000D03*
X186480000Y-72280000D03*
%TO.N,/USB_DN*%
X205400000Y-71300000D03*
X186480000Y-71220000D03*
%TO.N,/I36*%
X238145000Y-65345000D03*
%TO.N,/I39*%
X236875000Y-65375000D03*
%TO.N,/I34*%
X235605000Y-65395000D03*
%TO.N,/I35*%
X234335000Y-65365000D03*
%TO.N,/IO32*%
X233065000Y-65365000D03*
%TO.N,/IO33*%
X231795000Y-65395000D03*
%TO.N,/IO25*%
X230525000Y-65375000D03*
%TO.N,/IO26*%
X229255000Y-65345000D03*
%TO.N,/IO27*%
X227985000Y-65385000D03*
%TO.N,/IO14*%
X226715000Y-65385000D03*
%TO.N,/IO12*%
X225445000Y-65355000D03*
%TO.N,/IO13*%
X222900000Y-64300000D03*
%TO.N,/IO23*%
X240685000Y-79185000D03*
%TO.N,/IO22*%
X239415000Y-79115000D03*
%TO.N,/TXD0*%
X238145000Y-79145000D03*
%TO.N,/RXD0*%
X236875000Y-79175000D03*
%TO.N,/IO21*%
X235605000Y-79205000D03*
%TO.N,/IO19*%
X233065000Y-79235000D03*
%TO.N,/IO5*%
X230525000Y-79275000D03*
%TO.N,/IO17*%
X229255000Y-79245000D03*
%TO.N,/IO16*%
X227985000Y-79215000D03*
%TO.N,/IO4*%
X226715000Y-79215000D03*
%TO.N,/IO2*%
X223200000Y-80300000D03*
%TO.N,/DTR*%
X203850000Y-75450000D03*
X199300000Y-75400000D03*
%TO.N,/IO0*%
X217800000Y-79900000D03*
X225445000Y-79245000D03*
%TO.N,/RXD*%
X192110000Y-77010000D03*
X201900000Y-76400000D03*
%TO.N,/TXD*%
X193900000Y-77000000D03*
X202800000Y-75800000D03*
%TD*%
%TA.AperFunction,Conductor*%
%TO.N,+3V3*%
G36*
X242334121Y-62578002D02*
G01*
X242380614Y-62631658D01*
X242392000Y-62684000D01*
X242392000Y-64363776D01*
X242371998Y-64431897D01*
X242318342Y-64478390D01*
X242248068Y-64488494D01*
X242237332Y-64485998D01*
X242237288Y-64486206D01*
X242056944Y-64447872D01*
X242056939Y-64447872D01*
X242050487Y-64446500D01*
X241859513Y-64446500D01*
X241853061Y-64447872D01*
X241853056Y-64447872D01*
X241774176Y-64464639D01*
X241672712Y-64486206D01*
X241666682Y-64488891D01*
X241666681Y-64488891D01*
X241504278Y-64561197D01*
X241504276Y-64561198D01*
X241498248Y-64563882D01*
X241492907Y-64567762D01*
X241492906Y-64567763D01*
X241443193Y-64603882D01*
X241343747Y-64676134D01*
X241339326Y-64681044D01*
X241339325Y-64681045D01*
X241246828Y-64783774D01*
X241215960Y-64818056D01*
X241120473Y-64983444D01*
X241061458Y-65165072D01*
X241060768Y-65171633D01*
X241060768Y-65171635D01*
X241045055Y-65321134D01*
X241041496Y-65355000D01*
X241061458Y-65544928D01*
X241120473Y-65726556D01*
X241123776Y-65732278D01*
X241123777Y-65732279D01*
X241129304Y-65741852D01*
X241215960Y-65891944D01*
X241220378Y-65896851D01*
X241220379Y-65896852D01*
X241307343Y-65993435D01*
X241343747Y-66033866D01*
X241424646Y-66092643D01*
X241479147Y-66132240D01*
X241498248Y-66146118D01*
X241504276Y-66148802D01*
X241504278Y-66148803D01*
X241653333Y-66215166D01*
X241672712Y-66223794D01*
X241766113Y-66243647D01*
X241853056Y-66262128D01*
X241853061Y-66262128D01*
X241859513Y-66263500D01*
X242050487Y-66263500D01*
X242056939Y-66262128D01*
X242056944Y-66262128D01*
X242237288Y-66223794D01*
X242237775Y-66226083D01*
X242298039Y-66224365D01*
X242358835Y-66261032D01*
X242390156Y-66324746D01*
X242392000Y-66346224D01*
X242392000Y-78163776D01*
X242371998Y-78231897D01*
X242318342Y-78278390D01*
X242248068Y-78288494D01*
X242237332Y-78285998D01*
X242237288Y-78286206D01*
X242056944Y-78247872D01*
X242056939Y-78247872D01*
X242050487Y-78246500D01*
X241859513Y-78246500D01*
X241853061Y-78247872D01*
X241853056Y-78247872D01*
X241766112Y-78266353D01*
X241672712Y-78286206D01*
X241666682Y-78288891D01*
X241666681Y-78288891D01*
X241504278Y-78361197D01*
X241504276Y-78361198D01*
X241498248Y-78363882D01*
X241492907Y-78367762D01*
X241492906Y-78367763D01*
X241477590Y-78378891D01*
X241391834Y-78441197D01*
X241373415Y-78454579D01*
X241306548Y-78478437D01*
X241237396Y-78462357D01*
X241225309Y-78454590D01*
X241141752Y-78393882D01*
X241135724Y-78391198D01*
X241135722Y-78391197D01*
X240973319Y-78318891D01*
X240973318Y-78318891D01*
X240967288Y-78316206D01*
X240873196Y-78296206D01*
X240786944Y-78277872D01*
X240786939Y-78277872D01*
X240780487Y-78276500D01*
X240589513Y-78276500D01*
X240583061Y-78277872D01*
X240583056Y-78277872D01*
X240496804Y-78296206D01*
X240402712Y-78316206D01*
X240396682Y-78318891D01*
X240396681Y-78318891D01*
X240234278Y-78391197D01*
X240234276Y-78391198D01*
X240228248Y-78393882D01*
X240222907Y-78397762D01*
X240222906Y-78397763D01*
X240172234Y-78434579D01*
X240105367Y-78458437D01*
X240036215Y-78442357D01*
X240024118Y-78434583D01*
X239889119Y-78336500D01*
X239877094Y-78327763D01*
X239877093Y-78327762D01*
X239871752Y-78323882D01*
X239865724Y-78321198D01*
X239865722Y-78321197D01*
X239703319Y-78248891D01*
X239703318Y-78248891D01*
X239697288Y-78246206D01*
X239603887Y-78226353D01*
X239516944Y-78207872D01*
X239516939Y-78207872D01*
X239510487Y-78206500D01*
X239319513Y-78206500D01*
X239313061Y-78207872D01*
X239313056Y-78207872D01*
X239226113Y-78226353D01*
X239132712Y-78246206D01*
X239126682Y-78248891D01*
X239126681Y-78248891D01*
X238964278Y-78321197D01*
X238964276Y-78321198D01*
X238958248Y-78323882D01*
X238952907Y-78327762D01*
X238952906Y-78327763D01*
X238833415Y-78414579D01*
X238766548Y-78438437D01*
X238697396Y-78422357D01*
X238685309Y-78414590D01*
X238601752Y-78353882D01*
X238595724Y-78351198D01*
X238595722Y-78351197D01*
X238433319Y-78278891D01*
X238433318Y-78278891D01*
X238427288Y-78276206D01*
X238333887Y-78256353D01*
X238246944Y-78237872D01*
X238246939Y-78237872D01*
X238240487Y-78236500D01*
X238049513Y-78236500D01*
X238043061Y-78237872D01*
X238043056Y-78237872D01*
X237956113Y-78256353D01*
X237862712Y-78276206D01*
X237856682Y-78278891D01*
X237856681Y-78278891D01*
X237694278Y-78351197D01*
X237694276Y-78351198D01*
X237688248Y-78353882D01*
X237682907Y-78357762D01*
X237682906Y-78357763D01*
X237633808Y-78393435D01*
X237571869Y-78438437D01*
X237563415Y-78444579D01*
X237496548Y-78468437D01*
X237427396Y-78452357D01*
X237415309Y-78444590D01*
X237331752Y-78383882D01*
X237325724Y-78381198D01*
X237325722Y-78381197D01*
X237163319Y-78308891D01*
X237163318Y-78308891D01*
X237157288Y-78306206D01*
X237056741Y-78284834D01*
X236976944Y-78267872D01*
X236976939Y-78267872D01*
X236970487Y-78266500D01*
X236779513Y-78266500D01*
X236773061Y-78267872D01*
X236773056Y-78267872D01*
X236693259Y-78284834D01*
X236592712Y-78306206D01*
X236586682Y-78308891D01*
X236586681Y-78308891D01*
X236424278Y-78381197D01*
X236424276Y-78381198D01*
X236418248Y-78383882D01*
X236412907Y-78387762D01*
X236412906Y-78387763D01*
X236365292Y-78422357D01*
X236301869Y-78468437D01*
X236293415Y-78474579D01*
X236226548Y-78498437D01*
X236157396Y-78482357D01*
X236145309Y-78474590D01*
X236061752Y-78413882D01*
X236055724Y-78411198D01*
X236055722Y-78411197D01*
X235893319Y-78338891D01*
X235893318Y-78338891D01*
X235887288Y-78336206D01*
X235786741Y-78314834D01*
X235706944Y-78297872D01*
X235706939Y-78297872D01*
X235700487Y-78296500D01*
X235509513Y-78296500D01*
X235503061Y-78297872D01*
X235503056Y-78297872D01*
X235423259Y-78314834D01*
X235322712Y-78336206D01*
X235316682Y-78338891D01*
X235316681Y-78338891D01*
X235154278Y-78411197D01*
X235154276Y-78411198D01*
X235148248Y-78413882D01*
X235142907Y-78417762D01*
X235142906Y-78417763D01*
X235096286Y-78451635D01*
X234993747Y-78526134D01*
X234989326Y-78531044D01*
X234989325Y-78531045D01*
X234870475Y-78663042D01*
X234865960Y-78668056D01*
X234770473Y-78833444D01*
X234711458Y-79015072D01*
X234710768Y-79021633D01*
X234710768Y-79021635D01*
X234701880Y-79106197D01*
X234691496Y-79205000D01*
X234711458Y-79394928D01*
X234770473Y-79576556D01*
X234773776Y-79582278D01*
X234773777Y-79582279D01*
X234799294Y-79626475D01*
X234865960Y-79741944D01*
X234870378Y-79746851D01*
X234870379Y-79746852D01*
X234937649Y-79821563D01*
X234993747Y-79883866D01*
X235069361Y-79938803D01*
X235142846Y-79992193D01*
X235148248Y-79996118D01*
X235154276Y-79998802D01*
X235154278Y-79998803D01*
X235296754Y-80062237D01*
X235322712Y-80073794D01*
X235408966Y-80092128D01*
X235503056Y-80112128D01*
X235503061Y-80112128D01*
X235509513Y-80113500D01*
X235700487Y-80113500D01*
X235706939Y-80112128D01*
X235706944Y-80112128D01*
X235801034Y-80092128D01*
X235887288Y-80073794D01*
X235913246Y-80062237D01*
X236055722Y-79998803D01*
X236055724Y-79998802D01*
X236061752Y-79996118D01*
X236067155Y-79992193D01*
X236176853Y-79912492D01*
X236186585Y-79905421D01*
X236253452Y-79881563D01*
X236322604Y-79897643D01*
X236334691Y-79905410D01*
X236418248Y-79966118D01*
X236424276Y-79968802D01*
X236424278Y-79968803D01*
X236559041Y-80028803D01*
X236592712Y-80043794D01*
X236673810Y-80061032D01*
X236773056Y-80082128D01*
X236773061Y-80082128D01*
X236779513Y-80083500D01*
X236970487Y-80083500D01*
X236976939Y-80082128D01*
X236976944Y-80082128D01*
X237076190Y-80061032D01*
X237157288Y-80043794D01*
X237190959Y-80028803D01*
X237325722Y-79968803D01*
X237325724Y-79968802D01*
X237331752Y-79966118D01*
X237348616Y-79953866D01*
X237446853Y-79882492D01*
X237456585Y-79875421D01*
X237523452Y-79851563D01*
X237592604Y-79867643D01*
X237604691Y-79875410D01*
X237688248Y-79936118D01*
X237694276Y-79938802D01*
X237694278Y-79938803D01*
X237829041Y-79998803D01*
X237862712Y-80013794D01*
X237949479Y-80032237D01*
X238043056Y-80052128D01*
X238043061Y-80052128D01*
X238049513Y-80053500D01*
X238240487Y-80053500D01*
X238246939Y-80052128D01*
X238246944Y-80052128D01*
X238340521Y-80032237D01*
X238427288Y-80013794D01*
X238460959Y-79998803D01*
X238595722Y-79938803D01*
X238595724Y-79938802D01*
X238601752Y-79936118D01*
X238608022Y-79931563D01*
X238714962Y-79853866D01*
X238726585Y-79845421D01*
X238793452Y-79821563D01*
X238862604Y-79837643D01*
X238874691Y-79845410D01*
X238958248Y-79906118D01*
X238964276Y-79908802D01*
X238964278Y-79908803D01*
X239115471Y-79976118D01*
X239132712Y-79983794D01*
X239219479Y-80002237D01*
X239313056Y-80022128D01*
X239313061Y-80022128D01*
X239319513Y-80023500D01*
X239510487Y-80023500D01*
X239516939Y-80022128D01*
X239516944Y-80022128D01*
X239610521Y-80002237D01*
X239697288Y-79983794D01*
X239714529Y-79976118D01*
X239865722Y-79908803D01*
X239865724Y-79908802D01*
X239871752Y-79906118D01*
X239927767Y-79865421D01*
X239994633Y-79841563D01*
X240063785Y-79857643D01*
X240075882Y-79865417D01*
X240149570Y-79918955D01*
X240218955Y-79969366D01*
X240228248Y-79976118D01*
X240234276Y-79978802D01*
X240234278Y-79978803D01*
X240383333Y-80045166D01*
X240402712Y-80053794D01*
X240496112Y-80073647D01*
X240583056Y-80092128D01*
X240583061Y-80092128D01*
X240589513Y-80093500D01*
X240780487Y-80093500D01*
X240786939Y-80092128D01*
X240786944Y-80092128D01*
X240873888Y-80073647D01*
X240967288Y-80053794D01*
X240986667Y-80045166D01*
X241135722Y-79978803D01*
X241135724Y-79978802D01*
X241141752Y-79976118D01*
X241151046Y-79969366D01*
X241230604Y-79911563D01*
X241266585Y-79885421D01*
X241333452Y-79861563D01*
X241402604Y-79877643D01*
X241414691Y-79885410D01*
X241498248Y-79946118D01*
X241504276Y-79948802D01*
X241504278Y-79948803D01*
X241653333Y-80015166D01*
X241672712Y-80023794D01*
X241766112Y-80043647D01*
X241853056Y-80062128D01*
X241853061Y-80062128D01*
X241859513Y-80063500D01*
X242050487Y-80063500D01*
X242056939Y-80062128D01*
X242056944Y-80062128D01*
X242237288Y-80023794D01*
X242237775Y-80026083D01*
X242298039Y-80024365D01*
X242358835Y-80061032D01*
X242390156Y-80124746D01*
X242392000Y-80146224D01*
X242392000Y-81716000D01*
X242371998Y-81784121D01*
X242318342Y-81830614D01*
X242266000Y-81842000D01*
X222864430Y-81842000D01*
X222796309Y-81821998D01*
X222749816Y-81768342D01*
X222739712Y-81698068D01*
X222751473Y-81660173D01*
X222823795Y-81513840D01*
X222826089Y-81509199D01*
X222891985Y-81292310D01*
X222892195Y-81290716D01*
X222925648Y-81229271D01*
X222987919Y-81195169D01*
X223041051Y-81195011D01*
X223098049Y-81207127D01*
X223098058Y-81207128D01*
X223104513Y-81208500D01*
X223295487Y-81208500D01*
X223301939Y-81207128D01*
X223301944Y-81207128D01*
X223388887Y-81188647D01*
X223482288Y-81168794D01*
X223491230Y-81164813D01*
X223650722Y-81093803D01*
X223650724Y-81093802D01*
X223656752Y-81091118D01*
X223811253Y-80978866D01*
X223939040Y-80836944D01*
X224034527Y-80671556D01*
X224093542Y-80489928D01*
X224096413Y-80462618D01*
X224112814Y-80306565D01*
X224113504Y-80300000D01*
X224098373Y-80156033D01*
X224094232Y-80116635D01*
X224094232Y-80116633D01*
X224093542Y-80110072D01*
X224034527Y-79928444D01*
X224026111Y-79913866D01*
X223988001Y-79847859D01*
X223939040Y-79763056D01*
X223919031Y-79740833D01*
X223815675Y-79626045D01*
X223815674Y-79626044D01*
X223811253Y-79621134D01*
X223692323Y-79534726D01*
X223662094Y-79512763D01*
X223662093Y-79512762D01*
X223656752Y-79508882D01*
X223650724Y-79506198D01*
X223650722Y-79506197D01*
X223488319Y-79433891D01*
X223488318Y-79433891D01*
X223482288Y-79431206D01*
X223382861Y-79410072D01*
X223301944Y-79392872D01*
X223301939Y-79392872D01*
X223295487Y-79391500D01*
X223104513Y-79391500D01*
X223098061Y-79392872D01*
X223098056Y-79392872D01*
X223017139Y-79410072D01*
X222917712Y-79431206D01*
X222911682Y-79433891D01*
X222911681Y-79433891D01*
X222749278Y-79506197D01*
X222749276Y-79506198D01*
X222743248Y-79508882D01*
X222737907Y-79512762D01*
X222737906Y-79512763D01*
X222707677Y-79534726D01*
X222588747Y-79621134D01*
X222584326Y-79626044D01*
X222584325Y-79626045D01*
X222480970Y-79740833D01*
X222460960Y-79763056D01*
X222457659Y-79768774D01*
X222457656Y-79768778D01*
X222448041Y-79785431D01*
X222396658Y-79834424D01*
X222326944Y-79847859D01*
X222278031Y-79832739D01*
X222107015Y-79738334D01*
X222102146Y-79736610D01*
X222102142Y-79736608D01*
X221898214Y-79664393D01*
X221898210Y-79664392D01*
X221893339Y-79662667D01*
X221888246Y-79661760D01*
X221888243Y-79661759D01*
X221815832Y-79648861D01*
X221670173Y-79622915D01*
X221584179Y-79621864D01*
X221448681Y-79620208D01*
X221448679Y-79620208D01*
X221443511Y-79620145D01*
X221219441Y-79654433D01*
X221003979Y-79724857D01*
X220999391Y-79727245D01*
X220999387Y-79727247D01*
X220835633Y-79812492D01*
X220802913Y-79829525D01*
X220798780Y-79832628D01*
X220798777Y-79832630D01*
X220637306Y-79953866D01*
X220621641Y-79965628D01*
X220568622Y-80021109D01*
X220469585Y-80124746D01*
X220465033Y-80129509D01*
X220462119Y-80133781D01*
X220462118Y-80133782D01*
X220373645Y-80263479D01*
X220318734Y-80308482D01*
X220248209Y-80316653D01*
X220184462Y-80285399D01*
X220163767Y-80260918D01*
X220095914Y-80156033D01*
X219943356Y-79988374D01*
X219939305Y-79985175D01*
X219939301Y-79985171D01*
X219769519Y-79851085D01*
X219769515Y-79851083D01*
X219765464Y-79847883D01*
X219754016Y-79841563D01*
X219701353Y-79812492D01*
X219567015Y-79738334D01*
X219562146Y-79736610D01*
X219562142Y-79736608D01*
X219358214Y-79664393D01*
X219358210Y-79664392D01*
X219353339Y-79662667D01*
X219348246Y-79661760D01*
X219348243Y-79661759D01*
X219275832Y-79648861D01*
X219130173Y-79622915D01*
X219044179Y-79621864D01*
X218908681Y-79620208D01*
X218908679Y-79620208D01*
X218903511Y-79620145D01*
X218781465Y-79638821D01*
X218711103Y-79629353D01*
X218657029Y-79583348D01*
X218642573Y-79553207D01*
X218636569Y-79534729D01*
X218636568Y-79534726D01*
X218634527Y-79528444D01*
X218539040Y-79363056D01*
X218432742Y-79245000D01*
X224531496Y-79245000D01*
X224532186Y-79251565D01*
X224548846Y-79410072D01*
X224551458Y-79434928D01*
X224610473Y-79616556D01*
X224705960Y-79781944D01*
X224710378Y-79786851D01*
X224710379Y-79786852D01*
X224787490Y-79872492D01*
X224833747Y-79923866D01*
X224918119Y-79985166D01*
X224971286Y-80023794D01*
X224988248Y-80036118D01*
X224994276Y-80038802D01*
X224994278Y-80038803D01*
X225143333Y-80105166D01*
X225162712Y-80113794D01*
X225236645Y-80129509D01*
X225343056Y-80152128D01*
X225343061Y-80152128D01*
X225349513Y-80153500D01*
X225540487Y-80153500D01*
X225546939Y-80152128D01*
X225546944Y-80152128D01*
X225653355Y-80129509D01*
X225727288Y-80113794D01*
X225746667Y-80105166D01*
X225895722Y-80038803D01*
X225895724Y-80038802D01*
X225901752Y-80036118D01*
X225918715Y-80023794D01*
X226014962Y-79953866D01*
X226026585Y-79945421D01*
X226093452Y-79921563D01*
X226162604Y-79937643D01*
X226174691Y-79945410D01*
X226258248Y-80006118D01*
X226264276Y-80008802D01*
X226264278Y-80008803D01*
X226413333Y-80075166D01*
X226432712Y-80083794D01*
X226526112Y-80103647D01*
X226613056Y-80122128D01*
X226613061Y-80122128D01*
X226619513Y-80123500D01*
X226810487Y-80123500D01*
X226816939Y-80122128D01*
X226816944Y-80122128D01*
X226903887Y-80103647D01*
X226997288Y-80083794D01*
X227016667Y-80075166D01*
X227165722Y-80008803D01*
X227165724Y-80008802D01*
X227171752Y-80006118D01*
X227190854Y-79992240D01*
X227219322Y-79971556D01*
X227275940Y-79930421D01*
X227342806Y-79906563D01*
X227411958Y-79922643D01*
X227424056Y-79930418D01*
X227480678Y-79971556D01*
X227509147Y-79992240D01*
X227528248Y-80006118D01*
X227534276Y-80008802D01*
X227534278Y-80008803D01*
X227683333Y-80075166D01*
X227702712Y-80083794D01*
X227796112Y-80103647D01*
X227883056Y-80122128D01*
X227883061Y-80122128D01*
X227889513Y-80123500D01*
X228080487Y-80123500D01*
X228086939Y-80122128D01*
X228086944Y-80122128D01*
X228173887Y-80103647D01*
X228267288Y-80083794D01*
X228286667Y-80075166D01*
X228435722Y-80008803D01*
X228435724Y-80008802D01*
X228441752Y-80006118D01*
X228525296Y-79945420D01*
X228592160Y-79921563D01*
X228661312Y-79937643D01*
X228673413Y-79945420D01*
X228685038Y-79953866D01*
X228781286Y-80023794D01*
X228798248Y-80036118D01*
X228804276Y-80038802D01*
X228804278Y-80038803D01*
X228953333Y-80105166D01*
X228972712Y-80113794D01*
X229046645Y-80129509D01*
X229153056Y-80152128D01*
X229153061Y-80152128D01*
X229159513Y-80153500D01*
X229350487Y-80153500D01*
X229356939Y-80152128D01*
X229356944Y-80152128D01*
X229463355Y-80129509D01*
X229537288Y-80113794D01*
X229556667Y-80105166D01*
X229705722Y-80038803D01*
X229705724Y-80038802D01*
X229711752Y-80036118D01*
X229795296Y-79975420D01*
X229862160Y-79951563D01*
X229931312Y-79967643D01*
X229943413Y-79975420D01*
X229961243Y-79988374D01*
X230061248Y-80061032D01*
X230068248Y-80066118D01*
X230074276Y-80068802D01*
X230074278Y-80068803D01*
X230236681Y-80141109D01*
X230242712Y-80143794D01*
X230320710Y-80160373D01*
X230423056Y-80182128D01*
X230423061Y-80182128D01*
X230429513Y-80183500D01*
X230620487Y-80183500D01*
X230626939Y-80182128D01*
X230626944Y-80182128D01*
X230729290Y-80160373D01*
X230807288Y-80143794D01*
X230813319Y-80141109D01*
X230975722Y-80068803D01*
X230975724Y-80068802D01*
X230981752Y-80066118D01*
X230988753Y-80061032D01*
X231051881Y-80015166D01*
X231134113Y-79955420D01*
X231200979Y-79931563D01*
X231270131Y-79947643D01*
X231282231Y-79955419D01*
X231305379Y-79972237D01*
X231332846Y-79992193D01*
X231338248Y-79996118D01*
X231344276Y-79998802D01*
X231344278Y-79998803D01*
X231486754Y-80062237D01*
X231512712Y-80073794D01*
X231598966Y-80092128D01*
X231693056Y-80112128D01*
X231693061Y-80112128D01*
X231699513Y-80113500D01*
X231890487Y-80113500D01*
X231896939Y-80112128D01*
X231896944Y-80112128D01*
X231991034Y-80092128D01*
X232077288Y-80073794D01*
X232103246Y-80062237D01*
X232245722Y-79998803D01*
X232245724Y-79998802D01*
X232251752Y-79996118D01*
X232335296Y-79935420D01*
X232402160Y-79911563D01*
X232471312Y-79927643D01*
X232483413Y-79935420D01*
X232505632Y-79951563D01*
X232601354Y-80021109D01*
X232608248Y-80026118D01*
X232614276Y-80028802D01*
X232614278Y-80028803D01*
X232759591Y-80093500D01*
X232782712Y-80103794D01*
X232868966Y-80122128D01*
X232963056Y-80142128D01*
X232963061Y-80142128D01*
X232969513Y-80143500D01*
X233160487Y-80143500D01*
X233166939Y-80142128D01*
X233166944Y-80142128D01*
X233261034Y-80122128D01*
X233347288Y-80103794D01*
X233370409Y-80093500D01*
X233515722Y-80028803D01*
X233515724Y-80028802D01*
X233521752Y-80026118D01*
X233528647Y-80021109D01*
X233591530Y-79975421D01*
X233676253Y-79913866D01*
X233723347Y-79861563D01*
X233799621Y-79776852D01*
X233799622Y-79776851D01*
X233804040Y-79771944D01*
X233880899Y-79638821D01*
X233896223Y-79612279D01*
X233896224Y-79612278D01*
X233899527Y-79606556D01*
X233958542Y-79424928D01*
X233960104Y-79410072D01*
X233977814Y-79241565D01*
X233978504Y-79235000D01*
X233965249Y-79108882D01*
X233959232Y-79051635D01*
X233959232Y-79051633D01*
X233958542Y-79045072D01*
X233899527Y-78863444D01*
X233882207Y-78833444D01*
X233850696Y-78778866D01*
X233804040Y-78698056D01*
X233782177Y-78673774D01*
X233680675Y-78561045D01*
X233680674Y-78561044D01*
X233676253Y-78556134D01*
X233574708Y-78482357D01*
X233527094Y-78447763D01*
X233527093Y-78447762D01*
X233521752Y-78443882D01*
X233515724Y-78441198D01*
X233515722Y-78441197D01*
X233353319Y-78368891D01*
X233353318Y-78368891D01*
X233347288Y-78366206D01*
X233246741Y-78344834D01*
X233166944Y-78327872D01*
X233166939Y-78327872D01*
X233160487Y-78326500D01*
X232969513Y-78326500D01*
X232963061Y-78327872D01*
X232963056Y-78327872D01*
X232883259Y-78344834D01*
X232782712Y-78366206D01*
X232776682Y-78368891D01*
X232776681Y-78368891D01*
X232614278Y-78441197D01*
X232614276Y-78441198D01*
X232608248Y-78443882D01*
X232524704Y-78504580D01*
X232457840Y-78528437D01*
X232388688Y-78512357D01*
X232376585Y-78504579D01*
X232368132Y-78498437D01*
X232318472Y-78462357D01*
X232257094Y-78417763D01*
X232257093Y-78417762D01*
X232251752Y-78413882D01*
X232245724Y-78411198D01*
X232245722Y-78411197D01*
X232083319Y-78338891D01*
X232083318Y-78338891D01*
X232077288Y-78336206D01*
X231976741Y-78314834D01*
X231896944Y-78297872D01*
X231896939Y-78297872D01*
X231890487Y-78296500D01*
X231699513Y-78296500D01*
X231693061Y-78297872D01*
X231693056Y-78297872D01*
X231613259Y-78314834D01*
X231512712Y-78336206D01*
X231506682Y-78338891D01*
X231506681Y-78338891D01*
X231344278Y-78411197D01*
X231344276Y-78411198D01*
X231338248Y-78413882D01*
X231332907Y-78417762D01*
X231332906Y-78417763D01*
X231309761Y-78434579D01*
X231185887Y-78524580D01*
X231119021Y-78548437D01*
X231049869Y-78532357D01*
X231037766Y-78524579D01*
X231036195Y-78523437D01*
X230981752Y-78483882D01*
X230975724Y-78481198D01*
X230975722Y-78481197D01*
X230813319Y-78408891D01*
X230813318Y-78408891D01*
X230807288Y-78406206D01*
X230713887Y-78386353D01*
X230626944Y-78367872D01*
X230626939Y-78367872D01*
X230620487Y-78366500D01*
X230429513Y-78366500D01*
X230423061Y-78367872D01*
X230423056Y-78367872D01*
X230336113Y-78386353D01*
X230242712Y-78406206D01*
X230236682Y-78408891D01*
X230236681Y-78408891D01*
X230074278Y-78481197D01*
X230074276Y-78481198D01*
X230068248Y-78483882D01*
X229984704Y-78544580D01*
X229917840Y-78568437D01*
X229848688Y-78552357D01*
X229836585Y-78544579D01*
X229828132Y-78538437D01*
X229774279Y-78499311D01*
X229717094Y-78457763D01*
X229717093Y-78457762D01*
X229711752Y-78453882D01*
X229705724Y-78451198D01*
X229705722Y-78451197D01*
X229543319Y-78378891D01*
X229543318Y-78378891D01*
X229537288Y-78376206D01*
X229437936Y-78355088D01*
X229356944Y-78337872D01*
X229356939Y-78337872D01*
X229350487Y-78336500D01*
X229159513Y-78336500D01*
X229153061Y-78337872D01*
X229153056Y-78337872D01*
X229072064Y-78355088D01*
X228972712Y-78376206D01*
X228966682Y-78378891D01*
X228966681Y-78378891D01*
X228804278Y-78451197D01*
X228804276Y-78451198D01*
X228798248Y-78453882D01*
X228714704Y-78514580D01*
X228647840Y-78538437D01*
X228578688Y-78522357D01*
X228566585Y-78514579D01*
X228545940Y-78499579D01*
X228507369Y-78471556D01*
X228447094Y-78427763D01*
X228447093Y-78427762D01*
X228441752Y-78423882D01*
X228435724Y-78421198D01*
X228435722Y-78421197D01*
X228273319Y-78348891D01*
X228273318Y-78348891D01*
X228267288Y-78346206D01*
X228173888Y-78326353D01*
X228086944Y-78307872D01*
X228086939Y-78307872D01*
X228080487Y-78306500D01*
X227889513Y-78306500D01*
X227883061Y-78307872D01*
X227883056Y-78307872D01*
X227796112Y-78326353D01*
X227702712Y-78346206D01*
X227696682Y-78348891D01*
X227696681Y-78348891D01*
X227534278Y-78421197D01*
X227534276Y-78421198D01*
X227528248Y-78423882D01*
X227522907Y-78427762D01*
X227522906Y-78427763D01*
X227508215Y-78438437D01*
X227424060Y-78499579D01*
X227357194Y-78523437D01*
X227288042Y-78507357D01*
X227275944Y-78499582D01*
X227191785Y-78438437D01*
X227177094Y-78427763D01*
X227177093Y-78427762D01*
X227171752Y-78423882D01*
X227165724Y-78421198D01*
X227165722Y-78421197D01*
X227003319Y-78348891D01*
X227003318Y-78348891D01*
X226997288Y-78346206D01*
X226903888Y-78326353D01*
X226816944Y-78307872D01*
X226816939Y-78307872D01*
X226810487Y-78306500D01*
X226619513Y-78306500D01*
X226613061Y-78307872D01*
X226613056Y-78307872D01*
X226526112Y-78326353D01*
X226432712Y-78346206D01*
X226426682Y-78348891D01*
X226426681Y-78348891D01*
X226264278Y-78421197D01*
X226264276Y-78421198D01*
X226258248Y-78423882D01*
X226252907Y-78427762D01*
X226252906Y-78427763D01*
X226192631Y-78471556D01*
X226154061Y-78499579D01*
X226133415Y-78514579D01*
X226066548Y-78538437D01*
X225997396Y-78522357D01*
X225985309Y-78514590D01*
X225901752Y-78453882D01*
X225895724Y-78451198D01*
X225895722Y-78451197D01*
X225733319Y-78378891D01*
X225733318Y-78378891D01*
X225727288Y-78376206D01*
X225627936Y-78355088D01*
X225546944Y-78337872D01*
X225546939Y-78337872D01*
X225540487Y-78336500D01*
X225349513Y-78336500D01*
X225343061Y-78337872D01*
X225343056Y-78337872D01*
X225262064Y-78355088D01*
X225162712Y-78376206D01*
X225156682Y-78378891D01*
X225156681Y-78378891D01*
X224994278Y-78451197D01*
X224994276Y-78451198D01*
X224988248Y-78453882D01*
X224982907Y-78457762D01*
X224982906Y-78457763D01*
X224968215Y-78468437D01*
X224833747Y-78566134D01*
X224829326Y-78571044D01*
X224829325Y-78571045D01*
X224736828Y-78673774D01*
X224705960Y-78708056D01*
X224691044Y-78733891D01*
X224616247Y-78863444D01*
X224610473Y-78873444D01*
X224551458Y-79055072D01*
X224550768Y-79061633D01*
X224550768Y-79061635D01*
X224534004Y-79221134D01*
X224531496Y-79245000D01*
X218432742Y-79245000D01*
X218411253Y-79221134D01*
X218256752Y-79108882D01*
X218250724Y-79106198D01*
X218250722Y-79106197D01*
X218088319Y-79033891D01*
X218088318Y-79033891D01*
X218082288Y-79031206D01*
X217988888Y-79011353D01*
X217901944Y-78992872D01*
X217901939Y-78992872D01*
X217895487Y-78991500D01*
X217704513Y-78991500D01*
X217698061Y-78992872D01*
X217698056Y-78992872D01*
X217611112Y-79011353D01*
X217517712Y-79031206D01*
X217511682Y-79033891D01*
X217511681Y-79033891D01*
X217349278Y-79106197D01*
X217349276Y-79106198D01*
X217343248Y-79108882D01*
X217188747Y-79221134D01*
X217060960Y-79363056D01*
X216965473Y-79528444D01*
X216963432Y-79534726D01*
X216949830Y-79576588D01*
X216909756Y-79635193D01*
X216844359Y-79662830D01*
X216807901Y-79661698D01*
X216699746Y-79642433D01*
X216590173Y-79622915D01*
X216504179Y-79621864D01*
X216368681Y-79620208D01*
X216368679Y-79620208D01*
X216363511Y-79620145D01*
X216139441Y-79654433D01*
X215923979Y-79724857D01*
X215919391Y-79727245D01*
X215919387Y-79727247D01*
X215755633Y-79812492D01*
X215722913Y-79829525D01*
X215718780Y-79832628D01*
X215718777Y-79832630D01*
X215557306Y-79953866D01*
X215541641Y-79965628D01*
X215488622Y-80021109D01*
X215389585Y-80124746D01*
X215385033Y-80129509D01*
X215382119Y-80133781D01*
X215382118Y-80133782D01*
X215293645Y-80263479D01*
X215238734Y-80308482D01*
X215168209Y-80316653D01*
X215104462Y-80285399D01*
X215083767Y-80260918D01*
X215015914Y-80156033D01*
X214863356Y-79988374D01*
X214859305Y-79985175D01*
X214859301Y-79985171D01*
X214689519Y-79851085D01*
X214689515Y-79851083D01*
X214685464Y-79847883D01*
X214674016Y-79841563D01*
X214621353Y-79812492D01*
X214487015Y-79738334D01*
X214482146Y-79736610D01*
X214482142Y-79736608D01*
X214278214Y-79664393D01*
X214278210Y-79664392D01*
X214273339Y-79662667D01*
X214268246Y-79661760D01*
X214268243Y-79661759D01*
X214195832Y-79648861D01*
X214050173Y-79622915D01*
X213964179Y-79621864D01*
X213828681Y-79620208D01*
X213828679Y-79620208D01*
X213823511Y-79620145D01*
X213599441Y-79654433D01*
X213383979Y-79724857D01*
X213379391Y-79727245D01*
X213379387Y-79727247D01*
X213215633Y-79812492D01*
X213182913Y-79829525D01*
X213178780Y-79832628D01*
X213178777Y-79832630D01*
X213017306Y-79953866D01*
X213001641Y-79965628D01*
X212948622Y-80021109D01*
X212849585Y-80124746D01*
X212845033Y-80129509D01*
X212842119Y-80133781D01*
X212842118Y-80133782D01*
X212753645Y-80263479D01*
X212698734Y-80308482D01*
X212628209Y-80316653D01*
X212564462Y-80285399D01*
X212543767Y-80260918D01*
X212475914Y-80156033D01*
X212323356Y-79988374D01*
X212319305Y-79985175D01*
X212319301Y-79985171D01*
X212149519Y-79851085D01*
X212149515Y-79851083D01*
X212145464Y-79847883D01*
X212134016Y-79841563D01*
X212081353Y-79812492D01*
X211947015Y-79738334D01*
X211942146Y-79736610D01*
X211942142Y-79736608D01*
X211738214Y-79664393D01*
X211738210Y-79664392D01*
X211733339Y-79662667D01*
X211728246Y-79661760D01*
X211728243Y-79661759D01*
X211655832Y-79648861D01*
X211510173Y-79622915D01*
X211424179Y-79621864D01*
X211288681Y-79620208D01*
X211288679Y-79620208D01*
X211283511Y-79620145D01*
X211059441Y-79654433D01*
X210843979Y-79724857D01*
X210839391Y-79727245D01*
X210839387Y-79727247D01*
X210675633Y-79812492D01*
X210642913Y-79829525D01*
X210638780Y-79832628D01*
X210638777Y-79832630D01*
X210477306Y-79953866D01*
X210461641Y-79965628D01*
X210408622Y-80021109D01*
X210309585Y-80124746D01*
X210305033Y-80129509D01*
X210302119Y-80133781D01*
X210302118Y-80133782D01*
X210213645Y-80263479D01*
X210158734Y-80308482D01*
X210088209Y-80316653D01*
X210024462Y-80285399D01*
X210003767Y-80260918D01*
X209935914Y-80156033D01*
X209783356Y-79988374D01*
X209779305Y-79985175D01*
X209779301Y-79985171D01*
X209609519Y-79851085D01*
X209609515Y-79851083D01*
X209605464Y-79847883D01*
X209594016Y-79841563D01*
X209541353Y-79812492D01*
X209407015Y-79738334D01*
X209402146Y-79736610D01*
X209402142Y-79736608D01*
X209198214Y-79664393D01*
X209198210Y-79664392D01*
X209193339Y-79662667D01*
X209188246Y-79661760D01*
X209188243Y-79661759D01*
X209115832Y-79648861D01*
X208970173Y-79622915D01*
X208884179Y-79621864D01*
X208748681Y-79620208D01*
X208748679Y-79620208D01*
X208743511Y-79620145D01*
X208519441Y-79654433D01*
X208303979Y-79724857D01*
X208299391Y-79727245D01*
X208299387Y-79727247D01*
X208135633Y-79812492D01*
X208102913Y-79829525D01*
X208098780Y-79832628D01*
X208098777Y-79832630D01*
X207937306Y-79953866D01*
X207921641Y-79965628D01*
X207868622Y-80021109D01*
X207769585Y-80124746D01*
X207765033Y-80129509D01*
X207762119Y-80133781D01*
X207762118Y-80133782D01*
X207673645Y-80263479D01*
X207618734Y-80308482D01*
X207548209Y-80316653D01*
X207484462Y-80285399D01*
X207463767Y-80260918D01*
X207395914Y-80156033D01*
X207243356Y-79988374D01*
X207239305Y-79985175D01*
X207239301Y-79985171D01*
X207069519Y-79851085D01*
X207069515Y-79851083D01*
X207065464Y-79847883D01*
X207054016Y-79841563D01*
X207001353Y-79812492D01*
X206867015Y-79738334D01*
X206862146Y-79736610D01*
X206862142Y-79736608D01*
X206658214Y-79664393D01*
X206658210Y-79664392D01*
X206653339Y-79662667D01*
X206648246Y-79661760D01*
X206648243Y-79661759D01*
X206575832Y-79648861D01*
X206430173Y-79622915D01*
X206344179Y-79621864D01*
X206208681Y-79620208D01*
X206208679Y-79620208D01*
X206203511Y-79620145D01*
X205979441Y-79654433D01*
X205763979Y-79724857D01*
X205759391Y-79727245D01*
X205759387Y-79727247D01*
X205595633Y-79812492D01*
X205562913Y-79829525D01*
X205558780Y-79832628D01*
X205558777Y-79832630D01*
X205397306Y-79953866D01*
X205381641Y-79965628D01*
X205328622Y-80021109D01*
X205229585Y-80124746D01*
X205225033Y-80129509D01*
X205222119Y-80133781D01*
X205222118Y-80133782D01*
X205133645Y-80263479D01*
X205078734Y-80308482D01*
X205008209Y-80316653D01*
X204944462Y-80285399D01*
X204923767Y-80260918D01*
X204855914Y-80156033D01*
X204703356Y-79988374D01*
X204699305Y-79985175D01*
X204699301Y-79985171D01*
X204529519Y-79851085D01*
X204529515Y-79851083D01*
X204525464Y-79847883D01*
X204514016Y-79841563D01*
X204461353Y-79812492D01*
X204327015Y-79738334D01*
X204322146Y-79736610D01*
X204322142Y-79736608D01*
X204118214Y-79664393D01*
X204118210Y-79664392D01*
X204113339Y-79662667D01*
X204108246Y-79661760D01*
X204108243Y-79661759D01*
X204035832Y-79648861D01*
X203890173Y-79622915D01*
X203804179Y-79621864D01*
X203668681Y-79620208D01*
X203668679Y-79620208D01*
X203663511Y-79620145D01*
X203439441Y-79654433D01*
X203223979Y-79724857D01*
X203219391Y-79727245D01*
X203219387Y-79727247D01*
X203055633Y-79812492D01*
X203022913Y-79829525D01*
X203018780Y-79832628D01*
X203018777Y-79832630D01*
X202857306Y-79953866D01*
X202841641Y-79965628D01*
X202788622Y-80021109D01*
X202689585Y-80124746D01*
X202685033Y-80129509D01*
X202682119Y-80133781D01*
X202682118Y-80133782D01*
X202593645Y-80263479D01*
X202538734Y-80308482D01*
X202468209Y-80316653D01*
X202404462Y-80285399D01*
X202383767Y-80260918D01*
X202315914Y-80156033D01*
X202163356Y-79988374D01*
X202159305Y-79985175D01*
X202159301Y-79985171D01*
X201989519Y-79851085D01*
X201989515Y-79851083D01*
X201985464Y-79847883D01*
X201974016Y-79841563D01*
X201921353Y-79812492D01*
X201787015Y-79738334D01*
X201782146Y-79736610D01*
X201782142Y-79736608D01*
X201578214Y-79664393D01*
X201578210Y-79664392D01*
X201573339Y-79662667D01*
X201568246Y-79661760D01*
X201568243Y-79661759D01*
X201495832Y-79648861D01*
X201350173Y-79622915D01*
X201264179Y-79621864D01*
X201128681Y-79620208D01*
X201128679Y-79620208D01*
X201123511Y-79620145D01*
X200899441Y-79654433D01*
X200683979Y-79724857D01*
X200679391Y-79727245D01*
X200679387Y-79727247D01*
X200515633Y-79812492D01*
X200482913Y-79829525D01*
X200478780Y-79832628D01*
X200478777Y-79832630D01*
X200317306Y-79953866D01*
X200301641Y-79965628D01*
X200248622Y-80021109D01*
X200149585Y-80124746D01*
X200145033Y-80129509D01*
X200142119Y-80133781D01*
X200142118Y-80133782D01*
X200053645Y-80263479D01*
X199998734Y-80308482D01*
X199928209Y-80316653D01*
X199864462Y-80285399D01*
X199843767Y-80260918D01*
X199775914Y-80156033D01*
X199623356Y-79988374D01*
X199619305Y-79985175D01*
X199619301Y-79985171D01*
X199449519Y-79851085D01*
X199449515Y-79851083D01*
X199445464Y-79847883D01*
X199434016Y-79841563D01*
X199381353Y-79812492D01*
X199247015Y-79738334D01*
X199242146Y-79736610D01*
X199242142Y-79736608D01*
X199038214Y-79664393D01*
X199038210Y-79664392D01*
X199033339Y-79662667D01*
X199028246Y-79661760D01*
X199028243Y-79661759D01*
X198955832Y-79648861D01*
X198810173Y-79622915D01*
X198724179Y-79621864D01*
X198588681Y-79620208D01*
X198588679Y-79620208D01*
X198583511Y-79620145D01*
X198359441Y-79654433D01*
X198143979Y-79724857D01*
X198139391Y-79727245D01*
X198139387Y-79727247D01*
X197975633Y-79812492D01*
X197942913Y-79829525D01*
X197938780Y-79832628D01*
X197938777Y-79832630D01*
X197777306Y-79953866D01*
X197761641Y-79965628D01*
X197708622Y-80021109D01*
X197609585Y-80124746D01*
X197605033Y-80129509D01*
X197602119Y-80133781D01*
X197602118Y-80133782D01*
X197513645Y-80263479D01*
X197458734Y-80308482D01*
X197388209Y-80316653D01*
X197324462Y-80285399D01*
X197303767Y-80260918D01*
X197235914Y-80156033D01*
X197083356Y-79988374D01*
X197079305Y-79985175D01*
X197079301Y-79985171D01*
X196909519Y-79851085D01*
X196909515Y-79851083D01*
X196905464Y-79847883D01*
X196894016Y-79841563D01*
X196841353Y-79812492D01*
X196707015Y-79738334D01*
X196702146Y-79736610D01*
X196702142Y-79736608D01*
X196498214Y-79664393D01*
X196498210Y-79664392D01*
X196493339Y-79662667D01*
X196488246Y-79661760D01*
X196488243Y-79661759D01*
X196415832Y-79648861D01*
X196270173Y-79622915D01*
X196184179Y-79621864D01*
X196048681Y-79620208D01*
X196048679Y-79620208D01*
X196043511Y-79620145D01*
X195819441Y-79654433D01*
X195603979Y-79724857D01*
X195599391Y-79727245D01*
X195599387Y-79727247D01*
X195435633Y-79812492D01*
X195402913Y-79829525D01*
X195398780Y-79832628D01*
X195398777Y-79832630D01*
X195237306Y-79953866D01*
X195221641Y-79965628D01*
X195168622Y-80021109D01*
X195069585Y-80124746D01*
X195065033Y-80129509D01*
X195062119Y-80133781D01*
X195062118Y-80133782D01*
X194973645Y-80263479D01*
X194918734Y-80308482D01*
X194848209Y-80316653D01*
X194784462Y-80285399D01*
X194763767Y-80260918D01*
X194695914Y-80156033D01*
X194543356Y-79988374D01*
X194539305Y-79985175D01*
X194539301Y-79985171D01*
X194369519Y-79851085D01*
X194369515Y-79851083D01*
X194365464Y-79847883D01*
X194354016Y-79841563D01*
X194301353Y-79812492D01*
X194167015Y-79738334D01*
X194162146Y-79736610D01*
X194162142Y-79736608D01*
X193958214Y-79664393D01*
X193958210Y-79664392D01*
X193953339Y-79662667D01*
X193948246Y-79661760D01*
X193948243Y-79661759D01*
X193875832Y-79648861D01*
X193730173Y-79622915D01*
X193644179Y-79621864D01*
X193508681Y-79620208D01*
X193508679Y-79620208D01*
X193503511Y-79620145D01*
X193279441Y-79654433D01*
X193063979Y-79724857D01*
X193059391Y-79727245D01*
X193059387Y-79727247D01*
X192895633Y-79812492D01*
X192862913Y-79829525D01*
X192858780Y-79832628D01*
X192858777Y-79832630D01*
X192697306Y-79953866D01*
X192681641Y-79965628D01*
X192628622Y-80021109D01*
X192529585Y-80124746D01*
X192525033Y-80129509D01*
X192522119Y-80133781D01*
X192522118Y-80133782D01*
X192433645Y-80263479D01*
X192378734Y-80308482D01*
X192308209Y-80316653D01*
X192244462Y-80285399D01*
X192223767Y-80260918D01*
X192155914Y-80156033D01*
X192003356Y-79988374D01*
X191999305Y-79985175D01*
X191999301Y-79985171D01*
X191829519Y-79851085D01*
X191829515Y-79851083D01*
X191825464Y-79847883D01*
X191814016Y-79841563D01*
X191761353Y-79812492D01*
X191627015Y-79738334D01*
X191622146Y-79736610D01*
X191622142Y-79736608D01*
X191418214Y-79664393D01*
X191418210Y-79664392D01*
X191413339Y-79662667D01*
X191408246Y-79661760D01*
X191408243Y-79661759D01*
X191335832Y-79648861D01*
X191190173Y-79622915D01*
X191104179Y-79621864D01*
X190968681Y-79620208D01*
X190968679Y-79620208D01*
X190963511Y-79620145D01*
X190739441Y-79654433D01*
X190523979Y-79724857D01*
X190519391Y-79727245D01*
X190519387Y-79727247D01*
X190355633Y-79812492D01*
X190322913Y-79829525D01*
X190318780Y-79832628D01*
X190318777Y-79832630D01*
X190157306Y-79953866D01*
X190141641Y-79965628D01*
X190088622Y-80021109D01*
X189989585Y-80124746D01*
X189985033Y-80129509D01*
X189982119Y-80133781D01*
X189982118Y-80133782D01*
X189893645Y-80263479D01*
X189838734Y-80308482D01*
X189768209Y-80316653D01*
X189704462Y-80285399D01*
X189683767Y-80260918D01*
X189615914Y-80156033D01*
X189463356Y-79988374D01*
X189459305Y-79985175D01*
X189459301Y-79985171D01*
X189289519Y-79851085D01*
X189289515Y-79851083D01*
X189285464Y-79847883D01*
X189274016Y-79841563D01*
X189221353Y-79812492D01*
X189087015Y-79738334D01*
X189082146Y-79736610D01*
X189082142Y-79736608D01*
X188878214Y-79664393D01*
X188878210Y-79664392D01*
X188873339Y-79662667D01*
X188868246Y-79661760D01*
X188868243Y-79661759D01*
X188795832Y-79648861D01*
X188650173Y-79622915D01*
X188564179Y-79621864D01*
X188428681Y-79620208D01*
X188428679Y-79620208D01*
X188423511Y-79620145D01*
X188199441Y-79654433D01*
X187983979Y-79724857D01*
X187979391Y-79727245D01*
X187979387Y-79727247D01*
X187815633Y-79812492D01*
X187782913Y-79829525D01*
X187778780Y-79832628D01*
X187778777Y-79832630D01*
X187617306Y-79953866D01*
X187601641Y-79965628D01*
X187548622Y-80021109D01*
X187449585Y-80124746D01*
X187445033Y-80129509D01*
X187442119Y-80133781D01*
X187442118Y-80133782D01*
X187353645Y-80263479D01*
X187298734Y-80308482D01*
X187228209Y-80316653D01*
X187164462Y-80285399D01*
X187143767Y-80260918D01*
X187075914Y-80156033D01*
X186923356Y-79988374D01*
X186919305Y-79985175D01*
X186919301Y-79985171D01*
X186749519Y-79851085D01*
X186749515Y-79851083D01*
X186745464Y-79847883D01*
X186734016Y-79841563D01*
X186681353Y-79812492D01*
X186547015Y-79738334D01*
X186542146Y-79736610D01*
X186542142Y-79736608D01*
X186338214Y-79664393D01*
X186338210Y-79664392D01*
X186333339Y-79662667D01*
X186328246Y-79661760D01*
X186328243Y-79661759D01*
X186255832Y-79648861D01*
X186110173Y-79622915D01*
X186024179Y-79621864D01*
X185888681Y-79620208D01*
X185888679Y-79620208D01*
X185883511Y-79620145D01*
X185659441Y-79654433D01*
X185443979Y-79724857D01*
X185439391Y-79727245D01*
X185439387Y-79727247D01*
X185275633Y-79812492D01*
X185242913Y-79829525D01*
X185238780Y-79832628D01*
X185238777Y-79832630D01*
X185077306Y-79953866D01*
X185061641Y-79965628D01*
X185008622Y-80021109D01*
X184909585Y-80124746D01*
X184905033Y-80129509D01*
X184902119Y-80133781D01*
X184902118Y-80133782D01*
X184813645Y-80263479D01*
X184758734Y-80308482D01*
X184688209Y-80316653D01*
X184624462Y-80285399D01*
X184603767Y-80260918D01*
X184535914Y-80156033D01*
X184383356Y-79988374D01*
X184379305Y-79985175D01*
X184379301Y-79985171D01*
X184209519Y-79851085D01*
X184209515Y-79851083D01*
X184205464Y-79847883D01*
X184194016Y-79841563D01*
X184141353Y-79812492D01*
X184007015Y-79738334D01*
X184002140Y-79736608D01*
X183997424Y-79734488D01*
X183998005Y-79733196D01*
X183945748Y-79695415D01*
X183919836Y-79629316D01*
X183933773Y-79559701D01*
X183951707Y-79533937D01*
X184039040Y-79436944D01*
X184113197Y-79308500D01*
X184131223Y-79277279D01*
X184131224Y-79277278D01*
X184134527Y-79271556D01*
X184193542Y-79089928D01*
X184195766Y-79068774D01*
X184212814Y-78906565D01*
X184213504Y-78900000D01*
X184201181Y-78782749D01*
X184194232Y-78716635D01*
X184194232Y-78716633D01*
X184193542Y-78710072D01*
X184142297Y-78552357D01*
X184136568Y-78534725D01*
X184136567Y-78534724D01*
X184134527Y-78528444D01*
X184131223Y-78522721D01*
X184130903Y-78522002D01*
X184121468Y-78451635D01*
X184145644Y-78400000D01*
X197086496Y-78400000D01*
X197087186Y-78406565D01*
X197105153Y-78577508D01*
X197106458Y-78589928D01*
X197165473Y-78771556D01*
X197260960Y-78936944D01*
X197388747Y-79078866D01*
X197543248Y-79191118D01*
X197549276Y-79193802D01*
X197549278Y-79193803D01*
X197709799Y-79265271D01*
X197717712Y-79268794D01*
X197811112Y-79288647D01*
X197898056Y-79307128D01*
X197898061Y-79307128D01*
X197904513Y-79308500D01*
X198095487Y-79308500D01*
X198101939Y-79307128D01*
X198101944Y-79307128D01*
X198188887Y-79288647D01*
X198282288Y-79268794D01*
X198290201Y-79265271D01*
X198450722Y-79193803D01*
X198450724Y-79193802D01*
X198456752Y-79191118D01*
X198611253Y-79078866D01*
X198739040Y-78936944D01*
X198834527Y-78771556D01*
X198893542Y-78589928D01*
X198894848Y-78577508D01*
X198912814Y-78406565D01*
X198913504Y-78400000D01*
X198909142Y-78358499D01*
X198894232Y-78216635D01*
X198894232Y-78216633D01*
X198893542Y-78210072D01*
X198857777Y-78100000D01*
X199686496Y-78100000D01*
X199687186Y-78106565D01*
X199705047Y-78276500D01*
X199706458Y-78289928D01*
X199765473Y-78471556D01*
X199768776Y-78477278D01*
X199768777Y-78477279D01*
X199790312Y-78514579D01*
X199860960Y-78636944D01*
X199865378Y-78641851D01*
X199865379Y-78641852D01*
X199915985Y-78698056D01*
X199988747Y-78778866D01*
X200143248Y-78891118D01*
X200149276Y-78893802D01*
X200149278Y-78893803D01*
X200233332Y-78931226D01*
X200317712Y-78968794D01*
X200411113Y-78988647D01*
X200498056Y-79007128D01*
X200498061Y-79007128D01*
X200504513Y-79008500D01*
X200695487Y-79008500D01*
X200701939Y-79007128D01*
X200701944Y-79007128D01*
X200788888Y-78988647D01*
X200882288Y-78968794D01*
X200966668Y-78931226D01*
X201050722Y-78893803D01*
X201050724Y-78893802D01*
X201056752Y-78891118D01*
X201211253Y-78778866D01*
X201284015Y-78698056D01*
X201334621Y-78641852D01*
X201334622Y-78641851D01*
X201339040Y-78636944D01*
X201409688Y-78514579D01*
X201431223Y-78477279D01*
X201431224Y-78477278D01*
X201434527Y-78471556D01*
X201493542Y-78289928D01*
X201494954Y-78276500D01*
X201512814Y-78106565D01*
X201513504Y-78100000D01*
X201501181Y-77982749D01*
X201494232Y-77916635D01*
X201494232Y-77916633D01*
X201493542Y-77910072D01*
X201434527Y-77728444D01*
X201424122Y-77710421D01*
X201365498Y-77608882D01*
X201339040Y-77563056D01*
X201211253Y-77421134D01*
X201056752Y-77308882D01*
X201050724Y-77306198D01*
X201050722Y-77306197D01*
X200888319Y-77233891D01*
X200888318Y-77233891D01*
X200882288Y-77231206D01*
X200788888Y-77211353D01*
X200701944Y-77192872D01*
X200701939Y-77192872D01*
X200695487Y-77191500D01*
X200504513Y-77191500D01*
X200498061Y-77192872D01*
X200498056Y-77192872D01*
X200411113Y-77211353D01*
X200317712Y-77231206D01*
X200311682Y-77233891D01*
X200311681Y-77233891D01*
X200149278Y-77306197D01*
X200149276Y-77306198D01*
X200143248Y-77308882D01*
X199988747Y-77421134D01*
X199860960Y-77563056D01*
X199834502Y-77608882D01*
X199775879Y-77710421D01*
X199765473Y-77728444D01*
X199706458Y-77910072D01*
X199705768Y-77916633D01*
X199705768Y-77916635D01*
X199698819Y-77982749D01*
X199686496Y-78100000D01*
X198857777Y-78100000D01*
X198834527Y-78028444D01*
X198819215Y-78001922D01*
X198771051Y-77918500D01*
X198739040Y-77863056D01*
X198685689Y-77803803D01*
X198615675Y-77726045D01*
X198615674Y-77726044D01*
X198611253Y-77721134D01*
X198456752Y-77608882D01*
X198450724Y-77606198D01*
X198450722Y-77606197D01*
X198288319Y-77533891D01*
X198288318Y-77533891D01*
X198282288Y-77531206D01*
X198188887Y-77511353D01*
X198101944Y-77492872D01*
X198101939Y-77492872D01*
X198095487Y-77491500D01*
X197904513Y-77491500D01*
X197898061Y-77492872D01*
X197898056Y-77492872D01*
X197811113Y-77511353D01*
X197717712Y-77531206D01*
X197711682Y-77533891D01*
X197711681Y-77533891D01*
X197549278Y-77606197D01*
X197549276Y-77606198D01*
X197543248Y-77608882D01*
X197388747Y-77721134D01*
X197384326Y-77726044D01*
X197384325Y-77726045D01*
X197314312Y-77803803D01*
X197260960Y-77863056D01*
X197228949Y-77918500D01*
X197180786Y-78001922D01*
X197165473Y-78028444D01*
X197106458Y-78210072D01*
X197105768Y-78216633D01*
X197105768Y-78216635D01*
X197090858Y-78358499D01*
X197086496Y-78400000D01*
X184145644Y-78400000D01*
X184151573Y-78387338D01*
X184211662Y-78349524D01*
X184219812Y-78347505D01*
X184350682Y-78319688D01*
X184363159Y-78315634D01*
X184525471Y-78243368D01*
X184536843Y-78236802D01*
X184555187Y-78223474D01*
X184622054Y-78199616D01*
X184694517Y-78217634D01*
X184831301Y-78300472D01*
X184838548Y-78302743D01*
X184838550Y-78302744D01*
X184881508Y-78316206D01*
X184994938Y-78351753D01*
X185068365Y-78358500D01*
X185071263Y-78358500D01*
X185325665Y-78358499D01*
X185581634Y-78358499D01*
X185584492Y-78358236D01*
X185584501Y-78358236D01*
X185620004Y-78354974D01*
X185655062Y-78351753D01*
X185664195Y-78348891D01*
X185811450Y-78302744D01*
X185811452Y-78302743D01*
X185818699Y-78300472D01*
X185965381Y-78211639D01*
X186086639Y-78090381D01*
X186175472Y-77943699D01*
X186183954Y-77916635D01*
X186220154Y-77801118D01*
X186226753Y-77780062D01*
X186233500Y-77706635D01*
X186233499Y-77010000D01*
X191196496Y-77010000D01*
X191216458Y-77199928D01*
X191275473Y-77381556D01*
X191278776Y-77387278D01*
X191278777Y-77387279D01*
X191298323Y-77421134D01*
X191370960Y-77546944D01*
X191375378Y-77551851D01*
X191375379Y-77551852D01*
X191448680Y-77633261D01*
X191498747Y-77688866D01*
X191553221Y-77728444D01*
X191634143Y-77787237D01*
X191653248Y-77801118D01*
X191659276Y-77803802D01*
X191659278Y-77803803D01*
X191821681Y-77876109D01*
X191827712Y-77878794D01*
X191917090Y-77897792D01*
X192008056Y-77917128D01*
X192008061Y-77917128D01*
X192014513Y-77918500D01*
X192205487Y-77918500D01*
X192211939Y-77917128D01*
X192211944Y-77917128D01*
X192302910Y-77897792D01*
X192392288Y-77878794D01*
X192398319Y-77876109D01*
X192560722Y-77803803D01*
X192560724Y-77803802D01*
X192566752Y-77801118D01*
X192585858Y-77787237D01*
X192666779Y-77728444D01*
X192721253Y-77688866D01*
X192771320Y-77633261D01*
X192844621Y-77551852D01*
X192844622Y-77551851D01*
X192849040Y-77546944D01*
X192898768Y-77460813D01*
X192950151Y-77411820D01*
X193019864Y-77398384D01*
X193085775Y-77424770D01*
X193117005Y-77460812D01*
X193160960Y-77536944D01*
X193165378Y-77541851D01*
X193165379Y-77541852D01*
X193225733Y-77608882D01*
X193288747Y-77678866D01*
X193326968Y-77706635D01*
X193436818Y-77786446D01*
X193443248Y-77791118D01*
X193449276Y-77793802D01*
X193449278Y-77793803D01*
X193604824Y-77863056D01*
X193617712Y-77868794D01*
X193711113Y-77888647D01*
X193798056Y-77907128D01*
X193798061Y-77907128D01*
X193804513Y-77908500D01*
X193995487Y-77908500D01*
X194001939Y-77907128D01*
X194001944Y-77907128D01*
X194088887Y-77888647D01*
X194182288Y-77868794D01*
X194195176Y-77863056D01*
X194350722Y-77793803D01*
X194350724Y-77793802D01*
X194356752Y-77791118D01*
X194363183Y-77786446D01*
X194473032Y-77706635D01*
X194511253Y-77678866D01*
X194574267Y-77608882D01*
X194634621Y-77541852D01*
X194634622Y-77541851D01*
X194639040Y-77536944D01*
X194711281Y-77411820D01*
X194731223Y-77377279D01*
X194731224Y-77377278D01*
X194734527Y-77371556D01*
X194793542Y-77189928D01*
X194794475Y-77181056D01*
X194812814Y-77006565D01*
X194813504Y-77000000D01*
X194811958Y-76985286D01*
X194794232Y-76816635D01*
X194794232Y-76816633D01*
X194793542Y-76810072D01*
X194734527Y-76628444D01*
X194721405Y-76605715D01*
X194665498Y-76508882D01*
X194639040Y-76463056D01*
X194627112Y-76449808D01*
X194582265Y-76400000D01*
X200986496Y-76400000D01*
X200987186Y-76406565D01*
X200993659Y-76468148D01*
X201006458Y-76589928D01*
X201065473Y-76771556D01*
X201160960Y-76936944D01*
X201165378Y-76941851D01*
X201165379Y-76941852D01*
X201211825Y-76993435D01*
X201288747Y-77078866D01*
X201443248Y-77191118D01*
X201449276Y-77193802D01*
X201449278Y-77193803D01*
X201539318Y-77233891D01*
X201617712Y-77268794D01*
X201685200Y-77283139D01*
X201798056Y-77307128D01*
X201798061Y-77307128D01*
X201804513Y-77308500D01*
X201995487Y-77308500D01*
X202001939Y-77307128D01*
X202001944Y-77307128D01*
X202114800Y-77283139D01*
X202182288Y-77268794D01*
X202260682Y-77233891D01*
X202350722Y-77193803D01*
X202350724Y-77193802D01*
X202356752Y-77191118D01*
X202511253Y-77078866D01*
X202588175Y-76993435D01*
X202634621Y-76941852D01*
X202634622Y-76941851D01*
X202639040Y-76936944D01*
X202716996Y-76801921D01*
X214384575Y-76801921D01*
X214385265Y-76808486D01*
X214398534Y-76934729D01*
X214404537Y-76991849D01*
X214463552Y-77173477D01*
X214466855Y-77179199D01*
X214466856Y-77179200D01*
X214482448Y-77206206D01*
X214559039Y-77338865D01*
X214686826Y-77480787D01*
X214841327Y-77593039D01*
X214847355Y-77595723D01*
X214847357Y-77595724D01*
X215009760Y-77668030D01*
X215015791Y-77670715D01*
X215101184Y-77688866D01*
X215196135Y-77709049D01*
X215196140Y-77709049D01*
X215202592Y-77710421D01*
X215393566Y-77710421D01*
X215400018Y-77709049D01*
X215400023Y-77709049D01*
X215494974Y-77688866D01*
X215580367Y-77670715D01*
X215586398Y-77668030D01*
X215748801Y-77595724D01*
X215748803Y-77595723D01*
X215754831Y-77593039D01*
X215909332Y-77480787D01*
X216037119Y-77338865D01*
X216113710Y-77206206D01*
X216129302Y-77179200D01*
X216129303Y-77179199D01*
X216132606Y-77173477D01*
X216191621Y-76991849D01*
X216197625Y-76934729D01*
X216210893Y-76808486D01*
X216211583Y-76801921D01*
X216200174Y-76693366D01*
X216192311Y-76618556D01*
X216192311Y-76618554D01*
X216191621Y-76611993D01*
X216132606Y-76430365D01*
X216037119Y-76264977D01*
X215999110Y-76222763D01*
X215913754Y-76127966D01*
X215913753Y-76127965D01*
X215909332Y-76123055D01*
X215754831Y-76010803D01*
X215748803Y-76008119D01*
X215748801Y-76008118D01*
X215586398Y-75935812D01*
X215586397Y-75935812D01*
X215580367Y-75933127D01*
X215486966Y-75913274D01*
X215400023Y-75894793D01*
X215400018Y-75894793D01*
X215393566Y-75893421D01*
X215202592Y-75893421D01*
X215196140Y-75894793D01*
X215196135Y-75894793D01*
X215109191Y-75913274D01*
X215015791Y-75933127D01*
X215009761Y-75935812D01*
X215009760Y-75935812D01*
X214847357Y-76008118D01*
X214847355Y-76008119D01*
X214841327Y-76010803D01*
X214686826Y-76123055D01*
X214682405Y-76127965D01*
X214682404Y-76127966D01*
X214597049Y-76222763D01*
X214559039Y-76264977D01*
X214463552Y-76430365D01*
X214404537Y-76611993D01*
X214403847Y-76618554D01*
X214403847Y-76618556D01*
X214395984Y-76693366D01*
X214384575Y-76801921D01*
X202716996Y-76801921D01*
X202734527Y-76771556D01*
X202737176Y-76773085D01*
X202774650Y-76729086D01*
X202843671Y-76708500D01*
X202895487Y-76708500D01*
X202901939Y-76707128D01*
X202901944Y-76707128D01*
X203004257Y-76685380D01*
X203082288Y-76668794D01*
X203088319Y-76666109D01*
X203250722Y-76593803D01*
X203250724Y-76593802D01*
X203256752Y-76591118D01*
X203411253Y-76478866D01*
X203508687Y-76370654D01*
X203569132Y-76333416D01*
X203628519Y-76331719D01*
X203748056Y-76357128D01*
X203748061Y-76357128D01*
X203754513Y-76358500D01*
X203945487Y-76358500D01*
X203951939Y-76357128D01*
X203951944Y-76357128D01*
X204063497Y-76333416D01*
X204132288Y-76318794D01*
X204146762Y-76312350D01*
X204300722Y-76243803D01*
X204300724Y-76243802D01*
X204306752Y-76241118D01*
X204332016Y-76222763D01*
X204379365Y-76188361D01*
X204461253Y-76128866D01*
X204484658Y-76102872D01*
X204584621Y-75991852D01*
X204584622Y-75991851D01*
X204589040Y-75986944D01*
X204684527Y-75821556D01*
X204743542Y-75639928D01*
X204763504Y-75450000D01*
X204757190Y-75389928D01*
X204747739Y-75300000D01*
X208886496Y-75300000D01*
X208887186Y-75306565D01*
X208904460Y-75470914D01*
X208906458Y-75489928D01*
X208965473Y-75671556D01*
X209060960Y-75836944D01*
X209188747Y-75978866D01*
X209287843Y-76050864D01*
X209326385Y-76078866D01*
X209343248Y-76091118D01*
X209349276Y-76093802D01*
X209349278Y-76093803D01*
X209505143Y-76163198D01*
X209517712Y-76168794D01*
X209583365Y-76182749D01*
X209698056Y-76207128D01*
X209698061Y-76207128D01*
X209704513Y-76208500D01*
X209895487Y-76208500D01*
X209901939Y-76207128D01*
X209901944Y-76207128D01*
X210016635Y-76182749D01*
X210082288Y-76168794D01*
X210094857Y-76163198D01*
X210250722Y-76093803D01*
X210250724Y-76093802D01*
X210256752Y-76091118D01*
X210273616Y-76078866D01*
X210312157Y-76050864D01*
X210411253Y-75978866D01*
X210539040Y-75836944D01*
X210634527Y-75671556D01*
X210693542Y-75489928D01*
X210695541Y-75470914D01*
X210712814Y-75306565D01*
X210713504Y-75300000D01*
X210703684Y-75206565D01*
X210694232Y-75116635D01*
X210694232Y-75116633D01*
X210693542Y-75110072D01*
X210634527Y-74928444D01*
X210628660Y-74918281D01*
X210596775Y-74863056D01*
X210539040Y-74763056D01*
X210527149Y-74749849D01*
X210415675Y-74626045D01*
X210415674Y-74626044D01*
X210411253Y-74621134D01*
X210280375Y-74526045D01*
X210262094Y-74512763D01*
X210262093Y-74512762D01*
X210256752Y-74508882D01*
X210250724Y-74506198D01*
X210250722Y-74506197D01*
X210088319Y-74433891D01*
X210088318Y-74433891D01*
X210082288Y-74431206D01*
X209988888Y-74411353D01*
X209901944Y-74392872D01*
X209901939Y-74392872D01*
X209895487Y-74391500D01*
X209704513Y-74391500D01*
X209698061Y-74392872D01*
X209698056Y-74392872D01*
X209611112Y-74411353D01*
X209517712Y-74431206D01*
X209511682Y-74433891D01*
X209511681Y-74433891D01*
X209349278Y-74506197D01*
X209349276Y-74506198D01*
X209343248Y-74508882D01*
X209337907Y-74512762D01*
X209337906Y-74512763D01*
X209319625Y-74526045D01*
X209188747Y-74621134D01*
X209184326Y-74626044D01*
X209184325Y-74626045D01*
X209072852Y-74749849D01*
X209060960Y-74763056D01*
X209003225Y-74863056D01*
X208971341Y-74918281D01*
X208965473Y-74928444D01*
X208906458Y-75110072D01*
X208905768Y-75116633D01*
X208905768Y-75116635D01*
X208896316Y-75206565D01*
X208886496Y-75300000D01*
X204747739Y-75300000D01*
X204744232Y-75266635D01*
X204744232Y-75266633D01*
X204743542Y-75260072D01*
X204684527Y-75078444D01*
X204589040Y-74913056D01*
X204549169Y-74868774D01*
X204465675Y-74776045D01*
X204465671Y-74776041D01*
X204461253Y-74771134D01*
X204306752Y-74658882D01*
X204300724Y-74656198D01*
X204300722Y-74656197D01*
X204138319Y-74583891D01*
X204138318Y-74583891D01*
X204132288Y-74581206D01*
X204038888Y-74561353D01*
X203951944Y-74542872D01*
X203951939Y-74542872D01*
X203945487Y-74541500D01*
X203754513Y-74541500D01*
X203748061Y-74542872D01*
X203748056Y-74542872D01*
X203661113Y-74561353D01*
X203567712Y-74581206D01*
X203561682Y-74583891D01*
X203561681Y-74583891D01*
X203399278Y-74656197D01*
X203399276Y-74656198D01*
X203393248Y-74658882D01*
X203238747Y-74771134D01*
X203141313Y-74879346D01*
X203080868Y-74916584D01*
X203021481Y-74918281D01*
X202901944Y-74892872D01*
X202901939Y-74892872D01*
X202895487Y-74891500D01*
X202704513Y-74891500D01*
X202698061Y-74892872D01*
X202698056Y-74892872D01*
X202611112Y-74911353D01*
X202517712Y-74931206D01*
X202511682Y-74933891D01*
X202511681Y-74933891D01*
X202349278Y-75006197D01*
X202349276Y-75006198D01*
X202343248Y-75008882D01*
X202188747Y-75121134D01*
X202184326Y-75126044D01*
X202184325Y-75126045D01*
X202069300Y-75253794D01*
X202060960Y-75263056D01*
X201965473Y-75428444D01*
X201962824Y-75426915D01*
X201925350Y-75470914D01*
X201856329Y-75491500D01*
X201804513Y-75491500D01*
X201798061Y-75492872D01*
X201798056Y-75492872D01*
X201733638Y-75506565D01*
X201617712Y-75531206D01*
X201611682Y-75533891D01*
X201611681Y-75533891D01*
X201449278Y-75606197D01*
X201449276Y-75606198D01*
X201443248Y-75608882D01*
X201288747Y-75721134D01*
X201160960Y-75863056D01*
X201065473Y-76028444D01*
X201006458Y-76210072D01*
X201005768Y-76216633D01*
X201005768Y-76216635D01*
X200993494Y-76333416D01*
X200986496Y-76400000D01*
X194582265Y-76400000D01*
X194515675Y-76326045D01*
X194515674Y-76326044D01*
X194511253Y-76321134D01*
X194395779Y-76237237D01*
X194362094Y-76212763D01*
X194362093Y-76212762D01*
X194356752Y-76208882D01*
X194350724Y-76206198D01*
X194350722Y-76206197D01*
X194188319Y-76133891D01*
X194188318Y-76133891D01*
X194182288Y-76131206D01*
X194088888Y-76111353D01*
X194001944Y-76092872D01*
X194001939Y-76092872D01*
X193995487Y-76091500D01*
X193804513Y-76091500D01*
X193798061Y-76092872D01*
X193798056Y-76092872D01*
X193711112Y-76111353D01*
X193617712Y-76131206D01*
X193611682Y-76133891D01*
X193611681Y-76133891D01*
X193449278Y-76206197D01*
X193449276Y-76206198D01*
X193443248Y-76208882D01*
X193437907Y-76212762D01*
X193437906Y-76212763D01*
X193404221Y-76237237D01*
X193288747Y-76321134D01*
X193284326Y-76326044D01*
X193284325Y-76326045D01*
X193172889Y-76449808D01*
X193160960Y-76463056D01*
X193134502Y-76508882D01*
X193111232Y-76549187D01*
X193059849Y-76598180D01*
X192990136Y-76611616D01*
X192924225Y-76585230D01*
X192892994Y-76549187D01*
X192852341Y-76478774D01*
X192849040Y-76473056D01*
X192828108Y-76449808D01*
X192725675Y-76336045D01*
X192725674Y-76336044D01*
X192721253Y-76331134D01*
X192597357Y-76241118D01*
X192572094Y-76222763D01*
X192572093Y-76222762D01*
X192566752Y-76218882D01*
X192560724Y-76216198D01*
X192560722Y-76216197D01*
X192398319Y-76143891D01*
X192398318Y-76143891D01*
X192392288Y-76141206D01*
X192288627Y-76119172D01*
X192211944Y-76102872D01*
X192211939Y-76102872D01*
X192205487Y-76101500D01*
X192014513Y-76101500D01*
X192008061Y-76102872D01*
X192008056Y-76102872D01*
X191931373Y-76119172D01*
X191827712Y-76141206D01*
X191821682Y-76143891D01*
X191821681Y-76143891D01*
X191659278Y-76216197D01*
X191659276Y-76216198D01*
X191653248Y-76218882D01*
X191647907Y-76222762D01*
X191647906Y-76222763D01*
X191622643Y-76241118D01*
X191498747Y-76331134D01*
X191494326Y-76336044D01*
X191494325Y-76336045D01*
X191391893Y-76449808D01*
X191370960Y-76473056D01*
X191367659Y-76478774D01*
X191281247Y-76628444D01*
X191275473Y-76638444D01*
X191216458Y-76820072D01*
X191215768Y-76826633D01*
X191215768Y-76826635D01*
X191198404Y-76991849D01*
X191196496Y-77010000D01*
X186233499Y-77010000D01*
X186233499Y-76693366D01*
X186233099Y-76689005D01*
X186229974Y-76654996D01*
X186226753Y-76619938D01*
X186221976Y-76604695D01*
X186177744Y-76463550D01*
X186177743Y-76463548D01*
X186175472Y-76456301D01*
X186129744Y-76380795D01*
X186111566Y-76312168D01*
X186133376Y-76244604D01*
X186163460Y-76213590D01*
X186176943Y-76203794D01*
X186211253Y-76178866D01*
X186220322Y-76168794D01*
X186334621Y-76041852D01*
X186334622Y-76041851D01*
X186339040Y-76036944D01*
X186434527Y-75871556D01*
X186493542Y-75689928D01*
X186494872Y-75677279D01*
X186512814Y-75506565D01*
X186513504Y-75500000D01*
X186493542Y-75310072D01*
X186457777Y-75200000D01*
X188886496Y-75200000D01*
X188887186Y-75206565D01*
X188893500Y-75266635D01*
X188906458Y-75389928D01*
X188965473Y-75571556D01*
X189060960Y-75736944D01*
X189188747Y-75878866D01*
X189287843Y-75950864D01*
X189326385Y-75978866D01*
X189343248Y-75991118D01*
X189349276Y-75993802D01*
X189349278Y-75993803D01*
X189433332Y-76031226D01*
X189517712Y-76068794D01*
X189583365Y-76082749D01*
X189698056Y-76107128D01*
X189698061Y-76107128D01*
X189704513Y-76108500D01*
X189895487Y-76108500D01*
X189901939Y-76107128D01*
X189901944Y-76107128D01*
X190016635Y-76082749D01*
X190082288Y-76068794D01*
X190166668Y-76031226D01*
X190250722Y-75993803D01*
X190250724Y-75993802D01*
X190256752Y-75991118D01*
X190273616Y-75978866D01*
X190312157Y-75950864D01*
X190411253Y-75878866D01*
X190539040Y-75736944D01*
X190634527Y-75571556D01*
X190690269Y-75400000D01*
X198386496Y-75400000D01*
X198387186Y-75406565D01*
X198405129Y-75577279D01*
X198406458Y-75589928D01*
X198465473Y-75771556D01*
X198560960Y-75936944D01*
X198565378Y-75941851D01*
X198565379Y-75941852D01*
X198679678Y-76068794D01*
X198688747Y-76078866D01*
X198756327Y-76127966D01*
X198826385Y-76178866D01*
X198843248Y-76191118D01*
X198849276Y-76193802D01*
X198849278Y-76193803D01*
X199011681Y-76266109D01*
X199017712Y-76268794D01*
X199100198Y-76286327D01*
X199198056Y-76307128D01*
X199198061Y-76307128D01*
X199204513Y-76308500D01*
X199395487Y-76308500D01*
X199401939Y-76307128D01*
X199401944Y-76307128D01*
X199499802Y-76286327D01*
X199582288Y-76268794D01*
X199588319Y-76266109D01*
X199750722Y-76193803D01*
X199750724Y-76193802D01*
X199756752Y-76191118D01*
X199773616Y-76178866D01*
X199843673Y-76127966D01*
X199911253Y-76078866D01*
X199920322Y-76068794D01*
X200034621Y-75941852D01*
X200034622Y-75941851D01*
X200039040Y-75936944D01*
X200134527Y-75771556D01*
X200193542Y-75589928D01*
X200194872Y-75577279D01*
X200212814Y-75406565D01*
X200213504Y-75400000D01*
X200203684Y-75306565D01*
X200194232Y-75216635D01*
X200194232Y-75216633D01*
X200193542Y-75210072D01*
X200134527Y-75028444D01*
X200039040Y-74863056D01*
X199960692Y-74776041D01*
X199915675Y-74726045D01*
X199915674Y-74726044D01*
X199911253Y-74721134D01*
X199780375Y-74626045D01*
X199762094Y-74612763D01*
X199762093Y-74612762D01*
X199756752Y-74608882D01*
X199750724Y-74606198D01*
X199750722Y-74606197D01*
X199588319Y-74533891D01*
X199588318Y-74533891D01*
X199582288Y-74531206D01*
X199488887Y-74511353D01*
X199401944Y-74492872D01*
X199401939Y-74492872D01*
X199395487Y-74491500D01*
X199204513Y-74491500D01*
X199198061Y-74492872D01*
X199198056Y-74492872D01*
X199111112Y-74511353D01*
X199017712Y-74531206D01*
X199011682Y-74533891D01*
X199011681Y-74533891D01*
X198849278Y-74606197D01*
X198849276Y-74606198D01*
X198843248Y-74608882D01*
X198837907Y-74612762D01*
X198837906Y-74612763D01*
X198819625Y-74626045D01*
X198688747Y-74721134D01*
X198684326Y-74726044D01*
X198684325Y-74726045D01*
X198639309Y-74776041D01*
X198560960Y-74863056D01*
X198465473Y-75028444D01*
X198406458Y-75210072D01*
X198405768Y-75216633D01*
X198405768Y-75216635D01*
X198396316Y-75306565D01*
X198386496Y-75400000D01*
X190690269Y-75400000D01*
X190693542Y-75389928D01*
X190706501Y-75266635D01*
X190712814Y-75206565D01*
X190713504Y-75200000D01*
X190704052Y-75110072D01*
X190694232Y-75016635D01*
X190694232Y-75016633D01*
X190693542Y-75010072D01*
X190634527Y-74828444D01*
X190539040Y-74663056D01*
X190476685Y-74593803D01*
X190415675Y-74526045D01*
X190415674Y-74526044D01*
X190411253Y-74521134D01*
X190256752Y-74408882D01*
X190250724Y-74406198D01*
X190250722Y-74406197D01*
X190088319Y-74333891D01*
X190088318Y-74333891D01*
X190082288Y-74331206D01*
X189988887Y-74311353D01*
X189901944Y-74292872D01*
X189901939Y-74292872D01*
X189895487Y-74291500D01*
X189704513Y-74291500D01*
X189698061Y-74292872D01*
X189698056Y-74292872D01*
X189611113Y-74311353D01*
X189517712Y-74331206D01*
X189511682Y-74333891D01*
X189511681Y-74333891D01*
X189349278Y-74406197D01*
X189349276Y-74406198D01*
X189343248Y-74408882D01*
X189188747Y-74521134D01*
X189184326Y-74526044D01*
X189184325Y-74526045D01*
X189123316Y-74593803D01*
X189060960Y-74663056D01*
X188965473Y-74828444D01*
X188906458Y-75010072D01*
X188905768Y-75016633D01*
X188905768Y-75016635D01*
X188895948Y-75110072D01*
X188886496Y-75200000D01*
X186457777Y-75200000D01*
X186434527Y-75128444D01*
X186339040Y-74963056D01*
X186316165Y-74937650D01*
X186268137Y-74884310D01*
X186237419Y-74820303D01*
X186246184Y-74749849D01*
X186268137Y-74715690D01*
X186334621Y-74641852D01*
X186334622Y-74641851D01*
X186339040Y-74636944D01*
X186434527Y-74471556D01*
X186478435Y-74336423D01*
X186518507Y-74277818D01*
X186583904Y-74250181D01*
X186624463Y-74252113D01*
X186643044Y-74256062D01*
X186654513Y-74258500D01*
X186845487Y-74258500D01*
X186851939Y-74257128D01*
X186851944Y-74257128D01*
X186938888Y-74238647D01*
X187032288Y-74218794D01*
X187055409Y-74208500D01*
X187200722Y-74143803D01*
X187200724Y-74143802D01*
X187206752Y-74141118D01*
X187361253Y-74028866D01*
X187462780Y-73916109D01*
X187484621Y-73891852D01*
X187484622Y-73891851D01*
X187489040Y-73886944D01*
X187584527Y-73721556D01*
X187643542Y-73539928D01*
X187648389Y-73493817D01*
X187662814Y-73356565D01*
X187663504Y-73350000D01*
X187651935Y-73239928D01*
X187644232Y-73166635D01*
X187644232Y-73166633D01*
X187643542Y-73160072D01*
X187584527Y-72978444D01*
X187489040Y-72813056D01*
X187484621Y-72808148D01*
X187477285Y-72800000D01*
X192686496Y-72800000D01*
X192687186Y-72806565D01*
X192696608Y-72896206D01*
X192706458Y-72989928D01*
X192765473Y-73171556D01*
X192860960Y-73336944D01*
X192865378Y-73341851D01*
X192865379Y-73341852D01*
X192924937Y-73407998D01*
X192988747Y-73478866D01*
X193032912Y-73510954D01*
X193128835Y-73580646D01*
X193143248Y-73591118D01*
X193149276Y-73593802D01*
X193149278Y-73593803D01*
X193200560Y-73616635D01*
X193317712Y-73668794D01*
X193411112Y-73688647D01*
X193498056Y-73707128D01*
X193498061Y-73707128D01*
X193504513Y-73708500D01*
X193695487Y-73708500D01*
X193701939Y-73707128D01*
X193701944Y-73707128D01*
X193788888Y-73688647D01*
X193882288Y-73668794D01*
X193999440Y-73616635D01*
X194050724Y-73593802D01*
X194050725Y-73593801D01*
X194056752Y-73591118D01*
X194062089Y-73587240D01*
X194067814Y-73583935D01*
X194068706Y-73585480D01*
X194127336Y-73564563D01*
X194196487Y-73580646D01*
X194228159Y-73606045D01*
X194338747Y-73728866D01*
X194493248Y-73841118D01*
X194499276Y-73843802D01*
X194499278Y-73843803D01*
X194583332Y-73881226D01*
X194667712Y-73918794D01*
X194761112Y-73938647D01*
X194848056Y-73957128D01*
X194848061Y-73957128D01*
X194854513Y-73958500D01*
X195045487Y-73958500D01*
X195051939Y-73957128D01*
X195051944Y-73957128D01*
X195138888Y-73938647D01*
X195232288Y-73918794D01*
X195316668Y-73881226D01*
X195400722Y-73843803D01*
X195400724Y-73843802D01*
X195406752Y-73841118D01*
X195561253Y-73728866D01*
X195617760Y-73666109D01*
X195684621Y-73591852D01*
X195684622Y-73591851D01*
X195689040Y-73586944D01*
X195784527Y-73421556D01*
X195843542Y-73239928D01*
X195849078Y-73187261D01*
X195862814Y-73056565D01*
X195863504Y-73050000D01*
X195861531Y-73031226D01*
X195844232Y-72866635D01*
X195844232Y-72866633D01*
X195843542Y-72860072D01*
X195791531Y-72700000D01*
X199586496Y-72700000D01*
X199587186Y-72706565D01*
X199605129Y-72877279D01*
X199606458Y-72889928D01*
X199665473Y-73071556D01*
X199760960Y-73236944D01*
X199765378Y-73241851D01*
X199765379Y-73241852D01*
X199879678Y-73368794D01*
X199888747Y-73378866D01*
X199938854Y-73415271D01*
X200030916Y-73482158D01*
X200043248Y-73491118D01*
X200049276Y-73493802D01*
X200049278Y-73493803D01*
X200204824Y-73563056D01*
X200217712Y-73568794D01*
X200296213Y-73585480D01*
X200398056Y-73607128D01*
X200398061Y-73607128D01*
X200404513Y-73608500D01*
X200595487Y-73608500D01*
X200601939Y-73607128D01*
X200601944Y-73607128D01*
X200703787Y-73585480D01*
X200782288Y-73568794D01*
X200795176Y-73563056D01*
X200950722Y-73493803D01*
X200950724Y-73493802D01*
X200956752Y-73491118D01*
X200968271Y-73482749D01*
X201025939Y-73440851D01*
X201092807Y-73416992D01*
X201161959Y-73433073D01*
X201174061Y-73440851D01*
X201231729Y-73482749D01*
X201243248Y-73491118D01*
X201249276Y-73493802D01*
X201249278Y-73493803D01*
X201404824Y-73563056D01*
X201417712Y-73568794D01*
X201496213Y-73585480D01*
X201598056Y-73607128D01*
X201598061Y-73607128D01*
X201604513Y-73608500D01*
X201795487Y-73608500D01*
X201801939Y-73607128D01*
X201801944Y-73607128D01*
X201903787Y-73585480D01*
X201982288Y-73568794D01*
X201995176Y-73563056D01*
X202150722Y-73493803D01*
X202150724Y-73493802D01*
X202156752Y-73491118D01*
X202168271Y-73482749D01*
X202225939Y-73440851D01*
X202292807Y-73416992D01*
X202361959Y-73433073D01*
X202374061Y-73440851D01*
X202431729Y-73482749D01*
X202443248Y-73491118D01*
X202449276Y-73493802D01*
X202449278Y-73493803D01*
X202604824Y-73563056D01*
X202617712Y-73568794D01*
X202696213Y-73585480D01*
X202798056Y-73607128D01*
X202798061Y-73607128D01*
X202804513Y-73608500D01*
X202995487Y-73608500D01*
X203001939Y-73607128D01*
X203001944Y-73607128D01*
X203103787Y-73585480D01*
X203182288Y-73568794D01*
X203195176Y-73563056D01*
X203350722Y-73493803D01*
X203350724Y-73493802D01*
X203356752Y-73491118D01*
X203369085Y-73482158D01*
X203461146Y-73415271D01*
X203511253Y-73378866D01*
X203520322Y-73368794D01*
X203634621Y-73241852D01*
X203634622Y-73241851D01*
X203639040Y-73236944D01*
X203734527Y-73071556D01*
X203793542Y-72889928D01*
X203794872Y-72877279D01*
X203812814Y-72706565D01*
X203813504Y-72700000D01*
X203807752Y-72645271D01*
X203794232Y-72516635D01*
X203794232Y-72516633D01*
X203793542Y-72510072D01*
X203734527Y-72328444D01*
X203718105Y-72300000D01*
X204486496Y-72300000D01*
X204487186Y-72306565D01*
X204494489Y-72376045D01*
X204506458Y-72489928D01*
X204565473Y-72671556D01*
X204660960Y-72836944D01*
X204665378Y-72841851D01*
X204665379Y-72841852D01*
X204708667Y-72889928D01*
X204788747Y-72978866D01*
X204943248Y-73091118D01*
X204949276Y-73093802D01*
X204949278Y-73093803D01*
X205047990Y-73137752D01*
X205102086Y-73183732D01*
X205122735Y-73251659D01*
X205105860Y-73315859D01*
X205052664Y-73407998D01*
X205040859Y-73428444D01*
X204981844Y-73610072D01*
X204981154Y-73616633D01*
X204981154Y-73616635D01*
X204969874Y-73723959D01*
X204961882Y-73800000D01*
X204962572Y-73806565D01*
X204978397Y-73957128D01*
X204981844Y-73989928D01*
X205040859Y-74171556D01*
X205044162Y-74177278D01*
X205044163Y-74177279D01*
X205062189Y-74208500D01*
X205136346Y-74336944D01*
X205140764Y-74341851D01*
X205140765Y-74341852D01*
X205201119Y-74408882D01*
X205264133Y-74478866D01*
X205418634Y-74591118D01*
X205424662Y-74593802D01*
X205424664Y-74593803D01*
X205570835Y-74658882D01*
X205593098Y-74668794D01*
X205686498Y-74688647D01*
X205773442Y-74707128D01*
X205773447Y-74707128D01*
X205779899Y-74708500D01*
X205970873Y-74708500D01*
X205977325Y-74707128D01*
X205977330Y-74707128D01*
X206064273Y-74688647D01*
X206157674Y-74668794D01*
X206179937Y-74658882D01*
X206326108Y-74593803D01*
X206326110Y-74593802D01*
X206332138Y-74591118D01*
X206486639Y-74478866D01*
X206549653Y-74408882D01*
X206610007Y-74341852D01*
X206610008Y-74341851D01*
X206614426Y-74336944D01*
X206688583Y-74208500D01*
X206706609Y-74177279D01*
X206706610Y-74177278D01*
X206709913Y-74171556D01*
X206768928Y-73989928D01*
X206772376Y-73957128D01*
X206788200Y-73806565D01*
X206788890Y-73800000D01*
X206780898Y-73723959D01*
X206769618Y-73616635D01*
X206769618Y-73616633D01*
X206768928Y-73610072D01*
X206709913Y-73428444D01*
X206671012Y-73361066D01*
X206654275Y-73292073D01*
X206677495Y-73224981D01*
X206733302Y-73181094D01*
X206753934Y-73174822D01*
X206775823Y-73170169D01*
X206775830Y-73170167D01*
X206782288Y-73168794D01*
X206790201Y-73165271D01*
X206950722Y-73093803D01*
X206950724Y-73093802D01*
X206956752Y-73091118D01*
X207111253Y-72978866D01*
X207191333Y-72889928D01*
X207234621Y-72841852D01*
X207234622Y-72841851D01*
X207239040Y-72836944D01*
X207334527Y-72671556D01*
X207393542Y-72489928D01*
X207397790Y-72449511D01*
X211836985Y-72449511D01*
X211837675Y-72456076D01*
X211853201Y-72603794D01*
X211856947Y-72639439D01*
X211915962Y-72821067D01*
X211919265Y-72826789D01*
X211919266Y-72826790D01*
X211927962Y-72841852D01*
X212011449Y-72986455D01*
X212015867Y-72991362D01*
X212015868Y-72991363D01*
X212062754Y-73043435D01*
X212139236Y-73128377D01*
X212293737Y-73240629D01*
X212299765Y-73243313D01*
X212299767Y-73243314D01*
X212447036Y-73308882D01*
X212468201Y-73318305D01*
X212555890Y-73336944D01*
X212648545Y-73356639D01*
X212648550Y-73356639D01*
X212655002Y-73358011D01*
X212845976Y-73358011D01*
X212852428Y-73356639D01*
X212852433Y-73356639D01*
X212945088Y-73336944D01*
X213032777Y-73318305D01*
X213053942Y-73308882D01*
X213201211Y-73243314D01*
X213201213Y-73243313D01*
X213207241Y-73240629D01*
X213361742Y-73128377D01*
X213438224Y-73043435D01*
X213485110Y-72991363D01*
X213485111Y-72991362D01*
X213489529Y-72986455D01*
X213573016Y-72841852D01*
X213581712Y-72826790D01*
X213581713Y-72826789D01*
X213585016Y-72821067D01*
X213624353Y-72700000D01*
X219786496Y-72700000D01*
X219787186Y-72706565D01*
X219805129Y-72877279D01*
X219806458Y-72889928D01*
X219865473Y-73071556D01*
X219960960Y-73236944D01*
X219965378Y-73241851D01*
X219965379Y-73241852D01*
X220079678Y-73368794D01*
X220088747Y-73378866D01*
X220138854Y-73415271D01*
X220230916Y-73482158D01*
X220243248Y-73491118D01*
X220249276Y-73493802D01*
X220249278Y-73493803D01*
X220404824Y-73563056D01*
X220417712Y-73568794D01*
X220496213Y-73585480D01*
X220598056Y-73607128D01*
X220598061Y-73607128D01*
X220604513Y-73608500D01*
X220795487Y-73608500D01*
X220801939Y-73607128D01*
X220801944Y-73607128D01*
X220903787Y-73585480D01*
X220982288Y-73568794D01*
X220995176Y-73563056D01*
X221150722Y-73493803D01*
X221150724Y-73493802D01*
X221156752Y-73491118D01*
X221175940Y-73477177D01*
X221242808Y-73453319D01*
X221311959Y-73469400D01*
X221324060Y-73477177D01*
X221343248Y-73491118D01*
X221349276Y-73493802D01*
X221349278Y-73493803D01*
X221504824Y-73563056D01*
X221517712Y-73568794D01*
X221596213Y-73585480D01*
X221698056Y-73607128D01*
X221698061Y-73607128D01*
X221704513Y-73608500D01*
X221895487Y-73608500D01*
X221901939Y-73607128D01*
X221901944Y-73607128D01*
X222003787Y-73585480D01*
X222082288Y-73568794D01*
X222095176Y-73563056D01*
X222250722Y-73493803D01*
X222250724Y-73493802D01*
X222256752Y-73491118D01*
X222269085Y-73482158D01*
X222361146Y-73415271D01*
X222411253Y-73378866D01*
X222420322Y-73368794D01*
X222534621Y-73241852D01*
X222534622Y-73241851D01*
X222539040Y-73236944D01*
X222634527Y-73071556D01*
X222693542Y-72889928D01*
X222694872Y-72877279D01*
X222712814Y-72706565D01*
X222713504Y-72700000D01*
X222707752Y-72645271D01*
X222694232Y-72516635D01*
X222694232Y-72516633D01*
X222693542Y-72510072D01*
X222690269Y-72500000D01*
X231786496Y-72500000D01*
X231787186Y-72506565D01*
X231805129Y-72677279D01*
X231806458Y-72689928D01*
X231865473Y-72871556D01*
X231960960Y-73036944D01*
X231965378Y-73041851D01*
X231965379Y-73041852D01*
X232084325Y-73173955D01*
X232088747Y-73178866D01*
X232243248Y-73291118D01*
X232249276Y-73293802D01*
X232249278Y-73293803D01*
X232400361Y-73361069D01*
X232417712Y-73368794D01*
X232483365Y-73382749D01*
X232598056Y-73407128D01*
X232598061Y-73407128D01*
X232604513Y-73408500D01*
X232688456Y-73408500D01*
X232756577Y-73428502D01*
X232803070Y-73482158D01*
X232808289Y-73495562D01*
X232865473Y-73671556D01*
X232868776Y-73677278D01*
X232868777Y-73677279D01*
X232890712Y-73715271D01*
X232960960Y-73836944D01*
X232965378Y-73841851D01*
X232965379Y-73841852D01*
X233005980Y-73886944D01*
X233088747Y-73978866D01*
X233243248Y-74091118D01*
X233249276Y-74093802D01*
X233249278Y-74093803D01*
X233346833Y-74137237D01*
X233417712Y-74168794D01*
X233511113Y-74188647D01*
X233598056Y-74207128D01*
X233598061Y-74207128D01*
X233604513Y-74208500D01*
X233795487Y-74208500D01*
X233801939Y-74207128D01*
X233801944Y-74207128D01*
X233888888Y-74188647D01*
X233982288Y-74168794D01*
X234053167Y-74137237D01*
X234150722Y-74093803D01*
X234150724Y-74093802D01*
X234156752Y-74091118D01*
X234311253Y-73978866D01*
X234394020Y-73886944D01*
X234434621Y-73841852D01*
X234434622Y-73841851D01*
X234439040Y-73836944D01*
X234490881Y-73747153D01*
X234542264Y-73698160D01*
X234611977Y-73684724D01*
X234677888Y-73711110D01*
X234709119Y-73747153D01*
X234760960Y-73836944D01*
X234765378Y-73841851D01*
X234765379Y-73841852D01*
X234805980Y-73886944D01*
X234888747Y-73978866D01*
X235043248Y-74091118D01*
X235049276Y-74093802D01*
X235049278Y-74093803D01*
X235146833Y-74137237D01*
X235217712Y-74168794D01*
X235311113Y-74188647D01*
X235398056Y-74207128D01*
X235398061Y-74207128D01*
X235404513Y-74208500D01*
X235595487Y-74208500D01*
X235601939Y-74207128D01*
X235601944Y-74207128D01*
X235688888Y-74188647D01*
X235782288Y-74168794D01*
X235853167Y-74137237D01*
X235950722Y-74093803D01*
X235950724Y-74093802D01*
X235956752Y-74091118D01*
X236111253Y-73978866D01*
X236194020Y-73886944D01*
X236234621Y-73841852D01*
X236234622Y-73841851D01*
X236239040Y-73836944D01*
X236309288Y-73715271D01*
X236331223Y-73677279D01*
X236331224Y-73677278D01*
X236334527Y-73671556D01*
X236392279Y-73493816D01*
X236432351Y-73435211D01*
X236495562Y-73408853D01*
X236495487Y-73408500D01*
X236497366Y-73408101D01*
X236497368Y-73408100D01*
X236501940Y-73407128D01*
X236501943Y-73407128D01*
X236596438Y-73387042D01*
X236682288Y-73368794D01*
X236699639Y-73361069D01*
X236850722Y-73293803D01*
X236850724Y-73293802D01*
X236856752Y-73291118D01*
X237011253Y-73178866D01*
X237015675Y-73173955D01*
X237134621Y-73041852D01*
X237134622Y-73041851D01*
X237139040Y-73036944D01*
X237234527Y-72871556D01*
X237293542Y-72689928D01*
X237294872Y-72677279D01*
X237312814Y-72506565D01*
X237313504Y-72500000D01*
X237309654Y-72463365D01*
X237294232Y-72316635D01*
X237294232Y-72316633D01*
X237293542Y-72310072D01*
X237234527Y-72128444D01*
X237139040Y-71963056D01*
X237089161Y-71907659D01*
X237015675Y-71826045D01*
X237015674Y-71826044D01*
X237011253Y-71821134D01*
X236912157Y-71749136D01*
X236862094Y-71712763D01*
X236862093Y-71712762D01*
X236856752Y-71708882D01*
X236850724Y-71706198D01*
X236850722Y-71706197D01*
X236688319Y-71633891D01*
X236688318Y-71633891D01*
X236682288Y-71631206D01*
X236644844Y-71623247D01*
X236582371Y-71589518D01*
X236548049Y-71527369D01*
X236552777Y-71456530D01*
X236595053Y-71399492D01*
X236644844Y-71376753D01*
X236682288Y-71368794D01*
X236702723Y-71359696D01*
X236850722Y-71293803D01*
X236850724Y-71293802D01*
X236856752Y-71291118D01*
X236873616Y-71278866D01*
X236990694Y-71193803D01*
X237011253Y-71178866D01*
X237020322Y-71168794D01*
X237134621Y-71041852D01*
X237134622Y-71041851D01*
X237139040Y-71036944D01*
X237234527Y-70871556D01*
X237293542Y-70689928D01*
X237294872Y-70677279D01*
X237312814Y-70506565D01*
X237313504Y-70500000D01*
X237303684Y-70406565D01*
X237294232Y-70316635D01*
X237294232Y-70316633D01*
X237293542Y-70310072D01*
X237234527Y-70128444D01*
X237139040Y-69963056D01*
X237011253Y-69821134D01*
X236885590Y-69729834D01*
X236862094Y-69712763D01*
X236862093Y-69712762D01*
X236856752Y-69708882D01*
X236850724Y-69706198D01*
X236850722Y-69706197D01*
X236688319Y-69633891D01*
X236688318Y-69633891D01*
X236682288Y-69631206D01*
X236511010Y-69594800D01*
X236448538Y-69561072D01*
X236414216Y-69498922D01*
X236411898Y-69484723D01*
X236411283Y-69478866D01*
X236396134Y-69334729D01*
X236394232Y-69316635D01*
X236394232Y-69316633D01*
X236393542Y-69310072D01*
X236334527Y-69128444D01*
X236326925Y-69115276D01*
X236290881Y-69052847D01*
X236239040Y-68963056D01*
X236147999Y-68861944D01*
X236115675Y-68826045D01*
X236115674Y-68826044D01*
X236111253Y-68821134D01*
X235980375Y-68726045D01*
X235962094Y-68712763D01*
X235962093Y-68712762D01*
X235956752Y-68708882D01*
X235950724Y-68706198D01*
X235950722Y-68706197D01*
X235788319Y-68633891D01*
X235788318Y-68633891D01*
X235782288Y-68631206D01*
X235682861Y-68610072D01*
X235601944Y-68592872D01*
X235601939Y-68592872D01*
X235595487Y-68591500D01*
X235404513Y-68591500D01*
X235398061Y-68592872D01*
X235398056Y-68592872D01*
X235317139Y-68610072D01*
X235217712Y-68631206D01*
X235211682Y-68633891D01*
X235211681Y-68633891D01*
X235049278Y-68706197D01*
X235049276Y-68706198D01*
X235043248Y-68708882D01*
X235037907Y-68712762D01*
X235037906Y-68712763D01*
X235019625Y-68726045D01*
X234888747Y-68821134D01*
X234884326Y-68826044D01*
X234884325Y-68826045D01*
X234852002Y-68861944D01*
X234760960Y-68963056D01*
X234714498Y-69043531D01*
X234709119Y-69052847D01*
X234657736Y-69101840D01*
X234588023Y-69115276D01*
X234522112Y-69088890D01*
X234490881Y-69052847D01*
X234485502Y-69043531D01*
X234439040Y-68963056D01*
X234347999Y-68861944D01*
X234315675Y-68826045D01*
X234315674Y-68826044D01*
X234311253Y-68821134D01*
X234180375Y-68726045D01*
X234162094Y-68712763D01*
X234162093Y-68712762D01*
X234156752Y-68708882D01*
X234150724Y-68706198D01*
X234150722Y-68706197D01*
X233988319Y-68633891D01*
X233988318Y-68633891D01*
X233982288Y-68631206D01*
X233882861Y-68610072D01*
X233801944Y-68592872D01*
X233801939Y-68592872D01*
X233795487Y-68591500D01*
X233604513Y-68591500D01*
X233598061Y-68592872D01*
X233598056Y-68592872D01*
X233517139Y-68610072D01*
X233417712Y-68631206D01*
X233411682Y-68633891D01*
X233411681Y-68633891D01*
X233249278Y-68706197D01*
X233249276Y-68706198D01*
X233243248Y-68708882D01*
X233237907Y-68712762D01*
X233237906Y-68712763D01*
X233219625Y-68726045D01*
X233088747Y-68821134D01*
X233084326Y-68826044D01*
X233084325Y-68826045D01*
X233052002Y-68861944D01*
X232960960Y-68963056D01*
X232909119Y-69052847D01*
X232873076Y-69115276D01*
X232865473Y-69128444D01*
X232806458Y-69310072D01*
X232805768Y-69316633D01*
X232805768Y-69316635D01*
X232803866Y-69334729D01*
X232789234Y-69473955D01*
X232788738Y-69478670D01*
X232761725Y-69544327D01*
X232703503Y-69584957D01*
X232663428Y-69591500D01*
X232604513Y-69591500D01*
X232598061Y-69592872D01*
X232598056Y-69592872D01*
X232511112Y-69611353D01*
X232417712Y-69631206D01*
X232411682Y-69633891D01*
X232411681Y-69633891D01*
X232249278Y-69706197D01*
X232249276Y-69706198D01*
X232243248Y-69708882D01*
X232237907Y-69712762D01*
X232237906Y-69712763D01*
X232214410Y-69729834D01*
X232088747Y-69821134D01*
X231960960Y-69963056D01*
X231865473Y-70128444D01*
X231806458Y-70310072D01*
X231805768Y-70316633D01*
X231805768Y-70316635D01*
X231796316Y-70406565D01*
X231786496Y-70500000D01*
X231787186Y-70506565D01*
X231805129Y-70677279D01*
X231806458Y-70689928D01*
X231865473Y-70871556D01*
X231960960Y-71036944D01*
X231965378Y-71041851D01*
X231965379Y-71041852D01*
X232079678Y-71168794D01*
X232088747Y-71178866D01*
X232109306Y-71193803D01*
X232226385Y-71278866D01*
X232243248Y-71291118D01*
X232249276Y-71293802D01*
X232249278Y-71293803D01*
X232397277Y-71359696D01*
X232417712Y-71368794D01*
X232455156Y-71376753D01*
X232517629Y-71410482D01*
X232551951Y-71472631D01*
X232547223Y-71543470D01*
X232504947Y-71600508D01*
X232455156Y-71623247D01*
X232417712Y-71631206D01*
X232411682Y-71633891D01*
X232411681Y-71633891D01*
X232249278Y-71706197D01*
X232249276Y-71706198D01*
X232243248Y-71708882D01*
X232237907Y-71712762D01*
X232237906Y-71712763D01*
X232187843Y-71749136D01*
X232088747Y-71821134D01*
X232084326Y-71826044D01*
X232084325Y-71826045D01*
X232010840Y-71907659D01*
X231960960Y-71963056D01*
X231865473Y-72128444D01*
X231806458Y-72310072D01*
X231805768Y-72316633D01*
X231805768Y-72316635D01*
X231790346Y-72463365D01*
X231786496Y-72500000D01*
X222690269Y-72500000D01*
X222634527Y-72328444D01*
X222602768Y-72273435D01*
X222594365Y-72258882D01*
X222539040Y-72163056D01*
X222497243Y-72116635D01*
X222415675Y-72026045D01*
X222415674Y-72026044D01*
X222411253Y-72021134D01*
X222256752Y-71908882D01*
X222250724Y-71906198D01*
X222250722Y-71906197D01*
X222088319Y-71833891D01*
X222088318Y-71833891D01*
X222082288Y-71831206D01*
X221988887Y-71811353D01*
X221901944Y-71792872D01*
X221901939Y-71792872D01*
X221895487Y-71791500D01*
X221704513Y-71791500D01*
X221698061Y-71792872D01*
X221698056Y-71792872D01*
X221611113Y-71811353D01*
X221517712Y-71831206D01*
X221511682Y-71833891D01*
X221511681Y-71833891D01*
X221349278Y-71906197D01*
X221349276Y-71906198D01*
X221343248Y-71908882D01*
X221330306Y-71918285D01*
X221324060Y-71922823D01*
X221257192Y-71946681D01*
X221188041Y-71930600D01*
X221175940Y-71922823D01*
X221169694Y-71918285D01*
X221156752Y-71908882D01*
X221150724Y-71906198D01*
X221150722Y-71906197D01*
X220988319Y-71833891D01*
X220988318Y-71833891D01*
X220982288Y-71831206D01*
X220888887Y-71811353D01*
X220801944Y-71792872D01*
X220801939Y-71792872D01*
X220795487Y-71791500D01*
X220604513Y-71791500D01*
X220598061Y-71792872D01*
X220598056Y-71792872D01*
X220511113Y-71811353D01*
X220417712Y-71831206D01*
X220411682Y-71833891D01*
X220411681Y-71833891D01*
X220249278Y-71906197D01*
X220249276Y-71906198D01*
X220243248Y-71908882D01*
X220088747Y-72021134D01*
X220084326Y-72026044D01*
X220084325Y-72026045D01*
X220002758Y-72116635D01*
X219960960Y-72163056D01*
X219905635Y-72258882D01*
X219897233Y-72273435D01*
X219865473Y-72328444D01*
X219806458Y-72510072D01*
X219805768Y-72516633D01*
X219805768Y-72516635D01*
X219792248Y-72645271D01*
X219786496Y-72700000D01*
X213624353Y-72700000D01*
X213644031Y-72639439D01*
X213647778Y-72603794D01*
X213663303Y-72456076D01*
X213663993Y-72449511D01*
X213651929Y-72334729D01*
X213644721Y-72266146D01*
X213644721Y-72266144D01*
X213644031Y-72259583D01*
X213585016Y-72077955D01*
X213489529Y-71912567D01*
X213483794Y-71906197D01*
X213366164Y-71775556D01*
X213366163Y-71775555D01*
X213361742Y-71770645D01*
X213207241Y-71658393D01*
X213201213Y-71655709D01*
X213201211Y-71655708D01*
X213038808Y-71583402D01*
X213038807Y-71583402D01*
X213032777Y-71580717D01*
X212939377Y-71560864D01*
X212852433Y-71542383D01*
X212852428Y-71542383D01*
X212845976Y-71541011D01*
X212655002Y-71541011D01*
X212648550Y-71542383D01*
X212648545Y-71542383D01*
X212561601Y-71560864D01*
X212468201Y-71580717D01*
X212462171Y-71583402D01*
X212462170Y-71583402D01*
X212299767Y-71655708D01*
X212299765Y-71655709D01*
X212293737Y-71658393D01*
X212139236Y-71770645D01*
X212134815Y-71775555D01*
X212134814Y-71775556D01*
X212017185Y-71906197D01*
X212011449Y-71912567D01*
X211915962Y-72077955D01*
X211856947Y-72259583D01*
X211856257Y-72266144D01*
X211856257Y-72266146D01*
X211849049Y-72334729D01*
X211836985Y-72449511D01*
X207397790Y-72449511D01*
X207405512Y-72376045D01*
X207412814Y-72306565D01*
X207413504Y-72300000D01*
X207401181Y-72182749D01*
X207394232Y-72116635D01*
X207394232Y-72116633D01*
X207393542Y-72110072D01*
X207334527Y-71928444D01*
X207325361Y-71912567D01*
X207279937Y-71833891D01*
X207239040Y-71763056D01*
X207227285Y-71750000D01*
X207115675Y-71626045D01*
X207115674Y-71626044D01*
X207111253Y-71621134D01*
X206982197Y-71527369D01*
X206962094Y-71512763D01*
X206962093Y-71512762D01*
X206956752Y-71508882D01*
X206950724Y-71506198D01*
X206950722Y-71506197D01*
X206936803Y-71500000D01*
X213786496Y-71500000D01*
X213787186Y-71506565D01*
X213805129Y-71677279D01*
X213806458Y-71689928D01*
X213865473Y-71871556D01*
X213960960Y-72036944D01*
X213965378Y-72041851D01*
X213965379Y-72041852D01*
X214056338Y-72142872D01*
X214088747Y-72178866D01*
X214178331Y-72243953D01*
X214218910Y-72273435D01*
X214243248Y-72291118D01*
X214249276Y-72293802D01*
X214249278Y-72293803D01*
X214411681Y-72366109D01*
X214417712Y-72368794D01*
X214511113Y-72388647D01*
X214598056Y-72407128D01*
X214598061Y-72407128D01*
X214604513Y-72408500D01*
X214795487Y-72408500D01*
X214801939Y-72407128D01*
X214801944Y-72407128D01*
X214888887Y-72388647D01*
X214982288Y-72368794D01*
X214988319Y-72366109D01*
X215150722Y-72293803D01*
X215150724Y-72293802D01*
X215156752Y-72291118D01*
X215181091Y-72273435D01*
X215221669Y-72243953D01*
X215311253Y-72178866D01*
X215343662Y-72142872D01*
X215434621Y-72041852D01*
X215434622Y-72041851D01*
X215439040Y-72036944D01*
X215534527Y-71871556D01*
X215593542Y-71689928D01*
X215594872Y-71677279D01*
X215612814Y-71506565D01*
X215613504Y-71500000D01*
X215603887Y-71408500D01*
X215594232Y-71316635D01*
X215594232Y-71316633D01*
X215593542Y-71310072D01*
X215534527Y-71128444D01*
X215439040Y-70963056D01*
X215419654Y-70941525D01*
X215315675Y-70826045D01*
X215315674Y-70826044D01*
X215311253Y-70821134D01*
X215156752Y-70708882D01*
X215150724Y-70706198D01*
X215150722Y-70706197D01*
X214988319Y-70633891D01*
X214988318Y-70633891D01*
X214982288Y-70631206D01*
X214888887Y-70611353D01*
X214835477Y-70600000D01*
X216686496Y-70600000D01*
X216687186Y-70606565D01*
X216705129Y-70777279D01*
X216706458Y-70789928D01*
X216765473Y-70971556D01*
X216860960Y-71136944D01*
X216865378Y-71141851D01*
X216865379Y-71141852D01*
X216979678Y-71268794D01*
X216988747Y-71278866D01*
X217041223Y-71316992D01*
X217100000Y-71359696D01*
X217143248Y-71391118D01*
X217149276Y-71393802D01*
X217149278Y-71393803D01*
X217311681Y-71466109D01*
X217317712Y-71468794D01*
X217386263Y-71483365D01*
X217498056Y-71507128D01*
X217498061Y-71507128D01*
X217504513Y-71508500D01*
X217695487Y-71508500D01*
X217701939Y-71507128D01*
X217701944Y-71507128D01*
X217813737Y-71483365D01*
X217882288Y-71468794D01*
X217888319Y-71466109D01*
X218050722Y-71393803D01*
X218050724Y-71393802D01*
X218056752Y-71391118D01*
X218100001Y-71359696D01*
X218158777Y-71316992D01*
X218211253Y-71278866D01*
X218220322Y-71268794D01*
X218334621Y-71141852D01*
X218334622Y-71141851D01*
X218339040Y-71136944D01*
X218434527Y-70971556D01*
X218480167Y-70831090D01*
X218520241Y-70772486D01*
X218585637Y-70744849D01*
X218655594Y-70756956D01*
X218707900Y-70804962D01*
X218719832Y-70831089D01*
X218765473Y-70971556D01*
X218860960Y-71136944D01*
X218865378Y-71141851D01*
X218865379Y-71141852D01*
X218979678Y-71268794D01*
X218988747Y-71278866D01*
X219041223Y-71316992D01*
X219100000Y-71359696D01*
X219143248Y-71391118D01*
X219149276Y-71393802D01*
X219149278Y-71393803D01*
X219311681Y-71466109D01*
X219317712Y-71468794D01*
X219386263Y-71483365D01*
X219498056Y-71507128D01*
X219498061Y-71507128D01*
X219504513Y-71508500D01*
X219695487Y-71508500D01*
X219701939Y-71507128D01*
X219701944Y-71507128D01*
X219813737Y-71483365D01*
X219882288Y-71468794D01*
X219889687Y-71465500D01*
X220006755Y-71413378D01*
X220048752Y-71394680D01*
X220119118Y-71385246D01*
X220151247Y-71394680D01*
X220193245Y-71413378D01*
X220310314Y-71465500D01*
X220317712Y-71468794D01*
X220386263Y-71483365D01*
X220498056Y-71507128D01*
X220498061Y-71507128D01*
X220504513Y-71508500D01*
X220695487Y-71508500D01*
X220701939Y-71507128D01*
X220701944Y-71507128D01*
X220813737Y-71483365D01*
X220882288Y-71468794D01*
X220888319Y-71466109D01*
X221050722Y-71393803D01*
X221050724Y-71393802D01*
X221056752Y-71391118D01*
X221100001Y-71359696D01*
X221158777Y-71316992D01*
X221211253Y-71278866D01*
X221220322Y-71268794D01*
X221334621Y-71141852D01*
X221334622Y-71141851D01*
X221339040Y-71136944D01*
X221434527Y-70971556D01*
X221493542Y-70789928D01*
X221494872Y-70777279D01*
X221512814Y-70606565D01*
X221513504Y-70600000D01*
X221498280Y-70455151D01*
X221494232Y-70416635D01*
X221494232Y-70416633D01*
X221493542Y-70410072D01*
X221434527Y-70228444D01*
X221339040Y-70063056D01*
X221297243Y-70016635D01*
X221215675Y-69926045D01*
X221215674Y-69926044D01*
X221211253Y-69921134D01*
X221112157Y-69849136D01*
X221062094Y-69812763D01*
X221062093Y-69812762D01*
X221056752Y-69808882D01*
X221050724Y-69806198D01*
X221050722Y-69806197D01*
X220888319Y-69733891D01*
X220888318Y-69733891D01*
X220882288Y-69731206D01*
X220787660Y-69711092D01*
X220701944Y-69692872D01*
X220701939Y-69692872D01*
X220695487Y-69691500D01*
X220504513Y-69691500D01*
X220498061Y-69692872D01*
X220498056Y-69692872D01*
X220412340Y-69711092D01*
X220317712Y-69731206D01*
X220311682Y-69733891D01*
X220311681Y-69733891D01*
X220249911Y-69761393D01*
X220151248Y-69805320D01*
X220080882Y-69814754D01*
X220048753Y-69805320D01*
X219950089Y-69761393D01*
X219888319Y-69733891D01*
X219888318Y-69733891D01*
X219882288Y-69731206D01*
X219787660Y-69711092D01*
X219701944Y-69692872D01*
X219701939Y-69692872D01*
X219695487Y-69691500D01*
X219504513Y-69691500D01*
X219498061Y-69692872D01*
X219498056Y-69692872D01*
X219412340Y-69711092D01*
X219317712Y-69731206D01*
X219311682Y-69733891D01*
X219311681Y-69733891D01*
X219149278Y-69806197D01*
X219149276Y-69806198D01*
X219143248Y-69808882D01*
X219137907Y-69812762D01*
X219137906Y-69812763D01*
X219087843Y-69849136D01*
X218988747Y-69921134D01*
X218984326Y-69926044D01*
X218984325Y-69926045D01*
X218902758Y-70016635D01*
X218860960Y-70063056D01*
X218765473Y-70228444D01*
X218724713Y-70353891D01*
X218719833Y-70368909D01*
X218679759Y-70427514D01*
X218614363Y-70455151D01*
X218544406Y-70443044D01*
X218492100Y-70395038D01*
X218480167Y-70368909D01*
X218475288Y-70353891D01*
X218434527Y-70228444D01*
X218339040Y-70063056D01*
X218297243Y-70016635D01*
X218215675Y-69926045D01*
X218215674Y-69926044D01*
X218211253Y-69921134D01*
X218112157Y-69849136D01*
X218062094Y-69812763D01*
X218062093Y-69812762D01*
X218056752Y-69808882D01*
X218050724Y-69806198D01*
X218050722Y-69806197D01*
X217888319Y-69733891D01*
X217888318Y-69733891D01*
X217882288Y-69731206D01*
X217787660Y-69711092D01*
X217701944Y-69692872D01*
X217701939Y-69692872D01*
X217695487Y-69691500D01*
X217504513Y-69691500D01*
X217498061Y-69692872D01*
X217498056Y-69692872D01*
X217412340Y-69711092D01*
X217317712Y-69731206D01*
X217311682Y-69733891D01*
X217311681Y-69733891D01*
X217149278Y-69806197D01*
X217149276Y-69806198D01*
X217143248Y-69808882D01*
X217137907Y-69812762D01*
X217137906Y-69812763D01*
X217087843Y-69849136D01*
X216988747Y-69921134D01*
X216984326Y-69926044D01*
X216984325Y-69926045D01*
X216902758Y-70016635D01*
X216860960Y-70063056D01*
X216765473Y-70228444D01*
X216706458Y-70410072D01*
X216705768Y-70416633D01*
X216705768Y-70416635D01*
X216701720Y-70455151D01*
X216686496Y-70600000D01*
X214835477Y-70600000D01*
X214801944Y-70592872D01*
X214801939Y-70592872D01*
X214795487Y-70591500D01*
X214604513Y-70591500D01*
X214598061Y-70592872D01*
X214598056Y-70592872D01*
X214511113Y-70611353D01*
X214417712Y-70631206D01*
X214411682Y-70633891D01*
X214411681Y-70633891D01*
X214249278Y-70706197D01*
X214249276Y-70706198D01*
X214243248Y-70708882D01*
X214088747Y-70821134D01*
X214084326Y-70826044D01*
X214084325Y-70826045D01*
X213980347Y-70941525D01*
X213960960Y-70963056D01*
X213865473Y-71128444D01*
X213806458Y-71310072D01*
X213805768Y-71316633D01*
X213805768Y-71316635D01*
X213796113Y-71408500D01*
X213786496Y-71500000D01*
X206936803Y-71500000D01*
X206788319Y-71433891D01*
X206788318Y-71433891D01*
X206782288Y-71431206D01*
X206682861Y-71410072D01*
X206601944Y-71392872D01*
X206601939Y-71392872D01*
X206595487Y-71391500D01*
X206436572Y-71391500D01*
X206368451Y-71371498D01*
X206321958Y-71317842D01*
X206311262Y-71278670D01*
X206310767Y-71273955D01*
X206301181Y-71182749D01*
X206294232Y-71116635D01*
X206294232Y-71116633D01*
X206293542Y-71110072D01*
X206234527Y-70928444D01*
X206139040Y-70763056D01*
X206122647Y-70744849D01*
X206015675Y-70626045D01*
X206015674Y-70626044D01*
X206011253Y-70621134D01*
X205901143Y-70541134D01*
X205862094Y-70512763D01*
X205862093Y-70512762D01*
X205856752Y-70508882D01*
X205850724Y-70506198D01*
X205850722Y-70506197D01*
X205688319Y-70433891D01*
X205688318Y-70433891D01*
X205682288Y-70431206D01*
X205582861Y-70410072D01*
X205501944Y-70392872D01*
X205501939Y-70392872D01*
X205495487Y-70391500D01*
X205304513Y-70391500D01*
X205298061Y-70392872D01*
X205298056Y-70392872D01*
X205217139Y-70410072D01*
X205117712Y-70431206D01*
X205111682Y-70433891D01*
X205111681Y-70433891D01*
X204949278Y-70506197D01*
X204949276Y-70506198D01*
X204943248Y-70508882D01*
X204937907Y-70512762D01*
X204937906Y-70512763D01*
X204898857Y-70541134D01*
X204788747Y-70621134D01*
X204784326Y-70626044D01*
X204784325Y-70626045D01*
X204677354Y-70744849D01*
X204660960Y-70763056D01*
X204565473Y-70928444D01*
X204506458Y-71110072D01*
X204505768Y-71116633D01*
X204505768Y-71116635D01*
X204498819Y-71182749D01*
X204486496Y-71300000D01*
X204487186Y-71306565D01*
X204503955Y-71466109D01*
X204506458Y-71489928D01*
X204565473Y-71671556D01*
X204568776Y-71677278D01*
X204568777Y-71677279D01*
X204603257Y-71737000D01*
X204619995Y-71805995D01*
X204603257Y-71863000D01*
X204574640Y-71912567D01*
X204565473Y-71928444D01*
X204506458Y-72110072D01*
X204505768Y-72116633D01*
X204505768Y-72116635D01*
X204498819Y-72182749D01*
X204486496Y-72300000D01*
X203718105Y-72300000D01*
X203702768Y-72273435D01*
X203694365Y-72258882D01*
X203639040Y-72163056D01*
X203597243Y-72116635D01*
X203515675Y-72026045D01*
X203515674Y-72026044D01*
X203511253Y-72021134D01*
X203356752Y-71908882D01*
X203350724Y-71906198D01*
X203350722Y-71906197D01*
X203188319Y-71833891D01*
X203188318Y-71833891D01*
X203182288Y-71831206D01*
X203088887Y-71811353D01*
X203001944Y-71792872D01*
X203001939Y-71792872D01*
X202995487Y-71791500D01*
X202804513Y-71791500D01*
X202798061Y-71792872D01*
X202798056Y-71792872D01*
X202711113Y-71811353D01*
X202617712Y-71831206D01*
X202611682Y-71833891D01*
X202611681Y-71833891D01*
X202449278Y-71906197D01*
X202449276Y-71906198D01*
X202443248Y-71908882D01*
X202437907Y-71912762D01*
X202437906Y-71912763D01*
X202374061Y-71959149D01*
X202307193Y-71983008D01*
X202238041Y-71966927D01*
X202225939Y-71959149D01*
X202162094Y-71912763D01*
X202162093Y-71912762D01*
X202156752Y-71908882D01*
X202150724Y-71906198D01*
X202150722Y-71906197D01*
X201988319Y-71833891D01*
X201988318Y-71833891D01*
X201982288Y-71831206D01*
X201888887Y-71811353D01*
X201801944Y-71792872D01*
X201801939Y-71792872D01*
X201795487Y-71791500D01*
X201604513Y-71791500D01*
X201598061Y-71792872D01*
X201598056Y-71792872D01*
X201511113Y-71811353D01*
X201417712Y-71831206D01*
X201411682Y-71833891D01*
X201411681Y-71833891D01*
X201249278Y-71906197D01*
X201249276Y-71906198D01*
X201243248Y-71908882D01*
X201237907Y-71912762D01*
X201237906Y-71912763D01*
X201174061Y-71959149D01*
X201107193Y-71983008D01*
X201038041Y-71966927D01*
X201025939Y-71959149D01*
X200962094Y-71912763D01*
X200962093Y-71912762D01*
X200956752Y-71908882D01*
X200950724Y-71906198D01*
X200950722Y-71906197D01*
X200788319Y-71833891D01*
X200788318Y-71833891D01*
X200782288Y-71831206D01*
X200688887Y-71811353D01*
X200601944Y-71792872D01*
X200601939Y-71792872D01*
X200595487Y-71791500D01*
X200404513Y-71791500D01*
X200398061Y-71792872D01*
X200398056Y-71792872D01*
X200311113Y-71811353D01*
X200217712Y-71831206D01*
X200211682Y-71833891D01*
X200211681Y-71833891D01*
X200049278Y-71906197D01*
X200049276Y-71906198D01*
X200043248Y-71908882D01*
X199888747Y-72021134D01*
X199884326Y-72026044D01*
X199884325Y-72026045D01*
X199802758Y-72116635D01*
X199760960Y-72163056D01*
X199705635Y-72258882D01*
X199697233Y-72273435D01*
X199665473Y-72328444D01*
X199606458Y-72510072D01*
X199605768Y-72516633D01*
X199605768Y-72516635D01*
X199592248Y-72645271D01*
X199586496Y-72700000D01*
X195791531Y-72700000D01*
X195784527Y-72678444D01*
X195689040Y-72513056D01*
X195683196Y-72506565D01*
X195565675Y-72376045D01*
X195565674Y-72376044D01*
X195561253Y-72371134D01*
X195435818Y-72280000D01*
X195412094Y-72262763D01*
X195412093Y-72262762D01*
X195406752Y-72258882D01*
X195400724Y-72256198D01*
X195400722Y-72256197D01*
X195238319Y-72183891D01*
X195238318Y-72183891D01*
X195232288Y-72181206D01*
X195138888Y-72161353D01*
X195051944Y-72142872D01*
X195051939Y-72142872D01*
X195045487Y-72141500D01*
X194854513Y-72141500D01*
X194848061Y-72142872D01*
X194848056Y-72142872D01*
X194761112Y-72161353D01*
X194667712Y-72181206D01*
X194661682Y-72183891D01*
X194661681Y-72183891D01*
X194499279Y-72256197D01*
X194493248Y-72258882D01*
X194487911Y-72262760D01*
X194482186Y-72266065D01*
X194481294Y-72264520D01*
X194422664Y-72285437D01*
X194353513Y-72269354D01*
X194321841Y-72243955D01*
X194211253Y-72121134D01*
X194080375Y-72026045D01*
X194062094Y-72012763D01*
X194062093Y-72012762D01*
X194056752Y-72008882D01*
X194050724Y-72006198D01*
X194050722Y-72006197D01*
X193888319Y-71933891D01*
X193888318Y-71933891D01*
X193882288Y-71931206D01*
X193788887Y-71911353D01*
X193701944Y-71892872D01*
X193701939Y-71892872D01*
X193695487Y-71891500D01*
X193504513Y-71891500D01*
X193498061Y-71892872D01*
X193498056Y-71892872D01*
X193411113Y-71911353D01*
X193317712Y-71931206D01*
X193311682Y-71933891D01*
X193311681Y-71933891D01*
X193149278Y-72006197D01*
X193149276Y-72006198D01*
X193143248Y-72008882D01*
X193137907Y-72012762D01*
X193137906Y-72012763D01*
X193119625Y-72026045D01*
X192988747Y-72121134D01*
X192860960Y-72263056D01*
X192765473Y-72428444D01*
X192706458Y-72610072D01*
X192705768Y-72616633D01*
X192705768Y-72616635D01*
X192702098Y-72651556D01*
X192686496Y-72800000D01*
X187477285Y-72800000D01*
X187370920Y-72681870D01*
X187340202Y-72617863D01*
X187344723Y-72558624D01*
X187365904Y-72493435D01*
X187373542Y-72469928D01*
X187380143Y-72407128D01*
X187392814Y-72286565D01*
X187393504Y-72280000D01*
X187383283Y-72182749D01*
X187374232Y-72096635D01*
X187374232Y-72096633D01*
X187373542Y-72090072D01*
X187314527Y-71908444D01*
X187305537Y-71892872D01*
X187264118Y-71821134D01*
X187259422Y-71812999D01*
X187242684Y-71744005D01*
X187259422Y-71687000D01*
X187265035Y-71677279D01*
X187314527Y-71591556D01*
X187373542Y-71409928D01*
X187393504Y-71220000D01*
X187381641Y-71107128D01*
X187374232Y-71036635D01*
X187374232Y-71036633D01*
X187373542Y-71030072D01*
X187314527Y-70848444D01*
X187307888Y-70836944D01*
X187236191Y-70712763D01*
X187219040Y-70683056D01*
X187213839Y-70677279D01*
X187095675Y-70546045D01*
X187095674Y-70546044D01*
X187091253Y-70541134D01*
X186956244Y-70443044D01*
X186942094Y-70432763D01*
X186942093Y-70432762D01*
X186936752Y-70428882D01*
X186930724Y-70426198D01*
X186930722Y-70426197D01*
X186768319Y-70353891D01*
X186768318Y-70353891D01*
X186762288Y-70351206D01*
X186667763Y-70331114D01*
X186581944Y-70312872D01*
X186581939Y-70312872D01*
X186575487Y-70311500D01*
X186384513Y-70311500D01*
X186378058Y-70312872D01*
X186378049Y-70312873D01*
X186266826Y-70336515D01*
X186196035Y-70331114D01*
X186139402Y-70288298D01*
X186114908Y-70221660D01*
X186130329Y-70152358D01*
X186166566Y-70111334D01*
X186205907Y-70082751D01*
X186205912Y-70082746D01*
X186211253Y-70078866D01*
X186339040Y-69936944D01*
X186434527Y-69771556D01*
X186493542Y-69589928D01*
X186494558Y-69580267D01*
X186512814Y-69406565D01*
X186513504Y-69400000D01*
X186510510Y-69371516D01*
X186494232Y-69216635D01*
X186494232Y-69216633D01*
X186493542Y-69210072D01*
X186434527Y-69028444D01*
X186417502Y-68998955D01*
X186396775Y-68963056D01*
X186339040Y-68863056D01*
X186211253Y-68721134D01*
X186056752Y-68608882D01*
X186050724Y-68606198D01*
X186050722Y-68606197D01*
X185888319Y-68533891D01*
X185888318Y-68533891D01*
X185882288Y-68531206D01*
X185788887Y-68511353D01*
X185701944Y-68492872D01*
X185701939Y-68492872D01*
X185695487Y-68491500D01*
X185504513Y-68491500D01*
X185498061Y-68492872D01*
X185498056Y-68492872D01*
X185411113Y-68511353D01*
X185317712Y-68531206D01*
X185311682Y-68533891D01*
X185311681Y-68533891D01*
X185149278Y-68606197D01*
X185149276Y-68606198D01*
X185143248Y-68608882D01*
X184988747Y-68721134D01*
X184860960Y-68863056D01*
X184803225Y-68963056D01*
X184782499Y-68998955D01*
X184765473Y-69028444D01*
X184706458Y-69210072D01*
X184705768Y-69216633D01*
X184705768Y-69216635D01*
X184689490Y-69371516D01*
X184686496Y-69400000D01*
X184687186Y-69406565D01*
X184705443Y-69580267D01*
X184706458Y-69589928D01*
X184765473Y-69771556D01*
X184860960Y-69936944D01*
X184988747Y-70078866D01*
X185143248Y-70191118D01*
X185149276Y-70193802D01*
X185149278Y-70193803D01*
X185241200Y-70234729D01*
X185317712Y-70268794D01*
X185409471Y-70288298D01*
X185498056Y-70307128D01*
X185498061Y-70307128D01*
X185504513Y-70308500D01*
X185695487Y-70308500D01*
X185701942Y-70307128D01*
X185701951Y-70307127D01*
X185813174Y-70283485D01*
X185883965Y-70288886D01*
X185940598Y-70331702D01*
X185965092Y-70398340D01*
X185949671Y-70467642D01*
X185913434Y-70508666D01*
X185874093Y-70537249D01*
X185874091Y-70537251D01*
X185868747Y-70541134D01*
X185864326Y-70546044D01*
X185864325Y-70546045D01*
X185746162Y-70677279D01*
X185740960Y-70683056D01*
X185723809Y-70712763D01*
X185652113Y-70836944D01*
X185645473Y-70848444D01*
X185586458Y-71030072D01*
X185585768Y-71036633D01*
X185585768Y-71036635D01*
X185578359Y-71107128D01*
X185566496Y-71220000D01*
X185586458Y-71409928D01*
X185645473Y-71591556D01*
X185694966Y-71677279D01*
X185700578Y-71687000D01*
X185717316Y-71755995D01*
X185700578Y-71812999D01*
X185695882Y-71821134D01*
X185654464Y-71892872D01*
X185645473Y-71908444D01*
X185586458Y-72090072D01*
X185585768Y-72096633D01*
X185585768Y-72096635D01*
X185576717Y-72182749D01*
X185566496Y-72280000D01*
X185567186Y-72286565D01*
X185579858Y-72407128D01*
X185586458Y-72469928D01*
X185645473Y-72651556D01*
X185648776Y-72657278D01*
X185648777Y-72657279D01*
X185682686Y-72716010D01*
X185740960Y-72816944D01*
X185745378Y-72821851D01*
X185745379Y-72821852D01*
X185859080Y-72948130D01*
X185889798Y-73012137D01*
X185885277Y-73071377D01*
X185871565Y-73113577D01*
X185831491Y-73172183D01*
X185766094Y-73199819D01*
X185725535Y-73197887D01*
X185701944Y-73192872D01*
X185701940Y-73192872D01*
X185695487Y-73191500D01*
X185504513Y-73191500D01*
X185498061Y-73192872D01*
X185498056Y-73192872D01*
X185411113Y-73211353D01*
X185317712Y-73231206D01*
X185311682Y-73233891D01*
X185311681Y-73233891D01*
X185149278Y-73306197D01*
X185149276Y-73306198D01*
X185143248Y-73308882D01*
X184988747Y-73421134D01*
X184984326Y-73426044D01*
X184984325Y-73426045D01*
X184881785Y-73539928D01*
X184860960Y-73563056D01*
X184844335Y-73591852D01*
X184782958Y-73698160D01*
X184765473Y-73728444D01*
X184706458Y-73910072D01*
X184705768Y-73916633D01*
X184705768Y-73916635D01*
X184693972Y-74028866D01*
X184686496Y-74100000D01*
X184687186Y-74106565D01*
X184703011Y-74257128D01*
X184706458Y-74289928D01*
X184765473Y-74471556D01*
X184860960Y-74636944D01*
X184865378Y-74641851D01*
X184865379Y-74641852D01*
X184931863Y-74715690D01*
X184962581Y-74779697D01*
X184953816Y-74850151D01*
X184931863Y-74884310D01*
X184883836Y-74937650D01*
X184860960Y-74963056D01*
X184765473Y-75128444D01*
X184706458Y-75310072D01*
X184686496Y-75500000D01*
X184687186Y-75506565D01*
X184705129Y-75677279D01*
X184706458Y-75689928D01*
X184765473Y-75871556D01*
X184806059Y-75941852D01*
X184818354Y-75963148D01*
X184835092Y-76032143D01*
X184811872Y-76099235D01*
X184774509Y-76133922D01*
X184694516Y-76182367D01*
X184625890Y-76200545D01*
X184555187Y-76176526D01*
X184536843Y-76163198D01*
X184525471Y-76156632D01*
X184363161Y-76084367D01*
X184350675Y-76080310D01*
X184346722Y-76079470D01*
X184332659Y-76080543D01*
X184329000Y-76090497D01*
X184329000Y-77328000D01*
X184308998Y-77396121D01*
X184255342Y-77442614D01*
X184203000Y-77454000D01*
X183947000Y-77454000D01*
X183878879Y-77433998D01*
X183832386Y-77380342D01*
X183821000Y-77328000D01*
X183821000Y-76093818D01*
X183817027Y-76080287D01*
X183806532Y-76078778D01*
X183799327Y-76080310D01*
X183782765Y-76085691D01*
X183711798Y-76087718D01*
X183651000Y-76051055D01*
X183635721Y-76027754D01*
X183634527Y-76028444D01*
X183614527Y-75993803D01*
X183539040Y-75863056D01*
X183411253Y-75721134D01*
X183256752Y-75608882D01*
X183250724Y-75606198D01*
X183250722Y-75606197D01*
X183088319Y-75533891D01*
X183088318Y-75533891D01*
X183082288Y-75531206D01*
X182966362Y-75506565D01*
X182901944Y-75492872D01*
X182901939Y-75492872D01*
X182895487Y-75491500D01*
X182704513Y-75491500D01*
X182698061Y-75492872D01*
X182698056Y-75492872D01*
X182633638Y-75506565D01*
X182517712Y-75531206D01*
X182511682Y-75533891D01*
X182511681Y-75533891D01*
X182349278Y-75606197D01*
X182349276Y-75606198D01*
X182343248Y-75608882D01*
X182188747Y-75721134D01*
X182060960Y-75863056D01*
X181965473Y-76028444D01*
X181906458Y-76210072D01*
X181905768Y-76216633D01*
X181905768Y-76216635D01*
X181893494Y-76333416D01*
X181886496Y-76400000D01*
X181887186Y-76406565D01*
X181893659Y-76468148D01*
X181906458Y-76589928D01*
X181965473Y-76771556D01*
X182060960Y-76936944D01*
X182065378Y-76941851D01*
X182065379Y-76941852D01*
X182111825Y-76993435D01*
X182188747Y-77078866D01*
X182343248Y-77191118D01*
X182349276Y-77193802D01*
X182349278Y-77193803D01*
X182439318Y-77233891D01*
X182517712Y-77268794D01*
X182585200Y-77283139D01*
X182698056Y-77307128D01*
X182698061Y-77307128D01*
X182704513Y-77308500D01*
X182895487Y-77308500D01*
X182901940Y-77307128D01*
X182901953Y-77307127D01*
X183014803Y-77283139D01*
X183085593Y-77288540D01*
X183142226Y-77331357D01*
X183166720Y-77397994D01*
X183167000Y-77406385D01*
X183167000Y-77494302D01*
X183167344Y-77500862D01*
X183181259Y-77633261D01*
X183183989Y-77646102D01*
X183238890Y-77815070D01*
X183244391Y-77827425D01*
X183253826Y-77897792D01*
X183223720Y-77962090D01*
X183163632Y-77999903D01*
X183155484Y-78001921D01*
X183017712Y-78031206D01*
X183011682Y-78033891D01*
X183011681Y-78033891D01*
X182849278Y-78106197D01*
X182849276Y-78106198D01*
X182843248Y-78108882D01*
X182688747Y-78221134D01*
X182684326Y-78226044D01*
X182684325Y-78226045D01*
X182565729Y-78357760D01*
X182560960Y-78363056D01*
X182508119Y-78454579D01*
X182469049Y-78522251D01*
X182465473Y-78528444D01*
X182452479Y-78568437D01*
X182440782Y-78604436D01*
X182400709Y-78663042D01*
X182335312Y-78690679D01*
X182320949Y-78691500D01*
X182204513Y-78691500D01*
X182198061Y-78692872D01*
X182198056Y-78692872D01*
X182117139Y-78710072D01*
X182017712Y-78731206D01*
X182011682Y-78733891D01*
X182011681Y-78733891D01*
X181849278Y-78806197D01*
X181849276Y-78806198D01*
X181843248Y-78808882D01*
X181688747Y-78921134D01*
X181684326Y-78926044D01*
X181684325Y-78926045D01*
X181571244Y-79051635D01*
X181560960Y-79063056D01*
X181465473Y-79228444D01*
X181406458Y-79410072D01*
X181405768Y-79416633D01*
X181405768Y-79416635D01*
X181396043Y-79509170D01*
X181369030Y-79574827D01*
X181310809Y-79615457D01*
X181270733Y-79622000D01*
X181172115Y-79622000D01*
X181156876Y-79626475D01*
X181155671Y-79627865D01*
X181154000Y-79635548D01*
X181154000Y-81128000D01*
X181133998Y-81196121D01*
X181080342Y-81242614D01*
X181028000Y-81254000D01*
X180772000Y-81254000D01*
X180703879Y-81233998D01*
X180657386Y-81180342D01*
X180646000Y-81128000D01*
X180646000Y-79640116D01*
X180641525Y-79624877D01*
X180640135Y-79623672D01*
X180632452Y-79622001D01*
X180232905Y-79622001D01*
X180226386Y-79622338D01*
X180130794Y-79632257D01*
X180117397Y-79635150D01*
X180073875Y-79649669D01*
X180002925Y-79652253D01*
X179941842Y-79616068D01*
X179910018Y-79552604D01*
X179908000Y-79530145D01*
X179908000Y-77995305D01*
X179928002Y-77927184D01*
X179981658Y-77880691D01*
X180051932Y-77870587D01*
X180116512Y-77900081D01*
X180127634Y-77910993D01*
X180188747Y-77978866D01*
X180343248Y-78091118D01*
X180349276Y-78093802D01*
X180349278Y-78093803D01*
X180506441Y-78163776D01*
X180517712Y-78168794D01*
X180611113Y-78188647D01*
X180698056Y-78207128D01*
X180698061Y-78207128D01*
X180704513Y-78208500D01*
X180895487Y-78208500D01*
X180901939Y-78207128D01*
X180901944Y-78207128D01*
X180988887Y-78188647D01*
X181082288Y-78168794D01*
X181093559Y-78163776D01*
X181250722Y-78093803D01*
X181250724Y-78093802D01*
X181256752Y-78091118D01*
X181411253Y-77978866D01*
X181437068Y-77950196D01*
X181534621Y-77841852D01*
X181534622Y-77841851D01*
X181539040Y-77836944D01*
X181624533Y-77688866D01*
X181631223Y-77677279D01*
X181631224Y-77677278D01*
X181634527Y-77671556D01*
X181693542Y-77489928D01*
X181699421Y-77433998D01*
X181712814Y-77306565D01*
X181713504Y-77300000D01*
X181700206Y-77173477D01*
X181694232Y-77116635D01*
X181694232Y-77116633D01*
X181693542Y-77110072D01*
X181634527Y-76928444D01*
X181539040Y-76763056D01*
X181473710Y-76690499D01*
X181415675Y-76626045D01*
X181415674Y-76626044D01*
X181411253Y-76621134D01*
X181256752Y-76508882D01*
X181250724Y-76506198D01*
X181250722Y-76506197D01*
X181088319Y-76433891D01*
X181088318Y-76433891D01*
X181082288Y-76431206D01*
X180966362Y-76406565D01*
X180901944Y-76392872D01*
X180901939Y-76392872D01*
X180895487Y-76391500D01*
X180704513Y-76391500D01*
X180698061Y-76392872D01*
X180698056Y-76392872D01*
X180633638Y-76406565D01*
X180517712Y-76431206D01*
X180511682Y-76433891D01*
X180511681Y-76433891D01*
X180349278Y-76506197D01*
X180349276Y-76506198D01*
X180343248Y-76508882D01*
X180188747Y-76621134D01*
X180184326Y-76626044D01*
X180184325Y-76626045D01*
X180182165Y-76628444D01*
X180144599Y-76670166D01*
X180127636Y-76689005D01*
X180067190Y-76726245D01*
X179996207Y-76724893D01*
X179937222Y-76685380D01*
X179908964Y-76620249D01*
X179908000Y-76604695D01*
X179908000Y-73534500D01*
X179928002Y-73466379D01*
X179981658Y-73419886D01*
X180034000Y-73408500D01*
X180145487Y-73408500D01*
X180151939Y-73407128D01*
X180151944Y-73407128D01*
X180266635Y-73382749D01*
X180332288Y-73368794D01*
X180349639Y-73361069D01*
X180500722Y-73293803D01*
X180500724Y-73293802D01*
X180506752Y-73291118D01*
X180545376Y-73263056D01*
X180650939Y-73186360D01*
X180717807Y-73162501D01*
X180786958Y-73178582D01*
X180799061Y-73186360D01*
X180904624Y-73263056D01*
X180943248Y-73291118D01*
X180949276Y-73293802D01*
X180949278Y-73293803D01*
X181100361Y-73361069D01*
X181117712Y-73368794D01*
X181183365Y-73382749D01*
X181298056Y-73407128D01*
X181298061Y-73407128D01*
X181304513Y-73408500D01*
X181495487Y-73408500D01*
X181501939Y-73407128D01*
X181501944Y-73407128D01*
X181616635Y-73382749D01*
X181682288Y-73368794D01*
X181699639Y-73361069D01*
X181850722Y-73293803D01*
X181850724Y-73293802D01*
X181856752Y-73291118D01*
X182011253Y-73178866D01*
X182015675Y-73173955D01*
X182134621Y-73041852D01*
X182134622Y-73041851D01*
X182139040Y-73036944D01*
X182234527Y-72871556D01*
X182293542Y-72689928D01*
X182294872Y-72677279D01*
X182312814Y-72506565D01*
X182313504Y-72500000D01*
X182309654Y-72463365D01*
X182294232Y-72316635D01*
X182294232Y-72316633D01*
X182293542Y-72310072D01*
X182234527Y-72128444D01*
X182139040Y-71963056D01*
X182089161Y-71907659D01*
X182015675Y-71826045D01*
X182015674Y-71826044D01*
X182011253Y-71821134D01*
X181912157Y-71749136D01*
X181862094Y-71712763D01*
X181862093Y-71712762D01*
X181856752Y-71708882D01*
X181850724Y-71706198D01*
X181850722Y-71706197D01*
X181688319Y-71633891D01*
X181688318Y-71633891D01*
X181682288Y-71631206D01*
X181588888Y-71611353D01*
X181501944Y-71592872D01*
X181501939Y-71592872D01*
X181495487Y-71591500D01*
X181304513Y-71591500D01*
X181298061Y-71592872D01*
X181298056Y-71592872D01*
X181211112Y-71611353D01*
X181117712Y-71631206D01*
X181111682Y-71633891D01*
X181111681Y-71633891D01*
X180949278Y-71706197D01*
X180949276Y-71706198D01*
X180943248Y-71708882D01*
X180937907Y-71712762D01*
X180937906Y-71712763D01*
X180799061Y-71813640D01*
X180732193Y-71837499D01*
X180663042Y-71821418D01*
X180650939Y-71813640D01*
X180512094Y-71712763D01*
X180512093Y-71712762D01*
X180506752Y-71708882D01*
X180500724Y-71706198D01*
X180500722Y-71706197D01*
X180338319Y-71633891D01*
X180338318Y-71633891D01*
X180332288Y-71631206D01*
X180238888Y-71611353D01*
X180151944Y-71592872D01*
X180151939Y-71592872D01*
X180145487Y-71591500D01*
X180034000Y-71591500D01*
X179965879Y-71571498D01*
X179919386Y-71517842D01*
X179908000Y-71465500D01*
X179908000Y-68325000D01*
X182461496Y-68325000D01*
X182462186Y-68331565D01*
X182478996Y-68491500D01*
X182481458Y-68514928D01*
X182540473Y-68696556D01*
X182543776Y-68702278D01*
X182543777Y-68702279D01*
X182560490Y-68731226D01*
X182635960Y-68861944D01*
X182640378Y-68866851D01*
X182640379Y-68866852D01*
X182732150Y-68968774D01*
X182763747Y-69003866D01*
X182918248Y-69116118D01*
X182924276Y-69118802D01*
X182924278Y-69118803D01*
X183086681Y-69191109D01*
X183092712Y-69193794D01*
X183169294Y-69210072D01*
X183273056Y-69232128D01*
X183273061Y-69232128D01*
X183279513Y-69233500D01*
X183470487Y-69233500D01*
X183476939Y-69232128D01*
X183476944Y-69232128D01*
X183580706Y-69210072D01*
X183657288Y-69193794D01*
X183663319Y-69191109D01*
X183825722Y-69118803D01*
X183825724Y-69118802D01*
X183831752Y-69116118D01*
X183986253Y-69003866D01*
X184017850Y-68968774D01*
X184109621Y-68866852D01*
X184109622Y-68866851D01*
X184114040Y-68861944D01*
X184189510Y-68731226D01*
X184206223Y-68702279D01*
X184206224Y-68702278D01*
X184209527Y-68696556D01*
X184268542Y-68514928D01*
X184271005Y-68491500D01*
X184287814Y-68331565D01*
X184288504Y-68325000D01*
X184287814Y-68318435D01*
X184275366Y-68200000D01*
X186886496Y-68200000D01*
X186887186Y-68206565D01*
X186892608Y-68258148D01*
X186906458Y-68389928D01*
X186965473Y-68571556D01*
X187060960Y-68736944D01*
X187065378Y-68741851D01*
X187065379Y-68741852D01*
X187179660Y-68868774D01*
X187188747Y-68878866D01*
X187343248Y-68991118D01*
X187349276Y-68993802D01*
X187349278Y-68993803D01*
X187441200Y-69034729D01*
X187517712Y-69068794D01*
X187611113Y-69088647D01*
X187698056Y-69107128D01*
X187698061Y-69107128D01*
X187704513Y-69108500D01*
X187895487Y-69108500D01*
X187901939Y-69107128D01*
X187901944Y-69107128D01*
X187988887Y-69088647D01*
X188082288Y-69068794D01*
X188158800Y-69034729D01*
X188250722Y-68993803D01*
X188250724Y-68993802D01*
X188256752Y-68991118D01*
X188411253Y-68878866D01*
X188420340Y-68868774D01*
X188482264Y-68800000D01*
X189186496Y-68800000D01*
X189187186Y-68806565D01*
X189204235Y-68968774D01*
X189206458Y-68989928D01*
X189265473Y-69171556D01*
X189360960Y-69336944D01*
X189365375Y-69341847D01*
X189365379Y-69341852D01*
X189423647Y-69406565D01*
X189488747Y-69478866D01*
X189626116Y-69578671D01*
X189628313Y-69580267D01*
X189671667Y-69636489D01*
X189677742Y-69707226D01*
X189647890Y-69766511D01*
X189560960Y-69863056D01*
X189465473Y-70028444D01*
X189406458Y-70210072D01*
X189405768Y-70216633D01*
X189405768Y-70216635D01*
X189396316Y-70306565D01*
X189386496Y-70400000D01*
X189387186Y-70406565D01*
X189405129Y-70577279D01*
X189406458Y-70589928D01*
X189465473Y-70771556D01*
X189468776Y-70777278D01*
X189468777Y-70777279D01*
X189476080Y-70789928D01*
X189560960Y-70936944D01*
X189565378Y-70941851D01*
X189565379Y-70941852D01*
X189679678Y-71068794D01*
X189688747Y-71078866D01*
X189787843Y-71150864D01*
X189826385Y-71178866D01*
X189843248Y-71191118D01*
X189849276Y-71193802D01*
X189849278Y-71193803D01*
X190011681Y-71266109D01*
X190017712Y-71268794D01*
X190083365Y-71282749D01*
X190198056Y-71307128D01*
X190198061Y-71307128D01*
X190204513Y-71308500D01*
X190395487Y-71308500D01*
X190401939Y-71307128D01*
X190401944Y-71307128D01*
X190516635Y-71282749D01*
X190582288Y-71268794D01*
X190588319Y-71266109D01*
X190750722Y-71193803D01*
X190750724Y-71193802D01*
X190756752Y-71191118D01*
X190773616Y-71178866D01*
X190812157Y-71150864D01*
X190911253Y-71078866D01*
X190922740Y-71066109D01*
X190987844Y-70993803D01*
X191001385Y-70978765D01*
X191061830Y-70941525D01*
X191132813Y-70942877D01*
X191177553Y-70971618D01*
X191179423Y-70969541D01*
X191184325Y-70973954D01*
X191188747Y-70978866D01*
X191287843Y-71050864D01*
X191326385Y-71078866D01*
X191343248Y-71091118D01*
X191349276Y-71093802D01*
X191349278Y-71093803D01*
X191433332Y-71131226D01*
X191517712Y-71168794D01*
X191583365Y-71182749D01*
X191698056Y-71207128D01*
X191698061Y-71207128D01*
X191704513Y-71208500D01*
X191895487Y-71208500D01*
X191901939Y-71207128D01*
X191901944Y-71207128D01*
X192016635Y-71182749D01*
X192082288Y-71168794D01*
X192166668Y-71131226D01*
X192250722Y-71093803D01*
X192250724Y-71093802D01*
X192256752Y-71091118D01*
X192273616Y-71078866D01*
X192312157Y-71050864D01*
X192411253Y-70978866D01*
X192517218Y-70861180D01*
X192534621Y-70841852D01*
X192534622Y-70841851D01*
X192539040Y-70836944D01*
X192600076Y-70731226D01*
X192631223Y-70677279D01*
X192631224Y-70677278D01*
X192634527Y-70671556D01*
X192657777Y-70600000D01*
X194186496Y-70600000D01*
X194187186Y-70606565D01*
X194205129Y-70777279D01*
X194206458Y-70789928D01*
X194265473Y-70971556D01*
X194360960Y-71136944D01*
X194365378Y-71141851D01*
X194365379Y-71141852D01*
X194479678Y-71268794D01*
X194488747Y-71278866D01*
X194541223Y-71316992D01*
X194600000Y-71359696D01*
X194643248Y-71391118D01*
X194649276Y-71393802D01*
X194649278Y-71393803D01*
X194811681Y-71466109D01*
X194817712Y-71468794D01*
X194886263Y-71483365D01*
X194998056Y-71507128D01*
X194998061Y-71507128D01*
X195004513Y-71508500D01*
X195195487Y-71508500D01*
X195201939Y-71507128D01*
X195201944Y-71507128D01*
X195313737Y-71483365D01*
X195382288Y-71468794D01*
X195388319Y-71466109D01*
X195550722Y-71393803D01*
X195550724Y-71393802D01*
X195556752Y-71391118D01*
X195600001Y-71359696D01*
X195658777Y-71316992D01*
X195711253Y-71278866D01*
X195720322Y-71268794D01*
X195834621Y-71141852D01*
X195834622Y-71141851D01*
X195839040Y-71136944D01*
X195934527Y-70971556D01*
X195993542Y-70789928D01*
X195994872Y-70777279D01*
X196012814Y-70606565D01*
X196013504Y-70600000D01*
X199586496Y-70600000D01*
X199587186Y-70606565D01*
X199605129Y-70777279D01*
X199606458Y-70789928D01*
X199665473Y-70971556D01*
X199760960Y-71136944D01*
X199765378Y-71141851D01*
X199765379Y-71141852D01*
X199879678Y-71268794D01*
X199888747Y-71278866D01*
X199941223Y-71316992D01*
X200000000Y-71359696D01*
X200043248Y-71391118D01*
X200049276Y-71393802D01*
X200049278Y-71393803D01*
X200211681Y-71466109D01*
X200217712Y-71468794D01*
X200286263Y-71483365D01*
X200398056Y-71507128D01*
X200398061Y-71507128D01*
X200404513Y-71508500D01*
X200595487Y-71508500D01*
X200601939Y-71507128D01*
X200601944Y-71507128D01*
X200713737Y-71483365D01*
X200782288Y-71468794D01*
X200788319Y-71466109D01*
X200950722Y-71393803D01*
X200950724Y-71393802D01*
X200956752Y-71391118D01*
X200985590Y-71370166D01*
X201025939Y-71340851D01*
X201092807Y-71316992D01*
X201161959Y-71333073D01*
X201174061Y-71340851D01*
X201214410Y-71370166D01*
X201243248Y-71391118D01*
X201249276Y-71393802D01*
X201249278Y-71393803D01*
X201411681Y-71466109D01*
X201417712Y-71468794D01*
X201486263Y-71483365D01*
X201598056Y-71507128D01*
X201598061Y-71507128D01*
X201604513Y-71508500D01*
X201795487Y-71508500D01*
X201801939Y-71507128D01*
X201801944Y-71507128D01*
X201913737Y-71483365D01*
X201982288Y-71468794D01*
X201988319Y-71466109D01*
X202150722Y-71393803D01*
X202150724Y-71393802D01*
X202156752Y-71391118D01*
X202185590Y-71370166D01*
X202225939Y-71340851D01*
X202292807Y-71316992D01*
X202361959Y-71333073D01*
X202374061Y-71340851D01*
X202414410Y-71370166D01*
X202443248Y-71391118D01*
X202449276Y-71393802D01*
X202449278Y-71393803D01*
X202611681Y-71466109D01*
X202617712Y-71468794D01*
X202686263Y-71483365D01*
X202798056Y-71507128D01*
X202798061Y-71507128D01*
X202804513Y-71508500D01*
X202995487Y-71508500D01*
X203001939Y-71507128D01*
X203001944Y-71507128D01*
X203113737Y-71483365D01*
X203182288Y-71468794D01*
X203188319Y-71466109D01*
X203350722Y-71393803D01*
X203350724Y-71393802D01*
X203356752Y-71391118D01*
X203400001Y-71359696D01*
X203458777Y-71316992D01*
X203511253Y-71278866D01*
X203520322Y-71268794D01*
X203634621Y-71141852D01*
X203634622Y-71141851D01*
X203639040Y-71136944D01*
X203734527Y-70971556D01*
X203793542Y-70789928D01*
X203794872Y-70777279D01*
X203800752Y-70721329D01*
X203827765Y-70655673D01*
X203885987Y-70615043D01*
X203926062Y-70608500D01*
X204095487Y-70608500D01*
X204101939Y-70607128D01*
X204101944Y-70607128D01*
X204213737Y-70583365D01*
X204282288Y-70568794D01*
X204290201Y-70565271D01*
X204450722Y-70493803D01*
X204450724Y-70493802D01*
X204456752Y-70491118D01*
X204611253Y-70378866D01*
X204692801Y-70288298D01*
X204734621Y-70241852D01*
X204734622Y-70241851D01*
X204739040Y-70236944D01*
X204760370Y-70200000D01*
X207286496Y-70200000D01*
X207287186Y-70206565D01*
X207295271Y-70283485D01*
X207306458Y-70389928D01*
X207365473Y-70571556D01*
X207368776Y-70577278D01*
X207368777Y-70577279D01*
X207386803Y-70608500D01*
X207460960Y-70736944D01*
X207465378Y-70741851D01*
X207465379Y-70741852D01*
X207533269Y-70817251D01*
X207588747Y-70878866D01*
X207676850Y-70942877D01*
X207726385Y-70978866D01*
X207743248Y-70991118D01*
X207749276Y-70993802D01*
X207749278Y-70993803D01*
X207833332Y-71031226D01*
X207917712Y-71068794D01*
X207983365Y-71082749D01*
X208098056Y-71107128D01*
X208098061Y-71107128D01*
X208104513Y-71108500D01*
X208295487Y-71108500D01*
X208301939Y-71107128D01*
X208301944Y-71107128D01*
X208416635Y-71082749D01*
X208482288Y-71068794D01*
X208566668Y-71031226D01*
X208650722Y-70993803D01*
X208650724Y-70993802D01*
X208656752Y-70991118D01*
X208673616Y-70978866D01*
X208723150Y-70942877D01*
X208811253Y-70878866D01*
X208866731Y-70817251D01*
X208934621Y-70741852D01*
X208934622Y-70741851D01*
X208939040Y-70736944D01*
X209013197Y-70608500D01*
X209031223Y-70577279D01*
X209031224Y-70577278D01*
X209034527Y-70571556D01*
X209093542Y-70389928D01*
X209104730Y-70283485D01*
X209112814Y-70206565D01*
X209113504Y-70200000D01*
X209104052Y-70110072D01*
X209094232Y-70016635D01*
X209094232Y-70016633D01*
X209093542Y-70010072D01*
X209034527Y-69828444D01*
X208939040Y-69663056D01*
X208922177Y-69644327D01*
X208815675Y-69526045D01*
X208815674Y-69526044D01*
X208811253Y-69521134D01*
X208656752Y-69408882D01*
X208650724Y-69406198D01*
X208650722Y-69406197D01*
X208488319Y-69333891D01*
X208488318Y-69333891D01*
X208482288Y-69331206D01*
X208382861Y-69310072D01*
X208301944Y-69292872D01*
X208301939Y-69292872D01*
X208295487Y-69291500D01*
X208104513Y-69291500D01*
X208098061Y-69292872D01*
X208098056Y-69292872D01*
X208017139Y-69310072D01*
X207917712Y-69331206D01*
X207911682Y-69333891D01*
X207911681Y-69333891D01*
X207749278Y-69406197D01*
X207749276Y-69406198D01*
X207743248Y-69408882D01*
X207588747Y-69521134D01*
X207584326Y-69526044D01*
X207584325Y-69526045D01*
X207477824Y-69644327D01*
X207460960Y-69663056D01*
X207365473Y-69828444D01*
X207306458Y-70010072D01*
X207305768Y-70016633D01*
X207305768Y-70016635D01*
X207295948Y-70110072D01*
X207286496Y-70200000D01*
X204760370Y-70200000D01*
X204834527Y-70071556D01*
X204893542Y-69889928D01*
X204894270Y-69883008D01*
X204912814Y-69706565D01*
X204913504Y-69700000D01*
X204909105Y-69658148D01*
X204894232Y-69516635D01*
X204894232Y-69516633D01*
X204893542Y-69510072D01*
X204834527Y-69328444D01*
X204813990Y-69292872D01*
X204757579Y-69195166D01*
X204739040Y-69163056D01*
X204699195Y-69118803D01*
X204615675Y-69026045D01*
X204615674Y-69026044D01*
X204611253Y-69021134D01*
X204456752Y-68908882D01*
X204450724Y-68906198D01*
X204450722Y-68906197D01*
X204288319Y-68833891D01*
X204288318Y-68833891D01*
X204282288Y-68831206D01*
X204166362Y-68806565D01*
X204101944Y-68792872D01*
X204101939Y-68792872D01*
X204095487Y-68791500D01*
X203904513Y-68791500D01*
X203898061Y-68792872D01*
X203898056Y-68792872D01*
X203833638Y-68806565D01*
X203717712Y-68831206D01*
X203711682Y-68833891D01*
X203711681Y-68833891D01*
X203549278Y-68906197D01*
X203549276Y-68906198D01*
X203543248Y-68908882D01*
X203388747Y-69021134D01*
X203384326Y-69026044D01*
X203384325Y-69026045D01*
X203300806Y-69118803D01*
X203260960Y-69163056D01*
X203242421Y-69195166D01*
X203186011Y-69292872D01*
X203165473Y-69328444D01*
X203106458Y-69510072D01*
X203105769Y-69516631D01*
X203105768Y-69516634D01*
X203099248Y-69578671D01*
X203072235Y-69644327D01*
X203014013Y-69684957D01*
X202973938Y-69691500D01*
X202804513Y-69691500D01*
X202798061Y-69692872D01*
X202798056Y-69692872D01*
X202712340Y-69711092D01*
X202617712Y-69731206D01*
X202611682Y-69733891D01*
X202611681Y-69733891D01*
X202449278Y-69806197D01*
X202449276Y-69806198D01*
X202443248Y-69808882D01*
X202437907Y-69812762D01*
X202437906Y-69812763D01*
X202374061Y-69859149D01*
X202307193Y-69883008D01*
X202238041Y-69866927D01*
X202225939Y-69859149D01*
X202162094Y-69812763D01*
X202162093Y-69812762D01*
X202156752Y-69808882D01*
X202150724Y-69806198D01*
X202150722Y-69806197D01*
X201988319Y-69733891D01*
X201988318Y-69733891D01*
X201982288Y-69731206D01*
X201887660Y-69711092D01*
X201801944Y-69692872D01*
X201801939Y-69692872D01*
X201795487Y-69691500D01*
X201604513Y-69691500D01*
X201598061Y-69692872D01*
X201598056Y-69692872D01*
X201512340Y-69711092D01*
X201417712Y-69731206D01*
X201411682Y-69733891D01*
X201411681Y-69733891D01*
X201249278Y-69806197D01*
X201249276Y-69806198D01*
X201243248Y-69808882D01*
X201237907Y-69812762D01*
X201237906Y-69812763D01*
X201174061Y-69859149D01*
X201107193Y-69883008D01*
X201038041Y-69866927D01*
X201025939Y-69859149D01*
X200962094Y-69812763D01*
X200962093Y-69812762D01*
X200956752Y-69808882D01*
X200950724Y-69806198D01*
X200950722Y-69806197D01*
X200788319Y-69733891D01*
X200788318Y-69733891D01*
X200782288Y-69731206D01*
X200687660Y-69711092D01*
X200601944Y-69692872D01*
X200601939Y-69692872D01*
X200595487Y-69691500D01*
X200404513Y-69691500D01*
X200398061Y-69692872D01*
X200398056Y-69692872D01*
X200312340Y-69711092D01*
X200217712Y-69731206D01*
X200211682Y-69733891D01*
X200211681Y-69733891D01*
X200049278Y-69806197D01*
X200049276Y-69806198D01*
X200043248Y-69808882D01*
X200037907Y-69812762D01*
X200037906Y-69812763D01*
X199987843Y-69849136D01*
X199888747Y-69921134D01*
X199884326Y-69926044D01*
X199884325Y-69926045D01*
X199802758Y-70016635D01*
X199760960Y-70063056D01*
X199665473Y-70228444D01*
X199606458Y-70410072D01*
X199605768Y-70416633D01*
X199605768Y-70416635D01*
X199601720Y-70455151D01*
X199586496Y-70600000D01*
X196013504Y-70600000D01*
X195998280Y-70455151D01*
X195994232Y-70416635D01*
X195994232Y-70416633D01*
X195993542Y-70410072D01*
X195934527Y-70228444D01*
X195839040Y-70063056D01*
X195797243Y-70016635D01*
X195715675Y-69926045D01*
X195715674Y-69926044D01*
X195711253Y-69921134D01*
X195612157Y-69849136D01*
X195562094Y-69812763D01*
X195562093Y-69812762D01*
X195556752Y-69808882D01*
X195550724Y-69806198D01*
X195550722Y-69806197D01*
X195388319Y-69733891D01*
X195388318Y-69733891D01*
X195382288Y-69731206D01*
X195287660Y-69711092D01*
X195201944Y-69692872D01*
X195201939Y-69692872D01*
X195195487Y-69691500D01*
X195004513Y-69691500D01*
X194998061Y-69692872D01*
X194998056Y-69692872D01*
X194912340Y-69711092D01*
X194817712Y-69731206D01*
X194811682Y-69733891D01*
X194811681Y-69733891D01*
X194649278Y-69806197D01*
X194649276Y-69806198D01*
X194643248Y-69808882D01*
X194637907Y-69812762D01*
X194637906Y-69812763D01*
X194587843Y-69849136D01*
X194488747Y-69921134D01*
X194484326Y-69926044D01*
X194484325Y-69926045D01*
X194402758Y-70016635D01*
X194360960Y-70063056D01*
X194265473Y-70228444D01*
X194206458Y-70410072D01*
X194205768Y-70416633D01*
X194205768Y-70416635D01*
X194201720Y-70455151D01*
X194186496Y-70600000D01*
X192657777Y-70600000D01*
X192693542Y-70489928D01*
X192695885Y-70467642D01*
X192712814Y-70306565D01*
X192713504Y-70300000D01*
X192709942Y-70266109D01*
X192694232Y-70116635D01*
X192694232Y-70116633D01*
X192693542Y-70110072D01*
X192634527Y-69928444D01*
X192608295Y-69883008D01*
X192582782Y-69838820D01*
X192539040Y-69763056D01*
X192507820Y-69728382D01*
X192415675Y-69626045D01*
X192415674Y-69626044D01*
X192411253Y-69621134D01*
X192280375Y-69526045D01*
X192262094Y-69512763D01*
X192262093Y-69512762D01*
X192256752Y-69508882D01*
X192250724Y-69506198D01*
X192250722Y-69506197D01*
X192088319Y-69433891D01*
X192088318Y-69433891D01*
X192082288Y-69431206D01*
X191988887Y-69411353D01*
X191901944Y-69392872D01*
X191901939Y-69392872D01*
X191895487Y-69391500D01*
X191704513Y-69391500D01*
X191698061Y-69392872D01*
X191698056Y-69392872D01*
X191611113Y-69411353D01*
X191517712Y-69431206D01*
X191511682Y-69433891D01*
X191511681Y-69433891D01*
X191349278Y-69506197D01*
X191349276Y-69506198D01*
X191343248Y-69508882D01*
X191337907Y-69512762D01*
X191337906Y-69512763D01*
X191319625Y-69526045D01*
X191188747Y-69621134D01*
X191184326Y-69626044D01*
X191184325Y-69626045D01*
X191174921Y-69636489D01*
X191109739Y-69708882D01*
X191098616Y-69721235D01*
X191038170Y-69758475D01*
X190967187Y-69757123D01*
X190922447Y-69728382D01*
X190920577Y-69730459D01*
X190915675Y-69726046D01*
X190911253Y-69721134D01*
X190771687Y-69619733D01*
X190728333Y-69563511D01*
X190722258Y-69492774D01*
X190752110Y-69433489D01*
X190839040Y-69336944D01*
X190934527Y-69171556D01*
X190993542Y-68989928D01*
X190995766Y-68968774D01*
X191012814Y-68806565D01*
X191013504Y-68800000D01*
X191012611Y-68791500D01*
X190994232Y-68616635D01*
X190994232Y-68616633D01*
X190993542Y-68610072D01*
X190934527Y-68428444D01*
X190839040Y-68263056D01*
X190711253Y-68121134D01*
X190556752Y-68008882D01*
X190550724Y-68006198D01*
X190550722Y-68006197D01*
X190388319Y-67933891D01*
X190388318Y-67933891D01*
X190382288Y-67931206D01*
X190288888Y-67911353D01*
X190201944Y-67892872D01*
X190201939Y-67892872D01*
X190195487Y-67891500D01*
X190004513Y-67891500D01*
X189998061Y-67892872D01*
X189998056Y-67892872D01*
X189911112Y-67911353D01*
X189817712Y-67931206D01*
X189811682Y-67933891D01*
X189811681Y-67933891D01*
X189649278Y-68006197D01*
X189649276Y-68006198D01*
X189643248Y-68008882D01*
X189488747Y-68121134D01*
X189360960Y-68263056D01*
X189265473Y-68428444D01*
X189206458Y-68610072D01*
X189205768Y-68616633D01*
X189205768Y-68616635D01*
X189187389Y-68791500D01*
X189186496Y-68800000D01*
X188482264Y-68800000D01*
X188534621Y-68741852D01*
X188534622Y-68741851D01*
X188539040Y-68736944D01*
X188634527Y-68571556D01*
X188693542Y-68389928D01*
X188707393Y-68258148D01*
X188712814Y-68206565D01*
X188713504Y-68200000D01*
X188693542Y-68010072D01*
X188634527Y-67828444D01*
X188539040Y-67663056D01*
X188532031Y-67655271D01*
X188415675Y-67526045D01*
X188415674Y-67526044D01*
X188411253Y-67521134D01*
X188256752Y-67408882D01*
X188250724Y-67406198D01*
X188250722Y-67406197D01*
X188088319Y-67333891D01*
X188088318Y-67333891D01*
X188082288Y-67331206D01*
X187988887Y-67311353D01*
X187901944Y-67292872D01*
X187901939Y-67292872D01*
X187895487Y-67291500D01*
X187704513Y-67291500D01*
X187698061Y-67292872D01*
X187698056Y-67292872D01*
X187611113Y-67311353D01*
X187517712Y-67331206D01*
X187511682Y-67333891D01*
X187511681Y-67333891D01*
X187349278Y-67406197D01*
X187349276Y-67406198D01*
X187343248Y-67408882D01*
X187188747Y-67521134D01*
X187184326Y-67526044D01*
X187184325Y-67526045D01*
X187067970Y-67655271D01*
X187060960Y-67663056D01*
X186965473Y-67828444D01*
X186906458Y-68010072D01*
X186886496Y-68200000D01*
X184275366Y-68200000D01*
X184269232Y-68141635D01*
X184269232Y-68141633D01*
X184268542Y-68135072D01*
X184209527Y-67953444D01*
X184114040Y-67788056D01*
X184101344Y-67773955D01*
X183990675Y-67651045D01*
X183990674Y-67651044D01*
X183986253Y-67646134D01*
X183879804Y-67568794D01*
X183837094Y-67537763D01*
X183837093Y-67537762D01*
X183831752Y-67533882D01*
X183825724Y-67531198D01*
X183825722Y-67531197D01*
X183663319Y-67458891D01*
X183663318Y-67458891D01*
X183657288Y-67456206D01*
X183563887Y-67436353D01*
X183476944Y-67417872D01*
X183476939Y-67417872D01*
X183470487Y-67416500D01*
X183279513Y-67416500D01*
X183273061Y-67417872D01*
X183273056Y-67417872D01*
X183186113Y-67436353D01*
X183092712Y-67456206D01*
X183086682Y-67458891D01*
X183086681Y-67458891D01*
X182924278Y-67531197D01*
X182924276Y-67531198D01*
X182918248Y-67533882D01*
X182912907Y-67537762D01*
X182912906Y-67537763D01*
X182870196Y-67568794D01*
X182763747Y-67646134D01*
X182759326Y-67651044D01*
X182759325Y-67651045D01*
X182648657Y-67773955D01*
X182635960Y-67788056D01*
X182540473Y-67953444D01*
X182481458Y-68135072D01*
X182480768Y-68141633D01*
X182480768Y-68141635D01*
X182462186Y-68318435D01*
X182461496Y-68325000D01*
X179908000Y-68325000D01*
X179908000Y-67795305D01*
X179928002Y-67727184D01*
X179981658Y-67680691D01*
X180051932Y-67670587D01*
X180116512Y-67700081D01*
X180127634Y-67710993D01*
X180188747Y-67778866D01*
X180343248Y-67891118D01*
X180349276Y-67893802D01*
X180349278Y-67893803D01*
X180506843Y-67963955D01*
X180517712Y-67968794D01*
X180611112Y-67988647D01*
X180698056Y-68007128D01*
X180698061Y-68007128D01*
X180704513Y-68008500D01*
X180895487Y-68008500D01*
X180901939Y-68007128D01*
X180901944Y-68007128D01*
X180988888Y-67988647D01*
X181082288Y-67968794D01*
X181093157Y-67963955D01*
X181250722Y-67893803D01*
X181250724Y-67893802D01*
X181256752Y-67891118D01*
X181411253Y-67778866D01*
X181522538Y-67655271D01*
X181534621Y-67641852D01*
X181534622Y-67641851D01*
X181539040Y-67636944D01*
X181626069Y-67486206D01*
X181631223Y-67477279D01*
X181631224Y-67477278D01*
X181634527Y-67471556D01*
X181693519Y-67290000D01*
X197876496Y-67290000D01*
X197877186Y-67296565D01*
X197894918Y-67465271D01*
X197896458Y-67479928D01*
X197955473Y-67661556D01*
X197958776Y-67667278D01*
X197958777Y-67667279D01*
X197977715Y-67700081D01*
X198050960Y-67826944D01*
X198055378Y-67831851D01*
X198055379Y-67831852D01*
X198105248Y-67887237D01*
X198178747Y-67968866D01*
X198333248Y-68081118D01*
X198339276Y-68083802D01*
X198339278Y-68083803D01*
X198454431Y-68135072D01*
X198507712Y-68158794D01*
X198601113Y-68178647D01*
X198688056Y-68197128D01*
X198688061Y-68197128D01*
X198694513Y-68198500D01*
X198885487Y-68198500D01*
X198891939Y-68197128D01*
X198891944Y-68197128D01*
X198978887Y-68178647D01*
X199072288Y-68158794D01*
X199125569Y-68135072D01*
X199240722Y-68083803D01*
X199240724Y-68083802D01*
X199246752Y-68081118D01*
X199401253Y-67968866D01*
X199474752Y-67887237D01*
X199524621Y-67831852D01*
X199524622Y-67831851D01*
X199529040Y-67826944D01*
X199602285Y-67700081D01*
X199621223Y-67667279D01*
X199621224Y-67667278D01*
X199624527Y-67661556D01*
X199683542Y-67479928D01*
X199685083Y-67465271D01*
X199702814Y-67296565D01*
X199703504Y-67290000D01*
X199693034Y-67190381D01*
X199684232Y-67106635D01*
X199684232Y-67106633D01*
X199683542Y-67100072D01*
X199624527Y-66918444D01*
X199619694Y-66910072D01*
X199587314Y-66853990D01*
X199529040Y-66753056D01*
X199487180Y-66706565D01*
X199405675Y-66616045D01*
X199405674Y-66616044D01*
X199401253Y-66611134D01*
X199246752Y-66498882D01*
X199240724Y-66496198D01*
X199240722Y-66496197D01*
X199078319Y-66423891D01*
X199078318Y-66423891D01*
X199072288Y-66421206D01*
X198978888Y-66401353D01*
X198891944Y-66382872D01*
X198891939Y-66382872D01*
X198885487Y-66381500D01*
X198694513Y-66381500D01*
X198688061Y-66382872D01*
X198688056Y-66382872D01*
X198601112Y-66401353D01*
X198507712Y-66421206D01*
X198501682Y-66423891D01*
X198501681Y-66423891D01*
X198339278Y-66496197D01*
X198339276Y-66496198D01*
X198333248Y-66498882D01*
X198178747Y-66611134D01*
X198174326Y-66616044D01*
X198174325Y-66616045D01*
X198092821Y-66706565D01*
X198050960Y-66753056D01*
X197992686Y-66853990D01*
X197960307Y-66910072D01*
X197955473Y-66918444D01*
X197896458Y-67100072D01*
X197895768Y-67106633D01*
X197895768Y-67106635D01*
X197886966Y-67190381D01*
X197876496Y-67290000D01*
X181693519Y-67290000D01*
X181693542Y-67289928D01*
X181713504Y-67100000D01*
X181709854Y-67065271D01*
X181702869Y-66998812D01*
X181715641Y-66928974D01*
X181764143Y-66877127D01*
X181782344Y-66868919D01*
X181782288Y-66868794D01*
X181950722Y-66793803D01*
X181950724Y-66793802D01*
X181956752Y-66791118D01*
X182111253Y-66678866D01*
X182172239Y-66611134D01*
X182234621Y-66541852D01*
X182234622Y-66541851D01*
X182239040Y-66536944D01*
X182334527Y-66371556D01*
X182393542Y-66189928D01*
X182394351Y-66182237D01*
X182412814Y-66006565D01*
X182413504Y-66000000D01*
X182411664Y-65982492D01*
X182394232Y-65816635D01*
X182394232Y-65816633D01*
X182393542Y-65810072D01*
X182334527Y-65628444D01*
X182239040Y-65463056D01*
X182122740Y-65333891D01*
X182115675Y-65326045D01*
X182115674Y-65326044D01*
X182111253Y-65321134D01*
X182012157Y-65249136D01*
X181962094Y-65212763D01*
X181962093Y-65212762D01*
X181956752Y-65208882D01*
X181950724Y-65206198D01*
X181950722Y-65206197D01*
X181788319Y-65133891D01*
X181788318Y-65133891D01*
X181782288Y-65131206D01*
X181665553Y-65106393D01*
X181601944Y-65092872D01*
X181601939Y-65092872D01*
X181595487Y-65091500D01*
X181404513Y-65091500D01*
X181398061Y-65092872D01*
X181398056Y-65092872D01*
X181334447Y-65106393D01*
X181217712Y-65131206D01*
X181211682Y-65133891D01*
X181211681Y-65133891D01*
X181049278Y-65206197D01*
X181049276Y-65206198D01*
X181043248Y-65208882D01*
X181037907Y-65212762D01*
X181037906Y-65212763D01*
X180987843Y-65249136D01*
X180888747Y-65321134D01*
X180884326Y-65326044D01*
X180884325Y-65326045D01*
X180877261Y-65333891D01*
X180760960Y-65463056D01*
X180665473Y-65628444D01*
X180606458Y-65810072D01*
X180605768Y-65816633D01*
X180605768Y-65816635D01*
X180588336Y-65982492D01*
X180586496Y-66000000D01*
X180587186Y-66006565D01*
X180597131Y-66101188D01*
X180584359Y-66171026D01*
X180535857Y-66222873D01*
X180517656Y-66231081D01*
X180517712Y-66231206D01*
X180349278Y-66306197D01*
X180349276Y-66306198D01*
X180343248Y-66308882D01*
X180188747Y-66421134D01*
X180184326Y-66426044D01*
X180184325Y-66426045D01*
X180127636Y-66489005D01*
X180067190Y-66526245D01*
X179996207Y-66524893D01*
X179937222Y-66485380D01*
X179908964Y-66420249D01*
X179908000Y-66404695D01*
X179908000Y-64770318D01*
X179928002Y-64702197D01*
X179981658Y-64655704D01*
X180051932Y-64645600D01*
X180073666Y-64650725D01*
X180118608Y-64665631D01*
X180118610Y-64665631D01*
X180125139Y-64667797D01*
X180131975Y-64668497D01*
X180131978Y-64668498D01*
X180175031Y-64672909D01*
X180229600Y-64678500D01*
X181570400Y-64678500D01*
X181573646Y-64678163D01*
X181573650Y-64678163D01*
X181669308Y-64668238D01*
X181669312Y-64668237D01*
X181676166Y-64667526D01*
X181682702Y-64665345D01*
X181682704Y-64665345D01*
X181836998Y-64613868D01*
X181843946Y-64611550D01*
X181994348Y-64518478D01*
X182073214Y-64439474D01*
X182665355Y-64439474D01*
X182670636Y-64446529D01*
X182838087Y-64544380D01*
X182847370Y-64548827D01*
X183049402Y-64625975D01*
X183059300Y-64628851D01*
X183271219Y-64671966D01*
X183281447Y-64673185D01*
X183497560Y-64681111D01*
X183507846Y-64680644D01*
X183722353Y-64653164D01*
X183732439Y-64651021D01*
X183939581Y-64588875D01*
X183949158Y-64585122D01*
X184143378Y-64489975D01*
X184152216Y-64484706D01*
X184203587Y-64448064D01*
X184211988Y-64437364D01*
X184205002Y-64424213D01*
X183452811Y-63672021D01*
X183438868Y-63664408D01*
X183437034Y-63664539D01*
X183430420Y-63668790D01*
X182672112Y-64427099D01*
X182665355Y-64439474D01*
X182073214Y-64439474D01*
X182119305Y-64393303D01*
X182141990Y-64356501D01*
X182208275Y-64248968D01*
X182208276Y-64248966D01*
X182212115Y-64242738D01*
X182244787Y-64144235D01*
X182285218Y-64085875D01*
X182309687Y-64071102D01*
X183350905Y-63029885D01*
X183413217Y-62995859D01*
X183484033Y-63000924D01*
X183529095Y-63029885D01*
X184564806Y-64065595D01*
X184576817Y-64072154D01*
X184588554Y-64063187D01*
X184608663Y-64035203D01*
X184664658Y-63991556D01*
X184735361Y-63985110D01*
X184798326Y-64017913D01*
X184818418Y-64042895D01*
X184861096Y-64112539D01*
X184863793Y-64116940D01*
X184867174Y-64120843D01*
X185008824Y-64284369D01*
X185008828Y-64284373D01*
X185012209Y-64288276D01*
X185186615Y-64433071D01*
X185263283Y-64477872D01*
X185377867Y-64544829D01*
X185377870Y-64544831D01*
X185382329Y-64547436D01*
X185387154Y-64549278D01*
X185387155Y-64549279D01*
X185422068Y-64562611D01*
X185594093Y-64628301D01*
X185599161Y-64629332D01*
X185599164Y-64629333D01*
X185697745Y-64649390D01*
X185760510Y-64682572D01*
X185795372Y-64744420D01*
X185791262Y-64815297D01*
X185768983Y-64852608D01*
X185769259Y-64852808D01*
X185767041Y-64855861D01*
X185766258Y-64857172D01*
X185760960Y-64863056D01*
X185665473Y-65028444D01*
X185606458Y-65210072D01*
X185605768Y-65216635D01*
X185604394Y-65223100D01*
X185602807Y-65222763D01*
X185578912Y-65280854D01*
X185520693Y-65321488D01*
X185454413Y-65325281D01*
X185401256Y-65313982D01*
X185301944Y-65292872D01*
X185301939Y-65292872D01*
X185295487Y-65291500D01*
X185104513Y-65291500D01*
X185098061Y-65292872D01*
X185098056Y-65292872D01*
X185011113Y-65311353D01*
X184917712Y-65331206D01*
X184911682Y-65333891D01*
X184911681Y-65333891D01*
X184749278Y-65406197D01*
X184749276Y-65406198D01*
X184743248Y-65408882D01*
X184588747Y-65521134D01*
X184584326Y-65526044D01*
X184584325Y-65526045D01*
X184550556Y-65563550D01*
X184460960Y-65663056D01*
X184457659Y-65668774D01*
X184386011Y-65792872D01*
X184365473Y-65828444D01*
X184306458Y-66010072D01*
X184305768Y-66016633D01*
X184305768Y-66016635D01*
X184288363Y-66182237D01*
X184286496Y-66200000D01*
X184287186Y-66206565D01*
X184305129Y-66377279D01*
X184306458Y-66389928D01*
X184365473Y-66571556D01*
X184368776Y-66577278D01*
X184368777Y-66577279D01*
X184388323Y-66611134D01*
X184460960Y-66736944D01*
X184465378Y-66741851D01*
X184465379Y-66741852D01*
X184584325Y-66873955D01*
X184588747Y-66878866D01*
X184743248Y-66991118D01*
X184749276Y-66993802D01*
X184749278Y-66993803D01*
X184861347Y-67043699D01*
X184917712Y-67068794D01*
X185011113Y-67088647D01*
X185098056Y-67107128D01*
X185098061Y-67107128D01*
X185104513Y-67108500D01*
X185295487Y-67108500D01*
X185301939Y-67107128D01*
X185301944Y-67107128D01*
X185388887Y-67088647D01*
X185482288Y-67068794D01*
X185538653Y-67043699D01*
X185650722Y-66993803D01*
X185650724Y-66993802D01*
X185656752Y-66991118D01*
X185811253Y-66878866D01*
X185815675Y-66873955D01*
X185934621Y-66741852D01*
X185934622Y-66741851D01*
X185939040Y-66736944D01*
X186011677Y-66611134D01*
X186031223Y-66577279D01*
X186031224Y-66577278D01*
X186034527Y-66571556D01*
X186093542Y-66389928D01*
X186094232Y-66383364D01*
X186095606Y-66376900D01*
X186097193Y-66377237D01*
X186121088Y-66319146D01*
X186179307Y-66278512D01*
X186245587Y-66274719D01*
X186286898Y-66283500D01*
X186398056Y-66307128D01*
X186398061Y-66307128D01*
X186404513Y-66308500D01*
X186595487Y-66308500D01*
X186601939Y-66307128D01*
X186601944Y-66307128D01*
X186688887Y-66288647D01*
X186782288Y-66268794D01*
X186790437Y-66265166D01*
X186950722Y-66193803D01*
X186950724Y-66193802D01*
X186956752Y-66191118D01*
X186982740Y-66172237D01*
X187018689Y-66146118D01*
X187111253Y-66078866D01*
X187121358Y-66067643D01*
X187234621Y-65941852D01*
X187234622Y-65941851D01*
X187239040Y-65936944D01*
X187315914Y-65803794D01*
X187331223Y-65777279D01*
X187331224Y-65777278D01*
X187334527Y-65771556D01*
X187393542Y-65589928D01*
X187394872Y-65577279D01*
X187412814Y-65406565D01*
X187413504Y-65400000D01*
X187403005Y-65300103D01*
X187394232Y-65216635D01*
X187394232Y-65216633D01*
X187393542Y-65210072D01*
X187334527Y-65028444D01*
X187239040Y-64863056D01*
X187203671Y-64823774D01*
X187115675Y-64726045D01*
X187115674Y-64726044D01*
X187111253Y-64721134D01*
X186983480Y-64628301D01*
X186962094Y-64612763D01*
X186962093Y-64612762D01*
X186956752Y-64608882D01*
X186950724Y-64606198D01*
X186950722Y-64606197D01*
X186888619Y-64578547D01*
X186834523Y-64532566D01*
X186813874Y-64464639D01*
X186833227Y-64396331D01*
X186864739Y-64362940D01*
X186864655Y-64362841D01*
X186865532Y-64362100D01*
X186866703Y-64360859D01*
X186868610Y-64359499D01*
X186872813Y-64356501D01*
X187033378Y-64196495D01*
X187148945Y-64035666D01*
X187204940Y-63992018D01*
X187275643Y-63985572D01*
X187338608Y-64018375D01*
X187358700Y-64043357D01*
X187401090Y-64112530D01*
X187401093Y-64112535D01*
X187403793Y-64116940D01*
X187407174Y-64120843D01*
X187548824Y-64284369D01*
X187548828Y-64284373D01*
X187552209Y-64288276D01*
X187726615Y-64433071D01*
X187803283Y-64477872D01*
X187917867Y-64544829D01*
X187917870Y-64544831D01*
X187922329Y-64547436D01*
X187927154Y-64549278D01*
X187927155Y-64549279D01*
X187962068Y-64562611D01*
X188134093Y-64628301D01*
X188139161Y-64629332D01*
X188139164Y-64629333D01*
X188214101Y-64644579D01*
X188356221Y-64673494D01*
X188361394Y-64673684D01*
X188361397Y-64673684D01*
X188577583Y-64681611D01*
X188577587Y-64681611D01*
X188582747Y-64681800D01*
X188587867Y-64681144D01*
X188587869Y-64681144D01*
X188684430Y-64668774D01*
X188807588Y-64652997D01*
X188812537Y-64651512D01*
X188812543Y-64651511D01*
X189013580Y-64591197D01*
X189024706Y-64587859D01*
X189228270Y-64488134D01*
X189232475Y-64485134D01*
X189232481Y-64485131D01*
X189408609Y-64359500D01*
X189408611Y-64359498D01*
X189412813Y-64356501D01*
X189573378Y-64196495D01*
X189688945Y-64035666D01*
X189744940Y-63992018D01*
X189815643Y-63985572D01*
X189878608Y-64018375D01*
X189898700Y-64043357D01*
X189941090Y-64112530D01*
X189941093Y-64112535D01*
X189943793Y-64116940D01*
X189947174Y-64120843D01*
X190088824Y-64284369D01*
X190088828Y-64284373D01*
X190092209Y-64288276D01*
X190266615Y-64433071D01*
X190343283Y-64477872D01*
X190457867Y-64544829D01*
X190457870Y-64544831D01*
X190462329Y-64547436D01*
X190467154Y-64549278D01*
X190467155Y-64549279D01*
X190502068Y-64562611D01*
X190674093Y-64628301D01*
X190679161Y-64629332D01*
X190679164Y-64629333D01*
X190754101Y-64644579D01*
X190896221Y-64673494D01*
X190901394Y-64673684D01*
X190901397Y-64673684D01*
X191117583Y-64681611D01*
X191117587Y-64681611D01*
X191122747Y-64681800D01*
X191127867Y-64681144D01*
X191127869Y-64681144D01*
X191224430Y-64668774D01*
X191347588Y-64652997D01*
X191352537Y-64651512D01*
X191352543Y-64651511D01*
X191553580Y-64591197D01*
X191564706Y-64587859D01*
X191768270Y-64488134D01*
X191772475Y-64485134D01*
X191772481Y-64485131D01*
X191948609Y-64359500D01*
X191948611Y-64359498D01*
X191952813Y-64356501D01*
X192113378Y-64196495D01*
X192228945Y-64035666D01*
X192284940Y-63992018D01*
X192355643Y-63985572D01*
X192418608Y-64018375D01*
X192438700Y-64043357D01*
X192481090Y-64112530D01*
X192481093Y-64112535D01*
X192483793Y-64116940D01*
X192487174Y-64120843D01*
X192628824Y-64284369D01*
X192628828Y-64284373D01*
X192632209Y-64288276D01*
X192806615Y-64433071D01*
X192883283Y-64477872D01*
X192997867Y-64544829D01*
X192997870Y-64544831D01*
X193002329Y-64547436D01*
X193007154Y-64549278D01*
X193007155Y-64549279D01*
X193042068Y-64562611D01*
X193214093Y-64628301D01*
X193219161Y-64629332D01*
X193219164Y-64629333D01*
X193294101Y-64644579D01*
X193436221Y-64673494D01*
X193441394Y-64673684D01*
X193441397Y-64673684D01*
X193657583Y-64681611D01*
X193657587Y-64681611D01*
X193662747Y-64681800D01*
X193667867Y-64681144D01*
X193667869Y-64681144D01*
X193764430Y-64668774D01*
X193887588Y-64652997D01*
X193892537Y-64651512D01*
X193892543Y-64651511D01*
X194093580Y-64591197D01*
X194104706Y-64587859D01*
X194308270Y-64488134D01*
X194312475Y-64485134D01*
X194312481Y-64485131D01*
X194488609Y-64359500D01*
X194488611Y-64359498D01*
X194492813Y-64356501D01*
X194653378Y-64196495D01*
X194768945Y-64035666D01*
X194824940Y-63992018D01*
X194895643Y-63985572D01*
X194958608Y-64018375D01*
X194978700Y-64043357D01*
X195021090Y-64112530D01*
X195021093Y-64112535D01*
X195023793Y-64116940D01*
X195027174Y-64120843D01*
X195168824Y-64284369D01*
X195168828Y-64284373D01*
X195172209Y-64288276D01*
X195346615Y-64433071D01*
X195423283Y-64477872D01*
X195537867Y-64544829D01*
X195537870Y-64544831D01*
X195542329Y-64547436D01*
X195547154Y-64549278D01*
X195547155Y-64549279D01*
X195582068Y-64562611D01*
X195754093Y-64628301D01*
X195759161Y-64629332D01*
X195759164Y-64629333D01*
X195834101Y-64644579D01*
X195976221Y-64673494D01*
X195981394Y-64673684D01*
X195981397Y-64673684D01*
X196197583Y-64681611D01*
X196197587Y-64681611D01*
X196202747Y-64681800D01*
X196207867Y-64681144D01*
X196207869Y-64681144D01*
X196304430Y-64668774D01*
X196427588Y-64652997D01*
X196432537Y-64651512D01*
X196432543Y-64651511D01*
X196633580Y-64591197D01*
X196644706Y-64587859D01*
X196848270Y-64488134D01*
X196852475Y-64485134D01*
X196852481Y-64485131D01*
X197028609Y-64359500D01*
X197028611Y-64359498D01*
X197032813Y-64356501D01*
X197193378Y-64196495D01*
X197308945Y-64035666D01*
X197364940Y-63992018D01*
X197435643Y-63985572D01*
X197498608Y-64018375D01*
X197518700Y-64043357D01*
X197561090Y-64112530D01*
X197561093Y-64112535D01*
X197563793Y-64116940D01*
X197567174Y-64120843D01*
X197708824Y-64284369D01*
X197708828Y-64284373D01*
X197712209Y-64288276D01*
X197886615Y-64433071D01*
X197963283Y-64477872D01*
X198077867Y-64544829D01*
X198077870Y-64544831D01*
X198082329Y-64547436D01*
X198087154Y-64549278D01*
X198087155Y-64549279D01*
X198122068Y-64562611D01*
X198294093Y-64628301D01*
X198299161Y-64629332D01*
X198299164Y-64629333D01*
X198374101Y-64644579D01*
X198516221Y-64673494D01*
X198521394Y-64673684D01*
X198521397Y-64673684D01*
X198737583Y-64681611D01*
X198737587Y-64681611D01*
X198742747Y-64681800D01*
X198747867Y-64681144D01*
X198747869Y-64681144D01*
X198844430Y-64668774D01*
X198967588Y-64652997D01*
X198972537Y-64651512D01*
X198972543Y-64651511D01*
X199173580Y-64591197D01*
X199184706Y-64587859D01*
X199388270Y-64488134D01*
X199392475Y-64485134D01*
X199392481Y-64485131D01*
X199568609Y-64359500D01*
X199568611Y-64359498D01*
X199572813Y-64356501D01*
X199733378Y-64196495D01*
X199848945Y-64035666D01*
X199904940Y-63992018D01*
X199975643Y-63985572D01*
X200038608Y-64018375D01*
X200058700Y-64043357D01*
X200101090Y-64112530D01*
X200101093Y-64112535D01*
X200103793Y-64116940D01*
X200107174Y-64120843D01*
X200248824Y-64284369D01*
X200248828Y-64284373D01*
X200252209Y-64288276D01*
X200426615Y-64433071D01*
X200503283Y-64477872D01*
X200617867Y-64544829D01*
X200617870Y-64544831D01*
X200622329Y-64547436D01*
X200627154Y-64549278D01*
X200627155Y-64549279D01*
X200662068Y-64562611D01*
X200834093Y-64628301D01*
X200839161Y-64629332D01*
X200839164Y-64629333D01*
X200914101Y-64644579D01*
X201056221Y-64673494D01*
X201061394Y-64673684D01*
X201061397Y-64673684D01*
X201277583Y-64681611D01*
X201277587Y-64681611D01*
X201282747Y-64681800D01*
X201287867Y-64681144D01*
X201287869Y-64681144D01*
X201384430Y-64668774D01*
X201507588Y-64652997D01*
X201512537Y-64651512D01*
X201512543Y-64651511D01*
X201713580Y-64591197D01*
X201724706Y-64587859D01*
X201928270Y-64488134D01*
X201932475Y-64485134D01*
X201932481Y-64485131D01*
X202108609Y-64359500D01*
X202108611Y-64359498D01*
X202112813Y-64356501D01*
X202273378Y-64196495D01*
X202388945Y-64035666D01*
X202444940Y-63992018D01*
X202515643Y-63985572D01*
X202578608Y-64018375D01*
X202598700Y-64043357D01*
X202641090Y-64112530D01*
X202641093Y-64112535D01*
X202643793Y-64116940D01*
X202647174Y-64120843D01*
X202788824Y-64284369D01*
X202788828Y-64284373D01*
X202792209Y-64288276D01*
X202966615Y-64433071D01*
X203043283Y-64477872D01*
X203157867Y-64544829D01*
X203157870Y-64544831D01*
X203162329Y-64547436D01*
X203167154Y-64549278D01*
X203167155Y-64549279D01*
X203202068Y-64562611D01*
X203374093Y-64628301D01*
X203379161Y-64629332D01*
X203379164Y-64629333D01*
X203454101Y-64644579D01*
X203596221Y-64673494D01*
X203601394Y-64673684D01*
X203601397Y-64673684D01*
X203817583Y-64681611D01*
X203817587Y-64681611D01*
X203822747Y-64681800D01*
X203827867Y-64681144D01*
X203827869Y-64681144D01*
X203924430Y-64668774D01*
X204047588Y-64652997D01*
X204052537Y-64651512D01*
X204052543Y-64651511D01*
X204253580Y-64591197D01*
X204264706Y-64587859D01*
X204468270Y-64488134D01*
X204472475Y-64485134D01*
X204472481Y-64485131D01*
X204648609Y-64359500D01*
X204648611Y-64359498D01*
X204652813Y-64356501D01*
X204813378Y-64196495D01*
X204928945Y-64035666D01*
X204984940Y-63992018D01*
X205055643Y-63985572D01*
X205118608Y-64018375D01*
X205138700Y-64043357D01*
X205181090Y-64112530D01*
X205181093Y-64112535D01*
X205183793Y-64116940D01*
X205187174Y-64120843D01*
X205328824Y-64284369D01*
X205328828Y-64284373D01*
X205332209Y-64288276D01*
X205506615Y-64433071D01*
X205529646Y-64446529D01*
X205605318Y-64490748D01*
X205654042Y-64542386D01*
X205667113Y-64612169D01*
X205640382Y-64677941D01*
X205615812Y-64701470D01*
X205588747Y-64721134D01*
X205584326Y-64726044D01*
X205584325Y-64726045D01*
X205496330Y-64823774D01*
X205460960Y-64863056D01*
X205365473Y-65028444D01*
X205306458Y-65210072D01*
X205305768Y-65216633D01*
X205305768Y-65216635D01*
X205296995Y-65300103D01*
X205286496Y-65400000D01*
X205287186Y-65406565D01*
X205305129Y-65577279D01*
X205306458Y-65589928D01*
X205365473Y-65771556D01*
X205368776Y-65777278D01*
X205368777Y-65777279D01*
X205384086Y-65803794D01*
X205460960Y-65936944D01*
X205465378Y-65941851D01*
X205465379Y-65941852D01*
X205578642Y-66067643D01*
X205588747Y-66078866D01*
X205681311Y-66146118D01*
X205717261Y-66172237D01*
X205743248Y-66191118D01*
X205749276Y-66193802D01*
X205749278Y-66193803D01*
X205909563Y-66265166D01*
X205917712Y-66268794D01*
X206011113Y-66288647D01*
X206098056Y-66307128D01*
X206098061Y-66307128D01*
X206104513Y-66308500D01*
X206295487Y-66308500D01*
X206301939Y-66307128D01*
X206301944Y-66307128D01*
X206388887Y-66288647D01*
X206482288Y-66268794D01*
X206490437Y-66265166D01*
X206650722Y-66193803D01*
X206650724Y-66193802D01*
X206656752Y-66191118D01*
X206682740Y-66172237D01*
X206718689Y-66146118D01*
X206811253Y-66078866D01*
X206821358Y-66067643D01*
X206934621Y-65941852D01*
X206934622Y-65941851D01*
X206939040Y-65936944D01*
X207015914Y-65803794D01*
X207021935Y-65793365D01*
X208041500Y-65793365D01*
X208041501Y-66806634D01*
X208048247Y-66880062D01*
X208099528Y-67043699D01*
X208188361Y-67190381D01*
X208309619Y-67311639D01*
X208456301Y-67400472D01*
X208463548Y-67402743D01*
X208463550Y-67402744D01*
X208474569Y-67406197D01*
X208619938Y-67451753D01*
X208693365Y-67458500D01*
X208696263Y-67458500D01*
X208950665Y-67458499D01*
X209206634Y-67458499D01*
X209209492Y-67458236D01*
X209209501Y-67458236D01*
X209246526Y-67454834D01*
X209280062Y-67451753D01*
X209385234Y-67418794D01*
X209436450Y-67402744D01*
X209436452Y-67402743D01*
X209443699Y-67400472D01*
X209580018Y-67317915D01*
X209648648Y-67299736D01*
X209719350Y-67323755D01*
X209743248Y-67341118D01*
X209749276Y-67343802D01*
X209749278Y-67343803D01*
X209895449Y-67408882D01*
X209917712Y-67418794D01*
X210011113Y-67438647D01*
X210098056Y-67457128D01*
X210098061Y-67457128D01*
X210104513Y-67458500D01*
X210295487Y-67458500D01*
X210301939Y-67457128D01*
X210301944Y-67457128D01*
X210388887Y-67438647D01*
X210482288Y-67418794D01*
X210504551Y-67408882D01*
X210650722Y-67343803D01*
X210650724Y-67343802D01*
X210656752Y-67341118D01*
X210691908Y-67315576D01*
X210750939Y-67272687D01*
X210817807Y-67248828D01*
X210886958Y-67264909D01*
X210899061Y-67272687D01*
X210958093Y-67315576D01*
X210993248Y-67341118D01*
X210999276Y-67343802D01*
X210999278Y-67343803D01*
X211145449Y-67408882D01*
X211167712Y-67418794D01*
X211261113Y-67438647D01*
X211348056Y-67457128D01*
X211348061Y-67457128D01*
X211354513Y-67458500D01*
X211545487Y-67458500D01*
X211551939Y-67457128D01*
X211551944Y-67457128D01*
X211638887Y-67438647D01*
X211732288Y-67418794D01*
X211796918Y-67390019D01*
X211867284Y-67380585D01*
X211922223Y-67403188D01*
X212043248Y-67491118D01*
X212049276Y-67493802D01*
X212049278Y-67493803D01*
X212211681Y-67566109D01*
X212217712Y-67568794D01*
X212311112Y-67588647D01*
X212398056Y-67607128D01*
X212398061Y-67607128D01*
X212404513Y-67608500D01*
X212595487Y-67608500D01*
X212601939Y-67607128D01*
X212601944Y-67607128D01*
X212688888Y-67588647D01*
X212782288Y-67568794D01*
X212788319Y-67566109D01*
X212950722Y-67493803D01*
X212950724Y-67493802D01*
X212956752Y-67491118D01*
X213001109Y-67458891D01*
X213013687Y-67449752D01*
X213111253Y-67378866D01*
X213142824Y-67343803D01*
X213234621Y-67241852D01*
X213234622Y-67241851D01*
X213239040Y-67236944D01*
X213313197Y-67108500D01*
X213331223Y-67077279D01*
X213331224Y-67077278D01*
X213334527Y-67071556D01*
X213393542Y-66889928D01*
X213394888Y-66877127D01*
X213412814Y-66706565D01*
X213413504Y-66700000D01*
X213396882Y-66541852D01*
X213394232Y-66516635D01*
X213394232Y-66516633D01*
X213393542Y-66510072D01*
X213334527Y-66328444D01*
X213319334Y-66302128D01*
X213290466Y-66252128D01*
X213239040Y-66163056D01*
X213211291Y-66132237D01*
X213115675Y-66026045D01*
X213115674Y-66026044D01*
X213111253Y-66021134D01*
X212956752Y-65908882D01*
X212950724Y-65906198D01*
X212950722Y-65906197D01*
X212788319Y-65833891D01*
X212788318Y-65833891D01*
X212782288Y-65831206D01*
X212682861Y-65810072D01*
X212601944Y-65792872D01*
X212601939Y-65792872D01*
X212595487Y-65791500D01*
X212412806Y-65791500D01*
X212344685Y-65771498D01*
X212298192Y-65717842D01*
X212292973Y-65704438D01*
X212286567Y-65684723D01*
X212284527Y-65678444D01*
X212189040Y-65513056D01*
X212149169Y-65468774D01*
X212065675Y-65376045D01*
X212065674Y-65376044D01*
X212061253Y-65371134D01*
X211947326Y-65288361D01*
X211912094Y-65262763D01*
X211912093Y-65262762D01*
X211906752Y-65258882D01*
X211900724Y-65256198D01*
X211900722Y-65256197D01*
X211738319Y-65183891D01*
X211738318Y-65183891D01*
X211732288Y-65181206D01*
X211638887Y-65161353D01*
X211551944Y-65142872D01*
X211551939Y-65142872D01*
X211545487Y-65141500D01*
X211354513Y-65141500D01*
X211348061Y-65142872D01*
X211348056Y-65142872D01*
X211261113Y-65161353D01*
X211167712Y-65181206D01*
X211161682Y-65183891D01*
X211161681Y-65183891D01*
X210999278Y-65256197D01*
X210999276Y-65256198D01*
X210993248Y-65258882D01*
X210987907Y-65262762D01*
X210987906Y-65262763D01*
X210899061Y-65327313D01*
X210832193Y-65351172D01*
X210763042Y-65335091D01*
X210750939Y-65327313D01*
X210662094Y-65262763D01*
X210662093Y-65262762D01*
X210656752Y-65258882D01*
X210650724Y-65256198D01*
X210650722Y-65256197D01*
X210488319Y-65183891D01*
X210488318Y-65183891D01*
X210482288Y-65181206D01*
X210388887Y-65161353D01*
X210301944Y-65142872D01*
X210301939Y-65142872D01*
X210295487Y-65141500D01*
X210104513Y-65141500D01*
X210098061Y-65142872D01*
X210098056Y-65142872D01*
X210011113Y-65161353D01*
X209917712Y-65181206D01*
X209911682Y-65183891D01*
X209911681Y-65183891D01*
X209749278Y-65256197D01*
X209749276Y-65256198D01*
X209743248Y-65258882D01*
X209737908Y-65262762D01*
X209737906Y-65262763D01*
X209719350Y-65276245D01*
X209652482Y-65300103D01*
X209580018Y-65282085D01*
X209482621Y-65223100D01*
X209443699Y-65199528D01*
X209436452Y-65197257D01*
X209436450Y-65197256D01*
X209313717Y-65158794D01*
X209280062Y-65148247D01*
X209206635Y-65141500D01*
X209203737Y-65141500D01*
X208949335Y-65141501D01*
X208693366Y-65141501D01*
X208690508Y-65141764D01*
X208690499Y-65141764D01*
X208654996Y-65145026D01*
X208619938Y-65148247D01*
X208613560Y-65150246D01*
X208613559Y-65150246D01*
X208463550Y-65197256D01*
X208463548Y-65197257D01*
X208456301Y-65199528D01*
X208309619Y-65288361D01*
X208188361Y-65409619D01*
X208099528Y-65556301D01*
X208097257Y-65563548D01*
X208097256Y-65563550D01*
X208088990Y-65589928D01*
X208048247Y-65719938D01*
X208041500Y-65793365D01*
X207021935Y-65793365D01*
X207031223Y-65777279D01*
X207031224Y-65777278D01*
X207034527Y-65771556D01*
X207093542Y-65589928D01*
X207094872Y-65577279D01*
X207112814Y-65406565D01*
X207113504Y-65400000D01*
X207103005Y-65300103D01*
X207094232Y-65216635D01*
X207094232Y-65216633D01*
X207093542Y-65210072D01*
X207034527Y-65028444D01*
X206939040Y-64863056D01*
X206902829Y-64822839D01*
X206837659Y-64750461D01*
X206806942Y-64686454D01*
X206815706Y-64616000D01*
X206861169Y-64561469D01*
X206875862Y-64553000D01*
X206879542Y-64551197D01*
X207008270Y-64488134D01*
X207012475Y-64485134D01*
X207012481Y-64485131D01*
X207188609Y-64359500D01*
X207188611Y-64359498D01*
X207192813Y-64356501D01*
X207353378Y-64196495D01*
X207468945Y-64035666D01*
X207524940Y-63992018D01*
X207595643Y-63985572D01*
X207658608Y-64018375D01*
X207678700Y-64043357D01*
X207721090Y-64112530D01*
X207721093Y-64112535D01*
X207723793Y-64116940D01*
X207727174Y-64120843D01*
X207868824Y-64284369D01*
X207868828Y-64284373D01*
X207872209Y-64288276D01*
X208046615Y-64433071D01*
X208123283Y-64477872D01*
X208237867Y-64544829D01*
X208237870Y-64544831D01*
X208242329Y-64547436D01*
X208247154Y-64549278D01*
X208247155Y-64549279D01*
X208282068Y-64562611D01*
X208454093Y-64628301D01*
X208459161Y-64629332D01*
X208459164Y-64629333D01*
X208534101Y-64644579D01*
X208676221Y-64673494D01*
X208681394Y-64673684D01*
X208681397Y-64673684D01*
X208897583Y-64681611D01*
X208897587Y-64681611D01*
X208902747Y-64681800D01*
X208907867Y-64681144D01*
X208907869Y-64681144D01*
X209004430Y-64668774D01*
X209127588Y-64652997D01*
X209132537Y-64651512D01*
X209132543Y-64651511D01*
X209333580Y-64591197D01*
X209344706Y-64587859D01*
X209548270Y-64488134D01*
X209552475Y-64485134D01*
X209552481Y-64485131D01*
X209728609Y-64359500D01*
X209728611Y-64359498D01*
X209732813Y-64356501D01*
X209893378Y-64196495D01*
X210008945Y-64035666D01*
X210064940Y-63992018D01*
X210135643Y-63985572D01*
X210198608Y-64018375D01*
X210218700Y-64043357D01*
X210261090Y-64112530D01*
X210261093Y-64112535D01*
X210263793Y-64116940D01*
X210267174Y-64120843D01*
X210408824Y-64284369D01*
X210408828Y-64284373D01*
X210412209Y-64288276D01*
X210586615Y-64433071D01*
X210663283Y-64477872D01*
X210777867Y-64544829D01*
X210777870Y-64544831D01*
X210782329Y-64547436D01*
X210787154Y-64549278D01*
X210787155Y-64549279D01*
X210822068Y-64562611D01*
X210994093Y-64628301D01*
X210999161Y-64629332D01*
X210999164Y-64629333D01*
X211074101Y-64644579D01*
X211216221Y-64673494D01*
X211221394Y-64673684D01*
X211221397Y-64673684D01*
X211437583Y-64681611D01*
X211437587Y-64681611D01*
X211442747Y-64681800D01*
X211447867Y-64681144D01*
X211447869Y-64681144D01*
X211544430Y-64668774D01*
X211667588Y-64652997D01*
X211672537Y-64651512D01*
X211672543Y-64651511D01*
X211873580Y-64591197D01*
X211884706Y-64587859D01*
X212088270Y-64488134D01*
X212092475Y-64485134D01*
X212092481Y-64485131D01*
X212268609Y-64359500D01*
X212268611Y-64359498D01*
X212272813Y-64356501D01*
X212433378Y-64196495D01*
X212548945Y-64035666D01*
X212604940Y-63992018D01*
X212675643Y-63985572D01*
X212738608Y-64018375D01*
X212758700Y-64043357D01*
X212801090Y-64112530D01*
X212801093Y-64112535D01*
X212803793Y-64116940D01*
X212807174Y-64120843D01*
X212948824Y-64284369D01*
X212948828Y-64284373D01*
X212952209Y-64288276D01*
X213126615Y-64433071D01*
X213203283Y-64477872D01*
X213317867Y-64544829D01*
X213317870Y-64544831D01*
X213322329Y-64547436D01*
X213327154Y-64549278D01*
X213327155Y-64549279D01*
X213362068Y-64562611D01*
X213534093Y-64628301D01*
X213539161Y-64629332D01*
X213539164Y-64629333D01*
X213674815Y-64656932D01*
X213737580Y-64690114D01*
X213772442Y-64751961D01*
X213768333Y-64822839D01*
X213767479Y-64824969D01*
X213765473Y-64828444D01*
X213763433Y-64834724D01*
X213763432Y-64834725D01*
X213754227Y-64863056D01*
X213706458Y-65010072D01*
X213705768Y-65016633D01*
X213705768Y-65016635D01*
X213688471Y-65181206D01*
X213686496Y-65200000D01*
X213687186Y-65206565D01*
X213704483Y-65371134D01*
X213706458Y-65389928D01*
X213765473Y-65571556D01*
X213860960Y-65736944D01*
X213865378Y-65741851D01*
X213865379Y-65741852D01*
X213984325Y-65873955D01*
X213988747Y-65878866D01*
X214143248Y-65991118D01*
X214149276Y-65993802D01*
X214149278Y-65993803D01*
X214306643Y-66063866D01*
X214317712Y-66068794D01*
X214406389Y-66087643D01*
X214498056Y-66107128D01*
X214498061Y-66107128D01*
X214504513Y-66108500D01*
X214695487Y-66108500D01*
X214701939Y-66107128D01*
X214701944Y-66107128D01*
X214793611Y-66087643D01*
X214882288Y-66068794D01*
X214893357Y-66063866D01*
X215050722Y-65993803D01*
X215050724Y-65993802D01*
X215056752Y-65991118D01*
X215211253Y-65878866D01*
X215215675Y-65873955D01*
X215334621Y-65741852D01*
X215334622Y-65741851D01*
X215339040Y-65736944D01*
X215434527Y-65571556D01*
X215493542Y-65389928D01*
X215495518Y-65371134D01*
X215512814Y-65206565D01*
X215513504Y-65200000D01*
X215511529Y-65181206D01*
X215494232Y-65016635D01*
X215494232Y-65016633D01*
X215493542Y-65010072D01*
X215434527Y-64828444D01*
X215428530Y-64818056D01*
X215370331Y-64717254D01*
X215339040Y-64663056D01*
X215330575Y-64653654D01*
X215215675Y-64526045D01*
X215215674Y-64526044D01*
X215211253Y-64521134D01*
X215108124Y-64446206D01*
X215062094Y-64412763D01*
X215062093Y-64412762D01*
X215056752Y-64408882D01*
X215050725Y-64406199D01*
X215050717Y-64406194D01*
X215018666Y-64391924D01*
X214964571Y-64345944D01*
X214943922Y-64278016D01*
X214963275Y-64209708D01*
X214971886Y-64197982D01*
X214973378Y-64196495D01*
X215088945Y-64035666D01*
X215144940Y-63992018D01*
X215215643Y-63985572D01*
X215278608Y-64018375D01*
X215298700Y-64043357D01*
X215341090Y-64112530D01*
X215341093Y-64112535D01*
X215343793Y-64116940D01*
X215347174Y-64120843D01*
X215488824Y-64284369D01*
X215488828Y-64284373D01*
X215492209Y-64288276D01*
X215666615Y-64433071D01*
X215743283Y-64477872D01*
X215857867Y-64544829D01*
X215857870Y-64544831D01*
X215862329Y-64547436D01*
X215867154Y-64549278D01*
X215867155Y-64549279D01*
X215902068Y-64562611D01*
X216074093Y-64628301D01*
X216079161Y-64629332D01*
X216079164Y-64629333D01*
X216154101Y-64644579D01*
X216296221Y-64673494D01*
X216301394Y-64673684D01*
X216301397Y-64673684D01*
X216517583Y-64681611D01*
X216517587Y-64681611D01*
X216522747Y-64681800D01*
X216527867Y-64681144D01*
X216527869Y-64681144D01*
X216624430Y-64668774D01*
X216747588Y-64652997D01*
X216752537Y-64651512D01*
X216752543Y-64651511D01*
X216953580Y-64591197D01*
X216964706Y-64587859D01*
X217168270Y-64488134D01*
X217172475Y-64485134D01*
X217172481Y-64485131D01*
X217348609Y-64359500D01*
X217348611Y-64359498D01*
X217352813Y-64356501D01*
X217513378Y-64196495D01*
X217628945Y-64035666D01*
X217684940Y-63992018D01*
X217755643Y-63985572D01*
X217818608Y-64018375D01*
X217838700Y-64043357D01*
X217881090Y-64112530D01*
X217881093Y-64112535D01*
X217883793Y-64116940D01*
X217887174Y-64120843D01*
X218028824Y-64284369D01*
X218028828Y-64284373D01*
X218032209Y-64288276D01*
X218206615Y-64433071D01*
X218283283Y-64477872D01*
X218397867Y-64544829D01*
X218397870Y-64544831D01*
X218402329Y-64547436D01*
X218407154Y-64549278D01*
X218407155Y-64549279D01*
X218442068Y-64562611D01*
X218614093Y-64628301D01*
X218619161Y-64629332D01*
X218619164Y-64629333D01*
X218694101Y-64644579D01*
X218836221Y-64673494D01*
X218841394Y-64673684D01*
X218841397Y-64673684D01*
X219057583Y-64681611D01*
X219057587Y-64681611D01*
X219062747Y-64681800D01*
X219067867Y-64681144D01*
X219067869Y-64681144D01*
X219164430Y-64668774D01*
X219287588Y-64652997D01*
X219292537Y-64651512D01*
X219292543Y-64651511D01*
X219493580Y-64591197D01*
X219504706Y-64587859D01*
X219708270Y-64488134D01*
X219712475Y-64485134D01*
X219712481Y-64485131D01*
X219888609Y-64359500D01*
X219888611Y-64359498D01*
X219892813Y-64356501D01*
X220053378Y-64196495D01*
X220168945Y-64035666D01*
X220224940Y-63992018D01*
X220295643Y-63985572D01*
X220358608Y-64018375D01*
X220378700Y-64043357D01*
X220421090Y-64112530D01*
X220421093Y-64112535D01*
X220423793Y-64116940D01*
X220427174Y-64120843D01*
X220568824Y-64284369D01*
X220568828Y-64284373D01*
X220572209Y-64288276D01*
X220746615Y-64433071D01*
X220823283Y-64477872D01*
X220937867Y-64544829D01*
X220937870Y-64544831D01*
X220942329Y-64547436D01*
X220947154Y-64549278D01*
X220947155Y-64549279D01*
X220982068Y-64562611D01*
X221154093Y-64628301D01*
X221159161Y-64629332D01*
X221159164Y-64629333D01*
X221234101Y-64644579D01*
X221376221Y-64673494D01*
X221381394Y-64673684D01*
X221381397Y-64673684D01*
X221597583Y-64681611D01*
X221597587Y-64681611D01*
X221602747Y-64681800D01*
X221607867Y-64681144D01*
X221607869Y-64681144D01*
X221704430Y-64668774D01*
X221827588Y-64652997D01*
X221925737Y-64623551D01*
X221996731Y-64623135D01*
X222056681Y-64661167D01*
X222071062Y-64681237D01*
X222096932Y-64726045D01*
X222160960Y-64836944D01*
X222288747Y-64978866D01*
X222443248Y-65091118D01*
X222449276Y-65093802D01*
X222449278Y-65093803D01*
X222609352Y-65165072D01*
X222617712Y-65168794D01*
X222711112Y-65188647D01*
X222798056Y-65207128D01*
X222798061Y-65207128D01*
X222804513Y-65208500D01*
X222995487Y-65208500D01*
X223001939Y-65207128D01*
X223001944Y-65207128D01*
X223088888Y-65188647D01*
X223182288Y-65168794D01*
X223188315Y-65166111D01*
X223188323Y-65166108D01*
X223301256Y-65115827D01*
X223371623Y-65106393D01*
X223426564Y-65128997D01*
X223437907Y-65137238D01*
X223437911Y-65137240D01*
X223443248Y-65141118D01*
X223449275Y-65143801D01*
X223449276Y-65143802D01*
X223594591Y-65208500D01*
X223617712Y-65218794D01*
X223711112Y-65238647D01*
X223798056Y-65257128D01*
X223798061Y-65257128D01*
X223804513Y-65258500D01*
X223995487Y-65258500D01*
X224001939Y-65257128D01*
X224001944Y-65257128D01*
X224088888Y-65238647D01*
X224182288Y-65218794D01*
X224208491Y-65207128D01*
X224350717Y-65143805D01*
X224356752Y-65141118D01*
X224356984Y-65141640D01*
X224421635Y-65125952D01*
X224488728Y-65149169D01*
X224532619Y-65204974D01*
X224540957Y-65264980D01*
X224534539Y-65326045D01*
X224531496Y-65355000D01*
X224551458Y-65544928D01*
X224610473Y-65726556D01*
X224613776Y-65732278D01*
X224613777Y-65732279D01*
X224619304Y-65741852D01*
X224705960Y-65891944D01*
X224710378Y-65896851D01*
X224710379Y-65896852D01*
X224797343Y-65993435D01*
X224833747Y-66033866D01*
X224914646Y-66092643D01*
X224969147Y-66132240D01*
X224988248Y-66146118D01*
X224994276Y-66148802D01*
X224994278Y-66148803D01*
X225143333Y-66215166D01*
X225162712Y-66223794D01*
X225256113Y-66243647D01*
X225343056Y-66262128D01*
X225343061Y-66262128D01*
X225349513Y-66263500D01*
X225540487Y-66263500D01*
X225546939Y-66262128D01*
X225546944Y-66262128D01*
X225633887Y-66243647D01*
X225727288Y-66223794D01*
X225746667Y-66215166D01*
X225895722Y-66148803D01*
X225895724Y-66148802D01*
X225901752Y-66146118D01*
X225985296Y-66085420D01*
X226052160Y-66061563D01*
X226121312Y-66077643D01*
X226133413Y-66085420D01*
X226155116Y-66101188D01*
X226239147Y-66162240D01*
X226258248Y-66176118D01*
X226264276Y-66178802D01*
X226264278Y-66178803D01*
X226413333Y-66245166D01*
X226432712Y-66253794D01*
X226509736Y-66270166D01*
X226613056Y-66292128D01*
X226613061Y-66292128D01*
X226619513Y-66293500D01*
X226810487Y-66293500D01*
X226816939Y-66292128D01*
X226816944Y-66292128D01*
X226920264Y-66270166D01*
X226997288Y-66253794D01*
X227016667Y-66245166D01*
X227165722Y-66178803D01*
X227165724Y-66178802D01*
X227171752Y-66176118D01*
X227190854Y-66162240D01*
X227226807Y-66136118D01*
X227275940Y-66100421D01*
X227342806Y-66076563D01*
X227411958Y-66092643D01*
X227424056Y-66100418D01*
X227473193Y-66136118D01*
X227509147Y-66162240D01*
X227528248Y-66176118D01*
X227534276Y-66178802D01*
X227534278Y-66178803D01*
X227683333Y-66245166D01*
X227702712Y-66253794D01*
X227779736Y-66270166D01*
X227883056Y-66292128D01*
X227883061Y-66292128D01*
X227889513Y-66293500D01*
X228080487Y-66293500D01*
X228086939Y-66292128D01*
X228086944Y-66292128D01*
X228190264Y-66270166D01*
X228267288Y-66253794D01*
X228286667Y-66245166D01*
X228435722Y-66178803D01*
X228435724Y-66178802D01*
X228441752Y-66176118D01*
X228460854Y-66162240D01*
X228573467Y-66080421D01*
X228640335Y-66056563D01*
X228709486Y-66072643D01*
X228721572Y-66080410D01*
X228798248Y-66136118D01*
X228804276Y-66138802D01*
X228804278Y-66138803D01*
X228941730Y-66200000D01*
X228972712Y-66213794D01*
X229054629Y-66231206D01*
X229153056Y-66252128D01*
X229153061Y-66252128D01*
X229159513Y-66253500D01*
X229350487Y-66253500D01*
X229356939Y-66252128D01*
X229356944Y-66252128D01*
X229455371Y-66231206D01*
X229537288Y-66213794D01*
X229568270Y-66200000D01*
X229705722Y-66138803D01*
X229705724Y-66138802D01*
X229711752Y-66136118D01*
X229795296Y-66075420D01*
X229862160Y-66051563D01*
X229931312Y-66067643D01*
X229943413Y-66075420D01*
X229950297Y-66080421D01*
X230049147Y-66152240D01*
X230068248Y-66166118D01*
X230074276Y-66168802D01*
X230074278Y-66168803D01*
X230223333Y-66235166D01*
X230242712Y-66243794D01*
X230328966Y-66262128D01*
X230423056Y-66282128D01*
X230423061Y-66282128D01*
X230429513Y-66283500D01*
X230620487Y-66283500D01*
X230626939Y-66282128D01*
X230626944Y-66282128D01*
X230721034Y-66262128D01*
X230807288Y-66243794D01*
X230826667Y-66235166D01*
X230975722Y-66168803D01*
X230975724Y-66168802D01*
X230981752Y-66166118D01*
X231072178Y-66100420D01*
X231139042Y-66076563D01*
X231208194Y-66092643D01*
X231220294Y-66100419D01*
X231264092Y-66132240D01*
X231331354Y-66181109D01*
X231338248Y-66186118D01*
X231344276Y-66188802D01*
X231344278Y-66188803D01*
X231493333Y-66255166D01*
X231512712Y-66263794D01*
X231598966Y-66282128D01*
X231693056Y-66302128D01*
X231693061Y-66302128D01*
X231699513Y-66303500D01*
X231890487Y-66303500D01*
X231896939Y-66302128D01*
X231896944Y-66302128D01*
X231991034Y-66282128D01*
X232077288Y-66263794D01*
X232096667Y-66255166D01*
X232245722Y-66188803D01*
X232245724Y-66188802D01*
X232251752Y-66186118D01*
X232258647Y-66181109D01*
X232326083Y-66132113D01*
X232376585Y-66095421D01*
X232443452Y-66071563D01*
X232512604Y-66087643D01*
X232524691Y-66095410D01*
X232608248Y-66156118D01*
X232614276Y-66158802D01*
X232614278Y-66158803D01*
X232776618Y-66231081D01*
X232782712Y-66233794D01*
X232868966Y-66252128D01*
X232963056Y-66272128D01*
X232963061Y-66272128D01*
X232969513Y-66273500D01*
X233160487Y-66273500D01*
X233166939Y-66272128D01*
X233166944Y-66272128D01*
X233261034Y-66252128D01*
X233347288Y-66233794D01*
X233353382Y-66231081D01*
X233515722Y-66158803D01*
X233515724Y-66158802D01*
X233521752Y-66156118D01*
X233540854Y-66142240D01*
X233587292Y-66108500D01*
X233625940Y-66080421D01*
X233692806Y-66056563D01*
X233761958Y-66072643D01*
X233774056Y-66080418D01*
X233812708Y-66108500D01*
X233859147Y-66142240D01*
X233878248Y-66156118D01*
X233884276Y-66158802D01*
X233884278Y-66158803D01*
X234046618Y-66231081D01*
X234052712Y-66233794D01*
X234138966Y-66252128D01*
X234233056Y-66272128D01*
X234233061Y-66272128D01*
X234239513Y-66273500D01*
X234430487Y-66273500D01*
X234436939Y-66272128D01*
X234436944Y-66272128D01*
X234531034Y-66252128D01*
X234617288Y-66233794D01*
X234623382Y-66231081D01*
X234785722Y-66158803D01*
X234785724Y-66158802D01*
X234791752Y-66156118D01*
X234875296Y-66095420D01*
X234942160Y-66071563D01*
X235011312Y-66087643D01*
X235023413Y-66095420D01*
X235073917Y-66132113D01*
X235141354Y-66181109D01*
X235148248Y-66186118D01*
X235154276Y-66188802D01*
X235154278Y-66188803D01*
X235303333Y-66255166D01*
X235322712Y-66263794D01*
X235408966Y-66282128D01*
X235503056Y-66302128D01*
X235503061Y-66302128D01*
X235509513Y-66303500D01*
X235700487Y-66303500D01*
X235706939Y-66302128D01*
X235706944Y-66302128D01*
X235801034Y-66282128D01*
X235887288Y-66263794D01*
X235906667Y-66255166D01*
X236055722Y-66188803D01*
X236055724Y-66188802D01*
X236061752Y-66186118D01*
X236068647Y-66181109D01*
X236135908Y-66132240D01*
X236179704Y-66100421D01*
X236246570Y-66076563D01*
X236315722Y-66092643D01*
X236327810Y-66100411D01*
X236418248Y-66166118D01*
X236424276Y-66168802D01*
X236424278Y-66168803D01*
X236573333Y-66235166D01*
X236592712Y-66243794D01*
X236678966Y-66262128D01*
X236773056Y-66282128D01*
X236773061Y-66282128D01*
X236779513Y-66283500D01*
X236970487Y-66283500D01*
X236976939Y-66282128D01*
X236976944Y-66282128D01*
X237071034Y-66262128D01*
X237157288Y-66243794D01*
X237176667Y-66235166D01*
X237325722Y-66168803D01*
X237325724Y-66168802D01*
X237331752Y-66166118D01*
X237350854Y-66152240D01*
X237449703Y-66080421D01*
X237456585Y-66075421D01*
X237523452Y-66051563D01*
X237592604Y-66067643D01*
X237604691Y-66075410D01*
X237688248Y-66136118D01*
X237694276Y-66138802D01*
X237694278Y-66138803D01*
X237831730Y-66200000D01*
X237862712Y-66213794D01*
X237944629Y-66231206D01*
X238043056Y-66252128D01*
X238043061Y-66252128D01*
X238049513Y-66253500D01*
X238240487Y-66253500D01*
X238246939Y-66252128D01*
X238246944Y-66252128D01*
X238345371Y-66231206D01*
X238427288Y-66213794D01*
X238458270Y-66200000D01*
X238595722Y-66138803D01*
X238595724Y-66138802D01*
X238601752Y-66136118D01*
X238726585Y-66045421D01*
X238793452Y-66021563D01*
X238862604Y-66037643D01*
X238874691Y-66045410D01*
X238958248Y-66106118D01*
X238964276Y-66108802D01*
X238964278Y-66108803D01*
X239098976Y-66168774D01*
X239132712Y-66183794D01*
X239191106Y-66196206D01*
X239313056Y-66222128D01*
X239313061Y-66222128D01*
X239319513Y-66223500D01*
X239510487Y-66223500D01*
X239516939Y-66222128D01*
X239516944Y-66222128D01*
X239638894Y-66196206D01*
X239697288Y-66183794D01*
X239731024Y-66168774D01*
X239865722Y-66108803D01*
X239865724Y-66108802D01*
X239871752Y-66106118D01*
X239921236Y-66070166D01*
X239977957Y-66028955D01*
X240026253Y-65993866D01*
X240082654Y-65931226D01*
X240149621Y-65856852D01*
X240149622Y-65856851D01*
X240154040Y-65851944D01*
X240249527Y-65686556D01*
X240308542Y-65504928D01*
X240321000Y-65386402D01*
X240327814Y-65321565D01*
X240328504Y-65315000D01*
X240322566Y-65258500D01*
X240309232Y-65131635D01*
X240309232Y-65131633D01*
X240308542Y-65125072D01*
X240249527Y-64943444D01*
X240154040Y-64778056D01*
X240129194Y-64750461D01*
X240030675Y-64641045D01*
X240030674Y-64641044D01*
X240026253Y-64636134D01*
X239923486Y-64561469D01*
X239877094Y-64527763D01*
X239877093Y-64527762D01*
X239871752Y-64523882D01*
X239865724Y-64521198D01*
X239865722Y-64521197D01*
X239703319Y-64448891D01*
X239703318Y-64448891D01*
X239697288Y-64446206D01*
X239593820Y-64424213D01*
X239516944Y-64407872D01*
X239516939Y-64407872D01*
X239510487Y-64406500D01*
X239319513Y-64406500D01*
X239313061Y-64407872D01*
X239313056Y-64407872D01*
X239236180Y-64424213D01*
X239132712Y-64446206D01*
X239126682Y-64448891D01*
X239126681Y-64448891D01*
X238964278Y-64521197D01*
X238964276Y-64521198D01*
X238958248Y-64523882D01*
X238952907Y-64527762D01*
X238952906Y-64527763D01*
X238906514Y-64561469D01*
X238834394Y-64613868D01*
X238833415Y-64614579D01*
X238766548Y-64638437D01*
X238697396Y-64622357D01*
X238685309Y-64614590D01*
X238601752Y-64553882D01*
X238595724Y-64551198D01*
X238595722Y-64551197D01*
X238433319Y-64478891D01*
X238433318Y-64478891D01*
X238427288Y-64476206D01*
X238333888Y-64456353D01*
X238246944Y-64437872D01*
X238246939Y-64437872D01*
X238240487Y-64436500D01*
X238049513Y-64436500D01*
X238043061Y-64437872D01*
X238043056Y-64437872D01*
X237956113Y-64456353D01*
X237862712Y-64476206D01*
X237856682Y-64478891D01*
X237856681Y-64478891D01*
X237694278Y-64551197D01*
X237694276Y-64551198D01*
X237688248Y-64553882D01*
X237682907Y-64557762D01*
X237682906Y-64557763D01*
X237633193Y-64593882D01*
X237571869Y-64638437D01*
X237563415Y-64644579D01*
X237496548Y-64668437D01*
X237427396Y-64652357D01*
X237415309Y-64644590D01*
X237331752Y-64583882D01*
X237325724Y-64581198D01*
X237325722Y-64581197D01*
X237163319Y-64508891D01*
X237163318Y-64508891D01*
X237157288Y-64506206D01*
X237062217Y-64485998D01*
X236976944Y-64467872D01*
X236976939Y-64467872D01*
X236970487Y-64466500D01*
X236779513Y-64466500D01*
X236773061Y-64467872D01*
X236773056Y-64467872D01*
X236687783Y-64485998D01*
X236592712Y-64506206D01*
X236586682Y-64508891D01*
X236586681Y-64508891D01*
X236424278Y-64581197D01*
X236424276Y-64581198D01*
X236418248Y-64583882D01*
X236412907Y-64587762D01*
X236412906Y-64587763D01*
X236365292Y-64622357D01*
X236301869Y-64668437D01*
X236300297Y-64669579D01*
X236233430Y-64693437D01*
X236164278Y-64677357D01*
X236152190Y-64669589D01*
X236061752Y-64603882D01*
X236055724Y-64601198D01*
X236055722Y-64601197D01*
X235893319Y-64528891D01*
X235893318Y-64528891D01*
X235887288Y-64526206D01*
X235783928Y-64504236D01*
X235706944Y-64487872D01*
X235706939Y-64487872D01*
X235700487Y-64486500D01*
X235509513Y-64486500D01*
X235503061Y-64487872D01*
X235503056Y-64487872D01*
X235426072Y-64504236D01*
X235322712Y-64526206D01*
X235316682Y-64528891D01*
X235316681Y-64528891D01*
X235154278Y-64601197D01*
X235154276Y-64601198D01*
X235148248Y-64603882D01*
X235064704Y-64664580D01*
X234997840Y-64688437D01*
X234928688Y-64672357D01*
X234916585Y-64664579D01*
X234895940Y-64649579D01*
X234810990Y-64587859D01*
X234797094Y-64577763D01*
X234797093Y-64577762D01*
X234791752Y-64573882D01*
X234785724Y-64571198D01*
X234785722Y-64571197D01*
X234623319Y-64498891D01*
X234623318Y-64498891D01*
X234617288Y-64496206D01*
X234516741Y-64474834D01*
X234436944Y-64457872D01*
X234436939Y-64457872D01*
X234430487Y-64456500D01*
X234239513Y-64456500D01*
X234233061Y-64457872D01*
X234233056Y-64457872D01*
X234153259Y-64474834D01*
X234052712Y-64496206D01*
X234046682Y-64498891D01*
X234046681Y-64498891D01*
X233884278Y-64571197D01*
X233884276Y-64571198D01*
X233878248Y-64573882D01*
X233872907Y-64577762D01*
X233872906Y-64577763D01*
X233859010Y-64587859D01*
X233774060Y-64649579D01*
X233707194Y-64673437D01*
X233638042Y-64657357D01*
X233625944Y-64649582D01*
X233540990Y-64587859D01*
X233527094Y-64577763D01*
X233527093Y-64577762D01*
X233521752Y-64573882D01*
X233515724Y-64571198D01*
X233515722Y-64571197D01*
X233353319Y-64498891D01*
X233353318Y-64498891D01*
X233347288Y-64496206D01*
X233246741Y-64474834D01*
X233166944Y-64457872D01*
X233166939Y-64457872D01*
X233160487Y-64456500D01*
X232969513Y-64456500D01*
X232963061Y-64457872D01*
X232963056Y-64457872D01*
X232883259Y-64474834D01*
X232782712Y-64496206D01*
X232776682Y-64498891D01*
X232776681Y-64498891D01*
X232614278Y-64571197D01*
X232614276Y-64571198D01*
X232608248Y-64573882D01*
X232602907Y-64577762D01*
X232602906Y-64577763D01*
X232589010Y-64587859D01*
X232504061Y-64649579D01*
X232483415Y-64664579D01*
X232416548Y-64688437D01*
X232347396Y-64672357D01*
X232335309Y-64664590D01*
X232251752Y-64603882D01*
X232245724Y-64601198D01*
X232245722Y-64601197D01*
X232083319Y-64528891D01*
X232083318Y-64528891D01*
X232077288Y-64526206D01*
X231973928Y-64504236D01*
X231896944Y-64487872D01*
X231896939Y-64487872D01*
X231890487Y-64486500D01*
X231699513Y-64486500D01*
X231693061Y-64487872D01*
X231693056Y-64487872D01*
X231616072Y-64504236D01*
X231512712Y-64526206D01*
X231506682Y-64528891D01*
X231506681Y-64528891D01*
X231344278Y-64601197D01*
X231344276Y-64601198D01*
X231338248Y-64603882D01*
X231247822Y-64669580D01*
X231180958Y-64693437D01*
X231111806Y-64677357D01*
X231099703Y-64669579D01*
X231098132Y-64668437D01*
X231034708Y-64622357D01*
X230987094Y-64587763D01*
X230987093Y-64587762D01*
X230981752Y-64583882D01*
X230975724Y-64581198D01*
X230975722Y-64581197D01*
X230813319Y-64508891D01*
X230813318Y-64508891D01*
X230807288Y-64506206D01*
X230712217Y-64485998D01*
X230626944Y-64467872D01*
X230626939Y-64467872D01*
X230620487Y-64466500D01*
X230429513Y-64466500D01*
X230423061Y-64467872D01*
X230423056Y-64467872D01*
X230337783Y-64485998D01*
X230242712Y-64506206D01*
X230236682Y-64508891D01*
X230236681Y-64508891D01*
X230074278Y-64581197D01*
X230074276Y-64581198D01*
X230068248Y-64583882D01*
X229984704Y-64644580D01*
X229917840Y-64668437D01*
X229848688Y-64652357D01*
X229836585Y-64644579D01*
X229828132Y-64638437D01*
X229766807Y-64593882D01*
X229717094Y-64557763D01*
X229717093Y-64557762D01*
X229711752Y-64553882D01*
X229705724Y-64551198D01*
X229705722Y-64551197D01*
X229543319Y-64478891D01*
X229543318Y-64478891D01*
X229537288Y-64476206D01*
X229443888Y-64456353D01*
X229356944Y-64437872D01*
X229356939Y-64437872D01*
X229350487Y-64436500D01*
X229159513Y-64436500D01*
X229153061Y-64437872D01*
X229153056Y-64437872D01*
X229066112Y-64456353D01*
X228972712Y-64476206D01*
X228966682Y-64478891D01*
X228966681Y-64478891D01*
X228804278Y-64551197D01*
X228804276Y-64551198D01*
X228798248Y-64553882D01*
X228792907Y-64557762D01*
X228792906Y-64557763D01*
X228743193Y-64593882D01*
X228681869Y-64638437D01*
X228666533Y-64649579D01*
X228599665Y-64673437D01*
X228530514Y-64657357D01*
X228518428Y-64649590D01*
X228441752Y-64593882D01*
X228435724Y-64591198D01*
X228435722Y-64591197D01*
X228273319Y-64518891D01*
X228273318Y-64518891D01*
X228267288Y-64516206D01*
X228166741Y-64494834D01*
X228086944Y-64477872D01*
X228086939Y-64477872D01*
X228080487Y-64476500D01*
X227889513Y-64476500D01*
X227883061Y-64477872D01*
X227883056Y-64477872D01*
X227803259Y-64494834D01*
X227702712Y-64516206D01*
X227696682Y-64518891D01*
X227696681Y-64518891D01*
X227534278Y-64591197D01*
X227534276Y-64591198D01*
X227528248Y-64593882D01*
X227522907Y-64597762D01*
X227522906Y-64597763D01*
X227503078Y-64612169D01*
X227424060Y-64669579D01*
X227357194Y-64693437D01*
X227288042Y-64677357D01*
X227275944Y-64669582D01*
X227196922Y-64612169D01*
X227177094Y-64597763D01*
X227177093Y-64597762D01*
X227171752Y-64593882D01*
X227165724Y-64591198D01*
X227165722Y-64591197D01*
X227003319Y-64518891D01*
X227003318Y-64518891D01*
X226997288Y-64516206D01*
X226896741Y-64494834D01*
X226816944Y-64477872D01*
X226816939Y-64477872D01*
X226810487Y-64476500D01*
X226619513Y-64476500D01*
X226613061Y-64477872D01*
X226613056Y-64477872D01*
X226533259Y-64494834D01*
X226432712Y-64516206D01*
X226426682Y-64518891D01*
X226426681Y-64518891D01*
X226264278Y-64591197D01*
X226264276Y-64591198D01*
X226258248Y-64593882D01*
X226174704Y-64654580D01*
X226107840Y-64678437D01*
X226038688Y-64662357D01*
X226026585Y-64654579D01*
X226024638Y-64653164D01*
X225956807Y-64603882D01*
X225907094Y-64567763D01*
X225907093Y-64567762D01*
X225901752Y-64563882D01*
X225895724Y-64561198D01*
X225895722Y-64561197D01*
X225733319Y-64488891D01*
X225733318Y-64488891D01*
X225727288Y-64486206D01*
X225625824Y-64464639D01*
X225546944Y-64447872D01*
X225546939Y-64447872D01*
X225540487Y-64446500D01*
X225349513Y-64446500D01*
X225343061Y-64447872D01*
X225343056Y-64447872D01*
X225264176Y-64464639D01*
X225162712Y-64486206D01*
X225156682Y-64488891D01*
X225156681Y-64488891D01*
X224994283Y-64561195D01*
X224988248Y-64563882D01*
X224988016Y-64563360D01*
X224923365Y-64579048D01*
X224856272Y-64555831D01*
X224812381Y-64500026D01*
X224804043Y-64440020D01*
X224812814Y-64356565D01*
X224813504Y-64350000D01*
X224802885Y-64248968D01*
X224794232Y-64166635D01*
X224794232Y-64166633D01*
X224793542Y-64160072D01*
X224734527Y-63978444D01*
X224639040Y-63813056D01*
X224511253Y-63671134D01*
X224356752Y-63558882D01*
X224350724Y-63556198D01*
X224350722Y-63556197D01*
X224188319Y-63483891D01*
X224188318Y-63483891D01*
X224182288Y-63481206D01*
X224088888Y-63461353D01*
X224001944Y-63442872D01*
X224001939Y-63442872D01*
X223995487Y-63441500D01*
X223804513Y-63441500D01*
X223798061Y-63442872D01*
X223798056Y-63442872D01*
X223711112Y-63461353D01*
X223617712Y-63481206D01*
X223611685Y-63483889D01*
X223611677Y-63483892D01*
X223498744Y-63534173D01*
X223428377Y-63543607D01*
X223373436Y-63521003D01*
X223362093Y-63512762D01*
X223362089Y-63512760D01*
X223356752Y-63508882D01*
X223319976Y-63492508D01*
X223188319Y-63433891D01*
X223188318Y-63433891D01*
X223182288Y-63431206D01*
X223075903Y-63408593D01*
X223021293Y-63396985D01*
X222958819Y-63363256D01*
X222924498Y-63301107D01*
X222921914Y-63284063D01*
X222905073Y-63079234D01*
X222904650Y-63074084D01*
X222849428Y-62854234D01*
X222835576Y-62822375D01*
X222797254Y-62734242D01*
X222788434Y-62663796D01*
X222819101Y-62599764D01*
X222879517Y-62562476D01*
X222912804Y-62558000D01*
X242266000Y-62558000D01*
X242334121Y-62578002D01*
G37*
%TD.AperFunction*%
%TD*%
M02*
