M48
; DRILL file {KiCad (6.0.1)} date Wed Jan  4 22:14:44 2023
; FORMAT={3:3/ absolute / metric / suppress leading zeros}
; #@! TF.CreationDate,2023-01-04T22:14:44+03:00
; #@! TF.GenerationSoftware,Kicad,Pcbnew,(6.0.1)
; #@! TF.FileFunction,MixedPlating,1,4
FMAT,2
METRIC,TZ
; #@! TA.AperFunction,Plated,PTH,ViaDrill
T1C0.400
; #@! TA.AperFunction,Plated,PTH,ComponentDrill
T2C0.500
; #@! TA.AperFunction,Plated,PTH,ComponentDrill
T3C1.090
%
G90
G05
T1
X180050Y-72500
X180800Y-67100
X180800Y-77300
X181400Y-72500
X181500Y-66000
X182300Y-79600
X182800Y-76400
X183300Y-78900
X183375Y-68325
X185200Y-66200
X185600Y-69400
X185600Y-74100
X185600Y-75500
X186480Y-71220
X186480Y-72280
X186500Y-65400
X186750Y-73350
X187800Y-68200
X189800Y-75200
X190100Y-68800
X190300Y-70400
X191800Y-70300
X192110Y-77010
X193600Y-72800
X193900Y-77000
X194950Y-73050
X195100Y-70600
X198000Y-78400
X198790Y-67290
X199300Y-75400
X200500Y-70600
X200500Y-72700
X200600Y-78100
X200790Y-67290
X201700Y-70600
X201700Y-72700
X201900Y-76400
X202800Y-75800
X202900Y-70600
X202900Y-72700
X203850Y-75450
X204000Y-69700
X205400Y-71300
X205400Y-72300
X205875Y-73800
X206200Y-65400
X206500Y-72300
X207400Y-66700
X207400Y-73800
X208200Y-70200
X209800Y-75300
X212500Y-66700
X212750Y-72450
X214600Y-65200
X214700Y-71500
X215298Y-76802
X216000Y-71700
X217600Y-70600
X217800Y-79900
X217900Y-72700
X218600Y-70600
X219400Y-72700
X219600Y-70600
X220600Y-70600
X220700Y-72700
X221800Y-72700
X222600Y-71900
X222900Y-64300
X223200Y-80300
X223900Y-64350
X225445Y-65355
X225445Y-79245
X226715Y-65385
X226715Y-79215
X227985Y-65385
X227985Y-79215
X229255Y-65345
X229255Y-79245
X230525Y-65375
X230525Y-79275
X231795Y-65395
X231795Y-79205
X232700Y-70500
X232700Y-72500
X233065Y-65365
X233065Y-79235
X233700Y-69500
X233700Y-71600
X233700Y-73300
X234335Y-65365
X234600Y-70500
X234600Y-72400
X235500Y-69500
X235500Y-71700
X235500Y-73300
X235605Y-65395
X235605Y-79205
X236400Y-70500
X236400Y-72500
X236875Y-65375
X236875Y-79175
X238145Y-65345
X238145Y-79145
X239415Y-65315
X239415Y-79115
X240685Y-65385
X240685Y-66785
X240685Y-79185
X241955Y-65355
X241955Y-79155
T2
X184075Y-77200
X185325Y-77200
X208950Y-66300
X210200Y-66300
X211450Y-66300
T3
X180900Y-63300
X180900Y-81000
X183440Y-63300
X183440Y-81000
X185980Y-63300
X185980Y-81000
X188520Y-63300
X188520Y-81000
X191060Y-63300
X191060Y-81000
X193600Y-63300
X193600Y-81000
X196140Y-63300
X196140Y-81000
X198680Y-63300
X198680Y-81000
X201220Y-63300
X201220Y-81000
X203760Y-63300
X203760Y-81000
X206300Y-63300
X206300Y-81000
X208840Y-63300
X208840Y-81000
X211380Y-63300
X211380Y-81000
X213920Y-63300
X213920Y-81000
X216460Y-63300
X216460Y-81000
X219000Y-63300
X219000Y-81000
X221540Y-63300
X221540Y-81000
T0
M30
