%TF.GenerationSoftware,KiCad,Pcbnew,(6.0.1)*%
%TF.CreationDate,2023-01-04T22:15:02+03:00*%
%TF.ProjectId,EspDevBoard,45737044-6576-4426-9f61-72642e6b6963,rev?*%
%TF.SameCoordinates,Original*%
%TF.FileFunction,Copper,L4,Bot*%
%TF.FilePolarity,Positive*%
%FSLAX46Y46*%
G04 Gerber Fmt 4.6, Leading zero omitted, Abs format (unit mm)*
G04 Created by KiCad (PCBNEW (6.0.1)) date 2023-01-04 22:15:02*
%MOMM*%
%LPD*%
G01*
G04 APERTURE LIST*
G04 Aperture macros list*
%AMRoundRect*
0 Rectangle with rounded corners*
0 $1 Rounding radius*
0 $2 $3 $4 $5 $6 $7 $8 $9 X,Y pos of 4 corners*
0 Add a 4 corners polygon primitive as box body*
4,1,4,$2,$3,$4,$5,$6,$7,$8,$9,$2,$3,0*
0 Add four circle primitives for the rounded corners*
1,1,$1+$1,$2,$3*
1,1,$1+$1,$4,$5*
1,1,$1+$1,$6,$7*
1,1,$1+$1,$8,$9*
0 Add four rect primitives between the rounded corners*
20,1,$1+$1,$2,$3,$4,$5,0*
20,1,$1+$1,$4,$5,$6,$7,0*
20,1,$1+$1,$6,$7,$8,$9,0*
20,1,$1+$1,$8,$9,$2,$3,0*%
G04 Aperture macros list end*
%TA.AperFunction,ComponentPad*%
%ADD10RoundRect,0.250000X-0.620000X-0.620000X0.620000X-0.620000X0.620000X0.620000X-0.620000X0.620000X0*%
%TD*%
%TA.AperFunction,ComponentPad*%
%ADD11C,1.740000*%
%TD*%
%TA.AperFunction,ComponentPad*%
%ADD12RoundRect,0.200000X0.200000X0.450000X-0.200000X0.450000X-0.200000X-0.450000X0.200000X-0.450000X0*%
%TD*%
%TA.AperFunction,ComponentPad*%
%ADD13O,0.800000X1.300000*%
%TD*%
%TA.AperFunction,ComponentPad*%
%ADD14RoundRect,0.200000X-0.200000X-0.450000X0.200000X-0.450000X0.200000X0.450000X-0.200000X0.450000X0*%
%TD*%
%TA.AperFunction,SMDPad,CuDef*%
%ADD15RoundRect,0.150000X0.150000X-0.587500X0.150000X0.587500X-0.150000X0.587500X-0.150000X-0.587500X0*%
%TD*%
%TA.AperFunction,SMDPad,CuDef*%
%ADD16RoundRect,0.150000X-0.150000X0.587500X-0.150000X-0.587500X0.150000X-0.587500X0.150000X0.587500X0*%
%TD*%
%TA.AperFunction,SMDPad,CuDef*%
%ADD17RoundRect,0.135000X0.185000X-0.135000X0.185000X0.135000X-0.185000X0.135000X-0.185000X-0.135000X0*%
%TD*%
%TA.AperFunction,SMDPad,CuDef*%
%ADD18RoundRect,0.140000X-0.170000X0.140000X-0.170000X-0.140000X0.170000X-0.140000X0.170000X0.140000X0*%
%TD*%
%TA.AperFunction,SMDPad,CuDef*%
%ADD19RoundRect,0.135000X-0.185000X0.135000X-0.185000X-0.135000X0.185000X-0.135000X0.185000X0.135000X0*%
%TD*%
%TA.AperFunction,ViaPad*%
%ADD20C,0.800000*%
%TD*%
%TA.AperFunction,Conductor*%
%ADD21C,0.250000*%
%TD*%
%TA.AperFunction,Conductor*%
%ADD22C,0.300000*%
%TD*%
%TA.AperFunction,Conductor*%
%ADD23C,0.200000*%
%TD*%
G04 APERTURE END LIST*
D10*
%TO.P,J2,1,Pin_1*%
%TO.N,GND*%
X180900000Y-63300000D03*
D11*
%TO.P,J2,2,Pin_2*%
%TO.N,+3V3*%
X183440000Y-63300000D03*
%TO.P,J2,3,Pin_3*%
%TO.N,/EN*%
X185980000Y-63300000D03*
%TO.P,J2,4,Pin_4*%
%TO.N,/I36*%
X188520000Y-63300000D03*
%TO.P,J2,5,Pin_5*%
%TO.N,/I39*%
X191060000Y-63300000D03*
%TO.P,J2,6,Pin_6*%
%TO.N,/I34*%
X193600000Y-63300000D03*
%TO.P,J2,7,Pin_7*%
%TO.N,/I35*%
X196140000Y-63300000D03*
%TO.P,J2,8,Pin_8*%
%TO.N,/IO32*%
X198680000Y-63300000D03*
%TO.P,J2,9,Pin_9*%
%TO.N,/IO33*%
X201220000Y-63300000D03*
%TO.P,J2,10,Pin_10*%
%TO.N,/IO25*%
X203760000Y-63300000D03*
%TO.P,J2,11,Pin_11*%
%TO.N,/IO26*%
X206300000Y-63300000D03*
%TO.P,J2,12,Pin_12*%
%TO.N,/IO27*%
X208840000Y-63300000D03*
%TO.P,J2,13,Pin_13*%
%TO.N,/IO14*%
X211380000Y-63300000D03*
%TO.P,J2,14,Pin_14*%
%TO.N,/IO12*%
X213920000Y-63300000D03*
%TO.P,J2,15,Pin_15*%
%TO.N,GND*%
X216460000Y-63300000D03*
%TO.P,J2,16,Pin_16*%
%TO.N,/IO13*%
X219000000Y-63300000D03*
%TO.P,J2,17,Pin_17*%
%TO.N,VCC*%
X221540000Y-63300000D03*
%TD*%
D12*
%TO.P,J4,1,Pin_1*%
%TO.N,Net-(C11-Pad1)*%
X185325000Y-77200000D03*
D13*
%TO.P,J4,2,Pin_2*%
%TO.N,+3V3*%
X184075000Y-77200000D03*
%TD*%
D14*
%TO.P,J1,1,Pin_1*%
%TO.N,VBUS*%
X208950000Y-66300000D03*
D13*
%TO.P,J1,2,Pin_2*%
%TO.N,+5V*%
X210200000Y-66300000D03*
%TO.P,J1,3,Pin_3*%
%TO.N,VCC*%
X211450000Y-66300000D03*
%TD*%
D10*
%TO.P,J5,1,Pin_1*%
%TO.N,+3V3*%
X180900000Y-81000000D03*
D11*
%TO.P,J5,2,Pin_2*%
%TO.N,GND*%
X183440000Y-81000000D03*
%TO.P,J5,3,Pin_3*%
%TO.N,/IO23*%
X185980000Y-81000000D03*
%TO.P,J5,4,Pin_4*%
%TO.N,/IO22*%
X188520000Y-81000000D03*
%TO.P,J5,5,Pin_5*%
%TO.N,/TXD0*%
X191060000Y-81000000D03*
%TO.P,J5,6,Pin_6*%
%TO.N,/RXD0*%
X193600000Y-81000000D03*
%TO.P,J5,7,Pin_7*%
%TO.N,/IO21*%
X196140000Y-81000000D03*
%TO.P,J5,8,Pin_8*%
%TO.N,GND*%
X198680000Y-81000000D03*
%TO.P,J5,9,Pin_9*%
%TO.N,/IO19*%
X201220000Y-81000000D03*
%TO.P,J5,10,Pin_10*%
%TO.N,/IO18*%
X203760000Y-81000000D03*
%TO.P,J5,11,Pin_11*%
%TO.N,/IO5*%
X206300000Y-81000000D03*
%TO.P,J5,12,Pin_12*%
%TO.N,/IO17*%
X208840000Y-81000000D03*
%TO.P,J5,13,Pin_13*%
%TO.N,/IO16*%
X211380000Y-81000000D03*
%TO.P,J5,14,Pin_14*%
%TO.N,/IO4*%
X213920000Y-81000000D03*
%TO.P,J5,15,Pin_15*%
%TO.N,/IO0_CON*%
X216460000Y-81000000D03*
%TO.P,J5,16,Pin_16*%
%TO.N,/IO2*%
X219000000Y-81000000D03*
%TO.P,J5,17,Pin_17*%
%TO.N,/IO15*%
X221540000Y-81000000D03*
%TD*%
D15*
%TO.P,Q1,1,G*%
%TO.N,Net-(C11-Pad1)*%
X188750000Y-74737500D03*
%TO.P,Q1,2,S*%
%TO.N,GND*%
X186850000Y-74737500D03*
%TO.P,Q1,3,D*%
%TO.N,/USB_DP*%
X187800000Y-72862500D03*
%TD*%
D16*
%TO.P,Q2,1,G*%
%TO.N,Net-(C11-Pad1)*%
X186850000Y-68925000D03*
%TO.P,Q2,2,S*%
%TO.N,GND*%
X188750000Y-68925000D03*
%TO.P,Q2,3,D*%
%TO.N,/USB_DN*%
X187800000Y-70800000D03*
%TD*%
D17*
%TO.P,R10,1*%
%TO.N,GND*%
X190500000Y-74210000D03*
%TO.P,R10,2*%
%TO.N,Net-(C11-Pad1)*%
X190500000Y-73190000D03*
%TD*%
D18*
%TO.P,C11,1*%
%TO.N,Net-(C11-Pad1)*%
X191600000Y-73220000D03*
%TO.P,C11,2*%
%TO.N,GND*%
X191600000Y-74180000D03*
%TD*%
D19*
%TO.P,R9,1*%
%TO.N,Net-(C11-Pad1)*%
X192700000Y-73190000D03*
%TO.P,R9,2*%
%TO.N,/IO23*%
X192700000Y-74210000D03*
%TD*%
D20*
%TO.N,+3V3*%
X240685000Y-65385000D03*
X207400000Y-73800000D03*
X207400000Y-66700000D03*
X216000000Y-71700000D03*
X200790000Y-67290000D03*
X217900000Y-72700000D03*
X218600000Y-70600000D03*
X219400000Y-72700000D03*
X222600000Y-71900000D03*
X240685000Y-66785000D03*
%TO.N,GND*%
X195100000Y-70600000D03*
X221800000Y-72700000D03*
X236400000Y-70500000D03*
X200500000Y-70600000D03*
X236400000Y-72500000D03*
X186500000Y-65400000D03*
X181400000Y-72500000D03*
X235500000Y-69500000D03*
X214600000Y-65200000D03*
X205875386Y-73800000D03*
X206500000Y-72300000D03*
X183300000Y-78900000D03*
X183375000Y-68325000D03*
X219600000Y-70600000D03*
X233700000Y-73300000D03*
X201700000Y-70600000D03*
X180050000Y-72500000D03*
X208200000Y-70200000D03*
X241955000Y-65355000D03*
X181500000Y-66000000D03*
X202900000Y-70600000D03*
X185200000Y-66200000D03*
X198790000Y-67290000D03*
X182300000Y-79600000D03*
X220600000Y-70600000D03*
X212500000Y-66700000D03*
X233700000Y-71600000D03*
X241955000Y-79155000D03*
X201700000Y-72700000D03*
X233700000Y-69500000D03*
X234600000Y-70500000D03*
X185600000Y-69400000D03*
X217600000Y-70600000D03*
X235500000Y-71700000D03*
X209800000Y-75300000D03*
X200500000Y-72700000D03*
X180800000Y-67100000D03*
X182800000Y-76400000D03*
X202900000Y-72700000D03*
X180800000Y-77300000D03*
X189800000Y-75200000D03*
X190100000Y-68800000D03*
X185600000Y-74100000D03*
X190300000Y-70400000D03*
X185600000Y-75500000D03*
X186750000Y-73350000D03*
X223900000Y-64350000D03*
X214700000Y-71500000D03*
X206200000Y-65400000D03*
X220700000Y-72700000D03*
X194950000Y-73050000D03*
X234600000Y-72400000D03*
X235500000Y-73300000D03*
X232700000Y-72500000D03*
X232700000Y-70500000D03*
%TO.N,Net-(C11-Pad1)*%
X187800000Y-68200000D03*
X191800000Y-70300000D03*
X193600000Y-72800000D03*
%TO.N,/EN*%
X200600000Y-78100000D03*
X204000000Y-69700000D03*
X239415000Y-65315000D03*
X198000000Y-78400000D03*
X212750489Y-72449511D03*
%TO.N,/IO18*%
X215298079Y-76801921D03*
X231795000Y-79205000D03*
%TO.N,/USB_DP*%
X205400000Y-72300000D03*
X186480000Y-72280000D03*
%TO.N,/USB_DN*%
X205400000Y-71300000D03*
X186480000Y-71220000D03*
%TO.N,/I36*%
X238145000Y-65345000D03*
%TO.N,/I39*%
X236875000Y-65375000D03*
%TO.N,/I34*%
X235605000Y-65395000D03*
%TO.N,/I35*%
X234335000Y-65365000D03*
%TO.N,/IO32*%
X233065000Y-65365000D03*
%TO.N,/IO33*%
X231795000Y-65395000D03*
%TO.N,/IO25*%
X230525000Y-65375000D03*
%TO.N,/IO26*%
X229255000Y-65345000D03*
%TO.N,/IO27*%
X227985000Y-65385000D03*
%TO.N,/IO14*%
X226715000Y-65385000D03*
%TO.N,/IO12*%
X225445000Y-65355000D03*
%TO.N,/IO13*%
X222900000Y-64300000D03*
%TO.N,/IO23*%
X240685000Y-79185000D03*
%TO.N,/IO22*%
X239415000Y-79115000D03*
%TO.N,/TXD0*%
X238145000Y-79145000D03*
%TO.N,/RXD0*%
X236875000Y-79175000D03*
%TO.N,/IO21*%
X235605000Y-79205000D03*
%TO.N,/IO19*%
X233065000Y-79235000D03*
%TO.N,/IO5*%
X230525000Y-79275000D03*
%TO.N,/IO17*%
X229255000Y-79245000D03*
%TO.N,/IO16*%
X227985000Y-79215000D03*
%TO.N,/IO4*%
X226715000Y-79215000D03*
%TO.N,/IO2*%
X223200000Y-80300000D03*
%TO.N,/DTR*%
X203850000Y-75450000D03*
X199300000Y-75400000D03*
%TO.N,/IO0*%
X217800000Y-79900000D03*
X225445000Y-79245000D03*
%TO.N,/RXD*%
X192110000Y-77010000D03*
X201900000Y-76400000D03*
%TO.N,/TXD*%
X193900000Y-77000000D03*
X202800000Y-75800000D03*
%TD*%
D21*
%TO.N,GND*%
X186850000Y-74737500D02*
X186362500Y-74737500D01*
X190500000Y-74500000D02*
X189800000Y-75200000D01*
X186362500Y-74737500D02*
X185600000Y-75500000D01*
X191570000Y-74210000D02*
X191600000Y-74180000D01*
X190500000Y-74210000D02*
X191570000Y-74210000D01*
X190500000Y-74210000D02*
X190500000Y-74500000D01*
X189975000Y-68925000D02*
X190100000Y-68800000D01*
X188750000Y-68925000D02*
X189975000Y-68925000D01*
%TO.N,Net-(C11-Pad1)*%
X185325000Y-77200000D02*
X185796072Y-77200000D01*
X187800000Y-68200000D02*
X187575000Y-68200000D01*
X192670000Y-73220000D02*
X192700000Y-73190000D01*
X193210000Y-73190000D02*
X193600000Y-72800000D01*
X191570000Y-73190000D02*
X191600000Y-73220000D01*
X185796072Y-77200000D02*
X188258572Y-74737500D01*
X188952500Y-74737500D02*
X190500000Y-73190000D01*
X192700000Y-73190000D02*
X193210000Y-73190000D01*
X188258572Y-74737500D02*
X188750000Y-74737500D01*
X191600000Y-73220000D02*
X192670000Y-73220000D01*
X187575000Y-68200000D02*
X186850000Y-68925000D01*
X188750000Y-74737500D02*
X188952500Y-74737500D01*
X190500000Y-73190000D02*
X191570000Y-73190000D01*
D22*
%TO.N,/EN*%
X236404654Y-67701773D02*
X234823939Y-67701773D01*
D21*
X198300000Y-78100000D02*
X198000000Y-78400000D01*
D22*
X228651706Y-71099710D02*
X221866688Y-71099710D01*
X237803214Y-66303214D02*
X236404654Y-67701773D01*
X230619285Y-70299039D02*
X229452377Y-70299039D01*
X192380000Y-69700000D02*
X185980000Y-63300000D01*
X234823939Y-67701773D02*
X234313814Y-68211896D01*
X238496786Y-66303214D02*
X237803214Y-66303214D01*
X231566550Y-69351774D02*
X230619285Y-70299039D01*
X233720244Y-68211896D02*
X232580364Y-69351774D01*
X239415000Y-65385000D02*
X238496786Y-66303214D01*
X239415000Y-65315000D02*
X239415000Y-65385000D01*
X229452377Y-70299039D02*
X228651706Y-71099710D01*
X234313814Y-68211896D02*
X233720244Y-68211896D01*
X232580364Y-69351774D02*
X231566550Y-69351774D01*
D21*
X200600000Y-78100000D02*
X198300000Y-78100000D01*
D22*
X204000000Y-69700000D02*
X192380000Y-69700000D01*
X216910939Y-71849031D02*
X216310459Y-72449511D01*
X221117366Y-71849031D02*
X216910939Y-71849031D01*
X216310459Y-72449511D02*
X212750489Y-72449511D01*
X221866688Y-71099710D02*
X221117366Y-71849031D01*
%TO.N,/IO18*%
X214601774Y-77398226D02*
X207361773Y-77398227D01*
X229087411Y-76497411D02*
X215502589Y-76497411D01*
X215502589Y-76497411D02*
X215198079Y-76801921D01*
X207361773Y-77398227D02*
X203760000Y-81000000D01*
X215198079Y-76801921D02*
X214601774Y-77398226D01*
X231795000Y-79205000D02*
X231605000Y-79205000D01*
X231795000Y-79205000D02*
X229087411Y-76497411D01*
D23*
%TO.N,/USB_DP*%
X187217500Y-72280000D02*
X187800000Y-72862500D01*
X188662500Y-72000000D02*
X205100000Y-72000000D01*
X186480000Y-72280000D02*
X187217500Y-72280000D01*
X205100000Y-72000000D02*
X205400000Y-72300000D01*
X187800000Y-72862500D02*
X188662500Y-72000000D01*
%TO.N,/USB_DN*%
X187800000Y-70800000D02*
X188300000Y-71300000D01*
X188300000Y-71300000D02*
X205400000Y-71300000D01*
X187380000Y-71220000D02*
X187800000Y-70800000D01*
X186480000Y-71220000D02*
X187380000Y-71220000D01*
D22*
%TO.N,/I36*%
X194159030Y-68939030D02*
X188520000Y-63300000D01*
X238055000Y-65345000D02*
X236197747Y-67202253D01*
X230412375Y-69799520D02*
X229245472Y-69799520D01*
X221659780Y-70600190D02*
X220910459Y-71349511D01*
X229245472Y-69799520D02*
X228444799Y-70600190D01*
X207036654Y-71655937D02*
X204319748Y-68939031D01*
X238145000Y-65345000D02*
X238055000Y-65345000D01*
X217289541Y-71349511D02*
X216539550Y-70599520D01*
X234106907Y-67712376D02*
X233513336Y-67712376D01*
X233513336Y-67712376D02*
X232373457Y-68852254D01*
X228444799Y-70600190D02*
X221659780Y-70600190D01*
X207329266Y-71948550D02*
X207036654Y-71655937D01*
X234617031Y-67202253D02*
X234106907Y-67712376D01*
X231359642Y-68852254D02*
X230412375Y-69799520D01*
X236197747Y-67202253D02*
X234617031Y-67202253D01*
X232373457Y-68852254D02*
X231359642Y-68852254D01*
X211576196Y-71948550D02*
X207329266Y-71948550D01*
X212051449Y-71948551D02*
X211576196Y-71948550D01*
X216539550Y-70599520D02*
X213400480Y-70599520D01*
X213400480Y-70599520D02*
X212051449Y-71948551D01*
X220910459Y-71349511D02*
X217289541Y-71349511D01*
X204319748Y-68939031D02*
X194159030Y-68939030D01*
%TO.N,/I39*%
X234410123Y-66702733D02*
X233900000Y-67212856D01*
X216999999Y-69808057D02*
X216904028Y-69904028D01*
X204526655Y-68439511D02*
X196199511Y-68439511D01*
X231152734Y-68352734D02*
X230205468Y-69300000D01*
X213132137Y-70100000D02*
X211783105Y-71449031D01*
X217000000Y-69808057D02*
X216904028Y-69904028D01*
X207536174Y-71449030D02*
X204526655Y-68439511D01*
X233306428Y-67212856D02*
X232166550Y-68352734D01*
X196199511Y-68439511D02*
X191060000Y-63300000D01*
X230205468Y-69300000D02*
X229038564Y-69300000D01*
X235547267Y-66702733D02*
X234410123Y-66702733D01*
X228237892Y-70100670D02*
X222187816Y-70100670D01*
X216708057Y-70100000D02*
X213132137Y-70100000D01*
X222187816Y-70100670D02*
X221895203Y-69808057D01*
X232166550Y-68352734D02*
X231152734Y-68352734D01*
X211783105Y-71449031D02*
X207536174Y-71449030D01*
X229038564Y-69300000D02*
X228237892Y-70100670D01*
X233900000Y-67212856D02*
X233306428Y-67212856D01*
X216904028Y-69904028D02*
X216708057Y-70100000D01*
X221895203Y-69808057D02*
X216999999Y-69808057D01*
X236875000Y-65375000D02*
X235547267Y-66702733D01*
%TO.N,/I34*%
X228834538Y-68797598D02*
X228030985Y-69601150D01*
X216791463Y-69308537D02*
X216500000Y-69600000D01*
X228030985Y-69601150D02*
X222394723Y-69601150D01*
X230001442Y-68797598D02*
X228834538Y-68797598D01*
X232013814Y-67799040D02*
X231000000Y-67799040D01*
X231000000Y-67799040D02*
X230001442Y-68797598D01*
X234203214Y-66203214D02*
X233700000Y-66706428D01*
X233693092Y-66699520D02*
X233113336Y-66699520D01*
X222102110Y-69308537D02*
X216791463Y-69308537D01*
X196800000Y-66500000D02*
X193600000Y-63300000D01*
X235605000Y-65395000D02*
X234796786Y-66203214D01*
X233700000Y-66706428D02*
X233693092Y-66699520D01*
X211576198Y-70949511D02*
X207743083Y-70949511D01*
X216412376Y-69512376D02*
X213013333Y-69512376D01*
X213013333Y-69512376D02*
X211576198Y-70949511D01*
X233113336Y-66699520D02*
X232013814Y-67799040D01*
X216500000Y-69600000D02*
X216412376Y-69512376D01*
X207743083Y-70949511D02*
X203293572Y-66500000D01*
X222394723Y-69601150D02*
X222102110Y-69308537D01*
X203293572Y-66500000D02*
X196800000Y-66500000D01*
X234796786Y-66203214D02*
X234203214Y-66203214D01*
%TO.N,/I35*%
X208510459Y-69450489D02*
X207889541Y-69450489D01*
X208949511Y-69889541D02*
X208510459Y-69450489D01*
X216300000Y-69012856D02*
X212806427Y-69012856D01*
X227824078Y-69101630D02*
X222601630Y-69101630D01*
X211369290Y-70449991D02*
X208949991Y-70449991D01*
X228627629Y-68298079D02*
X227824078Y-69101630D01*
X203500000Y-66000000D02*
X198840000Y-66000000D01*
X229721202Y-68298079D02*
X228627629Y-68298079D01*
X212712854Y-69106427D02*
X211369290Y-70449991D01*
X231806907Y-67299520D02*
X230719763Y-67299520D01*
X232906428Y-66200000D02*
X231806907Y-67299520D01*
X206900000Y-69400000D02*
X203500000Y-66000000D01*
X198840000Y-66000000D02*
X196140000Y-63300000D01*
X208949991Y-70449991D02*
X208949511Y-70449511D01*
X207200000Y-69700000D02*
X206700000Y-69200000D01*
X230719763Y-67299520D02*
X229721202Y-68298079D01*
X222601630Y-69032327D02*
X222365463Y-68796160D01*
X207889541Y-69450489D02*
X207640030Y-69700000D01*
X208949511Y-70449511D02*
X208949511Y-69889541D01*
X216516696Y-68796160D02*
X216300000Y-69012856D01*
X233500000Y-66200000D02*
X232906428Y-66200000D01*
X222365463Y-68796160D02*
X216516696Y-68796160D01*
X234335000Y-65365000D02*
X233500000Y-66200000D01*
X222601630Y-69101630D02*
X222601630Y-69032327D01*
X207640030Y-69700000D02*
X207200000Y-69700000D01*
X212806427Y-69012856D02*
X212712854Y-69106427D01*
%TO.N,/IO32*%
X212213334Y-68899520D02*
X211162383Y-69950471D01*
X233065000Y-65365000D02*
X233065000Y-65435000D01*
X229514295Y-67798559D02*
X228420725Y-67798559D01*
X207406428Y-69200000D02*
X203786664Y-65580236D01*
X233065000Y-65365000D02*
X233035000Y-65365000D01*
X203786664Y-65499520D02*
X200879520Y-65499520D01*
X233065000Y-65365000D02*
X232935000Y-65365000D01*
X207682634Y-68950969D02*
X207433603Y-69200000D01*
X208717366Y-68950969D02*
X207682634Y-68950969D01*
X200879520Y-65499520D02*
X198680000Y-63300000D01*
X203786664Y-65580236D02*
X203786664Y-65499520D01*
X233035000Y-65365000D02*
X231600000Y-66800000D01*
X227617171Y-68602110D02*
X222877840Y-68602109D01*
X222877840Y-68602109D02*
X222572371Y-68296640D01*
X228420725Y-67798559D02*
X227617171Y-68602110D01*
X222572371Y-68296640D02*
X216309788Y-68296640D01*
X209449031Y-69682634D02*
X208717366Y-68950969D01*
X216100000Y-68506428D02*
X212606428Y-68506428D01*
X216309788Y-68296640D02*
X216100000Y-68506428D01*
X207433603Y-69200000D02*
X207406428Y-69200000D01*
X212606428Y-68506428D02*
X212213334Y-68899520D01*
X230512856Y-66800000D02*
X229514295Y-67798559D01*
X211162383Y-69950471D02*
X209450471Y-69950471D01*
X209449031Y-69949031D02*
X209449031Y-69682634D01*
X209450471Y-69950471D02*
X209449031Y-69949031D01*
X231600000Y-66800000D02*
X230512856Y-66800000D01*
%TO.N,/IO33*%
X215900000Y-68000000D02*
X215898077Y-67998077D01*
X203993572Y-65000000D02*
X202920000Y-65000000D01*
X215898077Y-67998077D02*
X212408351Y-67998077D01*
X202920000Y-65000000D02*
X201220000Y-63300000D01*
X227410264Y-68102590D02*
X223084747Y-68102589D01*
X231795000Y-65395000D02*
X231795000Y-65405000D01*
X223084747Y-68102589D02*
X222779278Y-67797120D01*
X201900000Y-63300000D02*
X201220000Y-63300000D01*
X207364305Y-68451449D02*
X204306428Y-65393572D01*
X216102880Y-67797120D02*
X215900000Y-68000000D01*
X231000000Y-66300000D02*
X230306428Y-66300000D01*
X209923776Y-69450951D02*
X208924273Y-68451449D01*
X212408351Y-67998077D02*
X212006427Y-68400000D01*
X210955476Y-69450951D02*
X209923776Y-69450951D01*
X231795000Y-65395000D02*
X231705000Y-65395000D01*
X204306428Y-65312857D02*
X204096785Y-65103214D01*
X204306428Y-65393572D02*
X204306428Y-65312857D01*
X228213817Y-67299039D02*
X227410264Y-68102590D01*
X231795000Y-65505000D02*
X231000000Y-66300000D01*
X212006427Y-68400000D02*
X210955476Y-69450951D01*
X230306428Y-66300000D02*
X229307388Y-67299039D01*
X208924273Y-68451449D02*
X207364305Y-68451449D01*
X222779278Y-67797120D02*
X216102880Y-67797120D01*
X231795000Y-65395000D02*
X231795000Y-65505000D01*
X229307388Y-67299039D02*
X228213817Y-67299039D01*
%TO.N,/IO25*%
X210799999Y-68900000D02*
X210100000Y-68900000D01*
X213459273Y-67498557D02*
X212201443Y-67498557D01*
X223291656Y-67603070D02*
X222986186Y-67297600D01*
X207519764Y-67900480D02*
X204809642Y-65190358D01*
X229100481Y-66799519D02*
X228006909Y-66799519D01*
X212201443Y-67498557D02*
X210799999Y-68900000D01*
X228006909Y-66799519D02*
X227203357Y-67603070D01*
X214482611Y-67498559D02*
X213459273Y-67498557D01*
X215601441Y-67498559D02*
X214482611Y-67498559D01*
X204700000Y-65000000D02*
X204700000Y-64240000D01*
X204700000Y-64240000D02*
X203760000Y-63300000D01*
X227203357Y-67603070D02*
X223291656Y-67603070D01*
X209100480Y-67900480D02*
X207519764Y-67900480D01*
X222986186Y-67297600D02*
X215802400Y-67297600D01*
X230525000Y-65375000D02*
X229100481Y-66799519D01*
X215802400Y-67297600D02*
X215601441Y-67498559D01*
X210100000Y-68900000D02*
X209100480Y-67900480D01*
%TO.N,/IO26*%
X226996450Y-67103550D02*
X223498563Y-67103550D01*
X209516428Y-65216428D02*
X208900000Y-64600000D01*
X223498563Y-67103550D02*
X223193093Y-66798080D01*
X208900000Y-64600000D02*
X207600000Y-64600000D01*
X223193093Y-66798080D02*
X215500000Y-66798080D01*
X212800481Y-65562848D02*
X212437153Y-65199520D01*
X215286412Y-66986412D02*
X215273784Y-66999040D01*
X212800481Y-65873307D02*
X212800481Y-65562848D01*
X209533336Y-65199520D02*
X209516428Y-65216428D01*
X207600000Y-64600000D02*
X206300000Y-63300000D01*
X227800000Y-66300000D02*
X226996450Y-67103550D01*
X213926212Y-66999038D02*
X212800481Y-65873307D01*
X212437153Y-65199520D02*
X209533336Y-65199520D01*
X229255000Y-65345000D02*
X228300000Y-66300000D01*
X215273784Y-66999040D02*
X213926212Y-66999038D01*
X228300000Y-66300000D02*
X227800000Y-66300000D01*
X215500000Y-66798080D02*
X215299040Y-66999040D01*
X215299040Y-66999040D02*
X215286412Y-66986412D01*
X229255000Y-65345000D02*
X229084970Y-65345000D01*
%TO.N,/IO27*%
X210240000Y-64700000D02*
X208840000Y-63300000D01*
X214133121Y-66499519D02*
X213300000Y-65666398D01*
X227985000Y-65385000D02*
X227774970Y-65385000D01*
X215267838Y-66298560D02*
X215066877Y-66499520D01*
X223705470Y-66604030D02*
X223400000Y-66298560D01*
X213300000Y-65355939D02*
X212644061Y-64700000D01*
X227985000Y-65385000D02*
X226765970Y-66604030D01*
X223400000Y-66298560D02*
X215267838Y-66298560D01*
X226765970Y-66604030D02*
X223705470Y-66604030D01*
X215066877Y-66499520D02*
X214133121Y-66499519D01*
X213300000Y-65666398D02*
X213300000Y-65355939D01*
X212644061Y-64700000D02*
X210240000Y-64700000D01*
%TO.N,/IO14*%
X211950489Y-63300000D02*
X211380000Y-63300000D01*
X225995489Y-66104511D02*
X224104511Y-66104511D01*
X213850489Y-65200000D02*
X211950489Y-63300000D01*
X214340030Y-66000000D02*
X213850489Y-65510459D01*
X223799040Y-65799040D02*
X215060930Y-65799040D01*
X213850489Y-65510459D02*
X213850489Y-65200000D01*
X224104511Y-66104511D02*
X223799040Y-65799040D01*
X214859970Y-66000000D02*
X214340030Y-66000000D01*
X226715000Y-65385000D02*
X225995489Y-66104511D01*
X215060930Y-65799040D02*
X214859970Y-66000000D01*
%TO.N,/IO12*%
X225389520Y-65299520D02*
X215919520Y-65299520D01*
X215919520Y-65299520D02*
X213920000Y-63300000D01*
X225445000Y-65355000D02*
X225389520Y-65299520D01*
%TO.N,/IO13*%
X222100000Y-64800000D02*
X220500000Y-64800000D01*
X220500000Y-64800000D02*
X219000000Y-63300000D01*
X222600000Y-64300000D02*
X222900000Y-64300000D01*
X222100000Y-64800000D02*
X222600000Y-64300000D01*
%TO.N,/IO23*%
X210900000Y-73000000D02*
X211000000Y-73100000D01*
D21*
X197497886Y-74800000D02*
X198772406Y-73525480D01*
D22*
X208687144Y-73000000D02*
X210900000Y-73000000D01*
X232232136Y-75400000D02*
X230332136Y-73500000D01*
X191990480Y-74809520D02*
X192400000Y-74400000D01*
X236900000Y-75400000D02*
X232232136Y-75400000D01*
X222799706Y-73500294D02*
X213699706Y-73500294D01*
D21*
X193203858Y-74800000D02*
X197497886Y-74800000D01*
D22*
X208637633Y-73049511D02*
X208687144Y-73000000D01*
X187480000Y-79500000D02*
X188900000Y-79500000D01*
X212300000Y-74400000D02*
X211000000Y-73100000D01*
X205074520Y-73525480D02*
X205550489Y-73049511D01*
X198772406Y-73525480D02*
X205074520Y-73525480D01*
X190000000Y-78400000D02*
X190000000Y-76210000D01*
X191400480Y-74809520D02*
X191990480Y-74809520D01*
X190000000Y-76210000D02*
X191400480Y-74809520D01*
X240685000Y-79185000D02*
X236900000Y-75400000D01*
X205550489Y-73049511D02*
X208637633Y-73049511D01*
D21*
X192700000Y-74210000D02*
X192700000Y-74300000D01*
D22*
X230332136Y-73500000D02*
X222800000Y-73500000D01*
X222800000Y-73500000D02*
X222799706Y-73500294D01*
X213699706Y-73500294D02*
X212800000Y-74400000D01*
X185980000Y-81000000D02*
X187480000Y-79500000D01*
D21*
X193201929Y-74801929D02*
X193203858Y-74800000D01*
X192700000Y-74300000D02*
X193201929Y-74801929D01*
D22*
X188900000Y-79500000D02*
X190000000Y-78400000D01*
X212800000Y-74400000D02*
X212300000Y-74400000D01*
%TO.N,/IO22*%
X232226193Y-76100481D02*
X230125519Y-73999811D01*
X210473306Y-73500480D02*
X208893091Y-73500481D01*
D21*
X188520000Y-81000000D02*
X190520000Y-79000000D01*
X204900000Y-74000000D02*
X205800627Y-74900627D01*
X198968958Y-74000000D02*
X204900000Y-74000000D01*
D22*
X230125517Y-73999813D02*
X213980902Y-73999814D01*
D21*
X197692509Y-75276449D02*
X192112509Y-75276449D01*
D22*
X207492945Y-74900627D02*
X205800627Y-74900627D01*
D21*
X190555356Y-76833602D02*
X192112509Y-75276449D01*
X190520000Y-79000000D02*
X190520000Y-76833602D01*
X198968958Y-74000000D02*
X197692509Y-75276449D01*
D22*
X208893091Y-73500481D02*
X207492945Y-74900627D01*
D21*
X190520000Y-76833602D02*
X190555356Y-76833602D01*
D22*
X213080716Y-74900000D02*
X211872826Y-74900000D01*
X211872826Y-74900000D02*
X210473306Y-73500480D01*
X239415000Y-79115000D02*
X236400481Y-76100481D01*
X236400481Y-76100481D02*
X232226193Y-76100481D01*
X213980902Y-73999814D02*
X213080716Y-74900000D01*
X230125519Y-73999811D02*
X230125517Y-73999813D01*
%TO.N,/TXD0*%
X235599040Y-76600960D02*
X232020244Y-76600960D01*
X207699853Y-75400147D02*
X205500147Y-75400147D01*
X191060000Y-77000030D02*
X191060000Y-81000000D01*
X192309061Y-75750969D02*
X191060000Y-77000030D01*
X209100000Y-74000000D02*
X207699853Y-75400147D01*
X204600000Y-74500000D02*
X199140030Y-74500000D01*
X232020244Y-76600960D02*
X229918612Y-74499331D01*
X238145000Y-79145000D02*
X235600000Y-76600000D01*
X211666544Y-75400146D02*
X210266398Y-74000000D01*
X235600000Y-76600000D02*
X235599040Y-76600960D01*
X199140030Y-74500000D02*
X197889061Y-75750969D01*
X205500147Y-75400147D02*
X204600000Y-74500000D01*
X213286998Y-75400146D02*
X211666544Y-75400146D01*
X214187811Y-74499333D02*
X213286998Y-75400146D01*
X197889061Y-75750969D02*
X192309061Y-75750969D01*
X229918612Y-74499331D02*
X214187811Y-74499333D01*
X210266398Y-74000000D02*
X209100000Y-74000000D01*
%TO.N,/RXD0*%
X234700480Y-77100480D02*
X236775000Y-79175000D01*
X204907479Y-75899666D02*
X205699666Y-75899666D01*
X201607144Y-79200000D02*
X204907479Y-75899666D01*
X208100333Y-75899667D02*
X209449511Y-74550489D01*
X236775000Y-79175000D02*
X236875000Y-79175000D01*
X193600000Y-81000000D02*
X195400000Y-79200000D01*
X195400000Y-79200000D02*
X201607144Y-79200000D01*
X211459636Y-75899666D02*
X213493906Y-75899666D01*
X229711705Y-74998851D02*
X231813336Y-77100480D01*
X210110459Y-74550489D02*
X211459636Y-75899666D01*
X205699666Y-75899666D02*
X205699668Y-75899668D01*
X209449511Y-74550489D02*
X210110459Y-74550489D01*
X205699668Y-75899668D02*
X208100333Y-75899667D01*
X213493906Y-75899666D02*
X214394720Y-74998852D01*
X231813336Y-77100480D02*
X234700480Y-77100480D01*
X214394720Y-74998852D02*
X229711705Y-74998851D01*
%TO.N,/IO21*%
X197400000Y-79740000D02*
X201773572Y-79740000D01*
X214601629Y-75498371D02*
X229504798Y-75498371D01*
X231606428Y-77600000D02*
X234000000Y-77600000D01*
X229504798Y-75498371D02*
X231606428Y-77600000D01*
X196140000Y-81000000D02*
X197400000Y-79740000D01*
X213700814Y-76399186D02*
X214601629Y-75498371D01*
X205114386Y-76399186D02*
X213700814Y-76399186D01*
X234000000Y-77600000D02*
X235605000Y-79205000D01*
X201773572Y-79740000D02*
X205114386Y-76399186D01*
%TO.N,/IO19*%
X232030000Y-78200000D02*
X231500000Y-78200000D01*
X233065000Y-79235000D02*
X232030000Y-78200000D01*
X214902109Y-75997891D02*
X214001294Y-76898706D01*
X229297891Y-75997891D02*
X214902109Y-75997891D01*
X214001294Y-76898706D02*
X205321292Y-76898708D01*
X205321292Y-76898708D02*
X201220000Y-81000000D01*
X231500000Y-78200000D02*
X229297891Y-75997891D01*
%TO.N,/IO5*%
X230375000Y-79275000D02*
X230525000Y-79275000D01*
X209402253Y-77897747D02*
X215782970Y-77897746D01*
X206300000Y-81000000D02*
X209402253Y-77897747D01*
X228096931Y-76996931D02*
X230375000Y-79275000D01*
X216683786Y-76996931D02*
X228096931Y-76996931D01*
X215782970Y-77897746D02*
X216683786Y-76996931D01*
%TO.N,/IO17*%
X229255000Y-79245000D02*
X229145000Y-79245000D01*
X215989878Y-78397266D02*
X211442734Y-78397266D01*
X216890693Y-77496451D02*
X215989878Y-78397266D01*
X229145000Y-79245000D02*
X227396450Y-77496450D01*
X211442734Y-78397266D02*
X208840000Y-81000000D01*
X227396450Y-77496450D02*
X216890693Y-77496451D01*
%TO.N,/IO16*%
X211380000Y-80520000D02*
X211380000Y-81000000D01*
X226765970Y-77995970D02*
X217097602Y-77995970D01*
X227985000Y-79215000D02*
X226765970Y-77995970D01*
X213483214Y-78896786D02*
X211380000Y-81000000D01*
X217097602Y-77995970D02*
X216196786Y-78896786D01*
X216196786Y-78896786D02*
X213483214Y-78896786D01*
%TO.N,/IO4*%
X215400000Y-79500000D02*
X215400000Y-79520000D01*
X214300000Y-81000000D02*
X213920000Y-81000000D01*
X217304511Y-78495489D02*
X216300000Y-79500000D01*
X215400000Y-79520000D02*
X213920000Y-81000000D01*
X216300000Y-79500000D02*
X215400000Y-79500000D01*
X225995489Y-78495489D02*
X217304511Y-78495489D01*
X226715000Y-79215000D02*
X225995489Y-78495489D01*
%TO.N,/IO2*%
X220400000Y-79600000D02*
X219000000Y-81000000D01*
X222500000Y-79600000D02*
X220400000Y-79600000D01*
X223200000Y-80300000D02*
X222500000Y-79600000D01*
D21*
%TO.N,/DTR*%
X199300000Y-75400000D02*
X199624511Y-75075489D01*
X199624511Y-75075489D02*
X203475489Y-75075489D01*
X203475489Y-75075489D02*
X203850000Y-75450000D01*
X203850000Y-75450000D02*
X203900000Y-75500000D01*
D22*
%TO.N,/IO0*%
X225445000Y-79245000D02*
X225300481Y-79100481D01*
X225300481Y-79100481D02*
X218599519Y-79100481D01*
X218599519Y-79100481D02*
X217800000Y-79900000D01*
%TO.N,/RXD*%
X200949511Y-76250489D02*
X201099022Y-76400000D01*
X192110000Y-77010000D02*
X192869511Y-76250489D01*
X192869511Y-76250489D02*
X200949511Y-76250489D01*
X201099022Y-76400000D02*
X201900000Y-76400000D01*
D21*
%TO.N,/TXD*%
X202300000Y-77300000D02*
X194200000Y-77300000D01*
X202800000Y-75800000D02*
X202800000Y-76800000D01*
X194200000Y-77300000D02*
X193900000Y-77000000D01*
D22*
X202800000Y-76000000D02*
X202800000Y-75800000D01*
D21*
X202800000Y-76800000D02*
X202300000Y-77300000D01*
%TD*%
M02*
